<svg id="Layer_1" data-name="Layer 1" xmlns="http://www.w3.org/2000/svg" viewBox="0 0 90.81 83.19"><defs><style>.cls-1{fill:#1992ff;}.cls-2{fill:#3bc437;}.cls-3{fill:#3aa341;}.cls-4,.cls-5,.cls-6,.cls-7{fill:#f7f5f5;}.cls-4{opacity:0.12;}.cls-5{opacity:0.31;}.cls-6{opacity:0.34;}.cls-7{opacity:0.45;}.cls-8{fill:#daff00;opacity:0.69;}.cls-9{fill:none;stroke:#070501;}.cls-11,.cls-12,.cls-9{stroke-miterlimit:10;}.cls-10,.cls-13,.cls-17{fill:#fff;}.cls-11,.cls-12{fill:#0f1f2a;stroke:#0f1f2a;}.cls-11{opacity:0.51;}.cls-13{font-size:16.24px;}.cls-13,.cls-17{font-family:Futura-Bold, Futura;font-weight:700;}.cls-14{letter-spacing:0.01em;}.cls-15{letter-spacing:0em;}.cls-16{fill:#f4912d;}.cls-17{font-size:13.54px;}</style></defs><title>favicon2</title><ellipse class="cls-1" cx="42.87" cy="43.44" rx="39.35" ry="39.75"/><path class="cls-2" d="M31.63,17.78s3.53.9,3.53.36,0-.89.53-.89-.17-1.07.71-.71a1.79,1.79,0,0,1,2.29,0s-.35-.89,0-.89,1.41-.72,1.41-.18c0,0-.52.18-.35.35s1.41-.53,1.41-.53a6.43,6.43,0,0,1,2.3.36,2.63,2.63,0,0,1-.36.53c-.17.18.71.71.36,2.14a2.5,2.5,0,0,1,3.17,1.78s0,.89,1.24.89.35-.18,1.41.72c0,0,.71.17.88,0s1.41-1.79,3.36.53c0,0-1.59,3-2.3,2.32s-2.47,1.25-2.47,1.6.53-.18.53.18-.53,1.07,0,1.25,2.82,2.14,3.35,2.14c0,0,.53,5,1.06.53,0,0,2.12-.36.88-2.49a2.27,2.27,0,0,0,.36-2c-.36-1.07,3.53,1.06,2.82,2,0,0,.53,2.31,1.24,0,0,0,.88.35,1.58,2.49,0,0,2.47.71,2.47,1.78s-.52,1.07-.88,1.07-.35,1.07-1.76.54-3.18.53-3,1.42c0,0,1.94-1.6,2.29-.35,0,0-.35.71-.7.35s1.94,2.86,2.47.72c0,0,.88.71-1.24,1.6,0,0-3.18,1.61-.53-.53,0,0-3.7-.18-2.82,2.14,0,0-1.24-.36-1.59,0s.53.35.53.35S54,39.71,54.22,41s-.7-1.07-.7-1.07a3.93,3.93,0,0,0,.35,2.67S48.75,43.81,50,46.3c0,0,.7,2.14-.53,2.5s-1.06-3.57-1.06-3.57l-3.35-1.07s-.71.72-.36.9c0,0-2.82-2-3.53-1.07,0,0-2.29.17-1.41,1.6a3.73,3.73,0,0,0-1.23,4.63c1.23,3,4,.54,4.23,0s2.3,0,2.3,0-1.59,3.57-2.12,3.57,3.88.53,3.53,1.6-.89.72-1.06,2.5c0,0,.7,1.78,1.59,2.14,0,0,1.23-1.43,2.47.53,0,0,.88.54,1.23-.71s2.83-.54,3-1.43c0,0,.53,0-.17.89s-.18,1.43-.18,1.43.35.18.53-1.25c0,0,.7.18.7-.53,0,0,.89-.36,1.06.89,0,0,1.77,0,2.12.36s2.12-.36,2.47.17-.7.18-.7.18,2.82,2,2.82,2.85,4.76-.89,3.17,3.75c0,0,.53-1.43.71-.72a1.78,1.78,0,0,1-.53,1.43h1.06a1.11,1.11,0,0,1-.88,1.07s.7.36,1.23-.71c0,0,1.77-.18,1.59.71,0,0,2.47.53,2.65.18s.7,1.25,1.76,1.25c0,0,1.24,1.6-3,4.81,0,0-2.11,5.17-5.47,5.52s-2.47,2.86-3.7,2.86-2.83,2.49-6.18,1.78c0,0,1.06.36-.18,1.25a3.4,3.4,0,0,1-2.82.35s-.53.54-1.76.18c0,0,.35,1.25-1.94,1.07,0,0-.71.54.17.54s-1.41,1.06-1.76.71-.18.53-.18.53l.88.18s-3.7,1.25-3.35-1.6c0,0,2.12-2.14,2.12-2.68s1.94-1.07,1.94-2.31c0,0,3.35-5.17,2.65-5.89s-4.06-2.49-3.71-4.27-1.76-3.93-1.76-3.93-.53-1.06,1.05-1.78c0,0-2.11-1.07,2.65-4.1,0,0,.88-2.31.18-2.31,0,0-.18-2-1.59-.54,0,0-.88.54-3.53-2.67,0,0,1.06-1.43-2.29-2.85a3.6,3.6,0,0,1-2.3-2.68s-.17,2.32-6.17-4.63c0,0,1.58-1.07-.36-4.46,0,0-.35-3.74-.35-4.45s-1.24-.72-.53,4.27A2.25,2.25,0,0,0,32,44.7c.35.71-.89.71-1.24-3.39,0,0,.18-4.28.35-4.63s-1.76-.72.36-5c0,0,3.17-3.92,3.53-4.28s-.53-1.07,0-2c0,0,.35-.18.35.18s.35-1.07.53-1.43-.53-.18-.53,0-.53.36.53-1.07,2.12-2.49,1.41-4.28c0,0-1.76.36-1.41,0a2.76,2.76,0,0,1,1.06-.53s-.53-.54-1.59.36C35.34,18.68,31.63,18.68,31.63,17.78Z" transform="translate(-5.88 -7.68)"/><path class="cls-2" d="M47.41,28.16s.67-.11.67-.23.67-.11.67.23,0,.57.22.57.9.11.9.11a3.33,3.33,0,0,0-.45.68c0,.11.23.34.23.34s0,.34-.34,0c0,0-.11.11.11.22s-.33.12-.45-.11-.67-.23-.89-.23-.56-.56-.56-.68.45,0,.56.12,0-.23-.34-.34.56-.34.56-.34S47.07,28.84,47.41,28.16Z" transform="translate(-5.88 -7.68)"/><path class="cls-2" d="M49,27.71s.9-.23.9,0-.22.11-.22.11.11.68.44.34.12.11.12.11l.11.12a.23.23,0,0,1-.34.22C49.65,28.5,49,28.39,49,27.71Z" transform="translate(-5.88 -7.68)"/><path class="cls-2" d="M52.45,27.59s1.79-.11,1.67.23a2.51,2.51,0,0,1-.67.79s-.22,1-1.34.12l.22-.34s-.89-.34-.56-.57a.42.42,0,0,1,.56,0Z" transform="translate(-5.88 -7.68)"/><path class="cls-2" d="M54,20.1s-1.76.54-1.23,1.25,1.42.37.18,1.79-.36,2.13-.36,2.13l.53-.36.88.36-.7-1.07,1.06-.71s.53-1.43-.18-1.43c0,0,1.41-.35,1.41.54s1.41.71.71,1.42a2,2,0,0,1-1.24.72s-.17.35,3.71,2.13c0,0-.35-1.06-.71-1.06s2.47.89-.17-1.43c0,0,1.23,1.6,1.59.18,0,0-1.77-3.21-4.24-3.21H55.1s-.88-1.07.89,0A2.17,2.17,0,0,0,54,20.1Z" transform="translate(-5.88 -7.68)"/><path class="cls-3" d="M58.46,17.25s1.58-.18,1.58.18.89,0,.89,0,3.7,2,4.23,3.56c0,0,2.3,1.61,1.59,2l-1.06.54s.53,1.25-.53,1.6a19.18,19.18,0,0,0,.53,2.85c.18.18-.18,0-.18,0s-3-.35-4.23-4.1c0,0,1.06-1.07-1.06-1.6,0,0-.53-2.32-1.76-2.14s-2.3-.71-1.59-1.25.7-.35.7-.35v-.89S58.46,17.78,58.46,17.25Z" transform="translate(-5.88 -7.68)"/><path class="cls-2" d="M50.21,29.18v-.12h.56s0,.57-.23.57h-.33s-.45-.34-.34-.45S50.21,29.29,50.21,29.18Z" transform="translate(-5.88 -7.68)"/><path class="cls-2" d="M50.54,28.39a.56.56,0,0,0,.45,0c.22-.12.11.34,0,.45S50.32,28.5,50.54,28.39Z" transform="translate(-5.88 -7.68)"/><path class="cls-2" d="M50.88,29.63a.11.11,0,0,0,.11-.11c0-.12.45.11.56-.12,0,0-.45-.11-.45-.22s-.56.68-.56.68S50.88,30.2,50.88,29.63Z" transform="translate(-5.88 -7.68)"/><path class="cls-2" d="M51.1,27.71s.23.22.23.34S50.65,28.16,51.1,27.71Z" transform="translate(-5.88 -7.68)"/><path class="cls-2" d="M51.33,28.5s.56.34.56,0c0,0,.22.11,0,.56,0,0,.78-.11.89.12s-.11.34-1,0S51.33,28.5,51.33,28.5Z" transform="translate(-5.88 -7.68)"/><path class="cls-2" d="M62.57,33.06l-.76,2a3.46,3.46,0,0,1,1.41.54c.35.35.18.53.18.53s1.06-.71,1.06-.35.17-1.61-1.24-2C63.22,33.83,63.51,33,62.57,33.06Z" transform="translate(-5.88 -7.68)"/><path class="cls-2" d="M46.81,50.4s2.82,0,4.06,2c0,0-.71.89,1.41.54A4.46,4.46,0,0,0,46.81,50.4Z" transform="translate(-5.88 -7.68)"/><path class="cls-2" d="M53.52,53.61l.35.71L52.63,54s0,.71,3.53.71A1.88,1.88,0,0,0,53.52,53.61Z" transform="translate(-5.88 -7.68)"/><path class="cls-2" d="M57,55.22,58.46,55S57,54,57,55.22Z" transform="translate(-5.88 -7.68)"/><path class="cls-2" d="M50.34,53.79l.71.89S51.93,53.61,50.34,53.79Z" transform="translate(-5.88 -7.68)"/><path class="cls-3" d="M36.64,13.37s1.78-.68,2-.5-1.77.51,1.93.93c0,0-.9.7-1.25.69s0,1.43,5.33-2c0,0,2.47.05,2.48-.48l3-.3s-.53.17,3.7.42a28.24,28.24,0,0,0,4,1.33c.71,0-.87-.55-.87-.55l3.69.6L65,15.34a30.94,30.94,0,0,1,3.84,2.21c.52.55-.72.7-.72.7s2.42,3.08,3.82,3.64,1.89,2.89,2.93,3.44.72-.7.55-.7,1.22.92,1.22.92l-.54.34,1.74,1.28s0,2.85-2.46-.76c0,0-2.8-.94.5,1.8,0,0-1.25.68.83,2.86,0,0,.71-.16-.14-2.14,0,0,1.71,3.24,2.26,1.83,0,0-1.42.68,1.72,2.7,0,0,1.22.56-.57,2.13,0,0,.63,3.94,2.22,4s-.24,3,.79,5-1.05-.55-.65,6,.36,9.46,2.28,10.39a5.59,5.59,0,0,0,2.54-3.52c.75-2.66,1.14-13.71-1.23-19.28,0,0-.19.89-1.39-1.45s-.77,3.55-.77,3.55S82.46,36,82.1,36.52a2.6,2.6,0,0,0-.3-2.68s.55-1.23.2-1.6,1,1.45,1.19,2.7.55-1.41.55-1.41-4.56-11-13.64-16C70.1,17.58,54.94,7.13,36.64,13.37Z" transform="translate(-5.88 -7.68)"/><path class="cls-4" d="M67.31,76a6.15,6.15,0,0,0,3-2.16c1-1.56,5.85-3.95,5.85-3.95s2.54-1.06.5,1.1c0,0-.86.89-1.18.56s-1.59.69-2.14,1.24a4.31,4.31,0,0,1-1.87.78s.89.89,4.4-1.53,4.89-3.59,6-3.69-.14,1.08-1.13,1.36-2,1.64.27.6.56,1.21-5.46,3.37-8.17,3.4-9.58,4.5S55.68,82.94,57.83,81,62.12,78.92,67.31,76Z" transform="translate(-5.88 -7.68)"/><path class="cls-5" d="M46.18,71.72c5.17-.31,8.53-1.43,7.17.86s-11.49,1.57-12,3.52-3.12-.46-11.08,2.57-13.18-1.34-2.11-3.28S23,78.21,26.45,77.73s3.07-2.09,8.34-3S32.26,72.57,46.18,71.72Z" transform="translate(-5.88 -7.68)"/><path class="cls-6" d="M41.06,89.63c-1.93.12,10.26-1.21,11.27-2.67s5.89-1.34,8.88-2.75,9.67-.52,12.93-2.8c0,0,1.79,2.06-16,6.11S55.6,88.72,41.06,89.63Z" transform="translate(-5.88 -7.68)"/><path class="cls-7" d="M49.88,28.9c-1.39,0,.68.64,1.95.14S51.26,28.94,49.88,28.9Z" transform="translate(-5.88 -7.68)"/><path class="cls-7" d="M48.18,28.35a7.81,7.81,0,0,1,2.87,0c0,.14-2.32,0-2.32.23S47.63,28.6,48.18,28.35Z" transform="translate(-5.88 -7.68)"/><path class="cls-7" d="M52,28.39c-1.44.13,1.6-1,2.14-.31S53.45,28.26,52,28.39Z" transform="translate(-5.88 -7.68)"/><path class="cls-7" d="M52.34,29.55a3.42,3.42,0,0,1,2.09,0c0,.17-1.68,0-1.68.28S51.94,29.86,52.34,29.55Z" transform="translate(-5.88 -7.68)"/><path class="cls-7" d="M53.35,30.7c-1.72,0,.84.49,2.42.11S55.07,30.73,53.35,30.7Z" transform="translate(-5.88 -7.68)"/><path class="cls-7" d="M51.24,30.27a15.5,15.5,0,0,1,3.56,0c0,.11-2.88,0-2.88.18S50.55,30.47,51.24,30.27Z" transform="translate(-5.88 -7.68)"/><path class="cls-7" d="M56,30.3c-1.78.1,2-.75,2.66-.24S57.78,30.2,56,30.3Z" transform="translate(-5.88 -7.68)"/><path class="cls-7" d="M60.82,22.92a10.84,10.84,0,0,1,4.08,0c0,.21-3.3,0-3.3.34S60,23.3,60.82,22.92Z" transform="translate(-5.88 -7.68)"/><path class="cls-7" d="M46.57,81.19c-2.09.64,1.16.12,3-.85S48.65,80.55,46.57,81.19Z" transform="translate(-5.88 -7.68)"/><path class="cls-7" d="M43.89,81.62a26.38,26.38,0,0,1,4.31-1.39c0,.1-3.48,1.14-3.43,1.29S43.12,82.07,43.89,81.62Z" transform="translate(-5.88 -7.68)"/><path class="cls-7" d="M49.66,79.79c-2.12.79,2.19-1.47,3.16-1.26S51.78,79,49.66,79.79Z" transform="translate(-5.88 -7.68)"/><path class="cls-7" d="M50.41,80.45a11.53,11.53,0,0,1,3.14-1c0,.12-2.53.83-2.47,1S49.88,80.86,50.41,80.45Z" transform="translate(-5.88 -7.68)"/><path class="cls-7" d="M52.18,80.78c-2.59.81,1.38-.07,3.67-1.1S54.76,80,52.18,80.78Z" transform="translate(-5.88 -7.68)"/><path class="cls-7" d="M48.91,81.5a55.4,55.4,0,0,1,5.35-1.73c0,.08-4.31,1.41-4.28,1.52S47.93,82,48.91,81.5Z" transform="translate(-5.88 -7.68)"/><path class="cls-7" d="M56.07,79.21c-2.65.94,2.81-1.49,4-1.45S58.72,78.28,56.07,79.21Z" transform="translate(-5.88 -7.68)"/><path class="cls-7" d="M56.88,79.64a23.8,23.8,0,0,1,3.89-1.25c0,.09-3.14,1-3.09,1.17S56.19,80.06,56.88,79.64Z" transform="translate(-5.88 -7.68)"/><path class="cls-8" d="M39.64,20.58l2,0L41.14,22a5.65,5.65,0,0,1,.51-.39,4.11,4.11,0,0,1,.66-.37L43.1,23a2.27,2.27,0,0,0,.13-.84c0-.62-.28-1-.21-1.08s.35.18,1.33,1.37c-.18-.46-.38-.94-.61-1.43-.12-.26-.23-.5-.35-.74l1.67-.49a3.39,3.39,0,0,0-.79-.23,3.33,3.33,0,0,0-1,0c.06-.13.14-.32.23-.56.16-.42.37-1,.29-1.07s-.36.16-1.29,1.34a7.11,7.11,0,0,1-1-1.82c0-.14-.1-.33-.13-.32a14.21,14.21,0,0,0,.29,2.11c-1.19-.39-1.79-.54-1.81-.46s.31.27,1,.61l.53.34h0Z" transform="translate(-5.88 -7.68)"/><line class="cls-9" x1="36.31" y1="14.93" x2="36.31" y2="18.76"/><path class="cls-10" d="M38.79,21.93l2.61-1-.07,2.11a6.5,6.5,0,0,1,.48-.73,7.87,7.87,0,0,1,.68-.77l1.8,1.91a3.09,3.09,0,0,0-.21-1.15c-.3-.77-.81-1.17-.74-1.28s.53.06,2.3,1.16c-.42-.51-.89-1-1.41-1.57l-.77-.78,1.93-1.39a5,5,0,0,0-1.12.06,4.61,4.61,0,0,0-1.27.41c0-.2,0-.48,0-.82,0-.61,0-1.45-.11-1.51s-.39.36-1.06,2.3a9.38,9.38,0,0,1-2-1.91c-.13-.16-.28-.37-.32-.36a19.26,19.26,0,0,0,1.31,2.59c-1.7,0-2.55.11-2.53.23s.51.2,1.51.34l.83.2h0Z" transform="translate(-5.88 -7.68)"/><path class="cls-8" d="M72.4,16.22l1.47.4-.69.91a3.68,3.68,0,0,1,.44-.17,5.18,5.18,0,0,1,.54-.13l.21,1.42a1.52,1.52,0,0,0,.26-.57c.11-.45,0-.78.07-.81s.22.2.67,1.25c0-.37-.08-.75-.14-1.15,0-.2-.07-.4-.1-.59h1.29a3.36,3.36,0,0,0-.52-.33,2.55,2.55,0,0,0-.69-.22c.07-.08.17-.2.28-.35s.46-.63.42-.7-.29,0-1.19.69a5.2,5.2,0,0,1-.3-1.49c0-.11,0-.26,0-.26a9.65,9.65,0,0,0-.22,1.56c-.77-.52-1.17-.76-1.2-.7s.16.26.56.63l.31.36h0Z" transform="translate(-5.88 -7.68)"/><path class="cls-10" d="M71.52,17l2-.16-.47,1.48a5.55,5.55,0,0,1,.49-.42,3.89,3.89,0,0,1,.64-.4l.89,1.73a2.18,2.18,0,0,0,.08-.86c0-.62-.33-1-.26-1.07s.36.16,1.4,1.3c-.2-.45-.43-.92-.68-1.4-.13-.25-.27-.49-.4-.72l1.66-.59a3.51,3.51,0,0,0-1.8-.16,5.07,5.07,0,0,0,.2-.57c.14-.43.33-1,.23-1.1s-.34.18-1.22,1.42a7.11,7.11,0,0,1-1-1.77,1.36,1.36,0,0,0-.15-.32,13.55,13.55,0,0,0,.41,2.1c-1.22-.33-1.84-.45-1.85-.36s.32.26,1,.56l.55.31h0Z" transform="translate(-5.88 -7.68)"/><ellipse class="cls-1" cx="42.87" cy="43.44" rx="39.35" ry="39.75"/><path class="cls-2" d="M31.63,17.78s3.53.9,3.53.36,0-.89.53-.89-.17-1.07.71-.71a1.79,1.79,0,0,1,2.29,0s-.35-.89,0-.89,1.41-.72,1.41-.18c0,0-.52.18-.35.35s1.41-.53,1.41-.53a6.43,6.43,0,0,1,2.3.36,2.63,2.63,0,0,1-.36.53c-.17.18.71.71.36,2.14a2.5,2.5,0,0,1,3.17,1.78s0,.89,1.24.89.35-.18,1.41.72c0,0,.71.17.88,0s1.41-1.79,3.36.53c0,0-1.59,3-2.3,2.32s-2.47,1.25-2.47,1.6.53-.18.53.18-.53,1.07,0,1.25,2.82,2.14,3.35,2.14c0,0,.53,5,1.06.53,0,0,2.12-.36.88-2.49a2.27,2.27,0,0,0,.36-2c-.36-1.07,3.53,1.06,2.82,2,0,0,.53,2.31,1.24,0,0,0,.88.35,1.58,2.49,0,0,2.47.71,2.47,1.78s-.52,1.07-.88,1.07-.35,1.07-1.76.54-3.18.53-3,1.42c0,0,1.94-1.6,2.29-.35,0,0-.35.71-.7.35s1.94,2.86,2.47.72c0,0,.88.71-1.24,1.6,0,0-3.18,1.61-.53-.53,0,0-3.7-.18-2.82,2.14,0,0-1.24-.36-1.59,0s.53.35.53.35S54,39.71,54.22,41s-.7-1.07-.7-1.07a3.93,3.93,0,0,0,.35,2.67S48.75,43.81,50,46.3c0,0,.7,2.14-.53,2.5s-1.06-3.57-1.06-3.57l-3.35-1.07s-.71.72-.36.9c0,0-2.82-2-3.53-1.07,0,0-2.29.17-1.41,1.6a3.73,3.73,0,0,0-1.23,4.63c1.23,3,4,.54,4.23,0s2.3,0,2.3,0-1.59,3.57-2.12,3.57,3.88.53,3.53,1.6-.89.72-1.06,2.5c0,0,.7,1.78,1.59,2.14,0,0,1.23-1.43,2.47.53,0,0,.88.54,1.23-.71s2.83-.54,3-1.43c0,0,.53,0-.17.89s-.18,1.43-.18,1.43.35.18.53-1.25c0,0,.7.18.7-.53,0,0,.89-.36,1.06.89,0,0,1.77,0,2.12.36s2.12-.36,2.47.17-.7.18-.7.18,2.82,2,2.82,2.85,4.76-.89,3.17,3.75c0,0,.53-1.43.71-.72a1.78,1.78,0,0,1-.53,1.43h1.06a1.11,1.11,0,0,1-.88,1.07s.7.36,1.23-.71c0,0,1.77-.18,1.59.71,0,0,2.47.53,2.65.18s.7,1.25,1.76,1.25c0,0,1.24,1.6-3,4.81,0,0-2.11,5.17-5.47,5.52s-2.47,2.86-3.7,2.86-2.83,2.49-6.18,1.78c0,0,1.06.36-.18,1.25a3.4,3.4,0,0,1-2.82.35s-.53.54-1.76.18c0,0,.35,1.25-1.94,1.07,0,0-.71.54.17.54s-1.41,1.06-1.76.71-.18.53-.18.53l.88.18s-3.7,1.25-3.35-1.6c0,0,2.12-2.14,2.12-2.68s1.94-1.07,1.94-2.31c0,0,3.35-5.17,2.65-5.89s-4.06-2.49-3.71-4.27-1.76-3.93-1.76-3.93-.53-1.06,1.05-1.78c0,0-2.11-1.07,2.65-4.1,0,0,.88-2.31.18-2.31,0,0-.18-2-1.59-.54,0,0-.88.54-3.53-2.67,0,0,1.06-1.43-2.29-2.85a3.6,3.6,0,0,1-2.3-2.68s-.17,2.32-6.17-4.63c0,0,1.58-1.07-.36-4.46,0,0-.35-3.74-.35-4.45s-1.24-.72-.53,4.27A2.25,2.25,0,0,0,32,44.7c.35.71-.89.71-1.24-3.39,0,0,.18-4.28.35-4.63s-1.76-.72.36-5c0,0,3.17-3.92,3.53-4.28s-.53-1.07,0-2c0,0,.35-.18.35.18s.35-1.07.53-1.43-.53-.18-.53,0-.53.36.53-1.07,2.12-2.49,1.41-4.28c0,0-1.76.36-1.41,0a2.76,2.76,0,0,1,1.06-.53s-.53-.54-1.59.36C35.34,18.68,31.63,18.68,31.63,17.78Z" transform="translate(-5.88 -7.68)"/><path class="cls-2" d="M47.41,28.16s.67-.11.67-.23.67-.11.67.23,0,.57.22.57.9.11.9.11a3.33,3.33,0,0,0-.45.68c0,.11.23.34.23.34s0,.34-.34,0c0,0-.11.11.11.22s-.33.12-.45-.11-.67-.23-.89-.23-.56-.56-.56-.68.45,0,.56.12,0-.23-.34-.34.56-.34.56-.34S47.07,28.84,47.41,28.16Z" transform="translate(-5.88 -7.68)"/><path class="cls-2" d="M49,27.71s.9-.23.9,0-.22.11-.22.11.11.68.44.34.12.11.12.11l.11.12a.23.23,0,0,1-.34.22C49.65,28.5,49,28.39,49,27.71Z" transform="translate(-5.88 -7.68)"/><path class="cls-2" d="M52.45,27.59s1.79-.11,1.67.23a2.51,2.51,0,0,1-.67.79s-.22,1-1.34.12l.22-.34s-.89-.34-.56-.57a.42.42,0,0,1,.56,0Z" transform="translate(-5.88 -7.68)"/><path class="cls-2" d="M54,20.1s-1.76.54-1.23,1.25,1.42.37.18,1.79-.36,2.13-.36,2.13l.53-.36.88.36-.7-1.07,1.06-.71s.53-1.43-.18-1.43c0,0,1.41-.35,1.41.54s1.41.71.71,1.42a2,2,0,0,1-1.24.72s-.17.35,3.71,2.13c0,0-.35-1.06-.71-1.06s2.47.89-.17-1.43c0,0,1.23,1.6,1.59.18,0,0-1.77-3.21-4.24-3.21H55.1s-.88-1.07.89,0A2.17,2.17,0,0,0,54,20.1Z" transform="translate(-5.88 -7.68)"/><path class="cls-3" d="M58.46,17.25s1.58-.18,1.58.18.89,0,.89,0,3.7,2,4.23,3.56c0,0,2.3,1.61,1.59,2l-1.06.54s.53,1.25-.53,1.6a19.18,19.18,0,0,0,.53,2.85c.18.18-.18,0-.18,0s-3-.35-4.23-4.1c0,0,1.06-1.07-1.06-1.6,0,0-.53-2.32-1.76-2.14s-2.3-.71-1.59-1.25.7-.35.7-.35v-.89S58.46,17.78,58.46,17.25Z" transform="translate(-5.88 -7.68)"/><path class="cls-2" d="M50.21,29.18v-.12h.56s0,.57-.23.57h-.33s-.45-.34-.34-.45S50.21,29.29,50.21,29.18Z" transform="translate(-5.88 -7.68)"/><path class="cls-2" d="M50.54,28.39a.56.56,0,0,0,.45,0c.22-.12.11.34,0,.45S50.32,28.5,50.54,28.39Z" transform="translate(-5.88 -7.68)"/><path class="cls-2" d="M50.88,29.63a.11.11,0,0,0,.11-.11c0-.12.45.11.56-.12,0,0-.45-.11-.45-.22s-.56.68-.56.68S50.88,30.2,50.88,29.63Z" transform="translate(-5.88 -7.68)"/><path class="cls-2" d="M51.1,27.71s.23.22.23.34S50.65,28.16,51.1,27.71Z" transform="translate(-5.88 -7.68)"/><path class="cls-2" d="M51.33,28.5s.56.34.56,0c0,0,.22.11,0,.56,0,0,.78-.11.89.12s-.11.34-1,0S51.33,28.5,51.33,28.5Z" transform="translate(-5.88 -7.68)"/><path class="cls-2" d="M62.57,33.06l-.76,2a3.46,3.46,0,0,1,1.41.54c.35.35.18.53.18.53s1.06-.71,1.06-.35.17-1.61-1.24-2C63.22,33.83,63.51,33,62.57,33.06Z" transform="translate(-5.88 -7.68)"/><path class="cls-2" d="M46.81,50.4s2.82,0,4.06,2c0,0-.71.89,1.41.54A4.46,4.46,0,0,0,46.81,50.4Z" transform="translate(-5.88 -7.68)"/><path class="cls-2" d="M53.52,53.61l.35.71L52.63,54s0,.71,3.53.71A1.88,1.88,0,0,0,53.52,53.61Z" transform="translate(-5.88 -7.68)"/><path class="cls-2" d="M57,55.22,58.46,55S57,54,57,55.22Z" transform="translate(-5.88 -7.68)"/><path class="cls-2" d="M50.34,53.79l.71.89S51.93,53.61,50.34,53.79Z" transform="translate(-5.88 -7.68)"/><path class="cls-3" d="M36.64,13.37s1.78-.68,2-.5-1.77.51,1.93.93c0,0-.9.7-1.25.69s0,1.43,5.33-2c0,0,2.47.05,2.48-.48l3-.3s-.53.17,3.7.42a28.24,28.24,0,0,0,4,1.33c.71,0-.87-.55-.87-.55l3.69.6L65,15.34a30.94,30.94,0,0,1,3.84,2.21c.52.55-.72.7-.72.7s2.42,3.08,3.82,3.64,1.89,2.89,2.93,3.44.72-.7.55-.7,1.22.92,1.22.92l-.54.34,1.74,1.28s0,2.85-2.46-.76c0,0-2.8-.94.5,1.8,0,0-1.25.68.83,2.86,0,0,.71-.16-.14-2.14,0,0,1.71,3.24,2.26,1.83,0,0-1.42.68,1.72,2.7,0,0,1.22.56-.57,2.13,0,0,.63,3.94,2.22,4s-.24,3,.79,5-1.05-.55-.65,6,.36,9.46,2.28,10.39a5.59,5.59,0,0,0,2.54-3.52c.75-2.66,1.14-13.71-1.23-19.28,0,0-.19.89-1.39-1.45s-.77,3.55-.77,3.55S82.46,36,82.1,36.52a2.6,2.6,0,0,0-.3-2.68s.55-1.23.2-1.6,1,1.45,1.19,2.7.55-1.41.55-1.41-4.56-11-13.64-16C70.1,17.58,54.94,7.13,36.64,13.37Z" transform="translate(-5.88 -7.68)"/><path class="cls-4" d="M67.31,76a6.15,6.15,0,0,0,3-2.16c1-1.56,5.85-3.95,5.85-3.95s2.54-1.06.5,1.1c0,0-.86.89-1.18.56s-1.59.69-2.14,1.24a4.31,4.31,0,0,1-1.87.78s.89.89,4.4-1.53,4.89-3.59,6-3.69-.14,1.08-1.13,1.36-2,1.64.27.6.56,1.21-5.46,3.37-8.17,3.4-9.58,4.5S55.68,82.94,57.83,81,62.12,78.92,67.31,76Z" transform="translate(-5.88 -7.68)"/><path class="cls-5" d="M46.18,71.72c5.17-.31,8.53-1.43,7.17.86s-11.49,1.57-12,3.52-3.12-.46-11.08,2.57-13.18-1.34-2.11-3.28S23,78.21,26.45,77.73s3.07-2.09,8.34-3S32.26,72.57,46.18,71.72Z" transform="translate(-5.88 -7.68)"/><path class="cls-6" d="M41.06,89.63c-1.93.12,10.26-1.21,11.27-2.67s5.89-1.34,8.88-2.75,9.67-.52,12.93-2.8c0,0,1.79,2.06-16,6.11S55.6,88.72,41.06,89.63Z" transform="translate(-5.88 -7.68)"/><path class="cls-7" d="M49.88,28.9c-1.39,0,.68.64,1.95.14S51.26,28.94,49.88,28.9Z" transform="translate(-5.88 -7.68)"/><path class="cls-7" d="M48.18,28.35a7.81,7.81,0,0,1,2.87,0c0,.14-2.32,0-2.32.23S47.63,28.6,48.18,28.35Z" transform="translate(-5.88 -7.68)"/><path class="cls-7" d="M52,28.39c-1.44.13,1.6-1,2.14-.31S53.45,28.26,52,28.39Z" transform="translate(-5.88 -7.68)"/><path class="cls-7" d="M52.34,29.55a3.42,3.42,0,0,1,2.09,0c0,.17-1.68,0-1.68.28S51.94,29.86,52.34,29.55Z" transform="translate(-5.88 -7.68)"/><path class="cls-7" d="M53.35,30.7c-1.72,0,.84.49,2.42.11S55.07,30.73,53.35,30.7Z" transform="translate(-5.88 -7.68)"/><path class="cls-7" d="M51.24,30.27a15.5,15.5,0,0,1,3.56,0c0,.11-2.88,0-2.88.18S50.55,30.47,51.24,30.27Z" transform="translate(-5.88 -7.68)"/><path class="cls-7" d="M56,30.3c-1.78.1,2-.75,2.66-.24S57.78,30.2,56,30.3Z" transform="translate(-5.88 -7.68)"/><path class="cls-7" d="M60.82,22.92a10.84,10.84,0,0,1,4.08,0c0,.21-3.3,0-3.3.34S60,23.3,60.82,22.92Z" transform="translate(-5.88 -7.68)"/><path class="cls-7" d="M46.57,81.19c-2.09.64,1.16.12,3-.85S48.65,80.55,46.57,81.19Z" transform="translate(-5.88 -7.68)"/><path class="cls-7" d="M43.89,81.62a26.38,26.38,0,0,1,4.31-1.39c0,.1-3.48,1.14-3.43,1.29S43.12,82.07,43.89,81.62Z" transform="translate(-5.88 -7.68)"/><path class="cls-7" d="M49.66,79.79c-2.12.79,2.19-1.47,3.16-1.26S51.78,79,49.66,79.79Z" transform="translate(-5.88 -7.68)"/><path class="cls-7" d="M50.41,80.45a11.53,11.53,0,0,1,3.14-1c0,.12-2.53.83-2.47,1S49.88,80.86,50.41,80.45Z" transform="translate(-5.88 -7.68)"/><path class="cls-7" d="M52.18,80.78c-2.59.81,1.38-.07,3.67-1.1S54.76,80,52.18,80.78Z" transform="translate(-5.88 -7.68)"/><path class="cls-7" d="M48.91,81.5a55.4,55.4,0,0,1,5.35-1.73c0,.08-4.31,1.41-4.28,1.52S47.93,82,48.91,81.5Z" transform="translate(-5.88 -7.68)"/><path class="cls-7" d="M56.07,79.21c-2.65.94,2.81-1.49,4-1.45S58.72,78.28,56.07,79.21Z" transform="translate(-5.88 -7.68)"/><path class="cls-7" d="M56.88,79.64a23.8,23.8,0,0,1,3.89-1.25c0,.09-3.14,1-3.09,1.17S56.19,80.06,56.88,79.64Z" transform="translate(-5.88 -7.68)"/><path class="cls-8" d="M39.64,20.58l2,0L41.14,22a5.65,5.65,0,0,1,.51-.39,4.11,4.11,0,0,1,.66-.37L43.1,23a2.27,2.27,0,0,0,.13-.84c0-.62-.28-1-.21-1.08s.35.18,1.33,1.37c-.18-.46-.38-.94-.61-1.43-.12-.26-.23-.5-.35-.74l1.67-.49a3.39,3.39,0,0,0-.79-.23,3.33,3.33,0,0,0-1,0c.06-.13.14-.32.23-.56.16-.42.37-1,.29-1.07s-.36.16-1.29,1.34a7.11,7.11,0,0,1-1-1.82c0-.14-.1-.33-.13-.32a14.21,14.21,0,0,0,.29,2.11c-1.19-.39-1.79-.54-1.81-.46s.31.27,1,.61l.53.34h0Z" transform="translate(-5.88 -7.68)"/><path class="cls-10" d="M38.79,21.93l2.61-1-.07,2.11a6.5,6.5,0,0,1,.48-.73,7.87,7.87,0,0,1,.68-.77l1.8,1.91a3.09,3.09,0,0,0-.21-1.15c-.3-.77-.81-1.17-.74-1.28s.53.06,2.3,1.16c-.42-.51-.89-1-1.41-1.57l-.77-.78,1.93-1.39a5,5,0,0,0-1.12.06,4.61,4.61,0,0,0-1.27.41c0-.2,0-.48,0-.82,0-.61,0-1.45-.11-1.51s-.39.36-1.06,2.3a9.38,9.38,0,0,1-2-1.91c-.13-.16-.28-.37-.32-.36a19.26,19.26,0,0,0,1.31,2.59c-1.7,0-2.55.11-2.53.23s.51.2,1.51.34l.83.2h0Z" transform="translate(-5.88 -7.68)"/><path class="cls-8" d="M72.4,16.22l1.47.4-.69.91a3.68,3.68,0,0,1,.44-.17,5.18,5.18,0,0,1,.54-.13l.21,1.42a1.52,1.52,0,0,0,.26-.57c.11-.45,0-.78.07-.81s.22.2.67,1.25c0-.37-.08-.75-.14-1.15,0-.2-.07-.4-.1-.59h1.29a3.36,3.36,0,0,0-.52-.33,2.55,2.55,0,0,0-.69-.22c.07-.08.17-.2.28-.35s.46-.63.42-.7-.29,0-1.19.69a5.2,5.2,0,0,1-.3-1.49c0-.11,0-.26,0-.26a9.65,9.65,0,0,0-.22,1.56c-.77-.52-1.17-.76-1.2-.7s.16.26.56.63l.31.36h0Z" transform="translate(-5.88 -7.68)"/><path class="cls-10" d="M71.52,17l2-.16-.47,1.48a5.55,5.55,0,0,1,.49-.42,3.89,3.89,0,0,1,.64-.4l.89,1.73a2.18,2.18,0,0,0,.08-.86c0-.62-.33-1-.26-1.07s.36.16,1.4,1.3c-.2-.45-.43-.92-.68-1.4-.13-.25-.27-.49-.4-.72l1.66-.59a3.51,3.51,0,0,0-1.8-.16,5.07,5.07,0,0,0,.2-.57c.14-.43.33-1,.23-1.1s-.34.18-1.22,1.42a7.11,7.11,0,0,1-1-1.77,1.36,1.36,0,0,0-.15-.32,13.55,13.55,0,0,0,.41,2.1c-1.22-.33-1.84-.45-1.85-.36s.32.26,1,.56l.55.31h0Z" transform="translate(-5.88 -7.68)"/><path class="cls-8" d="M59.66,15.52l1.73.41L60.62,17a4.11,4.11,0,0,1,.51-.22,5.14,5.14,0,0,1,.64-.17l.29,1.67a2.06,2.06,0,0,0,.29-.69c.11-.53,0-.92,0-.95s.26.22.83,1.44c0-.42-.12-.87-.21-1.34,0-.24-.09-.47-.14-.7L64.4,16a3.75,3.75,0,0,0-.62-.37,3,3,0,0,0-.82-.23l.31-.42c.23-.32.53-.76.48-.85s-.34.06-1.38.85a6.21,6.21,0,0,1-.4-1.74,1,1,0,0,0,0-.3,11.17,11.17,0,0,0-.21,1.85c-.92-.6-1.4-.86-1.44-.79s.21.3.69.73l.37.4h0Z" transform="translate(-5.88 -7.68)"/><path class="cls-10" d="M58.65,16.47l2.41-.26L60.55,18a7.27,7.27,0,0,1,.56-.51,6.44,6.44,0,0,1,.74-.5L63,19A2.81,2.81,0,0,0,63,18c-.09-.72-.43-1.16-.35-1.24s.43.17,1.69,1.48c-.25-.52-.53-1.07-.85-1.63-.16-.29-.33-.57-.49-.83L65,15a4.52,4.52,0,0,0-1-.19,4.09,4.09,0,0,0-1.16.06c.06-.16.14-.4.22-.68.15-.51.35-1.21.23-1.29s-.4.22-1.38,1.71a8.31,8.31,0,0,1-1.29-2.06,1.42,1.42,0,0,0-.19-.37A16.23,16.23,0,0,0,61,14.63q-2.16-.53-2.19-.36c0,.08.39.28,1.2.62l.66.35h0Z" transform="translate(-5.88 -7.68)"/><path class="cls-8" d="M45.75,68l1.41-1.32.5,1.37q0-.27.12-.6a5.49,5.49,0,0,1,.24-.66l1.64.74a2.18,2.18,0,0,0-.43-.68c-.39-.41-.82-.53-.8-.62s.35-.1,1.77.13c-.4-.21-.84-.42-1.31-.63l-.7-.29.88-1.4a3.4,3.4,0,0,0-.7.34,3,3,0,0,0-.71.59,4.45,4.45,0,0,0-.17-.54c-.15-.4-.35-.93-.46-.93s-.15.33-.09,1.75a6.86,6.86,0,0,1-1.78-.7c-.12-.07-.27-.16-.29-.14a14,14,0,0,0,1.5,1.3c-1.08.47-1.6.74-1.56.82s.38,0,1.06-.18l.58-.09h0Z" transform="translate(-5.88 -7.68)"/><line class="cls-9" x1="43.16" y1="59.93" x2="44.66" y2="61.24"/><path class="cls-10" d="M46.47,69.63l.91-2.47,1.44,1.33a6.33,6.33,0,0,1-.22-.79,6,6,0,0,1-.12-1l2.44-.12a2.77,2.77,0,0,0-.94-.55c-.73-.26-1.32-.14-1.35-.26s.36-.34,2.22-.94c-.62,0-1.28,0-2,0l-1,.08.2-2.24a5.36,5.36,0,0,0-.64.85,4.55,4.55,0,0,0-.49,1.16,7.2,7.2,0,0,0-.55-.54c-.42-.39-1-.91-1.12-.84s0,.5,1,2.16a8.79,8.79,0,0,1-2.58.28c-.18,0-.43,0-.44,0a16.78,16.78,0,0,0,2.62.64c-1,1.24-1.48,1.89-1.39,2s.46-.24,1.17-.87l.64-.48h0Z" transform="translate(-5.88 -7.68)"/><path class="cls-8" d="M91.87,49.69l-.57,2.77-1.74-1.19a7.81,7.81,0,0,1,.36.81,6.9,6.9,0,0,1,.28,1l-2.57.53a3.09,3.09,0,0,0,1.08.43c.81.15,1.42-.07,1.47,0s-.33.42-2.2,1.36c.65-.1,1.35-.22,2.07-.37l1.08-.25.13,2.4a5.68,5.68,0,0,0,.55-1,4.87,4.87,0,0,0,.34-1.31c.16.13.38.3.66.49.51.34,1.2.81,1.33.71S94,55.59,92.77,54a9.89,9.89,0,0,1,2.68-.71,1.74,1.74,0,0,0,.47-.07,17,17,0,0,0-2.87-.26c.88-1.48,1.27-2.25,1.16-2.3s-.45.33-1.1,1.11l-.61.61h0Z" transform="translate(-5.88 -7.68)"/><line class="cls-9" x1="82.28" y1="45.3" x2="82.31" y2="45.31"/><path class="cls-10" d="M89.64,48.38l1,3.7-2.83-.34a7.28,7.28,0,0,1,.93.75,9.6,9.6,0,0,1,1,1l-2.78,2.25a4.27,4.27,0,0,0,1.57-.16c1.08-.32,1.67-1,1.81-.86s-.15.72-1.84,3c.74-.53,1.5-1.11,2.28-1.75.4-.33.79-.66,1.15-1l1.64,2.82a7.6,7.6,0,0,0,0-1.55,6.45,6.45,0,0,0-.4-1.79c.27,0,.65.12,1.1.17.82.1,1.94.23,2,0s-.44-.58-3-1.74a13.48,13.48,0,0,1,2.81-2.54c.23-.15.55-.34.53-.38a24,24,0,0,0-3.64,1.48c.16-2.34.16-3.51,0-3.5s-.34.68-.65,2L92,51.2h0Z" transform="translate(-5.88 -7.68)"/><path class="cls-8" d="M47.46,9.15l.76,0L48,9.67l.19-.15.24-.13.3.65a.86.86,0,0,0,0-.31c0-.23-.1-.38-.07-.4s.13.06.49.5c-.07-.16-.14-.34-.23-.53s-.08-.18-.13-.27l.62-.18a1.71,1.71,0,0,0-.29-.08,1.12,1.12,0,0,0-.36,0s0-.12.08-.21.14-.37.11-.4-.13.06-.48.5A3.12,3.12,0,0,1,48.17,8c0-.06,0-.13-.05-.12a6.54,6.54,0,0,0,.11.78c-.44-.15-.66-.2-.67-.17s.11.1.36.22l.19.13h0Z" transform="translate(-5.88 -7.68)"/><path class="cls-10" d="M47.14,9.65l1-.36,0,.77.18-.27.25-.28.67.7a1.08,1.08,0,0,0-.08-.42c-.11-.29-.3-.43-.27-.47s.19,0,.85.42c-.16-.18-.33-.38-.52-.57s-.2-.2-.29-.29l.71-.52a2.08,2.08,0,0,0-.41,0,1.44,1.44,0,0,0-.47.15c0-.08,0-.18,0-.31s0-.53,0-.55-.14.13-.39.85a3.48,3.48,0,0,1-.75-.71c0-.06-.1-.14-.11-.13a7,7,0,0,0,.48,1c-.63,0-.94,0-.94.09a1.67,1.67,0,0,0,.56.13l.31.07h0Z" transform="translate(-5.88 -7.68)"/><path class="cls-8" d="M33.59,36.69l1-.65.15.92a2.53,2.53,0,0,1,.15-.36,2.36,2.36,0,0,1,.23-.39l.94.67a1.19,1.19,0,0,0-.19-.48c-.2-.31-.45-.44-.43-.49s.23,0,1.1.3c-.23-.19-.48-.37-.75-.56a4.68,4.68,0,0,0-.4-.27l.72-.77a2,2,0,0,0-.48.12,2.18,2.18,0,0,0-.52.29,3.37,3.37,0,0,0,0-.36c0-.27-.1-.63-.17-.65s-.14.19-.27,1.09a4.4,4.4,0,0,1-1-.65c-.06-.06-.15-.14-.16-.13a8,8,0,0,0,.79,1c-.74.16-1.1.27-1.08.32s.24.05.68,0h.38Z" transform="translate(-5.88 -7.68)"/><line class="cls-9" x1="29.65" y1="29.29" x2="30.8" y2="31.27"/><path class="cls-10" d="M33.55,37.65l1.06-1.31.6,1.12a5.13,5.13,0,0,1,0-.53,4.39,4.39,0,0,1,.12-.61l1.51.44a1.61,1.61,0,0,0-.46-.53c-.39-.31-.77-.36-.77-.44s.3-.13,1.55-.11c-.38-.13-.78-.26-1.21-.38l-.64-.17.59-1.31a3.08,3.08,0,0,0-1.1,1c0-.11-.12-.26-.22-.44s-.42-.76-.51-.75-.09.31.14,1.52a5.81,5.81,0,0,1-1.62-.37c-.11,0-.26-.11-.27-.09a11.64,11.64,0,0,0,1.46.94c-.88.54-1.29.84-1.25.89s.33,0,.89-.28l.49-.15h0Z" transform="translate(-5.88 -7.68)"/><path class="cls-8" d="M54.47,51.14l1.21.81-.9.61.45,0a3.88,3.88,0,0,1,.53.06L55.51,54a1.79,1.79,0,0,0,.42-.44c.23-.37.24-.7.31-.71s.13.25.21,1.34c.09-.34.16-.7.23-1.08q0-.3.09-.57l1.17.4a2.76,2.76,0,0,0-.37-.46A2.54,2.54,0,0,0,57,52a3.94,3.94,0,0,0,.36-.23c.26-.18.62-.42.6-.5s-.27-.06-1.29.25a4.74,4.74,0,0,1,.19-1.44c0-.1.07-.24.05-.25a10.34,10.34,0,0,0-.68,1.35c-.53-.72-.82-1-.87-1s.07.28.32.75l.17.41h0Z" transform="translate(-5.88 -7.68)"/><line class="cls-9" x1="49.79" y1="45.43" x2="49.16" y2="46.34"/><path class="cls-10" d="M53.44,51.57l1.9.5-.88,1.19A3.76,3.76,0,0,1,55,53a3.71,3.71,0,0,1,.7-.17L56,54.71a2,2,0,0,0,.34-.75c.13-.57,0-1,.08-1.05s.28.26.88,1.62c-.05-.47-.11-1-.19-1.49,0-.26-.09-.52-.14-.77h1.68a3.48,3.48,0,0,0-.68-.43,3.59,3.59,0,0,0-.9-.28c.09-.11.22-.26.36-.46s.6-.82.54-.91-.37,0-1.53.9A7.37,7.37,0,0,1,56,49.14a1,1,0,0,0,0-.33,13.2,13.2,0,0,0-.28,2q-1.5-1-1.56-.9c0,.05.21.33.73.82l.41.45h0Z" transform="translate(-5.88 -7.68)"/><path class="cls-8" d="M62.64,62.54l1.17.5-.67.68a2.84,2.84,0,0,1,.39-.09,2.6,2.6,0,0,1,.46,0v1.2a1.52,1.52,0,0,0,.28-.44c.14-.36.1-.65.15-.66s.16.18.41,1.11c0-.31,0-.63,0-1,0-.17,0-.34,0-.5l1.07.15a2.26,2.26,0,0,0-.39-.34,1.89,1.89,0,0,0-.55-.26,3,3,0,0,0,.27-.26c.2-.2.47-.47.44-.53s-.24,0-1.07.42a4.68,4.68,0,0,1-.08-1.27c0-.09,0-.21,0-.22a8.34,8.34,0,0,0-.36,1.28c-.58-.53-.88-.77-.92-.73s.11.23.4.59l.21.33h0Z" transform="translate(-5.88 -7.68)"/><line class="cls-9" x1="57.7" y1="56.67" x2="57.22" y2="57.76"/><path class="cls-10" d="M61.82,63.09l1.72.11L63,64.38a3.18,3.18,0,0,1,.45-.29,3.5,3.5,0,0,1,.58-.26l.54,1.54a2.1,2.1,0,0,0,.17-.71c0-.51-.16-.87-.1-.91s.28.17,1,1.24c-.12-.39-.25-.81-.41-1.24-.08-.23-.16-.44-.24-.65l1.44-.29a3.4,3.4,0,0,0-.65-.25,2.94,2.94,0,0,0-.82-.09l.23-.45c.17-.35.39-.81.32-.88s-.31.1-1.18,1a6.55,6.55,0,0,1-.66-1.59c0-.12-.06-.29-.08-.28a9.62,9.62,0,0,0,.09,1.79c-1-.42-1.47-.59-1.49-.52s.24.25.76.59l.42.32h0Z" transform="translate(-5.88 -7.68)"/><path class="cls-8" d="M57.9,27.1l1.35,0-.36,1a1.81,1.81,0,0,1,.33-.26,4,4,0,0,1,.43-.24l.53,1.16a1.41,1.41,0,0,0,.08-.56c0-.4-.18-.67-.13-.71s.23.12.87.91c-.12-.31-.25-.62-.4-.95-.08-.17-.15-.33-.23-.49l1.1-.32a2.15,2.15,0,0,0-.52-.15,2.09,2.09,0,0,0-.65,0c0-.09.1-.22.16-.37s.24-.66.18-.71-.23.11-.85.89a5.09,5.09,0,0,1-.62-1.2c0-.1-.07-.22-.09-.22a8.79,8.79,0,0,0,.2,1.4,3.67,3.67,0,0,0-1.2-.31c0,.05.2.18.64.41l.35.22h0Z" transform="translate(-5.88 -7.68)"/><line class="cls-9" x1="53.7" y1="20.77" x2="53.7" y2="23.29"/><path class="cls-10" d="M57.33,28l1.73-.65L59,28.73a5,5,0,0,1,.32-.48,3.22,3.22,0,0,1,.45-.5L61,29a2.05,2.05,0,0,0-.15-.75c-.19-.52-.53-.78-.48-.85s.34,0,1.52.76c-.29-.33-.59-.68-.93-1l-.52-.52,1.28-.91a3.25,3.25,0,0,0-.74,0,3,3,0,0,0-.84.27c0-.14,0-.32,0-.54,0-.41,0-1-.07-1s-.25.24-.7,1.52A6.59,6.59,0,0,1,58,24.73c-.08-.11-.18-.25-.2-.24a12.28,12.28,0,0,0,.86,1.71c-1.12,0-1.68.07-1.67.15s.34.14,1,.23l.55.13h0Z" transform="translate(-5.88 -7.68)"/><path class="cls-8" d="M76.77,27.56l1.08-.24-.14.82c.07-.08.14-.17.23-.26a2.25,2.25,0,0,1,.31-.26l.61.84a1.5,1.5,0,0,0,0-.46c-.08-.32-.26-.5-.23-.54s.21.05.85.58c-.14-.23-.3-.46-.47-.7L78.72,27l.84-.44a2,2,0,0,0-.45,0,1.47,1.47,0,0,0-.52.09c0-.08,0-.19.07-.32s.09-.57,0-.6-.17.12-.54.84a4.11,4.11,0,0,1-.69-.86.93.93,0,0,0-.1-.16,7.65,7.65,0,0,0,.37,1.09,2.91,2.91,0,0,0-1-.05s.19.11.57.22l.32.13h0Z" transform="translate(-5.88 -7.68)"/><path class="cls-10" d="M76.46,28.36l1.28-.79.19,1.12a3,3,0,0,1,.17-.44,4.08,4.08,0,0,1,.28-.48l1.16.82A1.65,1.65,0,0,0,79.3,28c-.24-.38-.55-.53-.52-.6s.28,0,1.34.37c-.28-.22-.58-.45-.91-.68-.17-.12-.33-.23-.5-.33l.88-.94A2.69,2.69,0,0,0,79,26a3,3,0,0,0-.63.35c0-.11,0-.26-.05-.44s-.13-.77-.22-.78-.17.23-.32,1.33a5.1,5.1,0,0,1-1.27-.8c-.08-.07-.18-.17-.2-.15a10.5,10.5,0,0,0,1,1.22c-.89.2-1.33.33-1.31.4a2.17,2.17,0,0,0,.83,0h.46Z" transform="translate(-5.88 -7.68)"/><path class="cls-8" d="M41.33,85.82l1.62-1,.2,1.41a4.09,4.09,0,0,1,.24-.54,4.13,4.13,0,0,1,.36-.6l1.42,1a1.94,1.94,0,0,0-.28-.73c-.29-.48-.67-.68-.64-.77s.36,0,1.67.49c-.35-.28-.72-.57-1.13-.87-.2-.15-.41-.29-.61-.42l1.12-1.16a3.51,3.51,0,0,0-.73.18,2.94,2.94,0,0,0-.8.42c0-.14,0-.33-.06-.55-.07-.41-.15-1-.25-1s-.22.29-.44,1.66a6.48,6.48,0,0,1-1.56-1,1.09,1.09,0,0,0-.26-.2,12.43,12.43,0,0,0,1.18,1.56c-1.13.23-1.68.38-1.65.46s.36.08,1,0l.58,0h0Z" transform="translate(-5.88 -7.68)"/><path class="cls-10" d="M41.25,87.29l1.65-2L43.79,87a5.81,5.81,0,0,1,.05-.8,6.08,6.08,0,0,1,.2-.92l2.3.7a2.79,2.79,0,0,0-.69-.82c-.59-.48-1.17-.57-1.16-.69s.45-.19,2.36-.12c-.57-.21-1.18-.42-1.83-.61l-1-.28.93-2a4.59,4.59,0,0,0-.87.57,4.2,4.2,0,0,0-.84.9c-.07-.17-.18-.41-.32-.68-.26-.5-.62-1.18-.76-1.16s-.15.47.18,2.33a9.12,9.12,0,0,1-2.47-.61c-.17-.07-.39-.18-.41-.15a15.91,15.91,0,0,0,2.2,1.47c-1.35.8-2,1.25-1.92,1.34s.5-.07,1.36-.41l.75-.22h0Z" transform="translate(-5.88 -7.68)"/><path class="cls-8" d="M46.89,43l1.85,0-.49,1.31a3.69,3.69,0,0,1,.46-.36,3.57,3.57,0,0,1,.59-.33L50,45.2a2.14,2.14,0,0,0,.11-.76c0-.56-.25-.92-.19-1s.32.15,1.2,1.23c-.16-.41-.34-.84-.55-1.29-.1-.23-.21-.45-.32-.66l1.52-.45a3.65,3.65,0,0,0-.72-.21,3,3,0,0,0-.89,0c.06-.12.13-.3.21-.51.14-.38.34-.89.26-1s-.32.14-1.16,1.21a6.29,6.29,0,0,1-.85-1.65,1.66,1.66,0,0,0-.12-.29,11.08,11.08,0,0,0,.26,1.91c-1.08-.36-1.62-.49-1.64-.42s.28.25.87.56l.48.3h0Z" transform="translate(-5.88 -7.68)"/><line class="cls-9" x1="43.32" y1="37.19" x2="43.32" y2="38.96"/><path class="cls-10" d="M46.12,44.25l2.36-.89-.06,1.9a6.67,6.67,0,0,1,.43-.66,6.22,6.22,0,0,1,.62-.69l1.62,1.72a2.87,2.87,0,0,0-.19-1c-.27-.7-.73-1.05-.67-1.15s.48.05,2.08,1c-.39-.46-.81-.93-1.27-1.41l-.71-.71,1.75-1.25a4,4,0,0,0-1,.06,4.35,4.35,0,0,0-1.15.36c0-.18,0-.43,0-.74,0-.55,0-1.3-.1-1.36s-.35.33-1,2.08a8.81,8.81,0,0,1-1.82-1.72c-.11-.15-.25-.34-.28-.33A16.2,16.2,0,0,0,48,41.79c-1.53,0-2.3.1-2.28.21s.46.19,1.36.31l.75.18h0Z" transform="translate(-5.88 -7.68)"/><path class="cls-8" d="M83.87,34.3l1.46.71-.9.82a3.44,3.44,0,0,1,.5-.09,3,3,0,0,1,.59,0l-.06,1.53a1.73,1.73,0,0,0,.39-.55c.2-.44.16-.82.23-.84s.19.25.46,1.45c0-.39.06-.8.08-1.23,0-.22,0-.44,0-.65l1.36.26a3,3,0,0,0-.48-.45,2.88,2.88,0,0,0-.69-.38l.36-.31c.27-.24.62-.57.59-.66s-.31,0-1.39.49a5.94,5.94,0,0,1,0-1.63,1.09,1.09,0,0,0,0-.28,10.56,10.56,0,0,0-.54,1.6c-.71-.71-1.08-1-1.13-1s.13.3.47.78l.26.44H83.87Z" transform="translate(-5.88 -7.68)"/><path class="cls-10" d="M82.78,34.94l2.2.25-.8,1.47a5.58,5.58,0,0,1,.6-.34,4.41,4.41,0,0,1,.76-.3l.6,2a2.38,2.38,0,0,0,.25-.89c.06-.66-.15-1.12-.07-1.17s.35.23,1.22,1.65c-.12-.52-.27-1.06-.44-1.62q-.13-.43-.27-.84l1.86-.28a4,4,0,0,0-.82-.36,3.48,3.48,0,0,0-1-.17c.08-.14.2-.33.32-.57.23-.42.55-1,.46-1.1s-.4.12-1.56,1.24a7.35,7.35,0,0,1-.75-2.07c0-.16-.07-.37-.1-.37a16.23,16.23,0,0,0,0,2.3c-1.21-.59-1.84-.85-1.87-.75s.29.33.94.79l.52.44h0Z" transform="translate(-5.88 -7.68)"/><rect class="cls-11" x="2.8" y="21.59" width="74.17" height="24.06" rx="9.56" ry="9.56"/><rect class="cls-12" x="2.37" y="19.87" width="73.36" height="23.93" rx="9.51" ry="9.51"/><text class="cls-13" transform="translate(8.9 35.93) scale(0.99 1)">spel<tspan class="cls-14" x="35.12" y="0">e</tspan><tspan class="cls-15" x="45.74" y="0">t</tspan><tspan x="51.88" y="0">s</tspan></text><rect class="cls-11" x="26.51" y="45.72" width="61.84" height="20.06" rx="7.97" ry="7.97"/><rect class="cls-16" x="26.15" y="44.28" width="61.16" height="19.96" rx="7.93" ry="7.93"/><text class="cls-17" transform="translate(37.81 58.5) scale(0.99 1)">namn</text></svg>
