<svg xmlns="http://www.w3.org/2000/svg" xmlns:xlink="http://www.w3.org/1999/xlink" width="1600" height="2700" viewBox="0 0 1600 2700"><defs><style>.cls-1{fill:#1f2532;}.cls-2{fill:#89cce5;}.cls-3{fill:#ff9207;}.cls-4{fill:#e9eced;}.cls-5{fill:none;}</style><symbol id="b3-2" data-name="b3" viewBox="0 0 1600 900"><polygon class="cls-2" points="0 900 800 450 0 0 0 900"/><polygon class="cls-1" points="1600 900 800 450 0 900 1600 900"/><polygon class="cls-3" points="1600 0 1600 900 800 450 1600 0"/><polygon class="cls-4" points="0 0 800 450 1600 0 0 0"/><rect id="baggrund" class="cls-5" width="1600" height="900"/></symbol><symbol id="b1" data-name="b1" viewBox="0 0 1600 900"><polygon class="cls-1" points="0 900 800 450 0 0 0 900"/><polygon class="cls-2" points="1600 900 800 450 0 900 1600 900"/><polygon class="cls-3" points="1600 0 1600 900 800 450 1600 0"/><polygon class="cls-4" points="0 0 800 450 1600 0 0 0"/><rect id="baggrund-2" data-name="baggrund" class="cls-5" width="1600" height="900"/></symbol><symbol id="b2" data-name="b2" viewBox="0 0 1600 900"><polygon class="cls-3" points="0 900 800 450 0 0 0 900"/><polygon class="cls-4" points="1600 900 800 450 0 900 1600 900"/><polygon class="cls-2" points="1600 0 1600 900 800 450 1600 0"/><polygon class="cls-1" points="0 0 800 450 1600 0 0 0"/><rect id="baggrund-3" data-name="baggrund" class="cls-5" width="1600" height="900"/></symbol></defs><title>baggrund</title><g id="Layer_2" data-name="Layer 2"><g id="b3"><use width="1600" height="900" xlink:href="#b3-2"/><use width="1600" height="900" transform="translate(0 900)" xlink:href="#b1"/><use width="1600" height="900" transform="translate(0 1800)" xlink:href="#b2"/></g></g></svg>
