<svg id="Layer_1" data-name="Layer 1" xmlns="http://www.w3.org/2000/svg" width="200" height="200" viewBox="0 0 200 200"><defs><style>.cls-1{fill:#f7f5f5;stroke:#f7f5f5;}.cls-1,.cls-2{stroke-miterlimit:10;}.cls-2{fill:#0c0b0b;stroke:#020202;}.cls-3{fill:none;}</style></defs><title>besked</title><path class="cls-1" d="M151.27,69.8v51.4a8.44,8.44,0,0,1-8.41,8.42H78.29L64,141.07V129.62H55.68a8.44,8.44,0,0,1-8.41-8.42V69.8a8.44,8.44,0,0,1,8.41-8.42h87.18A8.44,8.44,0,0,1,151.27,69.8Z"/><rect class="cls-2" x="68.63" y="82.23" width="7.9" height="4.23"/><rect class="cls-2" x="80.39" y="82.23" width="34.37" height="4.23"/><rect class="cls-2" x="118.62" y="82.23" width="11.76" height="4.23"/><rect class="cls-2" x="68.63" y="90.13" width="26.83" height="3.49"/><rect class="cls-2" x="99.27" y="90.13" width="8.14" height="3.49"/><rect class="cls-2" x="110.72" y="90.13" width="23.71" height="3.49"/><rect class="cls-2" x="68.63" y="97.48" width="19.48" height="3.74"/><rect class="cls-2" x="91.79" y="97.48" width="19.48" height="3.74"/><rect class="cls-2" x="114.76" y="97.48" width="15.62" height="3.74"/><rect class="cls-3" width="200" height="200"/></svg>
