<svg id="hand1_2" data-name="hand1 2" xmlns="http://www.w3.org/2000/svg" width="200" height="200" viewBox="0 0 200 200"><defs><style>.cls-1{fill:#ffd7ba;}.cls-2{fill:#ffd7b9;}.cls-3{fill:none;}</style></defs><title>closeup</title><path class="cls-1" d="M17,68.22h0a4.13,4.13,0,0,1-.6-5.8l.7-.9a4.12,4.12,0,0,1,5.8-.6l22.2,18,.1.1h0a.8.8,0,0,0,1.1-.3,10.91,10.91,0,0,1,.6-1.1.78.78,0,0,0-.2-1l-26.4-21.4a4.12,4.12,0,0,1-.6-5.8l.7-.9h0a4.12,4.12,0,0,1,5.8-.6L52,68.82a.78.78,0,0,0,1.1,0,4.62,4.62,0,0,0,.7-.7l.1-.1a.82.82,0,0,0-.1-1.2l-28.7-23.2a4.12,4.12,0,0,1-.6-5.8l.7-.9a4.12,4.12,0,0,1,5.8-.6s31.8,26.1,32,26.2h0c.4.1.8-.4,1.1-.8a.83.83,0,0,0-.2-1.2l-28.4-24a4.12,4.12,0,0,1-.6-5.8l.7-.9a4.12,4.12,0,0,1,5.8-.6l31.1,25.1c.7.6,13.4,14.2,13.4,14.2l16.9,20,.2.2,3.6,2h0a.65.65,0,0,1,.2.9l-16.1,26.8a.1.1,0,0,1-.1.1h0a.63.63,0,0,1-.9.1l-11.1-8.4a.85.85,0,0,0-.7,0c-6.2,3.4-17.5-4.9-17.5-4.9-1.9-.9-15.4-14.4-16-15h-.1L17,68.22Z"/><path class="cls-2" d="M87.27,71.22l-2.9-11.4a.35.35,0,0,0-.1-.2c-.4-.6-2.2-4-1-11.3,1.3-8.1,9.7-6.5,9.7-6.5l.8,3.7,3.5,16s4.4,20.1,5,21.9,0,5.7,0,5.7Z"/><g id="hand2-2-3"><path class="cls-2" d="M95,90.72l-12.3,20.4c-1.4,1.1-.6,1.8,1.4,3.2l77.8,56.5.1.1a4.56,4.56,0,0,0,6.3-1.4l16.2-25c0-.1.1-.1.1-.2h0a4.58,4.58,0,0,0-1.8-6.2l-81-50.2C99.67,86.72,96.27,88.62,95,90.72Z"/></g><rect id="baggrund" class="cls-3" width="200" height="200"/></svg>
