<svg xmlns="http://www.w3.org/2000/svg" xmlns:xlink="http://www.w3.org/1999/xlink" width="1598.55" height="250" viewBox="0 0 1598.55 250"><defs><style>.cls-1,.cls-10,.cls-3{fill:none;}.cls-2{fill:#89cce5;}.cls-3{stroke:#000;}.cls-10,.cls-3{stroke-miterlimit:10;}.cls-4{fill:#a4dbed;}.cls-5{fill:#202532;}.cls-6{fill:#edc28e;}.cls-7{fill:#424141;}.cls-8{fill:#050505;}.cls-9{fill:#070707;}.cls-10{stroke:#c9a279;}.cls-11{fill:#c9a279;}.cls-12{fill:#111;}.cls-13{fill:#3b4454;}.cls-14{fill:#878686;}.cls-15{fill:#706b6b;}.cls-16{fill:#383838;}.cls-17{fill:#353535;}.cls-18{fill:#404c66;}.cls-19{fill:#6d9992;}</style><symbol id="_1" data-name="1" viewBox="0 0 200 250"><g id="baggrund"><rect class="cls-1" width="200" height="250"/></g><g id="ben"><path class="cls-2" d="M84.14,147.85s3.9-2,4,1,1.56,13.43,0,24.58-7.34,56.37-7.34,56.37L88.62,232s8.21-63.66,8.57-68.31,2.39-32.89,2.39-32.89l-29.26-1.39c-2-.27-.49,9.06.19,11.79l1,4.2s3.65,13.64,3.23,17.47S74,190,73.78,194.58s-2.66,18.29-2.66,18.29l-3,14-.68,2.25,7.22,1.25s5.92-28.14,6.18-31.24c0,0,.81-7.38,1.54-17.58S84.14,147.85,84.14,147.85Z"/><path class="cls-3" d="M80.52,146.23"/></g><g id="buks"><path class="cls-4" d="M73.88,140.44S78,153.26,78.43,157s0,24.68,0,28.62-2.65,25.2-2.65,25.2L74,221l-3.55,9.86,4.95,1.08,5.89-35.49L84,148.25l1.21-.2,7.08-2.4v16.67l-2,26.36-2.53,19.12L86.25,222.1l-1.67,8.74,3.91.67,3.42-30s5.23-35.57,5.28-37.82,1.63-22.34,1.63-22.34Z"/></g><g id="tshirt"><path class="cls-5" d="M68.51,106.6s-.38,4.55-.6,11.33,0,13,0,13S79.21,133,85.11,133s15.22-2.22,15.22-2.22,2.36-22.07,2.35-28c0-4.29-1.61-12.28-1.61-12.28l-1.89-2.48-5.84-1.33s-.28,2.16-1.81,2.62a15.78,15.78,0,0,1-4.91.46c-1.43-.07-4.23-2.06-4.89-3.45A34.46,34.46,0,0,1,80.33,81s-3.67,2.92-4.84,4.75a31.68,31.68,0,0,1-2.66,3.5S69.16,98.94,68.51,106.6Z"/><path class="cls-3" d="M66.83,101.28"/></g><g id="hoved"><path class="cls-6" d="M75.69,47.22s-6.6-4.19-8.21,5.15,7.17,8.86,7.17,8.86,1.31,6.6,2.76,8.7a36.51,36.51,0,0,1,2.92,5.8V82s1,7.41,5.85,8.22,7.15-1.61,7.15-1.61V87s7.23,3.38,12.06,0,8.59-6.76,10.52-12.4,6.47-17.23,6.79-26.73.09-15.3.09-15.3-11.39,1.77-17.51,2.25a58.13,58.13,0,0,1-13-.81Z"/></g><g id="øjne"><ellipse cx="98.72" cy="57.92" rx="2.04" ry="2.93"/><ellipse class="cls-7" cx="98.1" cy="57.09" rx="0.86" ry="1.12"/><ellipse class="cls-7" cx="98.96" cy="58.8" rx="0.62" ry="0.81"/><ellipse cx="115.26" cy="58.21" rx="2.04" ry="2.93"/><ellipse class="cls-7" cx="115.02" cy="57.38" rx="0.86" ry="1.12"/><path class="cls-8" d="M91.33,47.35s4.72-.13,6.39-1.35,3.65-3,3.65-3l2,3.79A39.54,39.54,0,0,1,98,48.7c-1.31.19-6.66.45-6.66.45Z"/><path class="cls-9" d="M112.73,46.51,111,50.11a27.74,27.74,0,0,0,4.88,2.18,43.9,43.9,0,0,0,6.05.77l.31-1.86s-4.68-.71-5.74-1.41A47.89,47.89,0,0,1,112.73,46.51Z"/><ellipse class="cls-7" cx="115.88" cy="59.3" rx="0.81" ry="0.62" transform="translate(36.28 162.3) rotate(-79.4)"/></g><g id="mund"><path class="cls-10" d="M99,74.26s7.41-5.78,11,.39"/><path class="cls-11" d="M115,52.36l-.32,0c-1,.14-4.2.65-4.73,1.89-.64,1.48-1.54,2.68-.84,5.32s1.35,3.67.39,4.7a4.91,4.91,0,0,1-3.28,1.93,27.16,27.16,0,0,1-4.24-.77l3.3.14s3.38-.81,3.21-2.09-.71-4.24-.78-5.29.2-5.52,1.62-6.26S111,50.8,111,50.8l2.82,1.35"/></g><g id="hår"><path class="cls-12" d="M81.7,61.47s-1.84,1.28-3.07,0,.37-5.95-.74-7.92-7.75-12.3-8-15-.25-5.78.86-7a11.3,11.3,0,0,1,5-3.93c3.14-1.35,2.16-1.72,2.16-1.72s-2.11-9.6,1.33-11.2,3.34-1.22,8-1.84,28.75.37,29.38,1,19.19,1.6,16.86,4.3S125,22.82,125,22.82s-1.72-.37.37,1.35,8.24,1.35,6.76,3.93-9.22,5.9-12.91,6.27S107.85,36.1,103.32,36s-12-1-12-1,.09,8.61-2.49,9.59-6.27.82-6.89,2.93S81.7,61.47,81.7,61.47Z"/></g><g id="sko"><path class="cls-5" d="M81.47,227.3s3.15,2.82,6.91,1.78a14,14,0,0,1,7.42.23s1.54.42,1.63,3.34c.1,3.56-.71,4.29-2.64,5.18s-10.57-2.07-10.57-2.07-4.68.59-4.68-1.78S81.47,227.3,81.47,227.3Z"/><path class="cls-5" d="M67.47,227.3s3.15,2.82,6.91,1.78a14,14,0,0,1,7.42.23s1.54.42,1.63,3.34c.1,3.56-.71,4.29-2.64,5.18s-10.57-2.07-10.57-2.07-4.68.59-4.68-1.78S67.47,227.3,67.47,227.3Z"/></g><g id="kant"><path class="cls-13" d="M67.91,130.94l-.1,2.41,12.08,1.74a36.36,36.36,0,0,0,19.52-2.87l.84-1.38s-7,1-10.94,1.43a73,73,0,0,1-13.09-.56C74.68,131.43,67.91,130.94,67.91,130.94Z"/></g><g id="iphone"><polygon class="cls-14" points="98.82 142.41 86.63 140.79 89.8 116.78 102 118.39 98.82 142.41"/><path class="cls-14" d="M98.82,141.28l-12.2-1.61,1.13,1.13,3.18-24L89.8,117.9l12.2,1.61-1.12-1.12-3.18,24c-.19,1.43,2.06,1.42,2.25,0l3.18-24c.09-.66-.59-1.05-1.12-1.12l-12.2-1.61c-.66-.09-1.05.59-1.12,1.13l-3.18,24c-.09.66.59,1.05,1.13,1.13l12.2,1.61C100.25,143.72,100.24,141.47,98.82,141.28Z"/><circle class="cls-15" cx="90.3" cy="117.35" r="0.94" transform="translate(-37.87 191.48) rotate(-82.47)"/></g><g id="arm2"><path class="cls-6" d="M107,101.81s1.51,14.64.26,19.19-2.05,7-2.05,7c.78,3.15-.34,4-2,4.75-1.25.55-2.83-.39-3.57-.93a1.43,1.43,0,0,1-.59-.94,5.18,5.18,0,0,1,1.36-4.18c2.16-2.6,3.95-8.73,4.07-11.55s-1.6-13.32-1.6-13.32Z"/></g><g id="arm"><path class="cls-6" d="M74,102.2s-4,7.36-3.58,11.3,1.81,8,4.23,10.54a69.09,69.09,0,0,0,5.39,5s1.69,2.78,3.5,3.34,4.38-.7,4.38-.7,2.19-1.63,1.78-3-.68-2.55-2-3.47a5.77,5.77,0,0,0-2.93-.93l-1.5.19s-2.38-.22-4.51-3.35-2.86-8.51-2.86-8.51a66.55,66.55,0,0,1,2-7.51C78.77,103.2,74,102.2,74,102.2Z"/></g><g id="skygger"><path class="cls-16" d="M95.57,22.34s9.3-3.76,12.33-4,14.21-1.25,14.34-.3-7.7,4.28-7.7,4.28-.06,1,2.08,1.77,6.12,1.77,4.94,2.36-5.76,1-8.86.59S95.49,24,95.57,22.34Z"/><path class="cls-17" d="M77.05,42.13s-3.18-8.71-1.78-9.82,5.88-3.62,7.8-1.77a10.39,10.39,0,0,1,2.26,2.66V38a53.5,53.5,0,0,1-5.78-.15C79,37.62,77.05,42.13,77.05,42.13Z"/><path class="cls-11" d="M71.62,50.52a4.3,4.3,0,0,0-2.42,3.17,4.44,4.44,0,0,0,1.11,3.55.81.81,0,0,0,.22.17c.41.22,1.76.88,2.15.22a1.64,1.64,0,0,0,.12-1.3.78.78,0,0,0-.36-.45l-.94-.56a.8.8,0,0,1-.37-.89c.13-.52.42-1.18,1-1.13,1,.08,2.11-.23,1.81-1.13S72.69,49.81,71.62,50.52Z"/><path class="cls-18" d="M90.43,231.53s2.82-2.6,4.73-.89a2.27,2.27,0,0,1,.62,3S93.13,232.67,90.43,231.53Z"/><path class="cls-18" d="M76.43,231.53s2.82-2.6,4.73-.89a2.27,2.27,0,0,1,.62,3S79.13,232.67,76.43,231.53Z"/><path class="cls-11" d="M80.33,75.72l1.2,1.84s-.12,4.52.33,5.75a15.73,15.73,0,0,0,1.27,3c.33.41,3.51,3.31,3.69,3.44a4.37,4.37,0,0,1-2.65-.92,9,9,0,0,1-2.79-3.6,20.51,20.51,0,0,1-1-4.43Z"/></g><g id="ærme2"><path class="cls-13" d="M100.63,90.13a79.74,79.74,0,0,1,6.47,7.07,20.84,20.84,0,0,1,2.23,4.86l-6.66.79Z"/></g><g id="ærme"><path class="cls-13" d="M72.32,89.38s-3.81,1.18-4.5,6.52S66.76,106,67.5,106.27s13.43-2.37,13.43-2.37-.27-8.74-1.85-10.8S74.55,88.88,72.32,89.38Z"/><path class="cls-13" d="M80.22,81l-.76.27A2.09,2.09,0,0,0,78.68,83c.06,1.25.28,3.43,1.05,4.42a7.12,7.12,0,0,0,3.57,3,11,11,0,0,0,6.57,1c2.5-.37,3.92-1,4.45-2.1a2,2,0,0,0,.08-1.68.62.62,0,0,0-.34-.34L93.33,87a1.51,1.51,0,0,1-.85,1.74,8.43,8.43,0,0,1-4.29,1.11,7.23,7.23,0,0,1-4.63-1.48,8,8,0,0,1-2.63-4.63c-.35-1.53-.52-2.35-.58-2.64A.09.09,0,0,0,80.22,81Z"/></g></symbol><symbol id="_2" data-name="2" viewBox="0 0 200 250"><g id="baggrund_copy" data-name="baggrund copy"><rect class="cls-1" width="200" height="250"/></g><g id="ben_copy" data-name="ben copy"><path class="cls-2" d="M84.14,147.85s3.9-2,4,1,1.56,13.43,0,24.58-7.34,56.37-7.34,56.37L88.62,232s8.21-63.66,8.57-68.31,2.39-32.89,2.39-32.89l-29.26-1.39c-2-.27-.49,9.06.19,11.79l1,4.2s3.65,13.64,3.23,17.47S74,190,73.78,194.58s-2.66,18.29-2.66,18.29l-3,14-.68,2.25,7.22,1.25s5.92-28.14,6.18-31.24c0,0,.81-7.38,1.54-17.58S84.14,147.85,84.14,147.85Z"/><path class="cls-3" d="M80.52,146.23"/></g><g id="buks_copy" data-name="buks copy"><path class="cls-4" d="M73.88,140.44S78,153.26,78.43,157s0,24.68,0,28.62-2.65,25.2-2.65,25.2L74,221l-3.55,9.86,4.95,1.08,5.89-35.49L84,148.25l1.21-.2,7.08-2.4v16.67l-2,26.36-2.53,19.12L86.25,222.1l-1.67,8.74,3.91.67,3.42-30s5.23-35.57,5.28-37.82,1.63-22.34,1.63-22.34Z"/></g><g id="tshirt_copy" data-name="tshirt copy"><path class="cls-5" d="M68.51,106.6s-.38,4.55-.6,11.33,0,13,0,13S79.21,133,85.11,133s15.22-2.22,15.22-2.22,2.36-22.07,2.35-28c0-4.29-1.61-12.28-1.61-12.28l-1.89-2.48-5.84-1.33s-.28,2.16-1.81,2.62a15.78,15.78,0,0,1-4.91.46c-1.43-.07-4.23-2.06-4.89-3.45A34.46,34.46,0,0,1,80.33,81s-3.67,2.92-4.84,4.75a31.68,31.68,0,0,1-2.66,3.5S69.16,98.94,68.51,106.6Z"/><path class="cls-3" d="M66.83,101.28"/></g><g id="hoved_copy" data-name="hoved copy"><path class="cls-6" d="M77,45.54s-6.29-4.63-8.54,4.58S75,59.44,75,59.44s.86,6.68,2.16,8.86a36.51,36.51,0,0,1,2.52,6L80,81.13s-.18,6.89,4.59,8S91.82,88,91.82,88l.11-1.6s7,3.87,12,.82,9-6.16,11.34-11.65,7.63-16.75,8.6-26.21S125,34.13,125,34.13s-11.48,1-17.62,1.05a58.13,58.13,0,0,1-12.94-1.69Z"/></g><g id="øjne_copy" data-name="øjne copy"><ellipse cx="99.29" cy="57.79" rx="2.93" ry="2.04" transform="translate(34.86 152.9) rotate(-86.09)"/><ellipse class="cls-7" cx="98.73" cy="56.92" rx="1.12" ry="0.86" transform="translate(35.21 151.53) rotate(-86.09)"/><ellipse class="cls-7" cx="99.47" cy="58.68" rx="0.81" ry="0.62" transform="translate(34.14 153.91) rotate(-86.09)"/><ellipse cx="115.77" cy="59.2" rx="2.93" ry="2.04" transform="translate(48.8 170.66) rotate(-86.09)"/><ellipse class="cls-7" cx="115.59" cy="58.36" rx="1.12" ry="0.86" transform="translate(49.48 169.7) rotate(-86.09)"/><path class="cls-8" d="M92.64,46.73s4.72.19,6.47-.91S103,43.06,103,43.06l1.42,3.3s-3.87,2.07-5.19,2.17-6.68,0-6.68,0Z"/><path class="cls-9" d="M114,47.36l-1.4,2.45s2.25,2.89,4.14,3.53a43.9,43.9,0,0,0,6,1.18l.44-1.84s-4.62-1-5.63-1.8A47.89,47.89,0,0,1,114,47.36Z"/><ellipse class="cls-7" cx="116.21" cy="60.3" rx="0.81" ry="0.62" transform="translate(48.12 172.12) rotate(-86.09)"/></g><g id="mund_copy" data-name="mund copy"><path class="cls-10" d="M98.41,74.11s7.79-5.26,11,1.14"/><path class="cls-11" d="M115.93,53.35l-.32,0c-1,.07-4.23.37-4.85,1.56-.74,1.43-1.72,2.56-1.2,5.25s1.1,3.76.06,4.72a4.91,4.91,0,0,1-3.4,1.7A27.16,27.16,0,0,1,102,65.53l3.28.36s3.43-.58,3.35-1.87-.42-4.28-.41-5.34.58-5.49,2-6.14,1.71-1,1.71-1l2.72,1.54"/></g><g id="hår_copy" data-name="hår copy"><path class="cls-12" d="M82.07,60.17S80.14,61.32,79,60s.77-5.91-.2-7.95-6.89-12.8-7-15.51.15-5.78,1.34-6.93A11.3,11.3,0,0,1,78.43,26c3.23-1.14,2.27-1.57,2.27-1.57s-1.45-9.72,2.09-11.08,3.42-1,8.12-1.28,28.66,2.33,29.24,3,19,2.9,16.52,5.44-8.78,4.08-8.78,4.08-1.69-.49.28,1.37,8.13,1.91,6.48,4.39-9.6,5.26-13.31,5.38-11.45.94-16,.51-11.9-1.8-11.9-1.8S93,43,90.34,43.8s-6.31.39-7.07,2.45S82.07,60.17,82.07,60.17Z"/></g><g id="sko_copy" data-name="sko copy"><path class="cls-5" d="M81.47,227.3s3.15,2.82,6.91,1.78a14,14,0,0,1,7.42.23s1.54.42,1.63,3.34c.1,3.56-.71,4.29-2.64,5.18s-10.57-2.07-10.57-2.07-4.68.59-4.68-1.78S81.47,227.3,81.47,227.3Z"/><path class="cls-5" d="M67.47,227.3s3.15,2.82,6.91,1.78a14,14,0,0,1,7.42.23s1.54.42,1.63,3.34c.1,3.56-.71,4.29-2.64,5.18s-10.57-2.07-10.57-2.07-4.68.59-4.68-1.78S67.47,227.3,67.47,227.3Z"/></g><g id="kant_copy" data-name="kant copy"><path class="cls-13" d="M67.91,130.94l-.1,2.41,12.08,1.74a36.36,36.36,0,0,0,19.52-2.87l.84-1.38s-7,1-10.94,1.43a73,73,0,0,1-13.09-.56C74.68,131.43,67.91,130.94,67.91,130.94Z"/></g><g id="iphone_copy" data-name="iphone copy"><polygon class="cls-14" points="99.05 139.15 86.85 137.54 90.02 113.52 102.22 115.13 99.05 139.15"/><path class="cls-14" d="M99,138l-12.2-1.61L88,137.54l3.18-24L90,114.64l12.2,1.61-1.12-1.12-3.18,24c-.19,1.43,2.06,1.42,2.25,0l3.18-24c.09-.66-.59-1.05-1.12-1.12L90,112.39c-.66-.09-1.05.59-1.12,1.13l-3.18,24c-.09.66.59,1.05,1.13,1.13L99,140.28C100.48,140.46,100.46,138.21,99,138Z"/><circle class="cls-15" cx="90.3" cy="113.93" r="0.94" transform="translate(-34.48 188.51) rotate(-82.47)"/></g><g id="arm2_copy" data-name="arm2 copy"><path class="cls-6" d="M107.28,100.69s3.26,14.35,2.57,19-1.2,7.17-1.2,7.17c1.15,3,.15,4-1.45,5-1.17.69-2.85,0-3.66-.49a1.43,1.43,0,0,1-.7-.86,5.18,5.18,0,0,1,.85-4.31c1.83-2.84,2.87-9.14,2.65-12s-3.18-13-3.18-13Z"/></g><g id="arm_copy" data-name="arm copy"><path class="cls-6" d="M71.78,103.29s-2.91,7.88-1.86,11.71,3,7.64,5.74,9.8a69.09,69.09,0,0,0,6.07,4.13s2.08,2.5,4,2.79,4.23-1.34,4.23-1.34,1.92-1.94,1.32-3.18-1-2.42-2.47-3.14a5.77,5.77,0,0,0-3-.49l-1.46.41s-2.39.13-5-2.65-4.09-8-4.09-8a66.55,66.55,0,0,1,.87-7.73C76.6,103.58,71.78,103.29,71.78,103.29Z"/></g><g id="skygger_copy" data-name="skygger copy"><path class="cls-16" d="M98.57,22.08s9.54-3.12,12.57-3.14,14.26-.28,14.33.68-8,3.75-8,3.75-.12,1,1.95,1.91,6,2.19,4.76,2.69-5.81.56-8.88,0S98.39,23.69,98.57,22.08Z"/><path class="cls-17" d="M78.75,40.55s-2.58-8.91-1.1-9.92,6.11-3.21,7.9-1.24a10.39,10.39,0,0,1,2.07,2.81L87.29,37a53.5,53.5,0,0,1-5.76-.55C81,36.19,78.75,40.55,78.75,40.55Z"/><path class="cls-11" d="M72.75,48.56a4.3,4.3,0,0,0-2.63,3A4.44,4.44,0,0,0,71,55.17a.81.81,0,0,0,.21.18c.39.25,1.7,1,2.13.37a1.64,1.64,0,0,0,.21-1.29A.78.78,0,0,0,73.2,54l-.9-.62a.8.8,0,0,1-.31-.91c.17-.51.5-1.15,1.1-1.06,1,.14,2.12-.09,1.89-1S73.87,47.92,72.75,48.56Z"/><path class="cls-18" d="M90.43,231.53s2.82-2.6,4.73-.89a2.27,2.27,0,0,1,.62,3S93.13,232.67,90.43,231.53Z"/><path class="cls-18" d="M76.43,231.53s2.82-2.6,4.73-.89a2.27,2.27,0,0,1,.62,3S79.13,232.67,76.43,231.53Z"/><path class="cls-11" d="M79.73,74.29l1.33,1.89a2.27,2.27,0,0,1,.28,1.28,22.6,22.6,0,0,0,0,5.08,15.73,15.73,0,0,0,1.07,3c.3.43,3.28,3.54,3.44,3.68a4.37,4.37,0,0,1-2.58-1.1,9,9,0,0,1-2.54-3.78A19.47,19.47,0,0,1,80,80.06a2.23,2.23,0,0,1,0-.31Z"/></g><g id="ærme2_copy" data-name="ærme2 copy"><path class="cls-13" d="M100.63,90.13a79.74,79.74,0,0,1,6.47,7.07,20.84,20.84,0,0,1,2.23,4.86l-6.66.79Z"/></g><g id="ærme_copy" data-name="ærme copy"><path class="cls-13" d="M72.32,89.38s-3.81,1.18-4.5,6.52S66.76,106,67.5,106.27s13.43-2.37,13.43-2.37-.27-8.74-1.85-10.8S74.55,88.88,72.32,89.38Z"/><path class="cls-13" d="M80.22,81l-.76.27A2.09,2.09,0,0,0,78.68,83c.06,1.25.28,3.43,1.05,4.42a7.12,7.12,0,0,0,3.57,3,11,11,0,0,0,6.57,1c2.5-.37,3.92-1,4.45-2.1a2,2,0,0,0,.08-1.68.62.62,0,0,0-.34-.34l-2.12-.86s.29,1.66-.85,2.1a5.28,5.28,0,0,1-3.38.77c-2.17-.12-2.84.08-4.14-.93a8,8,0,0,1-2.63-4.63c-.35-1.53-.52-2.35-.58-2.64A.09.09,0,0,0,80.22,81Z"/></g></symbol><symbol id="_3" data-name="3" viewBox="0 0 200 250"><g id="baggrund_copy_2" data-name="baggrund copy 2"><rect class="cls-1" width="200" height="250"/></g><g id="ben_copy_2" data-name="ben copy 2"><path class="cls-2" d="M84.14,147.85s3.9-2,4,1,1.56,13.43,0,24.58-7.34,56.37-7.34,56.37L88.62,232s8.21-63.66,8.57-68.31,2.39-32.89,2.39-32.89l-29.26-1.39c-2-.27-.49,9.06.19,11.79l1,4.2s3.65,13.64,3.23,17.47S74,190,73.78,194.58s-2.66,18.29-2.66,18.29l-3,14-.68,2.25,7.22,1.25s5.92-28.14,6.18-31.24c0,0,.81-7.38,1.54-17.58S84.14,147.85,84.14,147.85Z"/><path class="cls-3" d="M80.52,146.23"/></g><g id="buks_copy_2" data-name="buks copy 2"><path class="cls-4" d="M73.88,140.44S78,153.26,78.43,157s0,24.68,0,28.62-2.65,25.2-2.65,25.2L74,221l-3.55,9.86,4.95,1.08,5.89-35.49L84,148.25l1.21-.2,7.08-2.4v16.67l-2,26.36-2.53,19.12L86.25,222.1l-1.67,8.74,3.91.67,3.42-30s5.23-35.57,5.28-37.82,1.63-22.34,1.63-22.34Z"/></g><g id="tshirt_copy_2" data-name="tshirt copy 2"><path class="cls-5" d="M68.51,106.6s-.38,4.55-.6,11.33,0,13,0,13S79.21,133,85.11,133s15.22-2.22,15.22-2.22,2.36-22.07,2.35-28c0-4.29-1.61-12.28-1.61-12.28l-1.89-2.48-5.84-1.33s-.28,2.16-1.81,2.62a15.78,15.78,0,0,1-4.91.46c-1.43-.07-4.23-2.06-4.89-3.45A34.46,34.46,0,0,1,80.33,81s-3.67,2.92-4.84,4.75a31.68,31.68,0,0,1-2.66,3.5S69.16,98.94,68.51,106.6Z"/><path class="cls-3" d="M66.83,101.28"/></g><g id="hoved_copy_2" data-name="hoved copy 2"><path class="cls-6" d="M79.39,46.24s-6-5-8.77,4.12,6,9.66,6,9.66.5,6.71,1.68,9a36.51,36.51,0,0,1,2.19,6.11l-.1,6.84s-.55,6.87,4.15,8.26,7.29-.73,7.29-.73l.2-1.6s6.77,4.23,12,1.46,9.35-5.67,11.95-11S124.51,62,126,52.59s2-15.18,2-15.18-11.52.38-17.65.11a58.13,58.13,0,0,1-12.83-2.38Z"/></g><g id="øjne_copy_2" data-name="øjne copy 2"><ellipse cx="100.96" cy="59.66" rx="2.93" ry="2.04" transform="translate(29.48 152.63) rotate(-83.03)"/><ellipse class="cls-7" cx="100.45" cy="58.76" rx="1.12" ry="0.86" transform="translate(29.92 151.33) rotate(-83.03)"/><ellipse class="cls-7" cx="101.09" cy="60.56" rx="0.81" ry="0.62" transform="translate(28.7 153.54) rotate(-83.03)"/><ellipse cx="117.34" cy="61.96" rx="2.93" ry="2.04" transform="translate(41.59 170.9) rotate(-83.03)"/><ellipse class="cls-7" cx="117.2" cy="61.1" rx="1.12" ry="0.86" transform="translate(42.32 170.02) rotate(-83.03)"/><path class="cls-8" d="M94.9,48.27s4.71.45,6.51-.56,4-2.55,4-2.55l1.25,3.37s-4,1.86-5.29,1.89-6.67-.36-6.67-.36Z"/><path class="cls-9" d="M116.25,50l-1.53,2.37s2.1,3,3.95,3.75a43.9,43.9,0,0,0,5.91,1.5l.53-1.81s-4.56-1.27-5.53-2.1A47.89,47.89,0,0,1,116.25,50Z"/><ellipse class="cls-7" cx="117.72" cy="63.07" rx="0.81" ry="0.62" transform="translate(40.81 172.26) rotate(-83.03)"/></g><g id="mund_copy_2" data-name="mund copy 2"><path class="cls-10" d="M99.21,75.91s8.06-4.84,10.88,1.72"/><path class="cls-11" d="M117.81,56.12h-.33c-1,0-4.24.14-4.93,1.3-.82,1.39-1.86,2.47-1.48,5.18s.89,3.81-.19,4.71a4.91,4.91,0,0,1-3.49,1.52,27.16,27.16,0,0,1-4.12-1.28l3.26.54s3.45-.39,3.44-1.69-.19-4.29-.13-5.35.87-5.45,2.37-6,1.77-.94,1.77-.94l2.64,1.68"/></g><g id="hår_copy_2" data-name="hår copy 2"><path class="cls-12" d="M83.64,61.12s-2,1-3.05-.37,1.09-5.86.23-7.95-6.2-13.15-6.11-15.86.46-5.77,1.71-6.85a11.3,11.3,0,0,1,5.42-3.3c3.28-1,2.35-1.45,2.35-1.45s-.93-9.79,2.68-11,3.47-.81,8.18-.85,28.5,3.86,29,4.54S142.93,22,140.28,24.4s-9,3.61-9,3.61-1.66-.58.2,1.39,8,2.34,6.23,4.73-9.87,4.74-13.58,4.66-11.48.33-16-.34S96.41,36,96.41,36s-1,8.55-3.64,9.22-6.32.05-7.19,2.07S83.64,61.12,83.64,61.12Z"/></g><g id="sko_copy_2" data-name="sko copy 2"><path class="cls-5" d="M81.47,227.3s3.15,2.82,6.91,1.78a14,14,0,0,1,7.42.23s1.54.42,1.63,3.34c.1,3.56-.71,4.29-2.64,5.18s-10.57-2.07-10.57-2.07-4.68.59-4.68-1.78S81.47,227.3,81.47,227.3Z"/><path class="cls-5" d="M67.47,227.3s3.15,2.82,6.91,1.78a14,14,0,0,1,7.42.23s1.54.42,1.63,3.34c.1,3.56-.71,4.29-2.64,5.18s-10.57-2.07-10.57-2.07-4.68.59-4.68-1.78S67.47,227.3,67.47,227.3Z"/></g><g id="kant_copy_2" data-name="kant copy 2"><path class="cls-13" d="M67.91,130.94l-.1,2.41,12.08,1.74a36.36,36.36,0,0,0,19.52-2.87l.84-1.38s-7,1-10.94,1.43a73,73,0,0,1-13.09-.56C74.68,131.43,67.91,130.94,67.91,130.94Z"/></g><g id="arm2_copy_2" data-name="arm2 copy 2"><path class="cls-6" d="M107.11,101.18s1.38,14.65.09,19.19-2.12,7-2.12,7c.75,3.15-.37,4-2.08,4.73-1.25.53-2.82-.42-3.56-1a1.43,1.43,0,0,1-.58-.95,5.18,5.18,0,0,1,1.4-4.16c2.18-2.58,4-8.69,4.17-11.52S103,101.13,103,101.13Z"/></g><g id="iphone_copy_2" data-name="iphone copy 2"><polygon class="cls-14" points="101.1 134.47 88.9 132.85 92.08 108.83 104.27 110.45 101.1 134.47"/><path class="cls-14" d="M101.1,133.34l-12.2-1.61L90,132.85l3.18-24L92.08,110l12.2,1.61-1.12-1.12-3.18,24c-.19,1.43,2.06,1.42,2.25,0l3.18-24c.09-.66-.59-1.05-1.12-1.12l-12.2-1.61c-.66-.09-1.05.59-1.12,1.13l-3.18,24c-.09.66.59,1.05,1.13,1.13l12.2,1.61C102.53,135.78,102.51,133.53,101.1,133.34Z"/><circle class="cls-15" cx="92.7" cy="109.4" r="0.94" transform="translate(-27.9 186.96) rotate(-82.47)"/></g><g id="arm_copy_2" data-name="arm copy 2"><path class="cls-6" d="M72.21,103.32s-2,8.16-.55,11.84,3.8,7.26,6.79,9.1a69.09,69.09,0,0,0,6.49,3.43s2.35,2.25,4.24,2.33,4.05-1.8,4.05-1.8,1.69-2.14,1-3.31-1.31-2.29-2.8-2.84a5.77,5.77,0,0,0-3.07-.15l-1.4.57s-2.36.4-5.22-2.08-4.95-7.49-4.95-7.49a66.55,66.55,0,0,1,0-7.77C77,103.07,72.21,103.32,72.21,103.32Z"/></g><g id="skygger_copy_2" data-name="skygger copy 2"><path class="cls-16" d="M102.15,24s9.69-2.61,12.72-2.46S129.13,22,129.14,23,121,26.27,121,26.27s-.17.95,1.84,2,5.86,2.5,4.61,2.94-5.83.25-8.86-.49S101.88,25.57,102.15,24Z"/><path class="cls-17" d="M81.36,41.35s-2.1-9-.57-10,6.27-2.88,8-.81a10.39,10.39,0,0,1,1.92,2.91l-.58,4.77a53.5,53.5,0,0,1-5.72-.86C83.88,37.12,81.36,41.35,81.36,41.35Z"/><path class="cls-11" d="M75,49a4.3,4.3,0,0,0-2.78,2.85,4.44,4.44,0,0,0,.67,3.66.81.81,0,0,0,.2.2c.38.27,1.64,1.09,2.1.48a1.64,1.64,0,0,0,.28-1.28.78.78,0,0,0-.3-.49l-.86-.67a.8.8,0,0,1-.26-.93c.19-.5.56-1.12,1.15-1,1,.19,2.13,0,1.94-.91S76.1,48.45,75,49Z"/><path class="cls-18" d="M90.43,231.53s2.82-2.6,4.73-.89a2.27,2.27,0,0,1,.62,3S93.13,232.67,90.43,231.53Z"/><path class="cls-18" d="M76.43,231.53s2.82-2.6,4.73-.89a2.27,2.27,0,0,1,.62,3S79.13,232.67,76.43,231.53Z"/><path class="cls-11" d="M80.54,75.1l1.23,2a2.27,2.27,0,0,1,.21,1.3,22.6,22.6,0,0,0-.28,5.08,15.73,15.73,0,0,0,.9,3.1c.28.44,3.08,3.71,3.24,3.86a4.37,4.37,0,0,1-2.52-1.24A9,9,0,0,1,81,85.24a19.47,19.47,0,0,1-.5-4.37,2.23,2.23,0,0,1,0-.31Z"/></g><g id="ærme2_copy_2" data-name="ærme2 copy 2"><path class="cls-13" d="M100.63,90.13a79.74,79.74,0,0,1,6.47,7.07,20.84,20.84,0,0,1,2.23,4.86l-6.66.79Z"/></g><g id="ærme_copy_2" data-name="ærme copy 2"><path class="cls-13" d="M72.32,89.38s-3.81,1.18-4.5,6.52S66.76,106,67.5,106.27s13.43-2.37,13.43-2.37-.27-8.74-1.85-10.8S74.55,88.88,72.32,89.38Z"/><path class="cls-13" d="M80.22,81l-.76.27A2.09,2.09,0,0,0,78.68,83c.06,1.25.28,3.43,1.05,4.42a7.12,7.12,0,0,0,3.57,3,11,11,0,0,0,6.57,1c2.5-.37,3.92-1,4.45-2.1.35-.75.14.32,0,0a2.14,2.14,0,0,0-.67-.61l-1.57-.82s.14.23-1,.66a5.28,5.28,0,0,1-3.38.77c-2.17-.12-2.84.08-4.14-.93a8,8,0,0,1-2.63-4.63c-.35-1.53-.57-2.34-.58-2.64C80.33,80.21,80.27,81,80.22,81Z"/></g></symbol><symbol id="_6" data-name="6" viewBox="0 0 200 250"><g id="baggrund_copy_4" data-name="baggrund copy 4"><rect class="cls-1" width="200" height="250"/></g><g id="ben_copy_4" data-name="ben copy 4"><path class="cls-2" d="M84.14,147.85s3.9-2,4,1,1.56,13.43,0,24.58-7.34,56.37-7.34,56.37L88.62,232s8.21-63.66,8.57-68.31,2.39-32.89,2.39-32.89l-29.26-1.39c-2-.27-.49,9.06.19,11.79l1,4.2s3.65,13.64,3.23,17.47S74,190,73.78,194.58s-2.66,18.29-2.66,18.29l-3,14-.68,2.25,7.22,1.25s5.92-28.14,6.18-31.24c0,0,.81-7.38,1.54-17.58S84.14,147.85,84.14,147.85Z"/><path class="cls-3" d="M80.52,146.23"/></g><g id="buks_copy_4" data-name="buks copy 4"><path class="cls-4" d="M73.88,140.44S78,153.26,78.43,157s0,24.68,0,28.62-2.65,25.2-2.65,25.2L74,221l-3.55,9.86,4.95,1.08,5.89-35.49L84,148.25l1.21-.2,7.08-2.4v16.67l-2,26.36-2.53,19.12L86.25,222.1l-1.67,8.74,3.91.67,3.42-30s5.23-35.57,5.28-37.82,1.63-22.34,1.63-22.34Z"/></g><g id="tshirt_copy_4" data-name="tshirt copy 4"><path class="cls-5" d="M68.51,106.6s-.38,4.55-.6,11.33,0,13,0,13S79.21,133,85.11,133s15.22-2.22,15.22-2.22,2.36-22.07,2.35-28c0-4.29-1.61-12.28-1.61-12.28l-1.89-2.48-5.84-1.33s-.28,2.16-1.81,2.62a15.78,15.78,0,0,1-4.91.46c-1.43-.07-4.23-2.06-4.89-3.45a33.78,33.78,0,0,1-1.39-5.24s-3.67,2.75-4.83,4.57a31.68,31.68,0,0,1-2.66,3.5S69.16,98.94,68.51,106.6Z"/><path class="cls-3" d="M66.83,101.28"/></g><g id="hoved_copy_4" data-name="hoved copy 4"><path class="cls-6" d="M81.9,44.73s-5.71-5.33-9,3.56,5.42,10,5.42,10,.07,6.73,1.11,9.06a36.51,36.51,0,0,1,1.8,6.24l-.54,6.82s-1,6.82,3.62,8.5,7.32-.27,7.32-.27l.3-1.58s6.48,4.65,11.86,2.22,9.69-5.07,12.62-10.25S125.93,63.29,128,54s2.91-15,2.91-15-11.52-.35-17.62-1a58.13,58.13,0,0,1-12.65-3.19Z"/></g><g id="øjne_copy_4" data-name="øjne copy 4"><path class="cls-8" d="M97.25,47.73s5.32,1,6.53-.15a28.59,28.59,0,0,1,4-2.89l1.21,4s-4.08,1.61-5.4,1.56-6.63-.78-6.63-.78Z"/><path class="cls-9" d="M119.08,50.87l-1.86,1.81s1.45,3.57,3.25,4.43A43.9,43.9,0,0,0,126.28,59l.65-1.77s-4.47-1.55-5.39-2.45A22.51,22.51,0,0,1,119.08,50.87Z"/><path d="M98.26,55.25a10,10,0,0,1,3.14-1.57c3.11-.9,5.25.77,6.31,3.68.16.45.89.26.72-.2-1-2.67-2.83-4.78-5.88-4.47a9.77,9.77,0,0,0-4.67,1.92c-.38.29,0,.94.38.65Z"/><path d="M115.71,60.28a8.34,8.34,0,0,1,3.18-.78c2.7-.09,4,1.77,4.41,4.28.07.48.79.27.72-.2-.37-2.51-1.71-4.61-4.41-4.82a8.73,8.73,0,0,0-4.28.87c-.44.21-.06.85.38.65Z"/></g><g id="mund_copy_4" data-name="mund copy 4"><path class="cls-10" d="M99.8,75.6s8.35-4.32,10.75,2.4"/><path class="cls-11" d="M119.62,57l-.32,0c-1-.05-4.24-.13-5,1-.9,1.33-2,2.35-1.8,5.08s.65,3.86-.49,4.69A4.91,4.91,0,0,1,108.44,69a27.16,27.16,0,0,1-4-1.54l3.22.74s3.47-.18,3.54-1.47.08-4.3.21-5.35,1.21-5.39,2.75-5.86a4.28,4.28,0,0,0,1.82-.83l2.52,1.85"/></g><g id="hår_copy_4" data-name="hår copy 4"><path class="cls-12" d="M85.2,59.85s-2,.92-3-.57,1.46-5.78.73-7.92-5.35-13.51-5.1-16.21.82-5.73,2.13-6.73a11.3,11.3,0,0,1,5.61-3c3.34-.75,2.44-1.3,2.44-1.3s-.31-9.83,3.37-10.76,3.51-.58,8.22-.33,28.19,5.65,28.7,6.37,18.57,5.1,15.78,7.33-9.2,3-9.2,3-1.62-.68.11,1.4,7.85,2.84,5.92,5.11S130.73,40.43,127,40.11s-11.48-.4-15.91-1.35-11.61-3.17-11.61-3.17-1.5,8.48-4.21,9S89,44.21,88,46.17,85.2,59.85,85.2,59.85Z"/></g><g id="sko_copy_4" data-name="sko copy 4"><path class="cls-5" d="M81.47,227.3s3.15,2.82,6.91,1.78a14,14,0,0,1,7.42.23s1.54.42,1.63,3.34c.1,3.56-.71,4.29-2.64,5.18s-10.57-2.07-10.57-2.07-4.68.59-4.68-1.78S81.47,227.3,81.47,227.3Z"/><path class="cls-5" d="M67.47,227.3s3.15,2.82,6.91,1.78a14,14,0,0,1,7.42.23s1.54.42,1.63,3.34c.1,3.56-.71,4.29-2.64,5.18s-10.57-2.07-10.57-2.07-4.68.59-4.68-1.78S67.47,227.3,67.47,227.3Z"/></g><g id="kant_copy_4" data-name="kant copy 4"><path class="cls-13" d="M67.91,130.94l-.1,2.41,12.08,1.74a36.36,36.36,0,0,0,19.52-2.87l.84-1.38s-7,1-10.94,1.43a73,73,0,0,1-13.09-.56C74.68,131.43,67.91,130.94,67.91,130.94Z"/></g><g id="arm2_copy_4" data-name="arm2 copy 4"><path class="cls-6" d="M107.11,101.18s1.38,14.65.09,19.19-2.12,7-2.12,7c.75,3.15-.37,4-2.08,4.73-1.25.53-2.82-.42-3.56-1a1.43,1.43,0,0,1-.58-.95,5.18,5.18,0,0,1,1.4-4.16c2.18-2.58,4-8.69,4.17-11.52S103,101.13,103,101.13Z"/></g><g id="iphone_copy_4" data-name="iphone copy 4"><polygon class="cls-14" points="101 131.43 89.28 127.7 96.63 104.61 108.35 108.34 101 131.43"/><path class="cls-14" d="M101.3,130.35l-11.73-3.73.79,1.38,7.35-23.09-1.38.79,11.73,3.73-.79-1.38-7.35,23.09c-.44,1.38,1.73,2,2.17.6l7.35-23.09a1.14,1.14,0,0,0-.79-1.38l-11.73-3.73a1.14,1.14,0,0,0-1.38.79L88.19,127.4a1.14,1.14,0,0,0,.79,1.38l11.73,3.73C102.09,133,102.68,130.79,101.3,130.35Z"/><circle class="cls-15" cx="97.18" cy="105.25" r="0.94" transform="translate(-19.91 187.79) rotate(-82.47)"/></g><g id="arm_copy_4" data-name="arm copy 4"><path class="cls-6" d="M71,104.25s-.59,8.38,1.49,11.76,5,6.5,8.25,7.8a69.09,69.09,0,0,0,7,2.26s2.7,1.81,4.58,1.57S96,125.18,96,125.18s1.3-2.4.38-3.43-1.68-2-3.25-2.32a5.77,5.77,0,0,0-3.05.38l-1.29.8s-2.25.8-5.5-1.15-6.16-6.53-6.16-6.53a66.55,66.55,0,0,1-1.33-7.66C75.73,103.17,71,104.25,71,104.25Z"/></g><g id="skygger_copy_4" data-name="skygger copy 4"><path class="cls-16" d="M106,23.94s9.84-2,12.85-1.65,14.2,1.38,14.15,2.35-8.35,2.79-8.35,2.79-.23.93,1.71,2.12,5.69,2.87,4.42,3.23-5.84-.12-8.82-1S105.65,25.52,106,23.94Z"/><path class="cls-17" d="M84.18,40s-1.52-9.15.06-10,6.44-2.48,8-.31a10.39,10.39,0,0,1,1.73,3l-.88,4.72a53.5,53.5,0,0,1-5.65-1.21C87,35.92,84.18,40,84.18,40Z"/><path class="cls-11" d="M77.29,47.23a4.3,4.3,0,0,0-3,2.67,4.44,4.44,0,0,0,.43,3.7.81.81,0,0,0,.18.21c.36.29,1.57,1.19,2.07.61a1.64,1.64,0,0,0,.36-1.26.78.78,0,0,0-.27-.51l-.82-.72a.8.8,0,0,1-.2-.94c.23-.49.63-1.08,1.21-.93,1,.25,2.12.16,2-.78S78.47,46.73,77.29,47.23Z"/><path class="cls-18" d="M90.43,231.53s2.82-2.6,4.73-.89a2.27,2.27,0,0,1,.62,3S93.13,232.67,90.43,231.53Z"/><path class="cls-18" d="M76.43,231.53s2.82-2.6,4.73-.89a2.27,2.27,0,0,1,.62,3S79.13,232.67,76.43,231.53Z"/><path class="cls-11" d="M81.22,73.61l1.1,2a2.27,2.27,0,0,1,.13,1.31,22.6,22.6,0,0,0-.6,5,15.73,15.73,0,0,0,.71,3.15c.25.46,2.84,3.9,3,4.06a4.37,4.37,0,0,1-2.44-1.39A9,9,0,0,1,81,83.76a19.47,19.47,0,0,1-.22-4.39,2.23,2.23,0,0,1,0-.31Z"/></g><g id="ærme2_copy_4" data-name="ærme2 copy 4"><path class="cls-13" d="M100.63,90.13a79.74,79.74,0,0,1,6.47,7.07,20.84,20.84,0,0,1,2.23,4.86l-6.66.79Z"/></g><g id="ærme_copy_4" data-name="ærme copy 4"><path class="cls-13" d="M72.32,89.38s-3.81,1.18-4.5,6.52S66.76,106,67.5,106.27s13.43-2.37,13.43-2.37-.27-8.74-1.85-10.8S74.55,88.88,72.32,89.38Z"/><path class="cls-13" d="M80.22,81l-.73.26-.06,0A2.11,2.11,0,0,0,78.68,83c.06,1.25.28,3.43,1.05,4.42a7.12,7.12,0,0,0,3.57,3,11,11,0,0,0,6.57,1c2.5-.37,3.92-1,4.45-2.1.35-.75-.15.32,0,0,.33-.71-.55-1.15-.7-1.22l-1.68-1c-.13-.08-.12.52-.13.67,0,.34-.06.35-.73.78s-1.21.9-3.38.77-2.84.08-4.14-.93a8,8,0,0,1-2.63-4.63,6.74,6.74,0,0,1-.31-2.67C80.68,80.95,80.27,81,80.22,81Z"/></g></symbol><symbol id="_7" data-name="7" viewBox="0 0 200 250"><g id="baggrund_copy_5" data-name="baggrund copy 5"><rect class="cls-1" width="200" height="250"/></g><g id="ben_copy_5" data-name="ben copy 5"><path class="cls-2" d="M84.14,147.85s3.9-2,4,1,1.56,13.43,0,24.58-7.34,56.37-7.34,56.37L88.62,232s8.21-63.66,8.57-68.31,2.39-32.89,2.39-32.89l-29.26-1.39c-2-.27-.49,9.06.19,11.79l1,4.2s3.65,13.64,3.23,17.47S74,190,73.78,194.58s-2.66,18.29-2.66,18.29l-3,14-.68,2.25,7.22,1.25s5.92-28.14,6.18-31.24c0,0,.81-7.38,1.54-17.58S84.14,147.85,84.14,147.85Z"/><path class="cls-3" d="M80.52,146.23"/></g><g id="buks_copy_5" data-name="buks copy 5"><path class="cls-4" d="M73.88,140.44S78,153.26,78.43,157s0,24.68,0,28.62-2.65,25.2-2.65,25.2L74,221l-3.55,9.86,4.95,1.08,5.89-35.49L84,148.25l1.21-.2,7.08-2.4v16.67l-2,26.36-2.53,19.12L86.25,222.1l-1.67,8.74,3.91.67,3.42-30s5.23-35.57,5.28-37.82,1.63-22.34,1.63-22.34Z"/></g><g id="tshirt_copy_5" data-name="tshirt copy 5"><path class="cls-5" d="M68.51,106.6s-.38,4.55-.6,11.33,0,13,0,13S79.21,133,85.11,133s15.22-2.22,15.22-2.22,2.36-22.07,2.35-28c0-4.29-1.61-12.28-1.61-12.28l-1.89-2.48-5.84-1.33s-.28,2.16-1.81,2.62a15.78,15.78,0,0,1-4.91.46c-1.43-.07-4.23-2.06-4.89-3.45a33.78,33.78,0,0,1-1.39-5.24s-3.67,2.75-4.83,4.57a31.68,31.68,0,0,1-2.66,3.5S69.16,98.94,68.51,106.6Z"/><path class="cls-3" d="M66.83,101.28"/></g><g id="hoved_copy_5" data-name="hoved copy 5"><path class="cls-6" d="M84.54,44.58s-5.25-5.78-9.28,2.8,4.57,10.44,4.57,10.44-.48,6.71.36,9.12a36.51,36.51,0,0,1,1.28,6.36l-1.1,6.75s-1.54,6.72,2.91,8.77,7.32.34,7.32.34L91,87.61s6.08,5.17,11.63,3.19,10.07-4.25,13.42-9.18,10.79-14.91,13.61-24,4.13-14.73,4.13-14.73-11.45-1.3-17.48-2.45A58.13,58.13,0,0,1,104,36.23Z"/></g><g id="øjne_copy_5" data-name="øjne copy 5"><path class="cls-8" d="M99.59,48.84s5.22,1.42,6.52.39a28.59,28.59,0,0,1,4.19-2.56l.87,4.12s-4.2,1.26-5.51,1.11-6.54-1.33-6.54-1.33Z"/><path class="cls-9" d="M121.09,53.77l-2,1.65s1.15,3.68,2.87,4.68a43.9,43.9,0,0,0,5.63,2.34l.79-1.71s-4.32-1.92-5.17-2.88A22.51,22.51,0,0,1,121.09,53.77Z"/><path d="M100,56.4a9.89,9.89,0,0,1,3.31-1.31c3.16-.61,5.1,1.28,5.91,4.23a.38.38,0,0,0,.72-.2c-.75-2.76-2.47-5-5.55-4.91a9.86,9.86,0,0,0-4.78,1.54c-.41.26,0,.9.38.65Z"/><path d="M116.9,62.89a8.58,8.58,0,0,1,3.13-.54c2.74.05,4,2,4.2,4.57,0,.48.78.48.75,0-.16-2.53-1.27-4.78-4-5.23a8.63,8.63,0,0,0-4.32.48c-.45.17-.25.89.2.72Z"/><path class="cls-19" d="M98.31,57.84s-3.85,2.74-1.91,3.6,2.35.37,2.35-.33S98.31,57.84,98.31,57.84Z"/></g><g id="mund_copy_5" data-name="mund copy 5"><path class="cls-10" d="M99.84,76.82s8.67-3.62,10.51,3.28"/><path class="cls-11" d="M121.12,59.94l-.32,0c-1-.14-4.22-.48-5.06.57-1,1.26-2.19,2.17-2.21,4.91s.33,3.9-.87,4.64A4.91,4.91,0,0,1,109,71a27.16,27.16,0,0,1-3.89-1.86l3.15,1s3.47.11,3.65-1.17.43-4.27.65-5.31,1.65-5.27,3.22-5.61a4.28,4.28,0,0,0,1.89-.67l2.36,2"/></g><g id="hår_copy_5" data-name="hår copy 5"><path class="cls-12" d="M86.58,59.92s-2.12.74-3-.81,1.93-5.64,1.38-7.83S80.77,37.37,81.25,34.7s1.29-5.64,2.68-6.53a11.3,11.3,0,0,1,5.84-2.48c3.39-.47,2.53-1.09,2.53-1.09s.5-9.82,4.24-10.45,3.55-.29,8.22.35,27.63,8,28.07,8.71,18.09,6.61,15.12,8.61-9.42,2.26-9.42,2.26-1.56-.81,0,1.4S146.12,39,144,41.06s-10.45,3.26-14.11,2.64S118.5,42.36,114.17,41s-11.31-4.12-11.31-4.12-2.19,8.32-4.94,8.59-6.26-.87-7.42,1S86.58,59.92,86.58,59.92Z"/></g><g id="sko_copy_5" data-name="sko copy 5"><path class="cls-5" d="M81.47,227.3s3.15,2.82,6.91,1.78a14,14,0,0,1,7.42.23s1.54.42,1.63,3.34c.1,3.56-.71,4.29-2.64,5.18s-10.57-2.07-10.57-2.07-4.68.59-4.68-1.78S81.47,227.3,81.47,227.3Z"/><path class="cls-5" d="M67.47,227.3s3.15,2.82,6.91,1.78a14,14,0,0,1,7.42.23s1.54.42,1.63,3.34c.1,3.56-.71,4.29-2.64,5.18s-10.57-2.07-10.57-2.07-4.68.59-4.68-1.78S67.47,227.3,67.47,227.3Z"/></g><g id="kant_copy_5" data-name="kant copy 5"><path class="cls-13" d="M67.91,130.94l-.1,2.41,12.08,1.74a36.36,36.36,0,0,0,19.52-2.87l.84-1.38s-7,1-10.94,1.43a73,73,0,0,1-13.09-.56C74.68,131.43,67.91,130.94,67.91,130.94Z"/></g><g id="arm2_copy_5" data-name="arm2 copy 5"><path class="cls-6" d="M107.11,101.18s1.38,14.65.09,19.19-2.12,7-2.12,7c.75,3.15-.37,4-2.08,4.73-1.25.53-2.82-.42-3.56-1a1.43,1.43,0,0,1-.58-.95,5.18,5.18,0,0,1,1.4-4.16c2.18-2.58,4-8.69,4.17-11.52S103,101.13,103,101.13Z"/></g><g id="iphone_copy_5" data-name="iphone copy 5"><polygon class="cls-14" points="101 131.43 89.28 127.7 96.63 104.61 108.35 108.34 101 131.43"/><path class="cls-14" d="M101.3,130.35l-11.73-3.73.79,1.38,7.35-23.09-1.38.79,11.73,3.73-.79-1.38-7.35,23.09c-.44,1.38,1.73,2,2.17.6l7.35-23.09a1.14,1.14,0,0,0-.79-1.38l-11.73-3.73a1.14,1.14,0,0,0-1.38.79L88.19,127.4a1.14,1.14,0,0,0,.79,1.38l11.73,3.73C102.09,133,102.68,130.79,101.3,130.35Z"/><circle class="cls-15" cx="97.18" cy="105.25" r="0.94" transform="translate(-19.91 187.79) rotate(-82.47)"/></g><g id="arm_copy_5" data-name="arm copy 5"><path class="cls-6" d="M71,104.25s-.59,8.38,1.49,11.76,5,6.5,8.25,7.8a69.09,69.09,0,0,0,7,2.26s2.7,1.81,4.58,1.57S96,125.18,96,125.18s1.3-2.4.38-3.43-1.68-2-3.25-2.32a5.77,5.77,0,0,0-3.05.38l-1.29.8s-2.25.8-5.5-1.15-6.16-6.53-6.16-6.53a66.55,66.55,0,0,1-1.33-7.66C75.73,103.17,71,104.25,71,104.25Z"/></g><g id="skygger_copy_5" data-name="skygger copy 5"><path class="cls-16" d="M110.29,25.85s10-1.17,12.94-.59,14,2.55,13.91,3.51-8.55,2.1-8.55,2.1-.31.91,1.53,2.26,5.43,3.33,4.14,3.58-5.81-.6-8.7-1.77S109.79,27.39,110.29,25.85Z"/><path class="cls-17" d="M87.2,40s-.76-9.24.88-9.94,6.62-1.94,8,.35a10.39,10.39,0,0,1,1.48,3.16l-1.27,4.63a53.5,53.5,0,0,1-5.53-1.68C90.3,36.22,87.2,40,87.2,40Z"/><path class="cls-11" d="M79.74,46.7a4.3,4.3,0,0,0-3.17,2.42,4.44,4.44,0,0,0,.13,3.72.81.81,0,0,0,.17.22c.34.32,1.47,1.32,2,.78a1.64,1.64,0,0,0,.46-1.22.78.78,0,0,0-.23-.53l-.76-.78a.8.8,0,0,1-.13-1c.27-.47.72-1,1.28-.82.93.33,2.1.34,2-.62S81,46.29,79.74,46.7Z"/><path class="cls-18" d="M90.43,231.53s2.82-2.6,4.73-.89a2.27,2.27,0,0,1,.62,3S93.13,232.67,90.43,231.53Z"/><path class="cls-18" d="M76.43,231.53s2.82-2.6,4.73-.89a2.27,2.27,0,0,1,.62,3S79.13,232.67,76.43,231.53Z"/><path class="cls-11" d="M81.48,73.3l.93,2.11a1.88,1.88,0,0,1,0,1.31,36.76,36.76,0,0,0-.73,5.08,7.75,7.75,0,0,0,.74,3.31c.21.48,1.93,3.91,2.06,4.08a4.37,4.37,0,0,1-2.31-1.59,9,9,0,0,1-1.74-4.21A19.47,19.47,0,0,1,80.6,79a2.23,2.23,0,0,1,.06-.31Z"/></g><g id="ærme2_copy_5" data-name="ærme2 copy 5"><path class="cls-13" d="M101.18,91.17s4.51,4,5.91,6a20.84,20.84,0,0,1,2.23,4.86l-6.66.79Z"/></g><g id="ærme_copy_5" data-name="ærme copy 5"><path class="cls-13" d="M72.32,89.38s-3.81,1.18-4.5,6.52S66.76,106,67.5,106.27s13.43-2.37,13.43-2.37-.27-8.74-1.85-10.8S74.55,88.88,72.32,89.38Z"/><path class="cls-13" d="M93.14,89.07,91,87.61c-.13-.08-.23,1-.31,1.14-.23.33-.19.41-.72.57-.88.26-.42.38-2.59.26s-2.56-.2-3.86-1.21a8,8,0,0,1-2.63-4.63c-.35-1.53-.56-2.31-.61-2.59s0-.59,0-.56l-.8.71-.06,0A2.11,2.11,0,0,0,78.68,83c.06,1.25.28,3.43,1.05,4.42a7.12,7.12,0,0,0,3.57,3,11,11,0,0,0,6.57,1c2.5-.37,3.86-.57,4.4-1.71"/></g></symbol><symbol id="_8" data-name="8" viewBox="0 0 200 250"><g id="baggrund_copy_6" data-name="baggrund copy 6"><rect class="cls-1" width="200" height="250"/></g><g id="ben_copy_6" data-name="ben copy 6"><path class="cls-2" d="M84.14,147.85s3.9-2,4,1,1.56,13.43,0,24.58-7.34,56.37-7.34,56.37L88.62,232s8.21-63.66,8.57-68.31,2.39-32.89,2.39-32.89l-29.26-1.39c-2-.27-.49,9.06.19,11.79l1,4.2s3.65,13.64,3.23,17.47S74,190,73.78,194.58s-2.66,18.29-2.66,18.29l-3,14-.68,2.25,7.22,1.25s5.92-28.14,6.18-31.24c0,0,.81-7.38,1.54-17.58S84.14,147.85,84.14,147.85Z"/><path class="cls-3" d="M80.52,146.23"/></g><g id="buks_copy_6" data-name="buks copy 6"><path class="cls-4" d="M73.88,140.44S78,153.26,78.43,157s0,24.68,0,28.62-2.65,25.2-2.65,25.2L74,221l-3.55,9.86,4.95,1.08,5.89-35.49L84,148.25l1.21-.2,7.08-2.4v16.67l-2,26.36-2.53,19.12L86.25,222.1l-1.67,8.74,3.91.67,3.42-30s5.23-35.57,5.28-37.82,1.63-22.34,1.63-22.34Z"/></g><g id="tshirt_copy_6" data-name="tshirt copy 6"><path class="cls-5" d="M68.51,106.6s-.38,4.55-.6,11.33,0,13,0,13S79.21,133,85.11,133s15.22-2.22,15.22-2.22,2.36-22.07,2.35-28c0-4.29-1.61-12.28-1.61-12.28l-1.89-2.48-5.84-1.33s-.28,2.16-1.81,2.62a15.78,15.78,0,0,1-4.91.46c-1.43-.07-4.23-2.06-4.89-3.45a33.78,33.78,0,0,1-1.39-5.24s-3.67,2.75-4.83,4.57a31.68,31.68,0,0,1-2.66,3.5S69.16,98.94,68.51,106.6Z"/><path class="cls-3" d="M66.83,101.28"/></g><g id="hoved_copy_6" data-name="hoved copy 6"><path class="cls-6" d="M87.33,43.29s-4.73-6.22-9.49,2,3.65,10.8,3.65,10.8-1.06,6.65-.43,9.11a36.51,36.51,0,0,1,.73,6.45L80.2,78.32s-1.16,6.91,2,9.45a8,8,0,0,0,8,1.1l.48-1.52s4.93,5.06,10.64,3.57,10.4-3.36,14.17-8S127.6,69,131.2,60.22s5.4-14.32,5.4-14.32-11.29-2.29-17.2-4a58.13,58.13,0,0,1-11.93-5.28Z"/></g><g id="øjne_copy_6" data-name="øjne copy 6"><path class="cls-8" d="M102,48.84s5.08,1.87,6.47,1a28.59,28.59,0,0,1,4.39-2.18l.51,4.18s-4.29.89-5.59.62-6.4-1.89-6.4-1.89Z"/><path class="cls-9" d="M122.95,55.62l-2.14,1.47s.83,3.76,2.46,4.91a43.9,43.9,0,0,0,5.41,2.82l.94-1.64s-4.14-2.29-4.9-3.32A22.51,22.51,0,0,1,122.95,55.62Z"/><path d="M101.74,56.39a9.66,9.66,0,0,1,3.63-1c3.12-.22,4.76,1.88,5.28,4.79.09.47.81.27.72-.2-.51-2.83-2.07-5.19-5.15-5.35a9.91,9.91,0,0,0-4.87,1.13c-.43.22-.05.87.38.65Z"/><path d="M118,64.33a8.43,8.43,0,0,1,3.25-.25c2.68.33,3.73,2.39,3.67,4.94a.38.38,0,0,0,.75,0c.06-2.55-.89-4.87-3.54-5.54a8.71,8.71,0,0,0-4.33.13.38.38,0,0,0,.2.72Z"/><path class="cls-19" d="M99.66,56.94S96.12,59,98,60.06s1.76.08,1.82-.61A23.34,23.34,0,0,0,99.66,56.94Z"/><path class="cls-19" d="M97.66,61.94s-4,2.36-2.18,3.37,2-.07,2-.75S97.66,61.94,97.66,61.94Z"/><path class="cls-19" d="M93.66,62.94s-4,2.36-2.18,3.37,1.94.28,2-.41S93.66,62.94,93.66,62.94Z"/></g><g id="mund_copy_6" data-name="mund copy 6"><path class="cls-10" d="M99.77,76.74s9-2.85,10.19,4.18"/><path class="cls-11" d="M122.44,61.77l-.32-.08c-1-.23-4.16-.84-5.09.13-1.12,1.16-2.37,2-2.63,4.7s0,3.91-1.27,4.54a4.91,4.91,0,0,1-3.74.67,27.16,27.16,0,0,1-3.71-2.19l3,1.28s3.45.41,3.74-.85.8-4.22,1.11-5.24,2.11-5.1,3.69-5.31a4.28,4.28,0,0,0,1.94-.51l2.18,2.25"/></g><g id="hår_copy_6" data-name="hår copy 6"><path class="cls-12" d="M88,58.75s-2.17.56-2.88-1.07S87.56,52.23,87.2,50s-3-14.22-2.29-16.84,1.78-5.51,3.24-6.27a11.3,11.3,0,0,1,6-2c3.41-.18,2.62-.87,2.62-.87s1.35-9.74,5.13-10,3.56,0,8.15,1.06S136.93,25.41,137.3,26.2s17.44,8.16,14.31,9.89S142,37.52,142,37.52s-1.49-.94-.12,1.4,7.26,4.13,5,6-10.7,2.33-14.28,1.4-11.25-2.33-15.45-4-10.91-5.09-10.91-5.09-2.91,8.1-5.67,8.13-6.17-1.41-7.47.36S88,58.75,88,58.75Z"/></g><g id="sko_copy_6" data-name="sko copy 6"><path class="cls-5" d="M81.47,227.3s3.15,2.82,6.91,1.78a14,14,0,0,1,7.42.23s1.54.42,1.63,3.34c.1,3.56-.71,4.29-2.64,5.18s-10.57-2.07-10.57-2.07-4.68.59-4.68-1.78S81.47,227.3,81.47,227.3Z"/><path class="cls-5" d="M67.47,227.3s3.15,2.82,6.91,1.78a14,14,0,0,1,7.42.23s1.54.42,1.63,3.34c.1,3.56-.71,4.29-2.64,5.18s-10.57-2.07-10.57-2.07-4.68.59-4.68-1.78S67.47,227.3,67.47,227.3Z"/></g><g id="kant_copy_6" data-name="kant copy 6"><path class="cls-13" d="M67.91,130.94l-.1,2.41,12.08,1.74a36.36,36.36,0,0,0,19.52-2.87l.84-1.38s-7,1-10.94,1.43a73,73,0,0,1-13.09-.56C74.68,131.43,67.91,130.94,67.91,130.94Z"/></g><g id="arm2_copy_6" data-name="arm2 copy 6"><path class="cls-6" d="M107.11,101.18s1.38,14.65.09,19.19-2.12,7-2.12,7c.75,3.15-.37,4-2.08,4.73-1.25.53-2.82-.42-3.56-1a1.43,1.43,0,0,1-.58-.95,5.18,5.18,0,0,1,1.4-4.16c2.18-2.58,4-8.69,4.17-11.52S103,101.13,103,101.13Z"/></g><g id="iphone_copy_6" data-name="iphone copy 6"><polygon class="cls-14" points="101 131.43 89.28 127.7 96.63 104.61 108.35 108.34 101 131.43"/><path class="cls-14" d="M101.3,130.35l-11.73-3.73.79,1.38,7.35-23.09-1.38.79,11.73,3.73-.79-1.38-7.35,23.09c-.44,1.38,1.73,2,2.17.6l7.35-23.09a1.14,1.14,0,0,0-.79-1.38l-11.73-3.73a1.14,1.14,0,0,0-1.38.79L88.19,127.4a1.14,1.14,0,0,0,.79,1.38l11.73,3.73C102.09,133,102.68,130.79,101.3,130.35Z"/><circle class="cls-15" cx="97.18" cy="105.25" r="0.94" transform="translate(-19.91 187.79) rotate(-82.47)"/></g><g id="arm_copy_6" data-name="arm copy 6"><path class="cls-6" d="M71.78,104.69s.35,8.39,2.79,11.52,5.69,5.9,9.07,6.83a69.09,69.09,0,0,0,7.19,1.47s2.88,1.5,4.72,1.05,3.39-2.86,3.39-2.86,1-2.53,0-3.45-1.9-1.83-3.49-1.94a5.77,5.77,0,0,0-3,.72l-1.19.94s-2.15,1-5.59-.53-6.85-5.8-6.85-5.8a66.55,66.55,0,0,1-2.17-7.46C76.35,103.09,71.78,104.69,71.78,104.69Z"/></g><g id="skygger_copy_6" data-name="skygger copy 6"><path class="cls-16" d="M114.61,26.87s10-.3,12.95.54,13.76,3.76,13.55,4.7-8.7,1.34-8.7,1.34-.39.88,1.33,2.38,5.12,3.79,3.81,3.93-5.73-1.1-8.51-2.52S114,28.36,114.61,26.87Z"/><path class="cls-17" d="M90.38,39s0-9.27,1.74-9.83,6.77-1.35,7.93,1a10.39,10.39,0,0,1,1.2,3.28L99.58,38a53.5,53.5,0,0,1-5.37-2.15C93.8,35.46,90.38,39,90.38,39Z"/><path class="cls-11" d="M82.37,45A4.3,4.3,0,0,0,79,47.11a4.44,4.44,0,0,0-.2,3.72.81.81,0,0,0,.15.24c.31.35,1.35,1.44,1.94,1a1.64,1.64,0,0,0,.56-1.18.78.78,0,0,0-.18-.54l-.69-.85a.8.8,0,0,1,0-1c.3-.44.8-1,1.35-.71.89.41,2.06.52,2.09-.43S83.62,44.68,82.37,45Z"/><path class="cls-18" d="M90.43,231.53s2.82-2.6,4.73-.89a2.27,2.27,0,0,1,.62,3S93.13,232.67,90.43,231.53Z"/><path class="cls-18" d="M76.43,231.53s2.82-2.6,4.73-.89a2.27,2.27,0,0,1,.62,3S79.13,232.67,76.43,231.53Z"/><path class="cls-11" d="M81.79,71.64l.74,2.19a1.88,1.88,0,0,1-.1,1.31,36.76,36.76,0,0,0-1.16,5,7.75,7.75,0,0,0,.45,3.36c.17.49,1.58,4.06,1.7,4.25A4.37,4.37,0,0,1,81.26,86a9,9,0,0,1-1.36-4.34,19.47,19.47,0,0,1,.52-4.36,2.23,2.23,0,0,1,.09-.3Z"/></g><g id="ærme2_copy_6" data-name="ærme2 copy 6"><path class="cls-13" d="M101.18,91.17s4.51,4,5.91,6a20.84,20.84,0,0,1,2.23,4.86l-6.66.79Z"/></g><g id="ærme_copy_6" data-name="ærme copy 6"><path class="cls-13" d="M72.32,89.38s-3.81,1.18-4.5,6.52S66.76,106,67.5,106.27s13.43-2.37,13.43-2.37-.27-8.74-1.85-10.8S74.55,88.88,72.32,89.38Z"/><path class="cls-13" d="M92.77,89l-2-1.59c-.13-.08-.33.88-.41,1-.23.33-.19.41-.72.57-.88.26-.22.07-2.57,0a5.44,5.44,0,0,1-3.94-1.32,7,7,0,0,1-2.55-4.27c-.35-1.53-.56-2.31-.61-2.59s0-.59,0-.56l-.8.71-.06,0a2.11,2.11,0,0,0-.75,1.65c.06,1.25.28,3.43,1.05,4.42a7.12,7.12,0,0,0,3.57,3,11,11,0,0,0,6.57,1c2.5-.37,3.72-.31,4.25-1.44"/></g></symbol><symbol id="_9" data-name="9" viewBox="0 0 200 250"><g id="baggrund_copy_7" data-name="baggrund copy 7"><rect class="cls-1" width="200" height="250"/></g><g id="ben_copy_7" data-name="ben copy 7"><path class="cls-2" d="M84.14,147.85s3.9-2,4,1,1.56,13.43,0,24.58-7.34,56.37-7.34,56.37L88.62,232s8.21-63.66,8.57-68.31,2.39-32.89,2.39-32.89l-29.26-1.39c-2-.27-.49,9.06.19,11.79l1,4.2s3.65,13.64,3.23,17.47S74,190,73.78,194.58s-2.66,18.29-2.66,18.29l-3,14-.68,2.25,7.22,1.25s5.92-28.14,6.18-31.24c0,0,.81-7.38,1.54-17.58S84.14,147.85,84.14,147.85Z"/><path class="cls-3" d="M80.52,146.23"/></g><g id="buks_copy_7" data-name="buks copy 7"><path class="cls-4" d="M73.88,140.44S78,153.26,78.43,157s0,24.68,0,28.62-2.65,25.2-2.65,25.2L74,221l-3.55,9.86,4.95,1.08,5.89-35.49L84,148.25l1.21-.2,7.08-2.4v16.67l-2,26.36-2.53,19.12L86.25,222.1l-1.67,8.74,3.91.67,3.42-30s5.23-35.57,5.28-37.82,1.63-22.34,1.63-22.34Z"/></g><g id="tshirt_copy_7" data-name="tshirt copy 7"><path class="cls-5" d="M68.51,106.6s-.38,4.55-.6,11.33,0,13,0,13S79.21,133,85.11,133s15.22-2.22,15.22-2.22,2.36-22.07,2.35-28c0-4.29-1.61-12.28-1.61-12.28l-1.89-2.48-5.84-1.33s-.28,2.16-1.81,2.62a15.78,15.78,0,0,1-4.91.46c-1.43-.07-4.23-2.06-4.89-3.45a33.78,33.78,0,0,1-1.39-5.24s-3.67,2.75-4.83,4.57a31.68,31.68,0,0,1-2.66,3.5S69.16,98.94,68.51,106.6Z"/><path class="cls-3" d="M66.83,101.28"/></g><g id="hoved_copy_7" data-name="hoved copy 7"><path class="cls-6" d="M91.1,43.31s-4.25-6.55-9.61,1.27,2.83,11,2.83,11-1.56,6.55-1.11,9.06a36.51,36.51,0,0,1,.24,6.49L81.37,77.7s-1.67,6.81,1.34,9.57a8,8,0,0,0,7.9,1.7l.6-1.48s4.54,5.42,10.34,4.35,10.63-2.57,14.73-6.89,13.06-13,17.3-21.48S140,49.6,140,49.6s-11.09-3.13-16.86-5.24a58.13,58.13,0,0,1-11.5-6.15Z"/></g><g id="øjne_copy_7" data-name="øjne copy 7"><path class="cls-8" d="M105.27,49.94s4.92,2.25,6.38,1.44a28.59,28.59,0,0,1,4.54-1.85l.14,3.13s-4.3,1.65-5.57,1.29-6.24-2.36-6.24-2.36Z"/><path class="cls-9" d="M126.38,58.35l-2.05.85s-.34,4.18,1.2,5.45a43.9,43.9,0,0,0,5.18,3.22l1.06-1.56s-4-2.59-4.63-3.68S126.38,58.35,126.38,58.35Z"/><path d="M104.42,57.48a10,10,0,0,1,3.55-.77c3.18-.08,4.81,2.08,5.12,5.09,0,.48.8.48.75,0-.29-2.86-1.62-5.37-4.69-5.78a9.79,9.79,0,0,0-4.92.73c-.44.18-.25.91.2.72Z"/><path d="M120.14,66.58a8.3,8.3,0,0,1,3.33,0c2.61.58,3.44,2.71,3.19,5.2,0,.48.7.48.75,0,.26-2.55-.56-4.93-3.16-5.77a8.76,8.76,0,0,0-4.31-.18c-.47.09-.27.82.2.72Z"/><path class="cls-19" d="M102.37,57.84s-3.68,1.83-1.93,3,1.75.21,1.86-.48A23.34,23.34,0,0,0,102.37,57.84Z"/><path class="cls-19" d="M100,62.68s-4.18,2.05-2.43,3.2,2,.08,2.09-.6S100,62.68,100,62.68Z"/><path class="cls-19" d="M95.94,63.38s-4.18,2.05-2.43,3.2,1.92.43,2-.26S95.94,63.38,95.94,63.38Z"/><path class="cls-19" d="M124.33,72.53s-4.18,2.05-2.43,3.2,1.92.43,2-.26S124.33,72.53,124.33,72.53Z"/></g><g id="mund_copy_7" data-name="mund copy 7"><path class="cls-10" d="M100.33,78.56c.21-.16,14-6.28,10.52,4"/><path class="cls-11" d="M124.72,64.36l-.31-.1c-1-.3-4.09-1.15-5.09-.25-1.2,1.08-2.52,1.79-3,4.49s-.3,3.9-1.61,4.43a4.91,4.91,0,0,1-3.78.39,27.16,27.16,0,0,1-3.53-2.47l2.94,1.5s3.41.67,3.79-.57,1.12-4.15,1.5-5.14,2.48-4.93,4.08-5a4.28,4.28,0,0,0,2-.36l2,2.4"/></g><g id="hår_copy_7" data-name="hår copy 7"><path class="cls-12" d="M90.64,58.77s-2.21.39-2.79-1.28,2.81-5.26,2.62-7.5-1.92-14.4-1-17,2.18-5.36,3.7-6a11.3,11.3,0,0,1,6.16-1.51c3.42.08,2.68-.67,2.68-.67s2.07-9.61,5.87-9.63,3.55.28,8.05,1.67,26,12.31,26.3,13.13S159,39.44,155.74,40.93s-9.66.72-9.66.72-1.41-1.05-.23,1.38,6.93,4.66,4.51,6.39S139.52,51,136,49.75s-11-3.16-15.11-5.16-10.5-5.89-10.5-5.89-3.5,7.86-6.26,7.68-6-1.87-7.48-.2S90.64,58.77,90.64,58.77Z"/></g><g id="sko_copy_7" data-name="sko copy 7"><path class="cls-5" d="M81.47,227.3s3.15,2.82,6.91,1.78a14,14,0,0,1,7.42.23s1.54.42,1.63,3.34c.1,3.56-.71,4.29-2.64,5.18s-10.57-2.07-10.57-2.07-4.68.59-4.68-1.78S81.47,227.3,81.47,227.3Z"/><path class="cls-5" d="M67.47,227.3s3.15,2.82,6.91,1.78a14,14,0,0,1,7.42.23s1.54.42,1.63,3.34c.1,3.56-.71,4.29-2.64,5.18s-10.57-2.07-10.57-2.07-4.68.59-4.68-1.78S67.47,227.3,67.47,227.3Z"/></g><g id="kant_copy_7" data-name="kant copy 7"><path class="cls-13" d="M67.91,130.94l-.1,2.41,12.08,1.74a36.36,36.36,0,0,0,19.52-2.87l.84-1.38s-7,1-10.94,1.43a73,73,0,0,1-13.09-.56C74.68,131.43,67.91,130.94,67.91,130.94Z"/></g><g id="arm2_copy_7" data-name="arm2 copy 7"><path class="cls-6" d="M107.11,101.18s1.38,14.65.09,19.19-2.12,7-2.12,7c.75,3.15-.37,4-2.08,4.73-1.25.53-2.82-.42-3.56-1a1.43,1.43,0,0,1-.58-.95,5.18,5.18,0,0,1,1.4-4.16c2.18-2.58,4-8.69,4.17-11.52S103,101.13,103,101.13Z"/></g><g id="iphone_copy_7" data-name="iphone copy 7"><polygon class="cls-14" points="101 131.43 89.28 127.7 96.63 104.61 108.35 108.34 101 131.43"/><path class="cls-14" d="M101.3,130.35l-11.73-3.73.79,1.38,7.35-23.09-1.38.79,11.73,3.73-.79-1.38-7.35,23.09c-.44,1.38,1.73,2,2.17.6l7.35-23.09a1.14,1.14,0,0,0-.79-1.38l-11.73-3.73a1.14,1.14,0,0,0-1.38.79L88.19,127.4a1.14,1.14,0,0,0,.79,1.38l11.73,3.73C102.09,133,102.68,130.79,101.3,130.35Z"/><circle class="cls-15" cx="97.18" cy="105.25" r="0.94" transform="translate(-19.91 187.79) rotate(-82.47)"/></g><g id="arm_copy_7" data-name="arm copy 7"><path class="cls-6" d="M71.78,104.69s.35,8.39,2.79,11.52,5.69,5.9,9.07,6.83a69.09,69.09,0,0,0,7.19,1.47s2.88,1.5,4.72,1.05,3.39-2.86,3.39-2.86,1-2.53,0-3.45-1.9-1.83-3.49-1.94a5.77,5.77,0,0,0-3,.72l-1.19.94s-2.15,1-5.59-.53-6.85-5.8-6.85-5.8a66.55,66.55,0,0,1-2.17-7.46C76.35,103.09,71.78,104.69,71.78,104.69Z"/></g><g id="skygger_copy_7" data-name="skygger copy 7"><path class="cls-16" d="M119.53,29s10,.45,12.87,1.51,13.44,4.78,13.16,5.7-8.78.69-8.78.69-.45.85,1.15,2.47,4.83,4.16,3.51,4.2-5.63-1.52-8.3-3.15S118.79,30.42,119.53,29Z"/><path class="cls-17" d="M94.46,39.25s.74-9.24,2.47-9.67,6.85-.84,7.83,1.63a10.39,10.39,0,0,1,.95,3.36l-2,4.37a53.5,53.5,0,0,1-5.19-2.55C98.14,36,94.46,39.25,94.46,39.25Z"/><path class="cls-11" d="M86,44.62a4.3,4.3,0,0,0-3.52,1.88A4.44,4.44,0,0,0,82,50.19a.81.81,0,0,0,.13.25c.28.37,1.24,1.54,1.86,1.1a1.64,1.64,0,0,0,.65-1.13.78.78,0,0,0-.14-.56l-.62-.9a.8.8,0,0,1,0-1c.34-.42.87-.9,1.4-.61.86.48,2,.67,2.12-.28S87.29,44.42,86,44.62Z"/><path class="cls-18" d="M90.43,231.53s2.82-2.6,4.73-.89a2.27,2.27,0,0,1,.62,3S93.13,232.67,90.43,231.53Z"/><path class="cls-18" d="M76.43,231.53s2.82-2.6,4.73-.89a2.27,2.27,0,0,1,.62,3S79.13,232.67,76.43,231.53Z"/><path class="cls-11" d="M83.45,71.16,84,73.4a1.88,1.88,0,0,1-.19,1.3,36.76,36.76,0,0,0-1.53,4.89A7.75,7.75,0,0,0,82.5,83c.13.51,1.27,4.17,1.38,4.36a4.37,4.37,0,0,1-2-1.94,9,9,0,0,1-1-4.43,19.47,19.47,0,0,1,.85-4.31,2.23,2.23,0,0,1,.11-.29Z"/></g><g id="ærme2_copy_7" data-name="ærme2 copy 7"><path class="cls-13" d="M101.28,91.89s4.42,3.24,5.82,5.31a20.84,20.84,0,0,1,2.23,4.86l-6.66.79Z"/></g><g id="ærme_copy_7" data-name="ærme copy 7"><path class="cls-13" d="M72.32,89.38s-3.81,1.18-4.5,6.52S66.76,106,67.5,106.27s13.43-2.37,13.43-2.37-.27-8.74-1.85-10.8S74.55,88.88,72.32,89.38Z"/><path class="cls-13" d="M93.07,89.21,91.3,87.6c-.13-.08-.54.9-.63,1-.23.33-.32.35-.86.51-.88.26-.08.14-2.44.08a5.44,5.44,0,0,1-3.94-1.32c-1.29-1-1.77-2.08-2.23-4.07A19.41,19.41,0,0,1,80.82,81c0-.13.05-.75,0-.72l-1.38.93-.06,0a2.11,2.11,0,0,0-.75,1.65c.06,1.25.28,3.43,1.05,4.42a7.12,7.12,0,0,0,3.57,3,11,11,0,0,0,6.57,1c2.5-.37,3.72-.17,4.25-1.3"/></g></symbol><symbol id="_4" data-name="4" viewBox="0 0 200 250"><g id="baggrund_copy_3" data-name="baggrund copy 3"><rect class="cls-1" width="200" height="250"/></g><g id="ben_copy_3" data-name="ben copy 3"><path class="cls-2" d="M84.14,147.85s3.9-2,4,1,1.56,13.43,0,24.58-7.34,56.37-7.34,56.37L88.62,232s8.21-63.66,8.57-68.31,2.39-32.89,2.39-32.89l-29.26-1.39c-2-.27-.49,9.06.19,11.79l1,4.2s3.65,13.64,3.23,17.47S74,190,73.78,194.58s-2.66,18.29-2.66,18.29l-3,14-.68,2.25,7.22,1.25s5.92-28.14,6.18-31.24c0,0,.81-7.38,1.54-17.58S84.14,147.85,84.14,147.85Z"/><path class="cls-3" d="M80.52,146.23"/></g><g id="buks_copy_3" data-name="buks copy 3"><path class="cls-4" d="M73.88,140.44S78,153.26,78.43,157s0,24.68,0,28.62-2.65,25.2-2.65,25.2L74,221l-3.55,9.86,4.95,1.08,5.89-35.49L84,148.25l1.21-.2,7.08-2.4v16.67l-2,26.36-2.53,19.12L86.25,222.1l-1.67,8.74,3.91.67,3.42-30s5.23-35.57,5.28-37.82,1.63-22.34,1.63-22.34Z"/></g><g id="tshirt_copy_3" data-name="tshirt copy 3"><path class="cls-5" d="M68.51,106.6s-.38,4.55-.6,11.33,0,13,0,13S79.21,133,85.11,133s15.22-2.22,15.22-2.22,2.36-22.07,2.35-28c0-4.29-1.61-12.28-1.61-12.28l-1.89-2.48-5.84-1.33s-.28,2.16-1.81,2.62a15.78,15.78,0,0,1-4.91.46c-1.43-.07-4.23-2.06-4.89-3.45a33.78,33.78,0,0,1-1.39-5.24s-3.67,2.75-4.83,4.57a31.68,31.68,0,0,1-2.66,3.5S69.16,98.94,68.51,106.6Z"/><path class="cls-3" d="M66.83,101.28"/></g><g id="hoved_copy_3" data-name="hoved copy 3"><path class="cls-6" d="M81.9,44.73s-5.71-5.33-9,3.56,5.42,10,5.42,10,.07,6.73,1.11,9.06a36.51,36.51,0,0,1,1.8,6.24l-.54,6.82s-1,6.82,3.62,8.5,7.32-.27,7.32-.27l.3-1.58s6.48,4.65,11.86,2.22,9.69-5.07,12.62-10.25S125.93,63.29,128,54s2.91-15,2.91-15-11.52-.35-17.62-1a58.13,58.13,0,0,1-12.65-3.19Z"/></g><g id="øjne_copy_3" data-name="øjne copy 3"><ellipse cx="102.57" cy="59.49" rx="2.93" ry="2.04" transform="translate(25.24 149.38) rotate(-79.4)"/><ellipse class="cls-7" cx="102.12" cy="58.56" rx="1.12" ry="0.86" transform="translate(25.78 148.17) rotate(-79.4)"/><ellipse class="cls-7" cx="102.65" cy="60.39" rx="0.81" ry="0.62" transform="translate(24.41 150.19) rotate(-79.4)"/><ellipse cx="118.78" cy="62.82" rx="2.93" ry="2.04" transform="translate(35.19 168.02) rotate(-79.4)"/><ellipse class="cls-7" cx="118.7" cy="61.96" rx="1.12" ry="0.86" transform="translate(35.97 167.23) rotate(-79.4)"/><path class="cls-8" d="M97.25,47.73s5.32,1,6.53-.15a28.59,28.59,0,0,1,4-2.89l1.21,4s-4.08,1.61-5.4,1.56-6.63-.78-6.63-.78Z"/><path class="cls-9" d="M119.08,50.87l-1.86,1.81s1.45,3.57,3.25,4.43A43.9,43.9,0,0,0,126.28,59l.65-1.77s-4.47-1.55-5.39-2.45A22.51,22.51,0,0,1,119.08,50.87Z"/><ellipse class="cls-7" cx="119.08" cy="63.96" rx="0.81" ry="0.62" transform="translate(34.32 169.25) rotate(-79.4)"/></g><g id="mund_copy_3" data-name="mund copy 3"><path class="cls-10" d="M99.8,75.6s8.35-4.32,10.75,2.4"/><path class="cls-11" d="M119.62,57l-.32,0c-1-.05-4.24-.13-5,1-.9,1.33-2,2.35-1.8,5.08s.65,3.86-.49,4.69A4.91,4.91,0,0,1,108.44,69a27.16,27.16,0,0,1-4-1.54l3.22.74s3.47-.18,3.54-1.47.08-4.3.21-5.35,1.21-5.39,2.75-5.86a4.28,4.28,0,0,0,1.82-.83l2.52,1.85"/></g><g id="hår_copy_3" data-name="hår copy 3"><path class="cls-12" d="M85.2,59.85s-2,.92-3-.57,1.46-5.78.73-7.92-5.35-13.51-5.1-16.21.82-5.73,2.13-6.73a11.3,11.3,0,0,1,5.61-3c3.34-.75,2.44-1.3,2.44-1.3s-.31-9.83,3.37-10.76,3.51-.58,8.22-.33,28.19,5.65,28.7,6.37,18.57,5.1,15.78,7.33-9.2,3-9.2,3-1.62-.68.11,1.4,7.85,2.84,5.92,5.11S130.73,40.43,127,40.11s-11.48-.4-15.91-1.35-11.61-3.17-11.61-3.17-1.5,8.48-4.21,9S89,44.21,88,46.17,85.2,59.85,85.2,59.85Z"/></g><g id="sko_copy_3" data-name="sko copy 3"><path class="cls-5" d="M81.47,227.3s3.15,2.82,6.91,1.78a14,14,0,0,1,7.42.23s1.54.42,1.63,3.34c.1,3.56-.71,4.29-2.64,5.18s-10.57-2.07-10.57-2.07-4.68.59-4.68-1.78S81.47,227.3,81.47,227.3Z"/><path class="cls-5" d="M67.47,227.3s3.15,2.82,6.91,1.78a14,14,0,0,1,7.42.23s1.54.42,1.63,3.34c.1,3.56-.71,4.29-2.64,5.18s-10.57-2.07-10.57-2.07-4.68.59-4.68-1.78S67.47,227.3,67.47,227.3Z"/></g><g id="kant_copy_3" data-name="kant copy 3"><path class="cls-13" d="M67.91,130.94l-.1,2.41,12.08,1.74a36.36,36.36,0,0,0,19.52-2.87l.84-1.38s-7,1-10.94,1.43a73,73,0,0,1-13.09-.56C74.68,131.43,67.91,130.94,67.91,130.94Z"/></g><g id="arm2_copy_3" data-name="arm2 copy 3"><path class="cls-6" d="M107.11,101.18s1.38,14.65.09,19.19-2.12,7-2.12,7c.75,3.15-.37,4-2.08,4.73-1.25.53-2.82-.42-3.56-1a1.43,1.43,0,0,1-.58-.95,5.18,5.18,0,0,1,1.4-4.16c2.18-2.58,4-8.69,4.17-11.52S103,101.13,103,101.13Z"/></g><g id="iphone_copy_3" data-name="iphone copy 3"><polygon class="cls-14" points="101 131.43 89.28 127.7 96.63 104.61 108.35 108.34 101 131.43"/><path class="cls-14" d="M101.3,130.35l-11.73-3.73.79,1.38,7.35-23.09-1.38.79,11.73,3.73-.79-1.38-7.35,23.09c-.44,1.38,1.73,2,2.17.6l7.35-23.09a1.14,1.14,0,0,0-.79-1.38l-11.73-3.73a1.14,1.14,0,0,0-1.38.79L88.19,127.4a1.14,1.14,0,0,0,.79,1.38l11.73,3.73C102.09,133,102.68,130.79,101.3,130.35Z"/><circle class="cls-15" cx="97.18" cy="105.25" r="0.94" transform="translate(-19.91 187.79) rotate(-82.47)"/></g><g id="arm_copy_3" data-name="arm copy 3"><path class="cls-6" d="M71,104.25s-.59,8.38,1.49,11.76,5,6.5,8.25,7.8a69.09,69.09,0,0,0,7,2.26s2.7,1.81,4.58,1.57S96,125.18,96,125.18s1.3-2.4.38-3.43-1.68-2-3.25-2.32a5.77,5.77,0,0,0-3.05.38l-1.29.8s-2.25.8-5.5-1.15-6.16-6.53-6.16-6.53a66.55,66.55,0,0,1-1.33-7.66C75.73,103.17,71,104.25,71,104.25Z"/></g><g id="skygger_copy_3" data-name="skygger copy 3"><path class="cls-16" d="M106,23.94s9.84-2,12.85-1.65,14.2,1.38,14.15,2.35-8.35,2.79-8.35,2.79-.23.93,1.71,2.12,5.69,2.87,4.42,3.23-5.84-.12-8.82-1S105.65,25.52,106,23.94Z"/><path class="cls-17" d="M84.18,40s-1.52-9.15.06-10,6.44-2.48,8-.31a10.39,10.39,0,0,1,1.73,3l-.88,4.72a53.5,53.5,0,0,1-5.65-1.21C87,35.92,84.18,40,84.18,40Z"/><path class="cls-11" d="M77.29,47.23a4.3,4.3,0,0,0-3,2.67,4.44,4.44,0,0,0,.43,3.7.81.81,0,0,0,.18.21c.36.29,1.57,1.19,2.07.61a1.64,1.64,0,0,0,.36-1.26.78.78,0,0,0-.27-.51l-.82-.72a.8.8,0,0,1-.2-.94c.23-.49.63-1.08,1.21-.93,1,.25,2.12.16,2-.78S78.47,46.73,77.29,47.23Z"/><path class="cls-18" d="M90.43,231.53s2.82-2.6,4.73-.89a2.27,2.27,0,0,1,.62,3S93.13,232.67,90.43,231.53Z"/><path class="cls-18" d="M76.43,231.53s2.82-2.6,4.73-.89a2.27,2.27,0,0,1,.62,3S79.13,232.67,76.43,231.53Z"/><path class="cls-11" d="M81.22,73.61l1.1,2a2.27,2.27,0,0,1,.13,1.31,22.6,22.6,0,0,0-.6,5,15.73,15.73,0,0,0,.71,3.15c.25.46,2.84,3.9,3,4.06a4.37,4.37,0,0,1-2.44-1.39A9,9,0,0,1,81,83.76a19.47,19.47,0,0,1-.22-4.39,2.23,2.23,0,0,1,0-.31Z"/></g><g id="ærme2_copy_3" data-name="ærme2 copy 3"><path class="cls-13" d="M100.63,90.13a79.74,79.74,0,0,1,6.47,7.07,20.84,20.84,0,0,1,2.23,4.86l-6.66.79Z"/></g><g id="ærme_copy_3" data-name="ærme copy 3"><path class="cls-13" d="M72.32,89.38s-3.81,1.18-4.5,6.52S66.76,106,67.5,106.27s13.43-2.37,13.43-2.37-.27-8.74-1.85-10.8S74.55,88.88,72.32,89.38Z"/><path class="cls-13" d="M80.22,81l-.73.26-.06,0A2.11,2.11,0,0,0,78.68,83c.06,1.25.28,3.43,1.05,4.42a7.12,7.12,0,0,0,3.57,3,11,11,0,0,0,6.57,1c2.5-.37,3.92-1,4.45-2.1.35-.75-.15.32,0,0,.33-.71-.55-1.15-.7-1.22l-1.68-1c-.13-.08-.12.52-.13.67,0,.34-.06.35-.73.78s-1.21.9-3.38.77-2.84.08-4.14-.93a8,8,0,0,1-2.63-4.63,6.74,6.74,0,0,1-.31-2.67C80.68,80.95,80.27,81,80.22,81Z"/></g></symbol></defs><title>dreng</title><g id="Layer_2" data-name="Layer 2"><g id="figur1"><use width="200" height="250" xlink:href="#_1"/></g><g id="figur2"><use width="200" height="250" transform="translate(199.79)" xlink:href="#_2"/></g><g id="figur3"><use width="200" height="250" transform="translate(399.59)" xlink:href="#_3"/></g><g id="figur5"><use width="200" height="250" transform="translate(799.17)" xlink:href="#_6"/><use width="200" height="250" transform="translate(998.96)" xlink:href="#_7"/><use width="200" height="250" transform="translate(1198.76)" xlink:href="#_8"/><use width="200" height="250" transform="translate(1398.55)" xlink:href="#_9"/></g><g id="figur8"><use width="200" height="250" transform="translate(599.38)" xlink:href="#_4"/></g></g></svg>
