<svg xmlns="http://www.w3.org/2000/svg" viewBox="0 0 807 807"><defs><style>.cls-1{fill:#1992ff;}.cls-2{fill:#3bc437;}.cls-3{fill:#3aa341;}.cls-4,.cls-5,.cls-6,.cls-7{fill:#f7f5f5;}.cls-4{opacity:0.12;}.cls-5{opacity:0.31;}.cls-6{opacity:0.34;}.cls-7{opacity:0.45;}</style></defs><title>earth</title><g id="Jordklot"><circle class="cls-1" cx="403.5" cy="403.5" r="403.5"/></g><g id="America"><path class="cls-2" d="M621,112.14s36.18,9,36.18,3.62,0-9.05,5.43-9.05-1.81-10.86,7.24-7.24c0,0,9-9,23.52,0,0,0-3.62-9,0-9s14.48-7.24,14.48-1.81c0,0-5.43,1.81-3.62,3.62s14.48-5.43,14.48-5.43,18.09,0,23.52,3.62a26.07,26.07,0,0,1-3.62,5.42c-1.81,1.81,7.24,7.24,3.62,21.72,0,0,25.33-7.24,32.57,18.09,0,0,0,9.05,12.66,9.05s3.62-1.81,14.48,7.24c0,0,7.24,1.81,9.05,0s14.47-18.1,34.37,5.42c0,0-16.28,30.76-23.52,23.53s-25.33,12.66-25.33,16.28,5.43-1.81,5.43,1.81-5.43,10.86,0,12.67,29,21.71,34.38,21.71c0,0,5.43,50.66,10.85,5.43,0,0,21.72-3.62,9.05-25.33,0,0,7.24-9.05,3.62-19.91s36.19,10.86,28.95,19.91c0,0,5.43,23.52,12.67,0,0,0,9,3.62,16.28,25.33,0,0,25.33,7.24,25.33,18.09s-5.43,10.86-9,10.86-3.62,10.86-18.1,5.43-32.57,5.43-30.76,14.47c0,0,19.91-16.28,23.52-3.62,0,0-3.61,7.24-7.23,3.62s19.9,29,25.33,7.24c0,0,9.05,7.24-12.67,16.28,0,0-32.57,16.29-5.43-5.42,0,0-38-1.81-28.95,21.71,0,0-12.66-3.62-16.28,0s5.43,3.62,5.43,3.62-18.1,3.62-16.29,16.28-7.24-10.85-7.24-10.85-3.61,18.09,3.62,27.14c0,0-52.47,12.66-39.8,38,0,0,7.23,21.71-5.43,25.33s-10.86-36.19-10.86-36.19L758.5,379.93s-7.24,7.24-3.62,9.05c0,0-29-19.9-36.18-10.86,0,0-23.53,1.81-14.48,16.29,0,0-25.33,16.28-12.67,47s41.62,5.43,43.43,0,23.52,0,23.52,0-16.28,36.19-21.71,36.19,39.81,5.43,36.19,16.29-9.05,7.23-10.86,25.33c0,0,7.24,18.09,16.29,21.71,0,0,12.66-14.47,25.33,5.43,0,0,9,5.43,12.66-7.24s29-5.43,30.76-14.47c0,0,5.43,0-1.81,9s-1.81,14.48-1.81,14.48,3.62,1.81,5.43-12.67c0,0,7.24,1.81,7.24-5.43,0,0,9-3.61,10.86,9,0,0,18.09,0,21.71,3.62s21.71-3.62,25.33,1.81-7.24,1.81-7.24,1.81,29,19.9,29,29,48.85-9.05,32.56,38c0,0,5.43-14.48,7.24-7.24s-5.43,14.48-5.43,14.48h10.86s0,9-9,10.85c0,0,7.24,3.62,12.67-7.24,0,0,18.09-1.81,16.28,7.24,0,0,25.34,5.43,27.15,1.81s7.23,12.67,18.09,12.67c0,0,12.67,16.28-30.76,48.85,0,0-21.71,52.47-56.09,56.09s-25.33,28.95-38,28.95-29,25.34-63.33,18.1c0,0,10.86,3.62-1.81,12.66s-29,3.62-29,3.62-5.43,5.43-18.09,1.81c0,0,3.61,12.67-19.91,10.86,0,0-7.24,5.43,1.81,5.43S776.6,843.14,773,839.52s-1.81,5.43-1.81,5.43l9.05,1.81s-38,12.67-34.38-16.28c0,0,21.71-21.72,21.71-27.14s19.9-10.86,19.9-23.53c0,0,34.38-52.47,27.14-59.71s-41.61-25.33-38-43.42-18.1-39.81-18.1-39.81-5.43-10.86,10.86-18.09c0,0-21.71-10.86,27.14-41.62,0,0,9-23.52,1.81-23.52,0,0-1.81-19.91-16.29-5.43,0,0-9,5.43-36.18-27.14,0,0,10.85-14.48-23.53-29,0,0-16.28-3.62-23.52-27.14,0,0-1.81,23.52-63.33-47.05,0,0,16.29-10.86-3.62-45.23,0,0-3.62-38-3.62-45.24s-12.66-7.24-5.42,43.43a23,23,0,0,0,1.81,14.47c3.61,7.24-9.05,7.24-12.67-34.38,0,0,1.81-43.42,3.62-47s-18.1-7.24,3.62-50.67c0,0,32.57-39.8,36.19-43.42s-5.43-10.86,0-19.91c0,0,3.61-1.81,3.61,1.81s3.62-10.85,5.43-14.47-5.43-1.81-5.43,0-5.42,3.62,5.43-10.86,21.72-25.33,14.48-43.42c0,0-18.1,3.61-14.48,0s10.86-5.43,10.86-5.43-5.43-5.43-16.29,3.62C659,121.19,621,121.19,621,112.14Z" transform="translate(-393 -47)"/><path class="cls-2" d="M782.72,217.47s6.89-1.15,6.89-2.3,6.89-1.15,6.89,2.3,0,5.74,2.3,5.74,9.18,1.15,9.18,1.15-4.59,5.74-4.59,6.88,2.29,3.45,2.29,3.45,0,3.44-3.44,0c0,0-1.15,1.15,1.15,2.29s-3.45,1.15-4.59-1.14-6.89-2.3-9.19-2.3-5.74-5.74-5.74-6.89,4.59,0,5.74,1.15,0-2.3-3.44-3.44,5.74-3.45,5.74-3.45S779.28,224.36,782.72,217.47Z" transform="translate(-393 -47)"/><path class="cls-2" d="M798.8,212.88s9.18-2.3,9.18,0-2.3,1.14-2.3,1.14,1.15,6.89,4.6,3.45,1.14,1.15,1.14,1.15l1.15,1.14a2.36,2.36,0,0,1-3.44,2.3C805.68,220.91,798.8,219.76,798.8,212.88Z" transform="translate(-393 -47)"/><path class="cls-2" d="M834.38,211.73s18.37-1.15,17.22,2.29-6.89,8-6.89,8-2.29,10.33-13.77,1.15l2.29-3.45s-9.18-3.44-5.74-5.74,5.74,0,5.74,0Z" transform="translate(-393 -47)"/><path class="cls-2" d="M850.78,135.66s-18.09,5.43-12.66,12.67,14.53,3.8,1.84,18.18-3.65,21.62-3.65,21.62l5.43-3.61,9,3.61-7.24-10.85L854.4,170s5.43-14.47-1.81-14.47c0,0,14.48-3.62,14.48,5.42s14.47,7.24,7.23,14.48-12.66,7.24-12.66,7.24-1.81,3.62,38,21.71c0,0-3.62-10.86-7.24-10.86s25.33,9.05-1.81-14.47c0,0,12.67,16.28,16.28,1.81,0,0-18.09-32.57-43.42-32.57h-1.81s-9-10.86,9.05,0C870.69,148.33,865.26,135.66,850.78,135.66Z" transform="translate(-393 -47)"/><path class="cls-3" d="M896,106.71s16.28-1.81,16.28,1.81,9.05,0,9.05,0,38,19.9,43.43,36.19c0,0,23.52,16.28,16.28,19.9L970.2,170s5.43,12.67-5.42,16.29c0,0,3.61,27.14,5.42,28.95s-1.81,0-1.81,0-30.76-3.62-43.42-41.62c0,0,10.86-10.86-10.86-16.29,0,0-5.43-23.52-18.09-21.71S872.5,128.42,879.73,123s7.24-3.62,7.24-3.62v-9S896,112.14,896,106.71Z" transform="translate(-393 -47)"/><path class="cls-2" d="M811.42,227.8v-1.15h5.74s0,5.74-2.29,5.74h-3.45S806.83,229,808,227.8,811.42,229,811.42,227.8Z" transform="translate(-393 -47)"/><path class="cls-2" d="M814.87,219.76a5.53,5.53,0,0,0,4.59,0c2.29-1.14,1.15,3.45,0,4.6S812.57,220.91,814.87,219.76Z" transform="translate(-393 -47)"/><path class="cls-2" d="M818.31,232.39a1.13,1.13,0,0,0,1.15-1.15c0-1.14,4.59,1.15,5.74-1.14,0,0-4.59-1.15-4.59-2.3s-5.74,6.89-5.74,6.89S818.31,238.13,818.31,232.39Z" transform="translate(-393 -47)"/><path class="cls-2" d="M820.61,212.88s2.29,2.29,2.29,3.44S816,217.47,820.61,212.88Z" transform="translate(-393 -47)"/><path class="cls-2" d="M822.9,220.91s5.74,3.45,5.74,0c0,0,2.3,1.15,0,5.74,0,0,8-1.15,9.19,1.15s-1.15,3.44-10.34,0S822.9,220.91,822.9,220.91Z" transform="translate(-393 -47)"/><path class="cls-2" d="M938.21,267.26l-7.81,20.39s10.85,1.81,14.47,5.43,1.81,5.43,1.81,5.43,10.86-7.24,10.86-3.62,1.81-16.28-12.67-19.9C944.87,275,947.84,266.77,938.21,267.26Z" transform="translate(-393 -47)"/><path class="cls-2" d="M776.6,443.26s28.95,0,41.61,19.91c0,0-7.23,9,14.48,5.42C832.69,468.59,818.21,432.41,776.6,443.26Z" transform="translate(-393 -47)"/><path class="cls-2" d="M845.35,475.83l3.62,7.24-12.66-3.62s0,7.24,36.19,7.24C872.5,486.69,867.07,468.59,845.35,475.83Z" transform="translate(-393 -47)"/><path class="cls-2" d="M881.54,492.12,896,490.31S881.54,479.45,881.54,492.12Z" transform="translate(-393 -47)"/><path class="cls-2" d="M812.78,477.64l7.24,9.05S829.07,475.83,812.78,477.64Z" transform="translate(-393 -47)"/><path class="cls-3" d="M672.35,67.35s18.22-6.89,20-5-18.2,5.09,19.73,9.42c0,0-9.19,7.07-12.8,7S699,93.19,754,58c0,0,25.33.47,25.43-4.95l30.82-3s-5.46,1.71,37.93,4.34c0,0,34.13,13.31,41.37,13.45s-9-5.6-9-5.6l37.89,6.14,44.89,19s34.06,16.93,39.39,22.46-7.38,7.1-7.38,7.1,24.75,31.24,39.12,36.94,19.35,29.32,30.1,34.95,7.38-7.1,5.57-7.13,12.49,9.28,12.49,9.28l-5.5,3.52,17.86,13s-.55,29-25.19-7.71c0,0-28.78-9.6,5.08,18.19,0,0-12.8,7,8.5,29.12,0,0,7.27-1.67-1.4-21.75,0,0,17.48,32.91,23.18,18.54,0,0-14.61,7,17.57,27.48,0,0,12.57,5.66-5.83,21.6,0,0,6.48,39.94,22.76,40.25s-2.39,30.72,8.09,50.82-10.75-5.63-6.59,61.41,3.61,96,23.34,105.41c0,0,18.27-8.71,26-35.71s11.67-139.12-12.59-195.69c0,0-2,9-14.2-14.74s-7.92,36-7.92,36-13.65-43.69-17.38-38.33c0,0,7.55-16.14-3.1-27.2,0,0,5.67-12.57,2.12-16.25s10.58,14.68,12.15,27.37,5.7-14.37,5.7-14.37S1108.54,160.66,1015.39,110C1015.39,110,860,3.94,672.35,67.35Z" transform="translate(-393 -47)"/></g><g id="Moln"><path class="cls-4" d="M986.79,702.87s20.08-6.08,30.71-21.9,59.9-40.09,59.9-40.09,26.08-10.77,5.2,11.18c0,0-8.89,9-12.11,5.63s-16.35,7.06-21.93,12.65-19.25,7.86-19.25,7.86,9.13,9.08,45.13-15.54,50.16-36.39,61.13-37.41-1.42,11-11.57,13.82-20.06,16.67,2.81,6,5.72,12.3-56.07,34.23S987,713.92,972.54,725s-105,48.57-82.91,29.3S933.61,732.76,986.79,702.87Z" transform="translate(-393 -47)"/><path class="cls-5" d="M770.1,659.7c53-3.19,87.55-14.56,73.55,8.71S725.8,684.32,720.86,704.17s-32.06-4.72-113.62,26-135.16-13.56-21.63-33.27-53.29,28.57-17.74,23.78,31.41-21.24,85.44-30.18S627.45,668.25,770.1,659.7Z" transform="translate(-393 -47)"/><path class="cls-6" d="M717.66,841.43c-19.76,1.22,105.14-12.27,115.51-27.07s60.43-13.6,91.1-27.86,99.15-5.35,132.56-28.48c0,0,18.31,20.91-164.2,62.07S866.69,832.21,717.66,841.43Z" transform="translate(-393 -47)"/><path class="cls-7" d="M808.06,225c-14.2-.43,7,6.46,20.06,1.45S822.26,225.4,808.06,225Z" transform="translate(-393 -47)"/><path class="cls-7" d="M790.62,219.35c4.44-2,29.41-1.42,29.41,0s-23.75.24-23.75,2.37S785,222,790.62,219.35Z" transform="translate(-393 -47)"/><path class="cls-7" d="M830,219.8c-14.69,1.32,16.42-10,22-3.15S844.66,218.48,830,219.8Z" transform="translate(-393 -47)"/><path class="cls-7" d="M833.35,231.53c3.23-2.5,21.38-1.73,21.38,0s-17.27.29-17.27,2.89S829.24,234.71,833.35,231.53Z" transform="translate(-393 -47)"/><path class="cls-7" d="M843.63,243.21c-17.62-.33,8.69,5,24.89,1.12S861.25,243.53,843.63,243.21Z" transform="translate(-393 -47)"/><path class="cls-7" d="M822,238.88c5.51-1.57,36.49-1.09,36.49,0S829,239.06,829,240.7,815,240.88,822,238.88Z" transform="translate(-393 -47)"/><path class="cls-7" d="M870.82,239.23c-18.23,1,20.37-7.67,27.31-2.42S889,238.21,870.82,239.23Z" transform="translate(-393 -47)"/><path class="cls-7" d="M920.25,164.27c6.31-3,41.81-2.1,41.81,0s-33.77.35-33.77,3.5S912.21,168.12,920.25,164.27Z" transform="translate(-393 -47)"/><path class="cls-7" d="M774.1,755.76c-21.42,6.52,12,1.22,30.45-8.59S795.51,749.25,774.1,755.76Z" transform="translate(-393 -47)"/><path class="cls-7" d="M746.65,760.15c6.2-3.57,43.84-15.11,44.16-14.11s-35.62,11.57-35.14,13.07S738.74,764.7,746.65,760.15Z" transform="translate(-393 -47)"/><path class="cls-7" d="M805.83,741.6c-21.75,8,22.41-14.93,32.35-12.79S827.59,733.62,805.83,741.6Z" transform="translate(-393 -47)"/><path class="cls-7" d="M813.56,748.27c4.28-3.31,31.71-11.48,32.1-10.26s-25.87,8.49-25.28,10.33S808.1,752.49,813.56,748.27Z" transform="translate(-393 -47)"/><path class="cls-7" d="M831.63,751.6c-26.53,8.22,14.16-.65,37.62-11.15S858.15,743.38,831.63,751.6Z" transform="translate(-393 -47)"/><path class="cls-7" d="M798.17,758.91c7.91-3.75,54.54-18.27,54.78-17.5s-44.21,14.27-43.84,15.42S788.08,763.69,798.17,758.91Z" transform="translate(-393 -47)"/><path class="cls-7" d="M871.55,735.74c-27.13,9.46,28.86-15.19,40.47-14.81S898.68,726.29,871.55,735.74Z" transform="translate(-393 -47)"/><path class="cls-7" d="M879.88,740.11c5.58-3.28,39.53-13.66,39.83-12.72S887.59,737.82,888,739.23,872.77,744.28,879.88,740.11Z" transform="translate(-393 -47)"/></g></svg>
