<svg id="Layer_1" data-name="Layer 1" xmlns="http://www.w3.org/2000/svg" xmlns:xlink="http://www.w3.org/1999/xlink" width="200.38" height="200.38" viewBox="0 0 200.38 200.38"><defs><style>.cls-1{fill:#ffd7ba;}.cls-2{fill:#ffd7b9;}.cls-3{fill:none;}</style><symbol id="fingerspids2" data-name="fingerspids2" viewBox="0 0 200 200"><ellipse class="cls-1" cx="44.3" cy="142.2" rx="5.1" ry="5.7"/><ellipse class="cls-1" cx="44.3" cy="126.6" rx="5.1" ry="5.7"/><ellipse class="cls-1" cx="44.3" cy="110.4" rx="5.1" ry="5.7"/><path class="cls-2" d="M110.1,100.4s.6,4,0,5.7-5,21.9-5,21.9l-3.5,16-.9,3.7s-8.4,1.6-9.7-6.5c-1.2-7.3.6-10.7,1-11.3a.35.35,0,0,1,.1-.2L95,118.3Z"/><polygon id="baggrund" class="cls-3" points="0 0 200 0 200 200 0 200 0 0"/></symbol></defs><title>finger_close</title><g id="Isolation_Mode" data-name="Isolation Mode"><use width="200" height="200" transform="matrix(1, 0, 0, -1, 0, 200)" xlink:href="#fingerspids2"/></g></svg>
