<svg xmlns="http://www.w3.org/2000/svg" xmlns:xlink="http://www.w3.org/1999/xlink" width="200" height="400" viewBox="0 0 200 400"><defs><style>.cls-1{fill:#ffd7b9;}.cls-1,.cls-2{stroke:#ffd7b9;}.cls-1,.cls-2,.cls-3{stroke-miterlimit:10;}.cls-2{fill:#d6a98a;}.cls-3,.cls-4{fill:none;}.cls-3{stroke:#d6a98a;}</style><symbol id="finger1" data-name="finger1" viewBox="0 0 200 200"><path class="cls-1" d="M8.78,196.16,6.91,195a12.05,12.05,0,0,1-3.84-16.54L82.43,51.17A12,12,0,0,1,99,47.34l1.88,1.17A12,12,0,0,1,104.67,65L25.31,192.33A12,12,0,0,1,8.78,196.16Z"/><ellipse class="cls-2" cx="92.49" cy="59.82" rx="10.01" ry="11.47"/><path class="cls-3" d="M49.22,117.66s4,8,9.47,6.55"/><path class="cls-3" d="M46.63,122.41s4,8,9.47,6.55"/><rect id="baggrund" class="cls-4" width="200" height="200"/></symbol><symbol id="finger2" data-name="finger2" viewBox="0 0 200 200"><use width="200" height="200" transform="matrix(-1, 0, 0, 1, 200, 0)" xlink:href="#finger1"/></symbol></defs><title>fingers</title><g id="Layer_2" data-name="Layer 2"><g id="finger"><use width="200" height="200" xlink:href="#finger1"/><use width="200" height="200" transform="translate(0 200)" xlink:href="#finger2"/></g></g></svg>
