<svg id="finger1" xmlns="http://www.w3.org/2000/svg" width="200" height="200" viewBox="0 0 200 200"><defs><style>.cls-1{fill:#ffd7b9;}.cls-1,.cls-2{stroke:#ffd7b9;}.cls-1,.cls-2,.cls-3{stroke-miterlimit:10;}.cls-2{fill:#d6a98a;}.cls-3,.cls-4{fill:none;}.cls-3{stroke:#d6a98a;}</style></defs><title>finger_h</title><path class="cls-1" d="M190.87,194.45l3.3-3a11.77,11.77,0,0,0,.57-17L26.85,5.73A12.91,12.91,0,0,0,9.13,5.55l-3.3,3a11.77,11.77,0,0,0-.57,17L173.15,194.27A12.91,12.91,0,0,0,190.87,194.45Z" transform="translate(0 0)"/><ellipse class="cls-2" cx="16.59" cy="16" rx="11.39" ry="12.61" transform="translate(-3.8 5.26) rotate(-16.19)"/><path class="cls-3" d="M78.39,68.41s-2.61,9.5-9,9.16" transform="translate(0 0)"/><path class="cls-3" d="M82.38,72.94s-2.6,9.5-9,9.16" transform="translate(0 0)"/><rect class="cls-4" width="200" height="200" transform="translate(200 200) rotate(-180)"/></svg>
