<svg id="finger1" xmlns="http://www.w3.org/2000/svg" width="200" height="200" viewBox="0 0 200 200"><defs><style>.cls-1{fill:#ffd7b9;}.cls-1,.cls-2{stroke:#ffd7b9;}.cls-1,.cls-2,.cls-3{stroke-miterlimit:10;}.cls-2{fill:#d6a98a;}.cls-3,.cls-4{fill:none;}.cls-3{stroke:#d6a98a;}</style></defs><title>finger_v</title><path class="cls-1" d="M9.13,194.45l-3.3-3a11.77,11.77,0,0,1-.57-17L173.15,5.73a12.91,12.91,0,0,1,17.72-.18l3.3,3a11.77,11.77,0,0,1,.57,17L26.85,194.27A12.91,12.91,0,0,1,9.13,194.45Z"/><ellipse class="cls-2" cx="183.41" cy="16" rx="12.61" ry="11.39" transform="translate(116.9 187.67) rotate(-73.81)"/><path class="cls-3" d="M121.61,68.41s2.61,9.5,9,9.16"/><path class="cls-3" d="M117.62,72.94s2.6,9.5,9,9.16"/><rect class="cls-4" width="200" height="200"/></svg>
