<?xml version="1.0" encoding="utf-8"?>
<!-- Generator: Adobe Illustrator 22.0.0, SVG Export Plug-In . SVG Version: 6.00 Build 0)  -->
<svg version="1.1" id="Layer_1" xmlns="http://www.w3.org/2000/svg" xmlns:xlink="http://www.w3.org/1999/xlink" x="0px" y="0px"
	 viewBox="0 0 400 400" style="enable-background:new 0 0 400 400;" xml:space="preserve">
<style type="text/css">
	.st0{fill:#FFD7BA;}
	.st1{fill:#FFD7B9;}
	.st2{fill:none;}
</style>
<symbol  id="hand1" viewBox="-100 -100 200 200">
	<path class="st0" d="M75.2,21.3L47.9-0.8h-0.1c-0.6-0.6-14.1-14.1-16-15c0,0-11.3-8.3-17.5-4.9c-0.2,0.1-0.5,0.1-0.7,0L2.5-29.1
		c-0.3-0.2-0.7-0.2-0.9,0.1c0,0,0,0,0,0l-0.1,0.1L-14.7-2.1c-0.2,0.3-0.1,0.7,0.2,0.9c0,0,0,0,0,0l0,0l3.6,2c0.1,0,0.1,0.1,0.2,0.2
		l17,20c0,0,12.8,13.6,13.4,14.2l31.1,25.2c1.8,1.4,4.4,1.2,5.8-0.6c0,0,0,0,0,0l0.7-0.9c1.4-1.8,1.2-4.4-0.6-5.8c0,0,0,0,0,0
		l-28.6-24c-0.4-0.3-0.4-0.8-0.2-1.2c0.3-0.4,0.7-0.9,1.1-0.8l0,0c0.2,0.1,32,26.2,32,26.2c1.8,1.4,4.3,1.1,5.8-0.6l0.7-0.9
		c1.4-1.8,1.2-4.4-0.6-5.8c0,0,0,0,0,0L38.3,22.7c-0.3-0.3-0.4-0.8-0.1-1.2l0.1-0.1l0.7-0.7c0.3-0.3,0.8-0.3,1.1,0L66,41.6
		c1.8,1.4,4.4,1.2,5.8-0.6c0,0,0,0,0,0l0,0l0.7-0.9c1.4-1.8,1.2-4.4-0.6-5.8c0,0,0,0,0,0L45.4,12.9c-0.3-0.2-0.4-0.7-0.2-1
		c0.2-0.4,0.4-0.7,0.6-1.1c0.2-0.4,0.7-0.5,1.1-0.3c0,0,0,0,0,0c0.1,0,0.1,0,0.1,0.1c0,0,0,0,0,0l22.2,18C71,30,73.5,29.7,75,28
		l0.7-0.9c1.5-1.6,1.3-4.2-0.3-5.6C75.3,21.4,75.3,21.3,75.2,21.3L75.2,21.3z"/>
	<path class="st1" d="M-10.1,0.4c0,0-0.6,4,0,5.7s5,21.9,5,21.9l3.5,16l0.9,3.7c0,0,8.4,1.6,9.7-6.5c1.2-7.3-0.6-10.7-1-11.3
		c0-0.1,0-0.1-0.1-0.2l-3-11.4L-10.1,0.4z"/>
	<path class="st1" d="M-9.6,1.6l-53.6-31.8c-2.2-1.2-3-3.9-1.8-6.1c0,0,0-0.1,0.1-0.1c0-0.1,0.1-0.1,0.1-0.2l16.2-25.1
		c1.4-2.1,4.2-2.7,6.3-1.4l0.1,0.1L8.2-24.8c2,1.4,2.8,2.1,1.4,3.2L-2.8-1.2C-4.1,0.9-7.5,2.8-9.6,1.6z"/>
	<rect id="baggrund_1_" x="-100" y="-100" class="st2" width="200" height="200"/>
</symbol>
<symbol  id="hand1_2" viewBox="-100 -100 200 200">
	<path class="st0" d="M-75.2,21.3C-75.3,21.3-75.3,21.3-75.2,21.3c-1.8,1.4-2,4.1-0.6,5.8l0.7,0.9c1.4,1.8,4,2,5.8,0.6l22.2-18
		l0.1-0.1c0,0,0,0,0,0c0.4-0.2,0.9-0.1,1.1,0.3c0.2,0.4,0.4,0.8,0.6,1.1c0.2,0.3,0.1,0.8-0.2,1l-26.4,21.4c-1.8,1.4-2,4-0.6,5.8
		l0.7,0.9l0,0c1.4,1.8,4,2,5.8,0.6l25.8-20.9c0.3-0.3,0.8-0.3,1.1,0c0.2,0.2,0.5,0.4,0.7,0.7c0,0,0.1,0.1,0.1,0.1
		c0.3,0.3,0.3,0.9-0.1,1.2l-28.7,23.2c-1.8,1.4-2,4-0.6,5.8l0.7,0.9c1.4,1.8,4,2,5.8,0.6c0,0,31.8-26.1,32-26.2l0,0
		c0.4-0.1,0.8,0.4,1.1,0.8c0.3,0.4,0.2,0.9-0.2,1.2L-56.7,53c-1.8,1.4-2,4-0.6,5.8l0.7,0.9c1.4,1.8,4,2,5.8,0.6l31.1-25.1
		C-19,34.6-6.3,21-6.3,21L10.6,1c0.1-0.1,0.1-0.1,0.2-0.2l3.6-2l0,0c0,0,0,0,0,0c0.3-0.2,0.4-0.6,0.2-0.9L-1.5-28.9
		c0,0,0-0.1-0.1-0.1c0,0,0,0,0,0c-0.2-0.3-0.6-0.3-0.9-0.1l-11.1,8.4c-0.2,0.1-0.5,0.1-0.7,0c-6.2-3.4-17.5,4.9-17.5,4.9
		c-1.9,0.9-15.4,14.4-16,15h-0.1L-75.2,21.3L-75.2,21.3z"/>
	<path class="st1" d="M-4.9,18.3l-2.9,11.4c0,0.1-0.1,0.2-0.1,0.2c-0.4,0.6-2.2,4-1,11.3c1.3,8.1,9.7,6.5,9.7,6.5L1.6,44l3.5-16
		c0,0,4.4-20.1,5-21.9s0-5.7,0-5.7L-4.9,18.3z"/>
	<rect id="baggrund-2-2_2_" x="-100" y="-100" class="st2" width="200" height="200"/>
	<g id="hand2-2-3_1_">
		<path class="st1" d="M2.8-1.2L-9.5-21.6c-1.4-1.1-0.6-1.8,1.4-3.2l77.8-56.5l0.1-0.1c2.1-1.4,4.9-0.7,6.3,1.4l16.2,25
			c0,0.1,0.1,0.1,0.1,0.2c0,0,0,0,0,0c1.2,2.2,0.4,5-1.8,6.2L9.6,1.6C7.5,2.8,4.1,0.9,2.8-1.2z"/>
	</g>
</symbol>
<symbol  id="hand2-2" viewBox="-100 -100 200 200">
	<path class="st0" d="M58.3,7.7L48-0.7l-0.2-0.2c-1.3-1.3-14.1-14-15.9-14.9c0,0-10.1-7.4-16.4-5.4c-1.1,0.3-2.2,0.2-3.1-0.5
		l-7.5-5.7c-1.5-1.1-3.5-0.8-4.7,0.6c-0.1,0.1-0.1,0.2-0.2,0.3l-13.2,22C-14.1-2.9-13.6-1-12.1,0C-12,0-12,0-12,0.1l0.8,0.4
		c0.4,0.2,0.7,0.5,1,0.8L6.4,20.9c0,0,12.8,13.6,13.4,14.2l37.3,30.2c1.8,1.4,4.4,1.2,5.8-0.6c0,0,0,0,0,0l0.7-0.9
		C65,62,64.8,59.4,63,58c0,0,0,0,0,0l0,0L28.1,29c-0.4-0.3-0.4-0.8-0.2-1.2c0.3-0.4,0.7-0.9,1.1-0.8l0,0
		c0.2,0.1,25.1,20.3,25.1,20.3c1.8,1.4,2.8-0.8,4.2-2.6l0.4-1.8c-0.6-1.8-1.8-3.4-3.3-4.5l1.3,1.3l-18.4-17
		c-0.3-0.3-0.4-0.8-0.1-1.2l0.1-0.1l0.7-0.7c0.3-0.3,0.8-0.3,1.1,0L52,30.9c1.8,1.4,4.4,1.2,5.8-0.6c0,0,0,0,0,0l0.7-0.9
		c1.4-1.8,1.2-4.4-0.6-5.8c0,0,0,0,0,0L45.4,12.9c-0.3-0.2-0.4-0.7-0.2-1c0.2-0.4,0.4-0.7,0.6-1.1c0.2-0.4,0.7-0.5,1.1-0.3
		c0,0,0,0,0,0c0.1,0,0.1,0,0.1,0.1c0,0,0,0,0,0l5.3,4.3c1.8,1.4,4.3,1.1,5.8-0.6l0.7-0.9C60.2,11.7,60,9.2,58.3,7.7
		C58.3,7.7,58.3,7.7,58.3,7.7z"/>
	<path class="st1" d="M-9.6,1.6l-53.6-31.8c-2.2-1.2-3-3.9-1.8-6.1c0,0,0-0.1,0.1-0.1c0-0.1,0.1-0.1,0.1-0.2l16.2-25.1
		c1.4-2.1,4.2-2.7,6.3-1.4l0.1,0.1L8.2-24.8c2,1.4,2.8,2.1,1.4,3.2L-2.8-1.2C-4.1,0.9-7.5,2.8-9.6,1.6z"/>
	<ellipse class="st0" cx="55.7" cy="42.2" rx="5.1" ry="5.7"/>
	<ellipse class="st0" cx="55.7" cy="26.6" rx="5.1" ry="5.7"/>
	<ellipse class="st0" cx="55.7" cy="10.4" rx="5.1" ry="5.7"/>
	<path class="st1" d="M-10.1,0.4c0,0-0.6,4,0,5.7s5,21.9,5,21.9l3.5,16l0.9,3.7c0,0,8.4,1.6,9.7-6.5c1.2-7.3-0.6-10.7-1-11.3
		c0-0.1,0-0.1-0.1-0.2l-3-11.4L-10.1,0.4z"/>
	<rect id="baggrund-2_1_" x="-100" y="-100" class="st2" width="200" height="200"/>
</symbol>
<symbol  id="hand2-2-3" viewBox="-100 -100 200 200">
	<path class="st0" d="M58.3,7.7L48-0.7l-0.2-0.2c-1.3-1.3-14.1-14-15.9-14.9c0,0-10-7.4-16.4-5.4c-1,0.3-2.2,0.2-3.1-0.5l-7.5-5.7
		c-1.5-1.1-3.5-0.8-4.7,0.7c-0.1,0.1-0.1,0.2-0.2,0.3L-13.2-4.5C-14.1-3-13.6-0.9-12.1,0l0.1,0.1l0.8,0.4c0.4,0.2,0.7,0.5,1,0.8
		L6.4,20.9c0,0,12.8,13.6,13.4,14.2l37.3,30.2c1.8,1.4,4.4,1.2,5.8-0.6l0.7-0.9c1.4-1.8,1.1-4.4-0.6-5.8l0,0L28.1,29
		c-0.4-0.3-0.4-0.8-0.2-1.2c0.3-0.4,0.7-0.9,1.1-0.8l0,0c0.2,0.1,25.1,20.3,25.1,20.3c1.8,1.4,2.8-0.8,4.2-2.6l0.4-1.8
		c-0.6-1.8-1.8-3.3-3.3-4.4c-0.1-0.1,1.4,1.4,1.3,1.3l-18.4-17c-0.3-0.3-0.4-0.8-0.1-1.2c0,0,0.1-0.1,0.1-0.1
		c0.2-0.2,0.5-0.5,0.7-0.7c0.3-0.3,0.8-0.3,1.1,0L52.1,31c1.8,1.4,4.4,1.2,5.8-0.6l0.7-0.9c1.4-1.8,1.2-4.4-0.6-5.8L45.4,13
		c-0.3-0.2-0.4-0.7-0.2-1c0.2-0.3,0.4-0.7,0.6-1.1c0.2-0.4,0.7-0.5,1.1-0.3c0,0,0,0,0,0l0.1,0.1l5.3,4.3c1.8,1.4,4.4,1.1,5.8-0.6
		l0.7-0.9C60.3,11.7,60.1,9.2,58.3,7.7z"/>
	<path class="st1" d="M-9.6,1.6l-53.6-31.8c-2.2-1.2-3-4-1.8-6.2c0,0,0,0,0,0c0-0.1,0.1-0.2,0.1-0.2l16.2-25
		c1.4-2.1,4.2-2.7,6.3-1.4l0.1,0.1L8.1-24.8c2,1.4,2.8,2.1,1.4,3.2L-2.8-1.2C-4.1,0.9-7.5,2.8-9.6,1.6z"/>
	<ellipse class="st0" cx="55.7" cy="42.2" rx="5.1" ry="5.6"/>
	<ellipse class="st0" cx="55.7" cy="26.6" rx="5.1" ry="5.7"/>
	<ellipse class="st0" cx="55.7" cy="10.4" rx="5.1" ry="5.7"/>
	<path class="st1" d="M-10.1,0.4c0,0-0.6,4,0,5.7s5,21.9,5,21.9l3.5,16l0.9,3.7c0,0,8.4,1.6,9.7-6.5c1.2-7.3-0.6-10.7-1-11.3
		c-0.1-0.1-0.1-0.2-0.1-0.2L4.9,18.3L-10.1,0.4z"/>
	<rect id="baggrund-2-3_1_" x="-100" y="-100" class="st2" width="200" height="200"/>
</symbol>
<symbol  id="hand3" viewBox="-100 -100 200 200">
	<use xlink:href="#hand1_2"  width="200" height="200" id="hand3-3_2_" x="-100" y="-100" style="overflow:visible;"/>
</symbol>
<title>handsfinal</title>
<g id="Layer_2_1_">
	<g id="Layer_1-2">
		<g id="Layer_2-2">
			<g id="hand2">

					<use xlink:href="#hand1"  width="200" height="200" x="-100" y="-100" transform="matrix(1 0 0 -1 100 300)" style="overflow:visible;"/>

					<use xlink:href="#hand2-2"  width="200" height="200" x="-100" y="-100" transform="matrix(1 0 0 -1 300 300)" style="overflow:visible;"/>

					<use xlink:href="#hand3"  width="200" height="200" id="XMLID_1_" x="-100" y="-100" transform="matrix(1 0 0 -1 100 100)" style="overflow:visible;"/>

					<use xlink:href="#hand2-2-3"  width="200" height="200" x="-100" y="-100" transform="matrix(-1 0 0 -1 300 100)" style="overflow:visible;"/>
			</g>
		</g>
	</g>
</g>
</svg>
