<svg id="Layer_1" data-name="Layer 1" xmlns="http://www.w3.org/2000/svg" xmlns:xlink="http://www.w3.org/1999/xlink" width="200" height="200" viewBox="0 0 200 200"><defs><style>.cls-1{fill:#ffd7ba;}.cls-2{fill:#ffd7b9;}.cls-3{fill:none;}</style><symbol id="hand2-2-3" data-name="hand2-2-3" viewBox="0 0 200 200"><path class="cls-1" d="M70.9,73h0c.4.1.8-.4,1.1-.8a.83.83,0,0,0-.2-1.2L37,42h0a4,4,0,0,1-.6-5.8l.7-.9a4.12,4.12,0,0,1,5.8-.6L59.1,47.9,80.1,65c.7.6,13.4,14.2,13.4,14.2l16.7,19.5a3.92,3.92,0,0,0,1,.8l.8.4.1.1a3.18,3.18,0,0,1,1.1,4.5L100,126.4c-.1.1-.1.2-.2.3a3.45,3.45,0,0,1-4.7.7l-7.5-5.7a3.42,3.42,0,0,0-3.1-.5c-6.4,2-16.4-5.4-16.4-5.4-1.9-.9-14.6-13.5-15.9-14.9l-.2-.2-6.5-5.3C43.7,93.9,70.8,73,70.9,73Z"/><path class="cls-2" d="M102.8,101.2,90.5,121.6c-1.4,1.1-.6,1.8,1.4,3.2l77.8,56.5.1.1a4.56,4.56,0,0,0,6.3-1.4l16.2-25c0-.1.1-.1.1-.2h0a4.58,4.58,0,0,0-1.8-6.2l-81-50.2C107.5,97.2,104.1,99.1,102.8,101.2Z"/><rect id="baggrund-2-3" class="cls-3" width="200" height="200"/></symbol></defs><title>hand_close</title><g id="Isolation_Mode" data-name="Isolation Mode"><use id="hand2-2-3-3" data-name="hand2-2-3" width="200" height="200" xlink:href="#hand2-2-3"/></g></svg>
