<svg xmlns="http://www.w3.org/2000/svg" xmlns:xlink="http://www.w3.org/1999/xlink" width="400" height="400" viewBox="0 0 400 400"><defs><style>.cls-1{fill:#ffd7ba;}.cls-2{fill:#ffd7b9;}.cls-3{fill:none;}</style><symbol id="hand1" data-name="hand1" viewBox="0 0 200 200"><path class="cls-1" d="M175.2,121.3,147.9,99.2h-.1c-.6-.6-14.1-14.1-16-15,0,0-11.3-8.3-17.5-4.9a.85.85,0,0,1-.7,0l-11.1-8.4a.63.63,0,0,0-.9.1l-.1.1L85.3,97.9a.65.65,0,0,0,.2.9h0l3.6,2c.1,0,.1.1.2.2l17,20s12.8,13.6,13.4,14.2l31.1,25.2a4.12,4.12,0,0,0,5.8-.6l.7-.9a4.12,4.12,0,0,0-.6-5.8l-28.6-24a.93.93,0,0,1-.2-1.2c.3-.4.7-.9,1.1-.8h0c.2.1,32,26.2,32,26.2a4.21,4.21,0,0,0,5.8-.6l.7-.9a4.12,4.12,0,0,0-.6-5.8l-28.6-23.3a.91.91,0,0,1-.1-1.2l.1-.1.7-.7a.78.78,0,0,1,1.1,0L166,141.6a4.12,4.12,0,0,0,5.8-.6h0l.7-.9a4.12,4.12,0,0,0-.6-5.8l-26.5-21.4a.78.78,0,0,1-.2-1,10.91,10.91,0,0,0,.6-1.1.8.8,0,0,1,1.1-.3.1.1,0,0,1,.1.1l22.2,18a4.21,4.21,0,0,0,5.8-.6l.7-.9a4,4,0,0,0-.5-5.8Z"/><path class="cls-2" d="M89.9,100.4s-.6,4,0,5.7,5,21.9,5,21.9l3.5,16,.9,3.7s8.4,1.6,9.7-6.5c1.2-7.3-.6-10.7-1-11.3a.35.35,0,0,0-.1-.2l-3-11.4Z"/><path class="cls-2" d="M90.4,101.6,36.8,69.8a4.47,4.47,0,0,1-1.7-6.2c0-.1.1-.1.1-.2L51.4,38.3a4.65,4.65,0,0,1,6.3-1.4l.1.1,50.4,38.2c2,1.4,2.8,2.1,1.4,3.2L97.2,98.8C95.9,100.9,92.5,102.8,90.4,101.6Z"/><rect id="baggrund" class="cls-3" width="200" height="200"/></symbol><symbol id="hand2-2" data-name="hand2-2" viewBox="0 0 200 200"><path class="cls-1" d="M158.3,107.7,148,99.3l-.2-.2c-1.3-1.3-14.1-14-15.9-14.9,0,0-10.1-7.4-16.4-5.4a3.46,3.46,0,0,1-3.1-.5l-7.5-5.7a3.44,3.44,0,0,0-4.7.6c-.1.1-.1.2-.2.3l-13.2,22a3.36,3.36,0,0,0,1.1,4.5.1.1,0,0,1,.1.1l.8.4a3.92,3.92,0,0,1,1,.8l16.6,19.6s12.8,13.6,13.4,14.2l37.3,30.2a4.12,4.12,0,0,0,5.8-.6l.7-.9a4.12,4.12,0,0,0-.6-5.8h0l-34.9-29a.93.93,0,0,1-.2-1.2c.3-.4.7-.9,1.1-.8h0c.2.1,25.1,20.3,25.1,20.3,1.8,1.4,2.8-.8,4.2-2.6l.4-1.8a9.81,9.81,0,0,0-3.3-4.5l1.3,1.3-18.4-17a.91.91,0,0,1-.1-1.2l.1-.1.7-.7a.78.78,0,0,1,1.1,0L152,130.9a4.12,4.12,0,0,0,5.8-.6l.7-.9a4.12,4.12,0,0,0-.6-5.8l-12.5-10.7a.78.78,0,0,1-.2-1,10.91,10.91,0,0,0,.6-1.1.8.8,0,0,1,1.1-.3.1.1,0,0,1,.1.1l5.3,4.3a4.21,4.21,0,0,0,5.8-.6l.7-.9A4,4,0,0,0,158.3,107.7Z"/><path class="cls-2" d="M90.4,101.6,36.8,69.8a4.47,4.47,0,0,1-1.7-6.2c0-.1.1-.1.1-.2L51.4,38.3a4.65,4.65,0,0,1,6.3-1.4l.1.1,50.4,38.2c2,1.4,2.8,2.1,1.4,3.2L97.2,98.8C95.9,100.9,92.5,102.8,90.4,101.6Z"/><ellipse class="cls-1" cx="155.7" cy="142.2" rx="5.1" ry="5.7"/><ellipse class="cls-1" cx="155.7" cy="126.6" rx="5.1" ry="5.7"/><ellipse class="cls-1" cx="155.7" cy="110.4" rx="5.1" ry="5.7"/><path class="cls-2" d="M89.9,100.4s-.6,4,0,5.7,5,21.9,5,21.9l3.5,16,.9,3.7s8.4,1.6,9.7-6.5c1.2-7.3-.6-10.7-1-11.3a.35.35,0,0,0-.1-.2l-3-11.4Z"/><rect id="baggrund-2" class="cls-3" width="200" height="200"/></symbol><symbol id="hand1_2" data-name="hand1 2" viewBox="0 0 200 200"><path class="cls-1" d="M175.2,121.29,147.94,99.23h-.06c-.64-.64-14.1-14.07-16-15,0,0-11.3-8.33-17.53-4.93a.65.65,0,0,1-.73,0l-11.08-8.38a.66.66,0,0,0-.93.09.36.36,0,0,0-.07.1L85.34,97.89a.67.67,0,0,0,.23.92h0l3.64,2a.74.74,0,0,1,.19.16l16.88,20s12.75,13.61,13.45,14.17l31.08,25.15a4.14,4.14,0,0,0,5.81-.61l.73-.9a4.14,4.14,0,0,0-.61-5.81l-28.64-23.92a.94.94,0,0,1-.18-1.24c.28-.43.67-.87,1.1-.81h0c.16.06,32,26.19,32,26.19a4.15,4.15,0,0,0,5.8-.62l.74-.9a4.15,4.15,0,0,0-.61-5.81l-28.66-23.18a.83.83,0,0,1-.08-1.17.6.6,0,0,1,.08-.08c.24-.23.5-.47.73-.66a.9.9,0,0,1,1.14,0L166,141.64a4.14,4.14,0,0,0,5.8-.6h0l.74-.9a4.15,4.15,0,0,0-.61-5.81l-26.45-21.38a.83.83,0,0,1-.21-1c.16-.32.38-.72.61-1.08a.8.8,0,0,1,1.1-.27l.1.07,22.23,18a4.16,4.16,0,0,0,5.81-.62l.73-.9a4.15,4.15,0,0,0-.6-5.84Z"/><path class="cls-2" d="M89.88,100.39s-.56,4,0,5.74,5,21.86,5,21.86l3.49,16,.89,3.67s8.39,1.64,9.69-6.49c1.17-7.31-.64-10.69-1-11.29a.8.8,0,0,1-.11-.25l-2.94-11.36Z"/><path class="cls-2" d="M90.39,101.55,36.75,69.78A4.57,4.57,0,0,1,35,63.55a1.59,1.59,0,0,1,.13-.22l16.25-25a4.56,4.56,0,0,1,6.29-1.38l.14.1,50.31,38.16c2,1.37,2.8,2.07,1.42,3.17L97.17,98.83C95.89,100.93,92.53,102.76,90.39,101.55Z"/><rect id="baggrund-2-2" data-name="baggrund" class="cls-3" width="200" height="200"/></symbol><symbol id="hand3" data-name="hand3" viewBox="0 0 200 200"><use id="hand3-3" width="200" height="200" transform="matrix(-1, 0, 0, 1, 200, 0)" xlink:href="#hand1_2"/></symbol><symbol id="hand2-2-3" data-name="hand2" viewBox="0 0 200 200"><path class="cls-1" d="M158.31,107.71,148,99.31l-.24-.21c-1.34-1.34-14.06-14-15.92-14.88,0,0-10-7.4-16.41-5.4a3.37,3.37,0,0,1-3.07-.49l-7.52-5.69a3.33,3.33,0,0,0-4.65.65,2.75,2.75,0,0,0-.19.28L86.8,95.47A3.32,3.32,0,0,0,87.93,100l.12.07.76.41a3.3,3.3,0,0,1,1,.78l16.56,19.64s12.75,13.61,13.45,14.17l37.29,30.24a4.14,4.14,0,0,0,5.81-.62l.73-.9A4.12,4.12,0,0,0,163,158l0,0-34.87-29a.94.94,0,0,1-.18-1.24c.28-.43.67-.87,1.1-.81h0c.16.06,25.11,20.29,25.11,20.29,1.76,1.42,2.75-.84,4.19-2.6l.41-1.8a9.66,9.66,0,0,0-3.32-4.45c-.07-.06,1.37,1.39,1.31,1.33l-18.44-17a.83.83,0,0,1-.08-1.17.6.6,0,0,1,.08-.08c.24-.23.5-.47.73-.66a.9.9,0,0,1,1.14,0l11.94,10.16a4.13,4.13,0,0,0,5.8-.62l.73-.9a4.14,4.14,0,0,0-.6-5.8l-12.61-10.68a.83.83,0,0,1-.21-1c.16-.32.38-.72.61-1.08a.8.8,0,0,1,1.1-.27l.1.07,5.34,4.34a4.15,4.15,0,0,0,5.8-.61l.74-.91A4.15,4.15,0,0,0,158.31,107.71Z"/><path class="cls-2" d="M90.39,101.55,36.75,69.78A4.57,4.57,0,0,1,35,63.55a1.59,1.59,0,0,1,.13-.22l16.25-25a4.56,4.56,0,0,1,6.29-1.38l.14.1,50.31,38.16c2,1.37,2.8,2.07,1.42,3.17L97.17,98.83C95.89,100.93,92.53,102.76,90.39,101.55Z"/><ellipse class="cls-1" cx="155.72" cy="142.18" rx="5.07" ry="5.65"/><ellipse class="cls-1" cx="155.72" cy="126.57" rx="5.07" ry="5.65"/><ellipse class="cls-1" cx="155.72" cy="110.37" rx="5.07" ry="5.65"/><path class="cls-2" d="M89.88,100.39s-.56,4,0,5.74,5,21.86,5,21.86l3.49,16,.89,3.67s8.39,1.64,9.69-6.49c1.17-7.31-.64-10.69-1-11.29a.8.8,0,0,1-.11-.25l-2.94-11.36Z"/><rect id="baggrund-2-3" data-name="baggrund-2" class="cls-3" width="200" height="200"/></symbol></defs><title>handsfinal</title><g id="Layer_2" data-name="Layer 2"><g id="Layer_1-2" data-name="Layer 1"><g id="Layer_2-2" data-name="Layer 2"><g id="hand2"><use width="200" height="200" transform="matrix(1, 0, 0, -1, 0, 400)" xlink:href="#hand1"/><use width="200" height="200" transform="matrix(1, 0, 0, -1, 200, 400)" xlink:href="#hand2-2"/><use width="200" height="200" transform="matrix(1, 0, 0, -1, 0, 200)" xlink:href="#hand3"/><use width="200" height="200" transform="translate(400 200) rotate(180)" xlink:href="#hand2-2-3"/></g></g></g></g></svg>
