<svg xmlns="http://www.w3.org/2000/svg" xmlns:xlink="http://www.w3.org/1999/xlink" width="200" height="200" viewBox="0 0 200 200"><defs><style>.cls-1{fill:#dbdddd;stroke:#b9baba;}.cls-1,.cls-2,.cls-3{stroke-miterlimit:10;}.cls-2{fill:#464849;stroke:#111314;stroke-width:0.25px;}.cls-3{fill:#00d7ff;stroke:#089baf;}.cls-4{fill:#b5b5b5;}.cls-5{fill:#6f7070;}.cls-6{fill:none;}</style><symbol id="ipad_hvid" data-name="ipad_hvid" viewBox="0 0 200 200"><path class="cls-1" d="M150.77,192.9H54.32c-7.94.26-13.77-4.51-15-13.58V20.2c1.35-7.07,7.17-12.26,14.82-11.76h96.45a12,12,0,0,1,12,12V179.56A14.32,14.32,0,0,1,150.77,192.9Z"/><rect class="cls-2" x="44.95" y="26.74" width="111.46" height="148.15" rx="4" ry="4"/><rect class="cls-3" x="45.78" y="28.3" width="109.35" height="145.51" rx="3.05" ry="3.05"/><circle class="cls-4" cx="100.68" cy="184.13" r="4.27"/><circle class="cls-4" cx="101.04" cy="18.88" r="1.04"/><circle class="cls-4" cx="97.4" cy="18.62" r="0.79"/><circle class="cls-5" cx="100.68" cy="184.13" r="0.98"/><rect id="baggrund" class="cls-6" width="200" height="200"/></symbol></defs><title>ipad_h</title><g id="Layer_2" data-name="Layer 2"><g id="Layer_1-2" data-name="Layer 1"><use width="200" height="200" xlink:href="#ipad_hvid"/></g></g></svg>
