<svg id="Layer_1" data-name="Layer 1" xmlns="http://www.w3.org/2000/svg" xmlns:xlink="http://www.w3.org/1999/xlink" width="204.43" height="185.86" viewBox="0 0 204.43 185.86"><defs><style>.cls-1{fill:#fcb98b;}.cls-2{fill:#48a858;stroke:#48a858;}.cls-2,.cls-4,.cls-5,.cls-6,.cls-7{stroke-miterlimit:10;}.cls-3{fill:none;}.cls-4{fill:#e8dde2;stroke:#e8dde2;}.cls-5{fill:#303030;stroke:#1c1c1c;}.cls-6{fill:#464849;stroke:#111314;stroke-width:0.25px;}.cls-7{fill:#00d7ff;stroke:#089baf;}.cls-8{fill:#060707;}.cls-9{fill:#0a0c0c;}.cls-10{fill:#0a0f0f;}</style><symbol id="ipad_s" data-name="ipad_s" viewBox="0 0 200 200"><path class="cls-5" d="M149.77,191.9H53.32c-7.94.26-13.77-4.51-15-13.58V19.2c1.35-7.07,7.17-12.26,14.82-11.76h96.45a12,12,0,0,1,12,12V178.56A14.32,14.32,0,0,1,149.77,191.9Z"/><rect class="cls-6" x="43.95" y="25.74" width="111.46" height="148.15" rx="4" ry="4"/><rect class="cls-7" x="44.78" y="27.3" width="109.35" height="145.51" rx="3.05" ry="3.05"/><circle class="cls-8" cx="99.68" cy="183.13" r="4.27"/><circle class="cls-9" cx="100.04" cy="17.88" r="1.04"/><circle class="cls-10" cx="96.4" cy="17.62" r="0.79"/><circle class="cls-5" cx="99.77" cy="183.2" r="0.76"/><rect class="cls-3" width="200" height="200"/></symbol><symbol id="ipad_hvid" data-name="ipad_hvid" viewBox="0 0 204.43 185.86"><g id="h4"><path class="cls-1" d="M68.63,99.77l10.28,8.4.24.21c1.34,1.34,14.07,14,15.93,14.88,0,0,10,7.4,16.41,5.4a3.34,3.34,0,0,1,3.06.49l7.52,5.69a3.32,3.32,0,0,0,4.84-.93L140.15,112a3.33,3.33,0,0,0-1.25-4.64l-.77-.41a3.39,3.39,0,0,1-.95-.78L120.62,86.55s-12.75-13.61-13.45-14.17L69.88,42.14a4.14,4.14,0,0,0-5.81.62l-.73.9a4.13,4.13,0,0,0,.61,5.8l34.87,29A.94.94,0,0,1,99,79.66c-.28.43-.67.87-1.1.81h0c-.16-.06-25.12-20.29-25.12-20.29C71,58.76,70,61,68.59,62.78l-.42,1.8A9.77,9.77,0,0,0,71.49,69c.07.06-1.37-1.39-1.31-1.33L88.63,84.79A.83.83,0,0,1,88.68,86c-.24.23-.5.47-.74.66a.89.89,0,0,1-1.14,0L74.87,76.55a4.14,4.14,0,0,0-5.81.62l-.73.9a4.14,4.14,0,0,0,.61,5.8L81.5,94.54a.83.83,0,0,1,.22,1c-.17.32-.39.72-.61,1.08a.82.82,0,0,1-1.21.2l-5.34-4.41a4.15,4.15,0,0,0-5.8.61L68,94A4.15,4.15,0,0,0,68.63,99.77Z"/><path class="cls-2" d="M203.74,151.6l-23.31,33.52L127.1,139.84a6.07,6.07,0,0,1-3.29,1,6.16,6.16,0,1,1,0-12.31l.51,0a6,6,0,0,1-.51-2.44,6.15,6.15,0,0,1,6.15-6.16,6.15,6.15,0,0,1,6.16-6.15h.09a5.36,5.36,0,0,1-.09-1,6.16,6.16,0,1,1,12.31,0,5.83,5.83,0,0,1-.15,1.33l1.09-1.33Z"/></g><rect id="baggrund" class="cls-3" x="6.73" y="0.02" width="130.77" height="130.77"/><g id="Isolation_Mode" data-name="Isolation Mode"><use width="200" height="200" transform="scale(0.7)" xlink:href="#ipad_s"/></g><g id="mobil3_copy" data-name="mobil3 copy"><path class="cls-1" d="M129.08,105.16s.55-4,0-5.74-5-21.86-5-21.86l-3.49-16-.89-3.68s-8.39-1.63-9.68,6.5c-1.17,7.31.63,10.69,1,11.29a1.09,1.09,0,0,1,.1.25l2.93,11.39Z"/></g><ellipse class="cls-4" cx="117.65" cy="64.31" rx="2.29" ry="4.76"/></symbol></defs><title>ipad_sort</title><use id="ipad_hvid-3" data-name="ipad_hvid" width="204.43" height="185.86" transform="translate(0 0)" xlink:href="#ipad_hvid"/></svg>
