<svg xmlns="http://www.w3.org/2000/svg" xmlns:xlink="http://www.w3.org/1999/xlink" width="200" height="200" viewBox="0 0 200 200"><defs><style>.cls-1{fill:#303030;stroke:#1c1c1c;}.cls-1,.cls-2,.cls-3{stroke-miterlimit:10;}.cls-2{fill:#464849;stroke:#111314;stroke-width:0.25px;}.cls-3{fill:#00d7ff;stroke:#089baf;}.cls-4{fill:#060707;}.cls-5{fill:#0a0c0c;}.cls-6{fill:#0a0f0f;}.cls-7{fill:none;}</style><symbol id="ipad_s" data-name="ipad_s" viewBox="0 0 200 200"><path class="cls-1" d="M149.77,191.9H53.32c-7.94.26-13.77-4.51-15-13.58V19.2c1.35-7.07,7.17-12.26,14.82-11.76h96.45a12,12,0,0,1,12,12V178.56A14.32,14.32,0,0,1,149.77,191.9Z"/><rect class="cls-2" x="43.95" y="25.74" width="111.46" height="148.15" rx="4" ry="4"/><rect class="cls-3" x="44.78" y="27.3" width="109.35" height="145.51" rx="3.05" ry="3.05"/><circle class="cls-4" cx="99.68" cy="183.13" r="4.27"/><circle class="cls-5" cx="100.04" cy="17.88" r="1.04"/><circle class="cls-6" cx="96.4" cy="17.62" r="0.79"/><circle class="cls-1" cx="99.77" cy="183.2" r="0.76"/><rect class="cls-7" width="200" height="200"/></symbol></defs><title>ipad_s</title><g id="Layer_2" data-name="Layer 2"><g id="Layer_1-2" data-name="Layer 1"><use width="200" height="200" xlink:href="#ipad_s"/></g></g></svg>
