<svg id="Layer_1" data-name="Layer 1" xmlns="http://www.w3.org/2000/svg" xmlns:xlink="http://www.w3.org/1999/xlink" width="188.69" height="172.16" viewBox="0 0 188.69 172.16"><defs><style>.cls-1{fill:#464849;stroke:#111314;stroke-width:0.25px;}.cls-1,.cls-3,.cls-5,.cls-6,.cls-9{stroke-miterlimit:10;}.cls-2{fill:#fcb98b;}.cls-3{fill:#ccf5ff;stroke:#ccf5ff;}.cls-4{fill:none;}.cls-5{fill:#dbdddd;stroke:#b9baba;}.cls-6{fill:#00d7ff;stroke:#089baf;}.cls-7{fill:#b5b5b5;}.cls-8{fill:#6f7070;}.cls-9{fill:#c12363;stroke:#c12363;}</style><symbol id="ipad_hvid" data-name="ipad_hvid" viewBox="0 0 188.69 172.16"><rect class="cls-1" x="29.39" y="17.48" width="72.87" height="96.87" rx="4" ry="4"/><g id="h4"><path class="cls-2" d="M61.9,99.75l10.28,8.4.24.21c1.34,1.34,14.06,14,15.92,14.88,0,0,10,7.4,16.41,5.4a3.37,3.37,0,0,1,3.07.49l7.51,5.69a3.33,3.33,0,0,0,4.85-.93L133.41,112a3.32,3.32,0,0,0-1.25-4.63l-.76-.42a3.22,3.22,0,0,1-1-.77L113.89,86.53s-12.75-13.61-13.45-14.17L63.15,42.12a4.14,4.14,0,0,0-5.81.62l-.74.9a4.13,4.13,0,0,0,.62,5.8l34.87,29a1,1,0,0,1,.18,1.24c-.28.43-.67.87-1.1.81h0C91,80.39,66,60.16,66,60.16c-1.76-1.42-2.75.84-4.19,2.6l-.41,1.8A9.63,9.63,0,0,0,64.76,69c.07.06-1.37-1.39-1.31-1.33L81.9,84.77a.83.83,0,0,1,0,1.25c-.24.23-.5.47-.73.66a.9.9,0,0,1-1.14,0L68.13,76.53a4.13,4.13,0,0,0-5.8.62l-.73.9a4.13,4.13,0,0,0,.6,5.8L74.77,94.52a.82.82,0,0,1,.21,1c-.17.32-.38.72-.61,1.08a.8.8,0,0,1-1.2.2l-5.34-4.41A4.15,4.15,0,0,0,62,93l-.74.9A4.16,4.16,0,0,0,61.9,99.75Z"/><path class="cls-3" d="M188,137.94l-23.31,33.52-44.29-31.64a6.07,6.07,0,0,1-3.29,1,6.16,6.16,0,1,1,0-12.31l.51,0a6,6,0,0,1-.51-2.44,6.15,6.15,0,0,1,6.15-6.16,6.15,6.15,0,0,1,6.16-6.15h.09a5.36,5.36,0,0,1-.09-1,6.16,6.16,0,1,1,12.31,0,5.83,5.83,0,0,1-.15,1.33l1.09-1.33Z"/></g><rect id="baggrund" class="cls-4" width="130.77" height="130.77"/><path class="cls-5" d="M98.58,126.12H35.52c-5.19.17-9-2.94-9.84-8.88v-104a9.13,9.13,0,0,1,9.68-7.69H98.43a7.87,7.87,0,0,1,7.84,7.85v104A9.34,9.34,0,0,1,98.58,126.12Z"/><rect class="cls-6" x="29.93" y="18.5" width="71.5" height="95.14" rx="3.05" ry="3.05"/><circle class="cls-7" cx="65.83" cy="120.39" r="2.79"/><circle class="cls-7" cx="66.07" cy="12.34" r="0.68"/><circle class="cls-7" cx="63.69" cy="12.18" r="0.52"/><circle class="cls-8" cx="65.83" cy="120.39" r="0.64"/><g id="mobil3_copy" data-name="mobil3 copy"><path class="cls-2" d="M122.34,105.14s.56-4,0-5.75-5-21.85-5-21.85l-3.49-16L113,57.83s-8.39-1.63-9.69,6.5c-1.17,7.31.64,10.69,1,11.29a1.12,1.12,0,0,1,.11.25l2.93,11.39Z"/></g><ellipse class="cls-9" cx="110.92" cy="64.29" rx="2.29" ry="4.76"/></symbol></defs><title>ipad_hand</title><use id="ipad_hvid-3" data-name="ipad_hvid" width="188.69" height="172.16" transform="translate(0)" xlink:href="#ipad_hvid"/></svg>
