<?xml version="1.0" encoding="utf-8"?>
<!-- Generator: Adobe Illustrator 22.0.0, SVG Export Plug-In . SVG Version: 6.00 Build 0)  -->
<svg version="1.1" id="Layer_1" xmlns="http://www.w3.org/2000/svg" xmlns:xlink="http://www.w3.org/1999/xlink" x="0px" y="0px"
	 viewBox="0 0 200 200" style="enable-background:new 0 0 200 200;" xml:space="preserve">
<style type="text/css">
	.st0{fill:#EAEBE5;stroke:#DBDCD3;stroke-width:0.75;stroke-miterlimit:10;}
	.st1{fill:#262625;stroke:#262625;stroke-width:0.25;stroke-miterlimit:10;}
	.st2{fill:#697896;}
	.st3{fill:none;stroke:#000000;stroke-width:0.25;stroke-miterlimit:10;}
	.st4{opacity:0.29;}
	.st5{fill:#F2F4F7;}
	.st6{fill:none;stroke:#F2F4F7;stroke-width:0.25;stroke-miterlimit:10;}
	.st7{fill:#5B5C56;}
	.st8{fill:none;stroke:#C4C5BC;stroke-width:0.5;stroke-miterlimit:10;}
	.st9{fill:none;stroke:#DBDCD3;stroke-width:0.25;stroke-miterlimit:10;}
	.st10{fill:#EAEBE5;stroke:#DBDCD3;stroke-width:0.25;stroke-miterlimit:10;}
	.st11{fill:#E1DED6;stroke:#DBDCD3;stroke-width:0.25;stroke-miterlimit:10;}
	.st12{fill:#68BDB9;}
	.st13{fill:none;stroke:#68BDB9;stroke-width:0.25;stroke-miterlimit:10;}
	.st14{opacity:0.12;}
	.st15{fill:#FFFFFF;}
	.st16{fill:none;stroke:#FFFFFF;stroke-width:0.25;stroke-miterlimit:10;}
	.st17{fill:none;}
</style>
<symbol  id="mobil_h" viewBox="-108 -59.2 200 200">
	<path class="st0" d="M25.1,108.6h-50.3c-4.8,0-8.6-3.9-8.6-8.6v-126c0-4.8,3.9-8.6,8.6-8.6l36.4-0.6l0.1-0.8l11.3-0.1l0.3,0.9
		c8.9,0.2,10.2,3.2,10.8,9.2v126C33.7,104.7,29.8,108.5,25.1,108.6z"/>
	<path class="st1" d="M-27.9-15.7H28c1.1,0,1.9,0.9,1.9,1.9V87.4c0,1.1-0.9,1.9-1.9,1.9h-55.9c-1.1,0-1.9-0.9-1.9-1.9V-13.7
		C-29.9-14.8-29-15.7-27.9-15.7z"/>
	<path class="st2" d="M-27.8-15.1h55.5c0.8,0,1.5,0.7,1.5,1.5V87.1c0,0.8-0.7,1.5-1.5,1.5h-55.5c-0.8,0-1.5-0.7-1.5-1.5V-13.7
		C-29.3-14.5-28.6-15.1-27.8-15.1z"/>
	<path class="st3" d="M-27.8-15.1h55.5c0.8,0,1.5,0.7,1.5,1.5V87.1c0,0.8-0.7,1.5-1.5,1.5h-55.5c-0.8,0-1.5-0.7-1.5-1.5V-13.7
		C-29.3-14.5-28.6-15.1-27.8-15.1z"/>
	<g>
		<g class="st4">
			<path class="st5" d="M-27.8-15.1h55.5c0.8,0,1.5,0.7,1.5,1.5V87.1c0,0.8-0.7,1.5-1.5,1.5h-55.5c-0.8,0-1.5-0.7-1.5-1.5V-13.7
				C-29.3-14.5-28.6-15.1-27.8-15.1z"/>
			<path class="st6" d="M-27.8-15.1h55.5c0.8,0,1.5,0.7,1.5,1.5V87.1c0,0.8-0.7,1.5-1.5,1.5h-55.5c-0.8,0-1.5-0.7-1.5-1.5V-13.7
				C-29.3-14.5-28.6-15.1-27.8-15.1z"/>
		</g>
	</g>
	<path class="st7" d="M-5-23.4H5c0.3,0,0.5,0.2,0.5,0.5v0c0,0.3-0.2,0.5-0.5,0.5H-5c-0.3,0-0.5-0.2-0.5-0.5v0
		C-5.4-23.2-5.2-23.4-5-23.4z"/>
	<path class="st8" d="M-0.9,96.9h1.9C1.5,96.9,2,97.4,2,98v1.9c0,0.6-0.5,1.1-1.1,1.1h-1.9c-0.6,0-1.1-0.5-1.1-1.1V98
		C-2,97.4-1.5,96.9-0.9,96.9z"/>
	<ellipse class="st9" cx="0" cy="98.9" rx="5.6" ry="5.9"/>
	<path class="st10" d="M-34.3-15.7c-0.2,0-0.4,0-0.5,0.2c-0.1,0.1,0.1,6.5,0.1,6.5s0.2,0.3,0.4,0.3S-34.3-15.7-34.3-15.7z"/>
	<path class="st10" d="M-34.3-1.9c-0.2,0-0.3,0-0.5,0.1c-0.1,0.1,0.1,4.5,0.1,4.5c0.1,0.1,0.2,0.2,0.4,0.2
		C-34,2.9-34.3-1.9-34.3-1.9z"/>
	<path class="st10" d="M-34.2,10.4c-0.2,0-0.3,0-0.5,0.1c-0.1,0.1,0.1,4.5,0.1,4.5c0.1,0.1,0.2,0.2,0.4,0.2
		C-33.9,15.2-34.2,10.4-34.2,10.4z"/>
	<circle class="st11" cx="0" cy="-28.5" r="1.3"/>
	<circle class="st12" cx="0" cy="-28.5" r="0.6"/>
	<circle class="st13" cx="0" cy="-28.5" r="0.6"/>
	<g>
		<g class="st14">
			<circle class="st15" cx="0" cy="-28.5" r="0.6"/>
			<circle class="st16" cx="0" cy="-28.5" r="0.6"/>
		</g>
	</g>
	<rect id="baggrund_2_" x="-108" y="-59.2" class="st17" width="200" height="200"/>
</symbol>
<title>mobil_h</title>
<use xlink:href="#mobil_h"  width="200" height="200" id="XMLID_1_" x="-108" y="-59.2" transform="matrix(1 0 0 1 108 59.25)" style="overflow:visible;"/>
</svg>
