<svg xmlns="http://www.w3.org/2000/svg" xmlns:xlink="http://www.w3.org/1999/xlink" width="200" height="200" viewBox="0 0 200 200"><defs><style>.cls-1,.cls-11{fill:#eaebe5;}.cls-1,.cls-10,.cls-11,.cls-12{stroke:#dbdcd3;}.cls-1,.cls-10,.cls-11,.cls-12,.cls-14,.cls-17,.cls-2,.cls-4,.cls-7,.cls-9{stroke-miterlimit:10;}.cls-1{stroke-width:0.75px;}.cls-2{fill:#262625;stroke:#262625;}.cls-10,.cls-11,.cls-12,.cls-14,.cls-17,.cls-2,.cls-4,.cls-7{stroke-width:0.25px;}.cls-3{fill:#697896;}.cls-10,.cls-14,.cls-17,.cls-18,.cls-4,.cls-7,.cls-9{fill:none;}.cls-4{stroke:#000;}.cls-5{opacity:0.29;}.cls-6{fill:#f2f4f7;}.cls-7{stroke:#f2f4f7;}.cls-8{fill:#5b5c56;}.cls-9{stroke:#c4c5bc;stroke-width:0.5px;}.cls-12{fill:#e1ded6;}.cls-13{fill:#68bdb9;}.cls-14{stroke:#68bdb9;}.cls-15{opacity:0.12;}.cls-16{fill:#fff;}.cls-17{stroke:#fff;}.cls-19{fill:#e8e8e8;stroke:#a0a0a0;stroke-width:2px;}.cls-20{fill:#edb880;}.cls-21{fill:#d1a372;}.cls-22{fill:#0f1220;}.cls-23{font-size:12.1px;fill:#c1272d;font-family:Chalkduster, Chalkduster;}</style><symbol id="mobil_h" data-name="mobil h" viewBox="0 0 200 200"><path class="cls-1" d="M133.1,32.2H82.8a8.6,8.6,0,0,0-8.6,8.6v126a8.6,8.6,0,0,0,8.6,8.6l36.4.6.1.8,11.3.1.3-.9c8.9-.2,10.2-3.2,10.8-9.2V40.8A8.73,8.73,0,0,0,133.1,32.2Z"/><path class="cls-2" d="M80.1,156.5H136a1.9,1.9,0,0,0,1.9-1.9V53.4a1.9,1.9,0,0,0-1.9-1.9H80.1a1.9,1.9,0,0,0-1.9,1.9V154.5A1.86,1.86,0,0,0,80.1,156.5Z"/><path class="cls-3" d="M80.2,155.9h55.5a1.54,1.54,0,0,0,1.5-1.5V53.7a1.54,1.54,0,0,0-1.5-1.5H80.2a1.54,1.54,0,0,0-1.5,1.5V154.5A1.45,1.45,0,0,0,80.2,155.9Z"/><path class="cls-4" d="M80.2,155.9h55.5a1.54,1.54,0,0,0,1.5-1.5V53.7a1.54,1.54,0,0,0-1.5-1.5H80.2a1.54,1.54,0,0,0-1.5,1.5V154.5A1.45,1.45,0,0,0,80.2,155.9Z"/><g class="cls-5"><path class="cls-6" d="M80.2,155.9h55.5a1.54,1.54,0,0,0,1.5-1.5V53.7a1.54,1.54,0,0,0-1.5-1.5H80.2a1.54,1.54,0,0,0-1.5,1.5V154.5A1.45,1.45,0,0,0,80.2,155.9Z"/><path class="cls-7" d="M80.2,155.9h55.5a1.54,1.54,0,0,0,1.5-1.5V53.7a1.54,1.54,0,0,0-1.5-1.5H80.2a1.54,1.54,0,0,0-1.5,1.5V154.5A1.45,1.45,0,0,0,80.2,155.9Z"/></g><path class="cls-8" d="M103,164.2h10a.47.47,0,0,0,.5-.5h0a.47.47,0,0,0-.5-.5H103a.47.47,0,0,0-.5.5h0C102.6,164,102.8,164.2,103,164.2Z"/><path class="cls-9" d="M107.1,43.9H109a1.1,1.1,0,0,0,1-1.1V40.9a1.11,1.11,0,0,0-1.1-1.1H107a1.11,1.11,0,0,0-1.1,1.1v1.9A1.28,1.28,0,0,0,107.1,43.9Z"/><ellipse class="cls-10" cx="108" cy="41.9" rx="5.6" ry="5.9"/><path class="cls-11" d="M73.7,156.5c-.2,0-.4,0-.5-.2s.1-6.5.1-6.5.2-.3.4-.3S73.7,156.5,73.7,156.5Z"/><path class="cls-11" d="M73.7,142.7a.9.9,0,0,1-.5-.1c-.1-.1.1-4.5.1-4.5a.52.52,0,0,1,.4-.2C74,137.9,73.7,142.7,73.7,142.7Z"/><path class="cls-11" d="M73.8,130.4a.9.9,0,0,1-.5-.1c-.1-.1.1-4.5.1-4.5a.52.52,0,0,1,.4-.2C74.1,125.6,73.8,130.4,73.8,130.4Z"/><circle class="cls-12" cx="108" cy="169.3" r="1.3"/><circle class="cls-13" cx="108" cy="169.3" r="0.6"/><circle class="cls-14" cx="108" cy="169.3" r="0.6"/><g class="cls-15"><circle class="cls-16" cx="108" cy="169.3" r="0.6"/><circle class="cls-17" cx="108" cy="169.3" r="0.6"/></g><rect id="baggrund" class="cls-18" width="200" height="200"/></symbol></defs><title>mobil_censoreret</title><g id="Layer_1" data-name="Layer 1"><use id="mobil_h-3" data-name="mobil h" width="200" height="200" transform="matrix(1, 0, 0, -1, 0, 200)" xlink:href="#mobil_h"/><g id="Artboard_1" data-name="Artboard 1"><g id="tiles"><path class="cls-19" d="M83.49,45.19h5.08V58.72H80.22V48.45A3.26,3.26,0,0,1,83.49,45.19Z" transform="translate(0 -0.05)"/><rect id="Rectangle_2_copy" data-name="Rectangle 2 copy" class="cls-19" x="88.07" y="45.14" width="8.35" height="13.54"/><rect id="Rectangle_2_copy_2" data-name="Rectangle 2 copy 2" class="cls-19" x="80.22" y="58.13" width="8.35" height="13.54"/><rect id="Rectangle_2_copy_3" data-name="Rectangle 2 copy 3" class="cls-19" x="88.07" y="58.13" width="8.35" height="13.54"/><rect id="Rectangle_2_copy_4" data-name="Rectangle 2 copy 4" class="cls-19" x="80.22" y="70.85" width="8.35" height="13.54"/><rect id="Rectangle_2_copy_5" data-name="Rectangle 2 copy 5" class="cls-19" x="88.07" y="70.85" width="8.35" height="13.54"/><rect id="Rectangle_2_copy_6" data-name="Rectangle 2 copy 6" class="cls-19" x="80.22" y="83.85" width="8.35" height="13.54"/><rect id="Rectangle_2_copy_7" data-name="Rectangle 2 copy 7" class="cls-19" x="88.07" y="83.85" width="8.35" height="13.54"/></g><g id="tiles_copy" data-name="tiles copy"><rect class="cls-19" x="80.22" y="94.68" width="8.35" height="13.54"/><rect id="Rectangle_2_copy-2" data-name="Rectangle 2 copy-2" class="cls-19" x="88.07" y="94.68" width="8.35" height="13.54"/><rect id="Rectangle_2_copy_2-2" data-name="Rectangle 2 copy 2-2" class="cls-19" x="80.22" y="107.67" width="8.35" height="13.54"/><rect id="Rectangle_2_copy_3-2" data-name="Rectangle 2 copy 3-2" class="cls-19" x="88.07" y="107.67" width="8.35" height="13.54"/><rect id="Rectangle_2_copy_4-2" data-name="Rectangle 2 copy 4-2" class="cls-19" x="80.22" y="120.4" width="8.35" height="13.54"/><rect id="Rectangle_2_copy_5-2" data-name="Rectangle 2 copy 5-2" class="cls-19" x="88.07" y="120.4" width="8.35" height="13.54"/><path id="Rectangle_2_copy_6-2" data-name="Rectangle 2 copy 6-2" class="cls-19" d="M80.22,133.44h8.35V147H83a2.8,2.8,0,0,1-2.8-2.8Z" transform="translate(0 -0.05)"/><rect id="Rectangle_2_copy_7-2" data-name="Rectangle 2 copy 7-2" class="cls-19" x="88.07" y="133.39" width="8.35" height="13.54"/><rect id="Rectangle_2_copy_8" data-name="Rectangle 2 copy 8" class="cls-19" x="96.08" y="94.68" width="8.35" height="13.54"/><rect id="Rectangle_2_copy_9" data-name="Rectangle 2 copy 9" class="cls-19" x="103.93" y="94.68" width="8.35" height="13.54"/><rect id="Rectangle_2_copy_10" data-name="Rectangle 2 copy 10" class="cls-19" x="96.08" y="107.67" width="8.35" height="13.54"/><rect id="Rectangle_2_copy_11" data-name="Rectangle 2 copy 11" class="cls-19" x="103.93" y="107.67" width="8.35" height="13.54"/><rect id="Rectangle_2_copy_12" data-name="Rectangle 2 copy 12" class="cls-19" x="96.08" y="120.4" width="8.35" height="13.54"/><rect id="Rectangle_2_copy_13" data-name="Rectangle 2 copy 13" class="cls-19" x="103.93" y="120.4" width="8.35" height="13.54"/><rect id="Rectangle_2_copy_14" data-name="Rectangle 2 copy 14" class="cls-19" x="96.08" y="133.39" width="8.35" height="13.54"/><rect id="Rectangle_2_copy_15" data-name="Rectangle 2 copy 15" class="cls-19" x="103.93" y="133.39" width="8.35" height="13.54"/><rect id="Rectangle_2_copy_16" data-name="Rectangle 2 copy 16" class="cls-19" x="103.93" y="94.68" width="8.35" height="13.54"/><rect id="Rectangle_2_copy_17" data-name="Rectangle 2 copy 17" class="cls-19" x="111.78" y="94.68" width="8.35" height="13.54"/><rect id="Rectangle_2_copy_18" data-name="Rectangle 2 copy 18" class="cls-19" x="103.93" y="107.67" width="8.35" height="13.54"/><rect id="Rectangle_2_copy_19" data-name="Rectangle 2 copy 19" class="cls-19" x="111.78" y="107.67" width="8.35" height="13.54"/><rect id="Rectangle_2_copy_20" data-name="Rectangle 2 copy 20" class="cls-19" x="103.93" y="120.4" width="8.35" height="13.54"/><rect id="Rectangle_2_copy_21" data-name="Rectangle 2 copy 21" class="cls-19" x="111.78" y="120.4" width="8.35" height="13.54"/><rect id="Rectangle_2_copy_22" data-name="Rectangle 2 copy 22" class="cls-19" x="103.93" y="133.39" width="8.35" height="13.54"/><rect id="Rectangle_2_copy_23" data-name="Rectangle 2 copy 23" class="cls-19" x="111.78" y="133.39" width="8.35" height="13.54"/><rect id="Rectangle_2_copy_24" data-name="Rectangle 2 copy 24" class="cls-19" x="119.79" y="94.68" width="8.35" height="13.54"/><rect id="Rectangle_2_copy_25" data-name="Rectangle 2 copy 25" class="cls-19" x="127.64" y="94.68" width="8.35" height="13.54"/><rect id="Rectangle_2_copy_26" data-name="Rectangle 2 copy 26" class="cls-19" x="119.79" y="107.67" width="8.35" height="13.54"/><rect id="Rectangle_2_copy_27" data-name="Rectangle 2 copy 27" class="cls-19" x="127.64" y="107.67" width="8.35" height="13.54"/><rect id="Rectangle_2_copy_28" data-name="Rectangle 2 copy 28" class="cls-19" x="119.79" y="120.4" width="8.35" height="13.54"/><rect id="Rectangle_2_copy_29" data-name="Rectangle 2 copy 29" class="cls-19" x="127.64" y="120.4" width="8.35" height="13.54"/><rect id="Rectangle_2_copy_30" data-name="Rectangle 2 copy 30" class="cls-19" x="119.79" y="133.39" width="8.35" height="13.54"/><path id="Rectangle_2_copy_31" data-name="Rectangle 2 copy 31" class="cls-19" d="M127.64,133.44H136V144a3,3,0,0,1-3,3h-5.39Z" transform="translate(0 -0.05)"/><path id="Rectangle_2_copy_32" data-name="Rectangle 2 copy 32" class="cls-19" d="M83.53,45.19h5V58.72H80.22V48.49A3.3,3.3,0,0,1,83.53,45.19Z" transform="translate(0 -0.05)"/><rect id="Rectangle_2_copy_33" data-name="Rectangle 2 copy 33" class="cls-19" x="88.07" y="45.14" width="8.35" height="13.54"/><rect id="Rectangle_2_copy_34" data-name="Rectangle 2 copy 34" class="cls-19" x="80.22" y="58.13" width="8.35" height="13.54"/><rect id="Rectangle_2_copy_35" data-name="Rectangle 2 copy 35" class="cls-19" x="88.07" y="58.13" width="8.35" height="13.54"/><rect id="Rectangle_2_copy_36" data-name="Rectangle 2 copy 36" class="cls-19" x="80.22" y="70.85" width="8.35" height="13.54"/><rect id="Rectangle_2_copy_37" data-name="Rectangle 2 copy 37" class="cls-19" x="88.07" y="70.85" width="8.35" height="13.54"/><rect id="Rectangle_2_copy_38" data-name="Rectangle 2 copy 38" class="cls-19" x="80.22" y="83.85" width="8.35" height="13.54"/><rect id="Rectangle_2_copy_39" data-name="Rectangle 2 copy 39" class="cls-19" x="88.07" y="83.85" width="8.35" height="13.54"/><rect id="Rectangle_2_copy_40" data-name="Rectangle 2 copy 40" class="cls-19" x="96.08" y="45.14" width="8.35" height="13.54"/><rect id="Rectangle_2_copy_41" data-name="Rectangle 2 copy 41" class="cls-19" x="103.93" y="45.14" width="8.35" height="13.54"/><rect id="Rectangle_2_copy_42" data-name="Rectangle 2 copy 42" class="cls-19" x="96.08" y="58.13" width="8.35" height="13.54"/><rect id="Rectangle_2_copy_43" data-name="Rectangle 2 copy 43" class="cls-19" x="103.93" y="58.13" width="8.35" height="13.54"/><rect id="Rectangle_2_copy_44" data-name="Rectangle 2 copy 44" class="cls-19" x="96.08" y="70.85" width="8.35" height="13.54"/><rect id="Rectangle_2_copy_45" data-name="Rectangle 2 copy 45" class="cls-19" x="103.93" y="70.85" width="8.35" height="13.54"/><rect id="Rectangle_2_copy_46" data-name="Rectangle 2 copy 46" class="cls-19" x="96.08" y="83.85" width="8.35" height="13.54"/><rect id="Rectangle_2_copy_47" data-name="Rectangle 2 copy 47" class="cls-19" x="103.93" y="83.85" width="8.35" height="13.54"/><rect id="Rectangle_2_copy_48" data-name="Rectangle 2 copy 48" class="cls-19" x="103.93" y="45.14" width="8.35" height="13.54"/><rect id="Rectangle_2_copy_49" data-name="Rectangle 2 copy 49" class="cls-19" x="111.78" y="45.14" width="8.35" height="13.54"/><rect id="Rectangle_2_copy_50" data-name="Rectangle 2 copy 50" class="cls-19" x="103.93" y="58.13" width="8.35" height="13.54"/><rect id="Rectangle_2_copy_51" data-name="Rectangle 2 copy 51" class="cls-19" x="111.78" y="58.13" width="8.35" height="13.54"/><rect id="Rectangle_2_copy_52" data-name="Rectangle 2 copy 52" class="cls-19" x="103.93" y="70.85" width="8.35" height="13.54"/><rect id="Rectangle_2_copy_53" data-name="Rectangle 2 copy 53" class="cls-19" x="111.78" y="70.85" width="8.35" height="13.54"/><rect id="Rectangle_2_copy_54" data-name="Rectangle 2 copy 54" class="cls-19" x="103.93" y="83.85" width="8.35" height="13.54"/><rect id="Rectangle_2_copy_55" data-name="Rectangle 2 copy 55" class="cls-19" x="111.78" y="83.85" width="8.35" height="13.54"/><rect id="Rectangle_2_copy_56" data-name="Rectangle 2 copy 56" class="cls-19" x="119.79" y="45.14" width="8.35" height="13.54"/><path id="Rectangle_2_copy_57" data-name="Rectangle 2 copy 57" class="cls-19" d="M127.64,45.19h5.62A2.72,2.72,0,0,1,136,47.91V58.72h-8.35Z" transform="translate(0 -0.05)"/><rect id="Rectangle_2_copy_58" data-name="Rectangle 2 copy 58" class="cls-19" x="119.79" y="58.13" width="8.35" height="13.54"/><rect id="Rectangle_2_copy_59" data-name="Rectangle 2 copy 59" class="cls-19" x="127.64" y="58.13" width="8.35" height="13.54"/><rect id="Rectangle_2_copy_60" data-name="Rectangle 2 copy 60" class="cls-19" x="119.79" y="70.85" width="8.35" height="13.54"/><rect id="Rectangle_2_copy_61" data-name="Rectangle 2 copy 61" class="cls-19" x="127.64" y="70.85" width="8.35" height="13.54"/><rect id="Rectangle_2_copy_62" data-name="Rectangle 2 copy 62" class="cls-19" x="119.79" y="83.85" width="8.35" height="13.54"/><rect id="Rectangle_2_copy_63" data-name="Rectangle 2 copy 63" class="cls-19" x="127.64" y="83.85" width="8.35" height="13.54"/></g><g id="body"><path class="cls-20" d="M95.08,77.4c-5.57,12.32-1.47,19.91-.5,22.74s-1.14,41-.17,45.75c.13.61,11.86.28,11.86.28s2.47-47.63,3.5-48.19-.53,0-.66,2.43c-.2,3.65,3.1,43.79,3.17,45.76,0,.5,9,.17,9.85,0s.3-47.93,0-47.65,6.05-6.86.17-21.12c-.76-1.84-.84-32.21-.84-32.21l-26.21.27S95.31,76.9,95.08,77.4Z" transform="translate(0 -0.05)"/><ellipse class="cls-21" cx="108.44" cy="71.67" rx="1" ry="1.62"/><path class="cls-21" d="M98.77,79.75l.63-.37,2.67,11.91-.62.37Z" transform="translate(0 -0.05)"/><path class="cls-21" d="M118,79.93l.62.36-3,13.54-.63-.37Z" transform="translate(0 -0.05)"/><path class="cls-21" d="M106.43,108l-2.83,37.9h2.67l2.34-37.9Z" transform="translate(0 -0.05)"/><path class="cls-21" d="M109.44,109.62l2.84,36.55h1.17l-3.51-36.55Z" transform="translate(0 -0.05)"/></g><rect class="cls-22" x="80.22" y="83.04" width="55.77" height="27.34"/></g></g><g id="_Layer_" data-name="&lt;Layer&gt;"><text class="cls-23" transform="translate(80.22 99.95) scale(0.63 1)">CENSORERET</text></g></svg>
