<svg id="Layer_1" data-name="Layer 1" xmlns="http://www.w3.org/2000/svg" xmlns:xlink="http://www.w3.org/1999/xlink" width="127" height="127" viewBox="0 0 127 127"><defs><style>.cls-1{fill:#ffd7ba;}.cls-2{fill:none;}.cls-3{fill:#ffd7b9;}</style><symbol id="hand2-2-3" data-name="hand2-2-3" viewBox="0 0 200 200"><path class="cls-1" d="M73.32,66c.08,0-.08,0,0,0S96.64,81.06,97.93,82.72c0,0,11.24,14.28,12.12,15l7.22,6.06a3.45,3.45,0,0,1,.35,4.74c-.08.12-.17.14-.25.26l-18.45,17.7c-1.24,1.31-6.86-3.18-7.21-3.35L69.9,112.84s-16.06-9.39-16.8-9.94L31.79,86.19,15.34,73.3a4.12,4.12,0,0,1-.69-5.79l.72-.88a4,4,0,0,1,5.79-.69h0l36,27.55a.83.83,0,0,0,1.21-.07c.33-.38.73-.88.54-1.25h0C58.85,92.07,71.13,65.58,73.32,66Z"/><rect id="baggrund-2-3" class="cls-2" width="200" height="200"/><ellipse class="cls-1" cx="66.08" cy="80.25" rx="6.28" ry="5.54"/><circle class="cls-1" cx="59.8" cy="89.85" r="6.02"/><circle class="cls-1" cx="72.36" cy="71.24" r="5.47"/><g id="Isolation_Mode-2" data-name="Isolation Mode"><path class="cls-3" d="M89,120.71s-2.71,1.22-4.07,1.09-16.64,0-16.64,0l-12.13.11-2.82-.05s-3-6.73,2.44-9.36c4.92-2.38,7.73-1.51,8.23-1.31a.51.51,0,0,0,.2,0l8.73.32Z"/></g></symbol></defs><title>mus</title><g id="Isolation_Mode" data-name="Isolation Mode"><use id="hand2-2-3-3" data-name="hand2-2-3" width="200" height="200" transform="scale(0.64)" xlink:href="#hand2-2-3"/></g></svg>
