<svg id="Layer_1" data-name="Layer 1" xmlns="http://www.w3.org/2000/svg" width="336" height="378" viewBox="0 0 336 378"><defs><style>.cls-1{fill:#e8e8e8;stroke:#a0a0a0;stroke-width:2px;}.cls-2{fill:#edb880;}.cls-3{fill:#d1a372;}.cls-4{fill:#0f1220;}.cls-5{font-size:41.09px;fill:#c1272d;font-family:Chalkduster, Chalkduster;}</style></defs><title>nude</title><g id="Artboard_1" data-name="Artboard 1"><g id="tiles"><rect class="cls-1" x="1" y="1" width="50" height="50"/><rect id="Rectangle_2_copy" data-name="Rectangle 2 copy" class="cls-1" x="48" y="1" width="50" height="50"/><rect id="Rectangle_2_copy_2" data-name="Rectangle 2 copy 2" class="cls-1" x="1" y="49" width="50" height="50"/><rect id="Rectangle_2_copy_3" data-name="Rectangle 2 copy 3" class="cls-1" x="48" y="49" width="50" height="50"/><rect id="Rectangle_2_copy_4" data-name="Rectangle 2 copy 4" class="cls-1" x="1" y="96" width="50" height="50"/><rect id="Rectangle_2_copy_5" data-name="Rectangle 2 copy 5" class="cls-1" x="48" y="96" width="50" height="50"/><rect id="Rectangle_2_copy_6" data-name="Rectangle 2 copy 6" class="cls-1" x="1" y="144" width="50" height="50"/><rect id="Rectangle_2_copy_7" data-name="Rectangle 2 copy 7" class="cls-1" x="48" y="144" width="50" height="50"/></g><g id="tiles_copy" data-name="tiles copy"><rect class="cls-1" x="1" y="184" width="50" height="50"/><rect id="Rectangle_2_copy-2" data-name="Rectangle 2 copy-2" class="cls-1" x="48" y="184" width="50" height="50"/><rect id="Rectangle_2_copy_2-2" data-name="Rectangle 2 copy 2-2" class="cls-1" x="1" y="232" width="50" height="50"/><rect id="Rectangle_2_copy_3-2" data-name="Rectangle 2 copy 3-2" class="cls-1" x="48" y="232" width="50" height="50"/><rect id="Rectangle_2_copy_4-2" data-name="Rectangle 2 copy 4-2" class="cls-1" x="1" y="279" width="50" height="50"/><rect id="Rectangle_2_copy_5-2" data-name="Rectangle 2 copy 5-2" class="cls-1" x="48" y="279" width="50" height="50"/><rect id="Rectangle_2_copy_6-2" data-name="Rectangle 2 copy 6-2" class="cls-1" x="1" y="327" width="50" height="50"/><rect id="Rectangle_2_copy_7-2" data-name="Rectangle 2 copy 7-2" class="cls-1" x="48" y="327" width="50" height="50"/><rect id="Rectangle_2_copy_8" data-name="Rectangle 2 copy 8" class="cls-1" x="96" y="184" width="50" height="50"/><rect id="Rectangle_2_copy_9" data-name="Rectangle 2 copy 9" class="cls-1" x="143" y="184" width="50" height="50"/><rect id="Rectangle_2_copy_10" data-name="Rectangle 2 copy 10" class="cls-1" x="96" y="232" width="50" height="50"/><rect id="Rectangle_2_copy_11" data-name="Rectangle 2 copy 11" class="cls-1" x="143" y="232" width="50" height="50"/><rect id="Rectangle_2_copy_12" data-name="Rectangle 2 copy 12" class="cls-1" x="96" y="279" width="50" height="50"/><rect id="Rectangle_2_copy_13" data-name="Rectangle 2 copy 13" class="cls-1" x="143" y="279" width="50" height="50"/><rect id="Rectangle_2_copy_14" data-name="Rectangle 2 copy 14" class="cls-1" x="96" y="327" width="50" height="50"/><rect id="Rectangle_2_copy_15" data-name="Rectangle 2 copy 15" class="cls-1" x="143" y="327" width="50" height="50"/><rect id="Rectangle_2_copy_16" data-name="Rectangle 2 copy 16" class="cls-1" x="143" y="184" width="50" height="50"/><rect id="Rectangle_2_copy_17" data-name="Rectangle 2 copy 17" class="cls-1" x="190" y="184" width="50" height="50"/><rect id="Rectangle_2_copy_18" data-name="Rectangle 2 copy 18" class="cls-1" x="143" y="232" width="50" height="50"/><rect id="Rectangle_2_copy_19" data-name="Rectangle 2 copy 19" class="cls-1" x="190" y="232" width="50" height="50"/><rect id="Rectangle_2_copy_20" data-name="Rectangle 2 copy 20" class="cls-1" x="143" y="279" width="50" height="50"/><rect id="Rectangle_2_copy_21" data-name="Rectangle 2 copy 21" class="cls-1" x="190" y="279" width="50" height="50"/><rect id="Rectangle_2_copy_22" data-name="Rectangle 2 copy 22" class="cls-1" x="143" y="327" width="50" height="50"/><rect id="Rectangle_2_copy_23" data-name="Rectangle 2 copy 23" class="cls-1" x="190" y="327" width="50" height="50"/><rect id="Rectangle_2_copy_24" data-name="Rectangle 2 copy 24" class="cls-1" x="238" y="184" width="50" height="50"/><rect id="Rectangle_2_copy_25" data-name="Rectangle 2 copy 25" class="cls-1" x="285" y="184" width="50" height="50"/><rect id="Rectangle_2_copy_26" data-name="Rectangle 2 copy 26" class="cls-1" x="238" y="232" width="50" height="50"/><rect id="Rectangle_2_copy_27" data-name="Rectangle 2 copy 27" class="cls-1" x="285" y="232" width="50" height="50"/><rect id="Rectangle_2_copy_28" data-name="Rectangle 2 copy 28" class="cls-1" x="238" y="279" width="50" height="50"/><rect id="Rectangle_2_copy_29" data-name="Rectangle 2 copy 29" class="cls-1" x="285" y="279" width="50" height="50"/><rect id="Rectangle_2_copy_30" data-name="Rectangle 2 copy 30" class="cls-1" x="238" y="327" width="50" height="50"/><rect id="Rectangle_2_copy_31" data-name="Rectangle 2 copy 31" class="cls-1" x="285" y="327" width="50" height="50"/><rect id="Rectangle_2_copy_32" data-name="Rectangle 2 copy 32" class="cls-1" x="1" y="1" width="50" height="50"/><rect id="Rectangle_2_copy_33" data-name="Rectangle 2 copy 33" class="cls-1" x="48" y="1" width="50" height="50"/><rect id="Rectangle_2_copy_34" data-name="Rectangle 2 copy 34" class="cls-1" x="1" y="49" width="50" height="50"/><rect id="Rectangle_2_copy_35" data-name="Rectangle 2 copy 35" class="cls-1" x="48" y="49" width="50" height="50"/><rect id="Rectangle_2_copy_36" data-name="Rectangle 2 copy 36" class="cls-1" x="1" y="96" width="50" height="50"/><rect id="Rectangle_2_copy_37" data-name="Rectangle 2 copy 37" class="cls-1" x="48" y="96" width="50" height="50"/><rect id="Rectangle_2_copy_38" data-name="Rectangle 2 copy 38" class="cls-1" x="1" y="144" width="50" height="50"/><rect id="Rectangle_2_copy_39" data-name="Rectangle 2 copy 39" class="cls-1" x="48" y="144" width="50" height="50"/><rect id="Rectangle_2_copy_40" data-name="Rectangle 2 copy 40" class="cls-1" x="96" y="1" width="50" height="50"/><rect id="Rectangle_2_copy_41" data-name="Rectangle 2 copy 41" class="cls-1" x="143" y="1" width="50" height="50"/><rect id="Rectangle_2_copy_42" data-name="Rectangle 2 copy 42" class="cls-1" x="96" y="49" width="50" height="50"/><rect id="Rectangle_2_copy_43" data-name="Rectangle 2 copy 43" class="cls-1" x="143" y="49" width="50" height="50"/><rect id="Rectangle_2_copy_44" data-name="Rectangle 2 copy 44" class="cls-1" x="96" y="96" width="50" height="50"/><rect id="Rectangle_2_copy_45" data-name="Rectangle 2 copy 45" class="cls-1" x="143" y="96" width="50" height="50"/><rect id="Rectangle_2_copy_46" data-name="Rectangle 2 copy 46" class="cls-1" x="96" y="144" width="50" height="50"/><rect id="Rectangle_2_copy_47" data-name="Rectangle 2 copy 47" class="cls-1" x="143" y="144" width="50" height="50"/><rect id="Rectangle_2_copy_48" data-name="Rectangle 2 copy 48" class="cls-1" x="143" y="1" width="50" height="50"/><rect id="Rectangle_2_copy_49" data-name="Rectangle 2 copy 49" class="cls-1" x="190" y="1" width="50" height="50"/><rect id="Rectangle_2_copy_50" data-name="Rectangle 2 copy 50" class="cls-1" x="143" y="49" width="50" height="50"/><rect id="Rectangle_2_copy_51" data-name="Rectangle 2 copy 51" class="cls-1" x="190" y="49" width="50" height="50"/><rect id="Rectangle_2_copy_52" data-name="Rectangle 2 copy 52" class="cls-1" x="143" y="96" width="50" height="50"/><rect id="Rectangle_2_copy_53" data-name="Rectangle 2 copy 53" class="cls-1" x="190" y="96" width="50" height="50"/><rect id="Rectangle_2_copy_54" data-name="Rectangle 2 copy 54" class="cls-1" x="143" y="144" width="50" height="50"/><rect id="Rectangle_2_copy_55" data-name="Rectangle 2 copy 55" class="cls-1" x="190" y="144" width="50" height="50"/><rect id="Rectangle_2_copy_56" data-name="Rectangle 2 copy 56" class="cls-1" x="238" y="1" width="50" height="50"/><rect id="Rectangle_2_copy_57" data-name="Rectangle 2 copy 57" class="cls-1" x="285" y="1" width="50" height="50"/><rect id="Rectangle_2_copy_58" data-name="Rectangle 2 copy 58" class="cls-1" x="238" y="49" width="50" height="50"/><rect id="Rectangle_2_copy_59" data-name="Rectangle 2 copy 59" class="cls-1" x="285" y="49" width="50" height="50"/><rect id="Rectangle_2_copy_60" data-name="Rectangle 2 copy 60" class="cls-1" x="238" y="96" width="50" height="50"/><rect id="Rectangle_2_copy_61" data-name="Rectangle 2 copy 61" class="cls-1" x="285" y="96" width="50" height="50"/><rect id="Rectangle_2_copy_62" data-name="Rectangle 2 copy 62" class="cls-1" x="238" y="144" width="50" height="50"/><rect id="Rectangle_2_copy_63" data-name="Rectangle 2 copy 63" class="cls-1" x="285" y="144" width="50" height="50"/></g><g id="body"><path class="cls-2" d="M131,137c-33.36,45.49-8.79,73.53-3,84s-6.8,151.57-1,169c.75,2.25,71,1,71,1s14.83-175.93,21-178-3.21.08-4,9c-1.2,13.46,18.56,161.74,19,169,.11,1.87,53.94.64,59,0,4.62-.58,1.79-177,0-176s36.24-25.34,1-78c-4.56-6.82-5-119-5-119L132,19S132.37,135.13,131,137Z" transform="translate(-41 -17)"/><circle class="cls-3" cx="170" cy="99" r="6"/><path class="cls-3" d="M153.12,145.68l3.76-1.36,16,44-3.76,1.36Z" transform="translate(-41 -17)"/><path class="cls-3" d="M268.12,146.32l3.76,1.36-18,50-3.76-1.36Z" transform="translate(-41 -17)"/><path class="cls-3" d="M199,250,182,390h16l14-140Z" transform="translate(-41 -17)"/><path class="cls-3" d="M217,256l17,135h7L220,256Z" transform="translate(-41 -17)"/></g><rect class="cls-4" x="1" y="141" width="334" height="101"/></g><text class="cls-5" transform="translate(30 204) scale(0.95 1)">CENSORERET</text></svg>
