<svg id="Layer_1" data-name="Layer 1" xmlns="http://www.w3.org/2000/svg" width="202" height="402" viewBox="0 0 202 402"><defs><style>.cls-1{fill:#e8e8e8;stroke:#a0a0a0;stroke-width:2px;}.cls-2{fill:#edb880;}.cls-3{fill:#d1a372;}.cls-4{fill:#0f1220;}.cls-5{isolation:isolate;font-size:27.6px;fill:#c1272d;font-family:Chalkduster, Chalkduster;}</style></defs><title>nudecc</title><g id="Artboard_1" data-name="Artboard 1"><g id="tiles"><rect class="cls-1" x="1" y="1" width="29.94" height="53.19"/><rect id="Rectangle_2_copy" data-name="Rectangle 2 copy" class="cls-1" x="29.14" y="1" width="29.94" height="53.19"/><rect id="Rectangle_2_copy_2" data-name="Rectangle 2 copy 2" class="cls-1" x="1" y="52.06" width="29.94" height="53.19"/><rect id="Rectangle_2_copy_3" data-name="Rectangle 2 copy 3" class="cls-1" x="29.14" y="52.06" width="29.94" height="53.19"/><rect id="Rectangle_2_copy_4" data-name="Rectangle 2 copy 4" class="cls-1" x="1" y="102.06" width="29.94" height="53.19"/><rect id="Rectangle_2_copy_5" data-name="Rectangle 2 copy 5" class="cls-1" x="29.14" y="102.06" width="29.94" height="53.19"/><rect id="Rectangle_2_copy_6" data-name="Rectangle 2 copy 6" class="cls-1" x="1" y="153.13" width="29.94" height="53.19"/><rect id="Rectangle_2_copy_7" data-name="Rectangle 2 copy 7" class="cls-1" x="29.14" y="153.13" width="29.94" height="53.19"/></g><g id="tiles_copy" data-name="tiles copy"><rect class="cls-1" x="1" y="195.68" width="29.94" height="53.19"/><rect id="Rectangle_2_copy-2" data-name="Rectangle 2 copy-2" class="cls-1" x="29.14" y="195.68" width="29.94" height="53.19"/><rect id="Rectangle_2_copy_2-2" data-name="Rectangle 2 copy 2-2" class="cls-1" x="1" y="246.74" width="29.94" height="53.19"/><rect id="Rectangle_2_copy_3-2" data-name="Rectangle 2 copy 3-2" class="cls-1" x="29.14" y="246.74" width="29.94" height="53.19"/><rect id="Rectangle_2_copy_4-2" data-name="Rectangle 2 copy 4-2" class="cls-1" x="1" y="296.74" width="29.94" height="53.19"/><rect id="Rectangle_2_copy_5-2" data-name="Rectangle 2 copy 5-2" class="cls-1" x="29.14" y="296.74" width="29.94" height="53.19"/><rect id="Rectangle_2_copy_6-2" data-name="Rectangle 2 copy 6-2" class="cls-1" x="1" y="347.81" width="29.94" height="53.19"/><rect id="Rectangle_2_copy_7-2" data-name="Rectangle 2 copy 7-2" class="cls-1" x="29.14" y="347.81" width="29.94" height="53.19"/><rect id="Rectangle_2_copy_8" data-name="Rectangle 2 copy 8" class="cls-1" x="57.89" y="195.68" width="29.94" height="53.19"/><rect id="Rectangle_2_copy_9" data-name="Rectangle 2 copy 9" class="cls-1" x="86.03" y="195.68" width="29.94" height="53.19"/><rect id="Rectangle_2_copy_10" data-name="Rectangle 2 copy 10" class="cls-1" x="57.89" y="246.74" width="29.94" height="53.19"/><rect id="Rectangle_2_copy_11" data-name="Rectangle 2 copy 11" class="cls-1" x="86.03" y="246.74" width="29.94" height="53.19"/><rect id="Rectangle_2_copy_12" data-name="Rectangle 2 copy 12" class="cls-1" x="57.89" y="296.74" width="29.94" height="53.19"/><rect id="Rectangle_2_copy_13" data-name="Rectangle 2 copy 13" class="cls-1" x="86.03" y="296.74" width="29.94" height="53.19"/><rect id="Rectangle_2_copy_14" data-name="Rectangle 2 copy 14" class="cls-1" x="57.89" y="347.81" width="29.94" height="53.19"/><rect id="Rectangle_2_copy_15" data-name="Rectangle 2 copy 15" class="cls-1" x="86.03" y="347.81" width="29.94" height="53.19"/><rect id="Rectangle_2_copy_16" data-name="Rectangle 2 copy 16" class="cls-1" x="86.03" y="195.68" width="29.94" height="53.19"/><rect id="Rectangle_2_copy_17" data-name="Rectangle 2 copy 17" class="cls-1" x="114.17" y="195.68" width="29.94" height="53.19"/><rect id="Rectangle_2_copy_18" data-name="Rectangle 2 copy 18" class="cls-1" x="86.03" y="246.74" width="29.94" height="53.19"/><rect id="Rectangle_2_copy_19" data-name="Rectangle 2 copy 19" class="cls-1" x="114.17" y="246.74" width="29.94" height="53.19"/><rect id="Rectangle_2_copy_20" data-name="Rectangle 2 copy 20" class="cls-1" x="86.03" y="296.74" width="29.94" height="53.19"/><rect id="Rectangle_2_copy_21" data-name="Rectangle 2 copy 21" class="cls-1" x="114.17" y="296.74" width="29.94" height="53.19"/><rect id="Rectangle_2_copy_22" data-name="Rectangle 2 copy 22" class="cls-1" x="86.03" y="347.81" width="29.94" height="53.19"/><rect id="Rectangle_2_copy_23" data-name="Rectangle 2 copy 23" class="cls-1" x="114.17" y="347.81" width="29.94" height="53.19"/><rect id="Rectangle_2_copy_24" data-name="Rectangle 2 copy 24" class="cls-1" x="142.92" y="195.68" width="29.94" height="53.19"/><rect id="Rectangle_2_copy_25" data-name="Rectangle 2 copy 25" class="cls-1" x="171.06" y="195.68" width="29.94" height="53.19"/><rect id="Rectangle_2_copy_26" data-name="Rectangle 2 copy 26" class="cls-1" x="142.92" y="246.74" width="29.94" height="53.19"/><rect id="Rectangle_2_copy_27" data-name="Rectangle 2 copy 27" class="cls-1" x="171.06" y="246.74" width="29.94" height="53.19"/><rect id="Rectangle_2_copy_28" data-name="Rectangle 2 copy 28" class="cls-1" x="142.92" y="296.74" width="29.94" height="53.19"/><rect id="Rectangle_2_copy_29" data-name="Rectangle 2 copy 29" class="cls-1" x="171.06" y="296.74" width="29.94" height="53.19"/><rect id="Rectangle_2_copy_30" data-name="Rectangle 2 copy 30" class="cls-1" x="142.92" y="347.81" width="29.94" height="53.19"/><rect id="Rectangle_2_copy_31" data-name="Rectangle 2 copy 31" class="cls-1" x="171.06" y="347.81" width="29.94" height="53.19"/><rect id="Rectangle_2_copy_32" data-name="Rectangle 2 copy 32" class="cls-1" x="1" y="1" width="29.94" height="53.19"/><rect id="Rectangle_2_copy_33" data-name="Rectangle 2 copy 33" class="cls-1" x="29.14" y="1" width="29.94" height="53.19"/><rect id="Rectangle_2_copy_34" data-name="Rectangle 2 copy 34" class="cls-1" x="1" y="52.06" width="29.94" height="53.19"/><rect id="Rectangle_2_copy_35" data-name="Rectangle 2 copy 35" class="cls-1" x="29.14" y="52.06" width="29.94" height="53.19"/><rect id="Rectangle_2_copy_36" data-name="Rectangle 2 copy 36" class="cls-1" x="1" y="102.06" width="29.94" height="53.19"/><rect id="Rectangle_2_copy_37" data-name="Rectangle 2 copy 37" class="cls-1" x="29.14" y="102.06" width="29.94" height="53.19"/><rect id="Rectangle_2_copy_38" data-name="Rectangle 2 copy 38" class="cls-1" x="1" y="153.13" width="29.94" height="53.19"/><rect id="Rectangle_2_copy_39" data-name="Rectangle 2 copy 39" class="cls-1" x="29.14" y="153.13" width="29.94" height="53.19"/><rect id="Rectangle_2_copy_40" data-name="Rectangle 2 copy 40" class="cls-1" x="57.89" y="1" width="29.94" height="53.19"/><rect id="Rectangle_2_copy_41" data-name="Rectangle 2 copy 41" class="cls-1" x="86.03" y="1" width="29.94" height="53.19"/><rect id="Rectangle_2_copy_42" data-name="Rectangle 2 copy 42" class="cls-1" x="57.89" y="52.06" width="29.94" height="53.19"/><rect id="Rectangle_2_copy_43" data-name="Rectangle 2 copy 43" class="cls-1" x="86.03" y="52.06" width="29.94" height="53.19"/><rect id="Rectangle_2_copy_44" data-name="Rectangle 2 copy 44" class="cls-1" x="57.89" y="102.06" width="29.94" height="53.19"/><rect id="Rectangle_2_copy_45" data-name="Rectangle 2 copy 45" class="cls-1" x="86.03" y="102.06" width="29.94" height="53.19"/><rect id="Rectangle_2_copy_46" data-name="Rectangle 2 copy 46" class="cls-1" x="57.89" y="153.13" width="29.94" height="53.19"/><rect id="Rectangle_2_copy_47" data-name="Rectangle 2 copy 47" class="cls-1" x="86.03" y="153.13" width="29.94" height="53.19"/><rect id="Rectangle_2_copy_48" data-name="Rectangle 2 copy 48" class="cls-1" x="86.03" y="1" width="29.94" height="53.19"/><rect id="Rectangle_2_copy_49" data-name="Rectangle 2 copy 49" class="cls-1" x="114.17" y="1" width="29.94" height="53.19"/><rect id="Rectangle_2_copy_50" data-name="Rectangle 2 copy 50" class="cls-1" x="86.03" y="52.06" width="29.94" height="53.19"/><rect id="Rectangle_2_copy_51" data-name="Rectangle 2 copy 51" class="cls-1" x="114.17" y="52.06" width="29.94" height="53.19"/><rect id="Rectangle_2_copy_52" data-name="Rectangle 2 copy 52" class="cls-1" x="86.03" y="102.06" width="29.94" height="53.19"/><rect id="Rectangle_2_copy_53" data-name="Rectangle 2 copy 53" class="cls-1" x="114.17" y="102.06" width="29.94" height="53.19"/><rect id="Rectangle_2_copy_54" data-name="Rectangle 2 copy 54" class="cls-1" x="86.03" y="153.13" width="29.94" height="53.19"/><rect id="Rectangle_2_copy_55" data-name="Rectangle 2 copy 55" class="cls-1" x="114.17" y="153.13" width="29.94" height="53.19"/><rect id="Rectangle_2_copy_56" data-name="Rectangle 2 copy 56" class="cls-1" x="142.92" y="1" width="29.94" height="53.19"/><rect id="Rectangle_2_copy_57" data-name="Rectangle 2 copy 57" class="cls-1" x="171.06" y="1" width="29.94" height="53.19"/><rect id="Rectangle_2_copy_58" data-name="Rectangle 2 copy 58" class="cls-1" x="142.92" y="52.06" width="29.94" height="53.19"/><rect id="Rectangle_2_copy_59" data-name="Rectangle 2 copy 59" class="cls-1" x="171.06" y="52.06" width="29.94" height="53.19"/><rect id="Rectangle_2_copy_60" data-name="Rectangle 2 copy 60" class="cls-1" x="142.92" y="102.06" width="29.94" height="53.19"/><rect id="Rectangle_2_copy_61" data-name="Rectangle 2 copy 61" class="cls-1" x="171.06" y="102.06" width="29.94" height="53.19"/><rect id="Rectangle_2_copy_62" data-name="Rectangle 2 copy 62" class="cls-1" x="142.92" y="153.13" width="29.94" height="53.19"/><rect id="Rectangle_2_copy_63" data-name="Rectangle 2 copy 63" class="cls-1" x="171.06" y="153.13" width="29.94" height="53.19"/></g><g id="body"><path class="cls-2" d="M53.29,126.6C33.32,175,48,204.82,51.5,216s-4.07,161.24-.6,179.78c.45,2.4,42.51,1.07,42.51,1.07S102.29,209.65,106,207.45s-1.92.08-2.4,9.57c-.72,14.32,11.12,172.07,11.38,179.79.07,2,32.3.68,35.33,0,2.77-.62,1.07-188.3,0-187.24s21.7-26.95.6-83c-2.73-7.26-3-126.6-3-126.6l-94,1.06S54.11,124.61,53.29,126.6Z" transform="translate(1 1)"/><ellipse class="cls-3" cx="102.2" cy="105.26" rx="3.59" ry="6.38"/><path class="cls-3" d="M66.54,135.83l2.25-1.45,9.58,46.81-2.25,1.45Z" transform="translate(1 1)"/><path class="cls-3" d="M135.4,136.51l2.25,1.45-10.78,53.19-2.25-1.45Z" transform="translate(1 1)"/><path class="cls-3" d="M94,246.81,83.83,395.74h9.58l8.39-148.93Z" transform="translate(1 1)"/><path class="cls-3" d="M104.79,253.19,115,396.81h4.19L106.59,253.19Z" transform="translate(1 1)"/></g><rect class="cls-4" x="1" y="149.94" width="200" height="107.45"/></g><text class="cls-5" transform="translate(6.26 210.15) scale(0.95 1)">CENSORERET</text></svg>
