<svg xmlns="http://www.w3.org/2000/svg" width="419" height="415" viewBox="0 0 419 415">
  <metadata><?xpacket begin="﻿" id="W5M0MpCehiHzreSzNTczkc9d"?>
<x:xmpmeta xmlns:x="adobe:ns:meta/" x:xmptk="Adobe XMP Core 5.6-c138 79.159824, 2016/09/14-01:09:01        ">
   <rdf:RDF xmlns:rdf="http://www.w3.org/1999/02/22-rdf-syntax-ns#">
      <rdf:Description rdf:about=""/>
   </rdf:RDF>
</x:xmpmeta>





















<?xpacket end="w"?></metadata>
<defs>
    <style>
      .cls-1 {
        fill: #e8e8e8;
        stroke: #a0a0a0;
        stroke-width: 2px;
      }

      .cls-2 {
        fill: #edb880;
      }

      .cls-2, .cls-4 {
        fill-rule: evenodd;
      }

      .cls-3, .cls-4 {
        fill: #d1a372;
      }

      .cls-5 {
        fill: #0f1220;
      }
    </style>
  </defs>
  <g id="Artboard_1" data-name="Artboard 1">
    <g id="tiles">
      <rect class="cls-1" x="42" y="18" width="50" height="50"/>
      <rect id="Rectangle_2_copy" data-name="Rectangle 2 copy" class="cls-1" x="89" y="18" width="50" height="50"/>
      <rect id="Rectangle_2_copy_2" data-name="Rectangle 2 copy 2" class="cls-1" x="42" y="66" width="50" height="50"/>
      <rect id="Rectangle_2_copy_3" data-name="Rectangle 2 copy 3" class="cls-1" x="89" y="66" width="50" height="50"/>
      <rect id="Rectangle_2_copy_4" data-name="Rectangle 2 copy 4" class="cls-1" x="42" y="113" width="50" height="50"/>
      <rect id="Rectangle_2_copy_5" data-name="Rectangle 2 copy 5" class="cls-1" x="89" y="113" width="50" height="50"/>
      <rect id="Rectangle_2_copy_6" data-name="Rectangle 2 copy 6" class="cls-1" x="42" y="161" width="50" height="50"/>
      <rect id="Rectangle_2_copy_7" data-name="Rectangle 2 copy 7" class="cls-1" x="89" y="161" width="50" height="50"/>
    </g>
    <g id="tiles_copy" data-name="tiles copy">
      <rect class="cls-1" x="42" y="201" width="50" height="50"/>
      <rect id="Rectangle_2_copy-2" data-name="Rectangle 2 copy" class="cls-1" x="89" y="201" width="50" height="50"/>
      <rect id="Rectangle_2_copy_2-2" data-name="Rectangle 2 copy 2" class="cls-1" x="42" y="249" width="50" height="50"/>
      <rect id="Rectangle_2_copy_3-2" data-name="Rectangle 2 copy 3" class="cls-1" x="89" y="249" width="50" height="50"/>
      <rect id="Rectangle_2_copy_4-2" data-name="Rectangle 2 copy 4" class="cls-1" x="42" y="296" width="50" height="50"/>
      <rect id="Rectangle_2_copy_5-2" data-name="Rectangle 2 copy 5" class="cls-1" x="89" y="296" width="50" height="50"/>
      <rect id="Rectangle_2_copy_6-2" data-name="Rectangle 2 copy 6" class="cls-1" x="42" y="344" width="50" height="50"/>
      <rect id="Rectangle_2_copy_7-2" data-name="Rectangle 2 copy 7" class="cls-1" x="89" y="344" width="50" height="50"/>
      <rect id="Rectangle_2_copy_8" data-name="Rectangle 2 copy 8" class="cls-1" x="137" y="201" width="50" height="50"/>
      <rect id="Rectangle_2_copy_9" data-name="Rectangle 2 copy 9" class="cls-1" x="184" y="201" width="50" height="50"/>
      <rect id="Rectangle_2_copy_10" data-name="Rectangle 2 copy 10" class="cls-1" x="137" y="249" width="50" height="50"/>
      <rect id="Rectangle_2_copy_11" data-name="Rectangle 2 copy 11" class="cls-1" x="184" y="249" width="50" height="50"/>
      <rect id="Rectangle_2_copy_12" data-name="Rectangle 2 copy 12" class="cls-1" x="137" y="296" width="50" height="50"/>
      <rect id="Rectangle_2_copy_13" data-name="Rectangle 2 copy 13" class="cls-1" x="184" y="296" width="50" height="50"/>
      <rect id="Rectangle_2_copy_14" data-name="Rectangle 2 copy 14" class="cls-1" x="137" y="344" width="50" height="50"/>
      <rect id="Rectangle_2_copy_15" data-name="Rectangle 2 copy 15" class="cls-1" x="184" y="344" width="50" height="50"/>
      <rect id="Rectangle_2_copy_16" data-name="Rectangle 2 copy 16" class="cls-1" x="184" y="201" width="50" height="50"/>
      <rect id="Rectangle_2_copy_17" data-name="Rectangle 2 copy 17" class="cls-1" x="231" y="201" width="50" height="50"/>
      <rect id="Rectangle_2_copy_18" data-name="Rectangle 2 copy 18" class="cls-1" x="184" y="249" width="50" height="50"/>
      <rect id="Rectangle_2_copy_19" data-name="Rectangle 2 copy 19" class="cls-1" x="231" y="249" width="50" height="50"/>
      <rect id="Rectangle_2_copy_20" data-name="Rectangle 2 copy 20" class="cls-1" x="184" y="296" width="50" height="50"/>
      <rect id="Rectangle_2_copy_21" data-name="Rectangle 2 copy 21" class="cls-1" x="231" y="296" width="50" height="50"/>
      <rect id="Rectangle_2_copy_22" data-name="Rectangle 2 copy 22" class="cls-1" x="184" y="344" width="50" height="50"/>
      <rect id="Rectangle_2_copy_23" data-name="Rectangle 2 copy 23" class="cls-1" x="231" y="344" width="50" height="50"/>
      <rect id="Rectangle_2_copy_24" data-name="Rectangle 2 copy 24" class="cls-1" x="279" y="201" width="50" height="50"/>
      <rect id="Rectangle_2_copy_25" data-name="Rectangle 2 copy 25" class="cls-1" x="326" y="201" width="50" height="50"/>
      <rect id="Rectangle_2_copy_26" data-name="Rectangle 2 copy 26" class="cls-1" x="279" y="249" width="50" height="50"/>
      <rect id="Rectangle_2_copy_27" data-name="Rectangle 2 copy 27" class="cls-1" x="326" y="249" width="50" height="50"/>
      <rect id="Rectangle_2_copy_28" data-name="Rectangle 2 copy 28" class="cls-1" x="279" y="296" width="50" height="50"/>
      <rect id="Rectangle_2_copy_29" data-name="Rectangle 2 copy 29" class="cls-1" x="326" y="296" width="50" height="50"/>
      <rect id="Rectangle_2_copy_30" data-name="Rectangle 2 copy 30" class="cls-1" x="279" y="344" width="50" height="50"/>
      <rect id="Rectangle_2_copy_31" data-name="Rectangle 2 copy 31" class="cls-1" x="326" y="344" width="50" height="50"/>
      <rect id="Rectangle_2_copy_32" data-name="Rectangle 2 copy 32" class="cls-1" x="42" y="18" width="50" height="50"/>
      <rect id="Rectangle_2_copy_33" data-name="Rectangle 2 copy 33" class="cls-1" x="89" y="18" width="50" height="50"/>
      <rect id="Rectangle_2_copy_34" data-name="Rectangle 2 copy 34" class="cls-1" x="42" y="66" width="50" height="50"/>
      <rect id="Rectangle_2_copy_35" data-name="Rectangle 2 copy 35" class="cls-1" x="89" y="66" width="50" height="50"/>
      <rect id="Rectangle_2_copy_36" data-name="Rectangle 2 copy 36" class="cls-1" x="42" y="113" width="50" height="50"/>
      <rect id="Rectangle_2_copy_37" data-name="Rectangle 2 copy 37" class="cls-1" x="89" y="113" width="50" height="50"/>
      <rect id="Rectangle_2_copy_38" data-name="Rectangle 2 copy 38" class="cls-1" x="42" y="161" width="50" height="50"/>
      <rect id="Rectangle_2_copy_39" data-name="Rectangle 2 copy 39" class="cls-1" x="89" y="161" width="50" height="50"/>
      <rect id="Rectangle_2_copy_40" data-name="Rectangle 2 copy 40" class="cls-1" x="137" y="18" width="50" height="50"/>
      <rect id="Rectangle_2_copy_41" data-name="Rectangle 2 copy 41" class="cls-1" x="184" y="18" width="50" height="50"/>
      <rect id="Rectangle_2_copy_42" data-name="Rectangle 2 copy 42" class="cls-1" x="137" y="66" width="50" height="50"/>
      <rect id="Rectangle_2_copy_43" data-name="Rectangle 2 copy 43" class="cls-1" x="184" y="66" width="50" height="50"/>
      <rect id="Rectangle_2_copy_44" data-name="Rectangle 2 copy 44" class="cls-1" x="137" y="113" width="50" height="50"/>
      <rect id="Rectangle_2_copy_45" data-name="Rectangle 2 copy 45" class="cls-1" x="184" y="113" width="50" height="50"/>
      <rect id="Rectangle_2_copy_46" data-name="Rectangle 2 copy 46" class="cls-1" x="137" y="161" width="50" height="50"/>
      <rect id="Rectangle_2_copy_47" data-name="Rectangle 2 copy 47" class="cls-1" x="184" y="161" width="50" height="50"/>
      <rect id="Rectangle_2_copy_48" data-name="Rectangle 2 copy 48" class="cls-1" x="184" y="18" width="50" height="50"/>
      <rect id="Rectangle_2_copy_49" data-name="Rectangle 2 copy 49" class="cls-1" x="231" y="18" width="50" height="50"/>
      <rect id="Rectangle_2_copy_50" data-name="Rectangle 2 copy 50" class="cls-1" x="184" y="66" width="50" height="50"/>
      <rect id="Rectangle_2_copy_51" data-name="Rectangle 2 copy 51" class="cls-1" x="231" y="66" width="50" height="50"/>
      <rect id="Rectangle_2_copy_52" data-name="Rectangle 2 copy 52" class="cls-1" x="184" y="113" width="50" height="50"/>
      <rect id="Rectangle_2_copy_53" data-name="Rectangle 2 copy 53" class="cls-1" x="231" y="113" width="50" height="50"/>
      <rect id="Rectangle_2_copy_54" data-name="Rectangle 2 copy 54" class="cls-1" x="184" y="161" width="50" height="50"/>
      <rect id="Rectangle_2_copy_55" data-name="Rectangle 2 copy 55" class="cls-1" x="231" y="161" width="50" height="50"/>
      <rect id="Rectangle_2_copy_56" data-name="Rectangle 2 copy 56" class="cls-1" x="279" y="18" width="50" height="50"/>
      <rect id="Rectangle_2_copy_57" data-name="Rectangle 2 copy 57" class="cls-1" x="326" y="18" width="50" height="50"/>
      <rect id="Rectangle_2_copy_58" data-name="Rectangle 2 copy 58" class="cls-1" x="279" y="66" width="50" height="50"/>
      <rect id="Rectangle_2_copy_59" data-name="Rectangle 2 copy 59" class="cls-1" x="326" y="66" width="50" height="50"/>
      <rect id="Rectangle_2_copy_60" data-name="Rectangle 2 copy 60" class="cls-1" x="279" y="113" width="50" height="50"/>
      <rect id="Rectangle_2_copy_61" data-name="Rectangle 2 copy 61" class="cls-1" x="326" y="113" width="50" height="50"/>
      <rect id="Rectangle_2_copy_62" data-name="Rectangle 2 copy 62" class="cls-1" x="279" y="161" width="50" height="50"/>
      <rect id="Rectangle_2_copy_63" data-name="Rectangle 2 copy 63" class="cls-1" x="326" y="161" width="50" height="50"/>
    </g>
    <g id="body">
      <path class="cls-2" d="M360,351c-33.358,45.487-8.791,73.527-3,84s-6.8,151.567-1,169c0.748,2.251,71,1,71,1s14.832-175.932,21-178-3.207.084-4,9c-1.2,13.462,18.557,161.74,19,169,0.114,1.871,53.938.636,59,0,4.62-.58,1.786-177.042,0-176s36.243-25.342,1-78c-4.562-6.816-5-119-5-119l-157,1S361.368,349.134,360,351Z" transform="translate(-229 -214)"/>
      <circle class="cls-3" cx="211" cy="116" r="6"/>
      <path class="cls-4" d="M382.12,359.684l3.76-1.367,16,44-3.76,1.367Z" transform="translate(-229 -214)"/>
      <path class="cls-4" d="M497.118,360.323l3.764,1.354-18,50-3.764-1.354Z" transform="translate(-229 -214)"/>
      <path class="cls-4" d="M428,464L411,604h16l14-140H428Z" transform="translate(-229 -214)"/>
      <path class="cls-4" d="M446,470l17,135h7L449,470h-3Z" transform="translate(-229 -214)"/>
    </g>
    <rect class="cls-5" x="42" y="158" width="334" height="101"/>
  </g>
</svg>
