<?xml version="1.0" encoding="utf-8"?>
<!-- Generator: Adobe Illustrator 22.0.0, SVG Export Plug-In . SVG Version: 6.00 Build 0)  -->
<svg version="1.1" id="Layer_1" xmlns="http://www.w3.org/2000/svg" xmlns:xlink="http://www.w3.org/1999/xlink" x="0px" y="0px"
	 viewBox="0 0 200 400" style="enable-background:new 0 0 200 400;" xml:space="preserve">
<style type="text/css">
	.st0{fill:#E8E8E8;stroke:#A0A0A0;stroke-width:2;}
	.st1{fill:#EDB880;}
	.st2{fill:#D1A372;}
	.st3{fill:#0F1220;}
	.st4{fill:#C1272D;}
	.st5{font-family:'Chalkduster';}
	.st6{font-size:27.6037px;}
</style>
<title>nudec</title>
<g id="Artboard_1">
	<g id="tiles">
		<rect class="st0" width="29.9" height="53.2"/>
		<rect id="Rectangle_2_copy" x="28.1" class="st0" width="29.9" height="53.2"/>
		<rect id="Rectangle_2_copy_2" y="51.1" class="st0" width="29.9" height="53.2"/>
		<rect id="Rectangle_2_copy_3" x="28.1" y="51.1" class="st0" width="29.9" height="53.2"/>
		<rect id="Rectangle_2_copy_4" y="101.1" class="st0" width="29.9" height="53.2"/>
		<rect id="Rectangle_2_copy_5" x="28.1" y="101.1" class="st0" width="29.9" height="53.2"/>
		<rect id="Rectangle_2_copy_6" y="152.1" class="st0" width="29.9" height="53.2"/>
		<rect id="Rectangle_2_copy_7" x="28.1" y="152.1" class="st0" width="29.9" height="53.2"/>
	</g>
	<g id="tiles_copy">
		<rect y="194.7" class="st0" width="29.9" height="53.2"/>
		<rect id="Rectangle_2_copy-2" x="28.1" y="194.7" class="st0" width="29.9" height="53.2"/>
		<rect id="Rectangle_2_copy_2-2" y="245.7" class="st0" width="29.9" height="53.2"/>
		<rect id="Rectangle_2_copy_3-2" x="28.1" y="245.7" class="st0" width="29.9" height="53.2"/>
		<rect id="Rectangle_2_copy_4-2" y="295.7" class="st0" width="29.9" height="53.2"/>
		<rect id="Rectangle_2_copy_5-2" x="28.1" y="295.7" class="st0" width="29.9" height="53.2"/>
		<rect id="Rectangle_2_copy_6-2" y="346.8" class="st0" width="29.9" height="53.2"/>
		<rect id="Rectangle_2_copy_7-2" x="28.1" y="346.8" class="st0" width="29.9" height="53.2"/>
		<rect id="Rectangle_2_copy_8" x="56.9" y="194.7" class="st0" width="29.9" height="53.2"/>
		<rect id="Rectangle_2_copy_9" x="85" y="194.7" class="st0" width="29.9" height="53.2"/>
		<rect id="Rectangle_2_copy_10" x="56.9" y="245.7" class="st0" width="29.9" height="53.2"/>
		<rect id="Rectangle_2_copy_11" x="85" y="245.7" class="st0" width="29.9" height="53.2"/>
		<rect id="Rectangle_2_copy_12" x="56.9" y="295.7" class="st0" width="29.9" height="53.2"/>
		<rect id="Rectangle_2_copy_13" x="85" y="295.7" class="st0" width="29.9" height="53.2"/>
		<rect id="Rectangle_2_copy_14" x="56.9" y="346.8" class="st0" width="29.9" height="53.2"/>
		<rect id="Rectangle_2_copy_15" x="85" y="346.8" class="st0" width="29.9" height="53.2"/>
		<rect id="Rectangle_2_copy_16" x="85" y="194.7" class="st0" width="29.9" height="53.2"/>
		<rect id="Rectangle_2_copy_17" x="113.2" y="194.7" class="st0" width="29.9" height="53.2"/>
		<rect id="Rectangle_2_copy_18" x="85" y="245.7" class="st0" width="29.9" height="53.2"/>
		<rect id="Rectangle_2_copy_19" x="113.2" y="245.7" class="st0" width="29.9" height="53.2"/>
		<rect id="Rectangle_2_copy_20" x="85" y="295.7" class="st0" width="29.9" height="53.2"/>
		<rect id="Rectangle_2_copy_21" x="113.2" y="295.7" class="st0" width="29.9" height="53.2"/>
		<rect id="Rectangle_2_copy_22" x="85" y="346.8" class="st0" width="29.9" height="53.2"/>
		<rect id="Rectangle_2_copy_23" x="113.2" y="346.8" class="st0" width="29.9" height="53.2"/>
		<rect id="Rectangle_2_copy_24" x="141.9" y="194.7" class="st0" width="29.9" height="53.2"/>
		<rect id="Rectangle_2_copy_25" x="170.1" y="194.7" class="st0" width="29.9" height="53.2"/>
		<rect id="Rectangle_2_copy_26" x="141.9" y="245.7" class="st0" width="29.9" height="53.2"/>
		<rect id="Rectangle_2_copy_27" x="170.1" y="245.7" class="st0" width="29.9" height="53.2"/>
		<rect id="Rectangle_2_copy_28" x="141.9" y="295.7" class="st0" width="29.9" height="53.2"/>
		<rect id="Rectangle_2_copy_29" x="170.1" y="295.7" class="st0" width="29.9" height="53.2"/>
		<rect id="Rectangle_2_copy_30" x="141.9" y="346.8" class="st0" width="29.9" height="53.2"/>
		<rect id="Rectangle_2_copy_31" x="170.1" y="346.8" class="st0" width="29.9" height="53.2"/>
		<rect id="Rectangle_2_copy_32" class="st0" width="29.9" height="53.2"/>
		<rect id="Rectangle_2_copy_33" x="28.1" class="st0" width="29.9" height="53.2"/>
		<rect id="Rectangle_2_copy_34" y="51.1" class="st0" width="29.9" height="53.2"/>
		<rect id="Rectangle_2_copy_35" x="28.1" y="51.1" class="st0" width="29.9" height="53.2"/>
		<rect id="Rectangle_2_copy_36" y="101.1" class="st0" width="29.9" height="53.2"/>
		<rect id="Rectangle_2_copy_37" x="28.1" y="101.1" class="st0" width="29.9" height="53.2"/>
		<rect id="Rectangle_2_copy_38" y="152.1" class="st0" width="29.9" height="53.2"/>
		<rect id="Rectangle_2_copy_39" x="28.1" y="152.1" class="st0" width="29.9" height="53.2"/>
		<rect id="Rectangle_2_copy_40" x="56.9" class="st0" width="29.9" height="53.2"/>
		<rect id="Rectangle_2_copy_41" x="85" class="st0" width="29.9" height="53.2"/>
		<rect id="Rectangle_2_copy_42" x="56.9" y="51.1" class="st0" width="29.9" height="53.2"/>
		<rect id="Rectangle_2_copy_43" x="85" y="51.1" class="st0" width="29.9" height="53.2"/>
		<rect id="Rectangle_2_copy_44" x="56.9" y="101.1" class="st0" width="29.9" height="53.2"/>
		<rect id="Rectangle_2_copy_45" x="85" y="101.1" class="st0" width="29.9" height="53.2"/>
		<rect id="Rectangle_2_copy_46" x="56.9" y="152.1" class="st0" width="29.9" height="53.2"/>
		<rect id="Rectangle_2_copy_47" x="85" y="152.1" class="st0" width="29.9" height="53.2"/>
		<rect id="Rectangle_2_copy_48" x="85" class="st0" width="29.9" height="53.2"/>
		<rect id="Rectangle_2_copy_49" x="113.2" class="st0" width="29.9" height="53.2"/>
		<rect id="Rectangle_2_copy_50" x="85" y="51.1" class="st0" width="29.9" height="53.2"/>
		<rect id="Rectangle_2_copy_51" x="113.2" y="51.1" class="st0" width="29.9" height="53.2"/>
		<rect id="Rectangle_2_copy_52" x="85" y="101.1" class="st0" width="29.9" height="53.2"/>
		<rect id="Rectangle_2_copy_53" x="113.2" y="101.1" class="st0" width="29.9" height="53.2"/>
		<rect id="Rectangle_2_copy_54" x="85" y="152.1" class="st0" width="29.9" height="53.2"/>
		<rect id="Rectangle_2_copy_55" x="113.2" y="152.1" class="st0" width="29.9" height="53.2"/>
		<rect id="Rectangle_2_copy_56" x="141.9" class="st0" width="29.9" height="53.2"/>
		<rect id="Rectangle_2_copy_57" x="170.1" class="st0" width="29.9" height="53.2"/>
		<rect id="Rectangle_2_copy_58" x="141.9" y="51.1" class="st0" width="29.9" height="53.2"/>
		<rect id="Rectangle_2_copy_59" x="170.1" y="51.1" class="st0" width="29.9" height="53.2"/>
		<rect id="Rectangle_2_copy_60" x="141.9" y="101.1" class="st0" width="29.9" height="53.2"/>
		<rect id="Rectangle_2_copy_61" x="170.1" y="101.1" class="st0" width="29.9" height="53.2"/>
		<rect id="Rectangle_2_copy_62" x="141.9" y="152.1" class="st0" width="29.9" height="53.2"/>
		<rect id="Rectangle_2_copy_63" x="170.1" y="152.1" class="st0" width="29.9" height="53.2"/>
	</g>
	<g id="body">
		<path class="st1" d="M53.3,126.6c-20,48.4-5.3,78.2-1.8,89.4c3.5,11.1-4.1,161.2-0.6,179.8c0.4,2.4,42.5,1.1,42.5,1.1
			s8.9-187.2,12.6-189.4s-1.9,0.1-2.4,9.6c-0.7,14.3,11.1,172.1,11.4,179.8c0.1,2,32.3,0.7,35.3,0c2.8-0.6,1.1-188.3,0-187.2
			c-1.1,1.1,21.7-27,0.6-83c-2.7-7.3-3-126.6-3-126.6l-94,1.1C53.9,1.1,54.1,124.6,53.3,126.6z"/>
		<ellipse class="st2" cx="101.2" cy="104.3" rx="3.6" ry="6.4"/>
		<path class="st2" d="M66.5,135.8l2.3-1.4l9.6,46.8l-2.3,1.4L66.5,135.8z"/>
		<path class="st2" d="M135.4,136.5l2.3,1.4l-10.8,53.2l-2.3-1.4L135.4,136.5z"/>
		<path class="st2" d="M94,246.8L83.8,395.7h9.6l8.4-148.9H94z"/>
		<path class="st2" d="M104.8,253.2L115,396.8h4.2l-12.6-143.6H104.8z"/>
	</g>
	<rect y="148.9" class="st3" width="200" height="107.4"/>
</g>
<text transform="matrix(0.95 0 0 1 5.2556 209.151)" class="st4 st5 st6">CENSORERET</text>
</svg>
