<svg xmlns="http://www.w3.org/2000/svg" xmlns:xlink="http://www.w3.org/1999/xlink" width="1599" height="250" viewBox="0 0 1599 250"><defs><style>.cls-1,.cls-10,.cls-11,.cls-15{fill:none;}.cls-2{fill:#edc28e;}.cls-3{fill:#c9a279;}.cls-4{fill:#202532;}.cls-5{fill:#f4912d;}.cls-6{fill:#d1792a;}.cls-7{fill:#706b6b;}.cls-8{fill:#484849;}.cls-9{fill:#684814;}.cls-10{stroke:#c9a279;}.cls-10,.cls-11,.cls-15{stroke-miterlimit:10;}.cls-11{stroke:#050400;stroke-width:0.5px;}.cls-12{fill:#875e27;}.cls-13{fill:#404c66;}.cls-14{fill:#eaea7a;}.cls-15{stroke:#000;}.cls-16{fill:#8fc9be;}</style><symbol id="_1" data-name="1" viewBox="0 0 200 250"><g id="baggrund"><rect class="cls-1" width="200" height="250"/></g><g id="ben"><path class="cls-2" d="M110.83,149.44S112,173,113.07,182.6s4.11,41.3,4.11,41.3l-5.08,1.52s-6.2-45.2-6.18-50.78-4.39-25.19-4.39-25.19"/><path class="cls-2" d="M98.21,152.31s0,22.69,1.15,32.24,4.82,41,4.82,41L99.1,227S92,186,92,180.45s-3.36-31-3.36-31"/></g><g id="benskygge"><path class="cls-3" d="M91.93,153.57l9.19,75.26-2.21.09S93.45,194.15,93,189.28s-4.34-36.85-4.34-36.85Z"/><path class="cls-3" d="M106.19,154s7.07,76.23,7.42,76.1A15.78,15.78,0,0,1,112,231s-6.61-48.73-6.87-52.68c-.24-3.68-2.72-25.92-2.72-25.92Z"/></g><g id="sko"><path class="cls-4" d="M104.32,224.36s-3.28,2.72-7,1.14a12.71,12.71,0,0,0-7.41-.62s-1.56.28-1.79,3.47c-.28,3.9.49,4.8,2.38,6s10.65-1,10.65-1,4.63,1.2,4.75-1.4S104.32,224.36,104.32,224.36Z"/><path class="cls-4" d="M116.85,222.89s-3,3.38-6.83,2.59a13,13,0,0,0-7.4.93s-1.52.6-1.49,3.82c0,3.92.88,4.65,2.84,5.45s10.48-3.25,10.48-3.25,4.69.23,4.6-2.38S116.85,222.89,116.85,222.89Z"/></g><g id="trøje"><path class="cls-5" d="M103,79.52s0,0,0,0c.63.65,9.59,10,11.08,18,1.54,8.29,1.61,40.44,1.61,40.44s-13.18,1.74-18.26,2.28a108.05,108.05,0,0,1-13.81,0s-1.79-20.6-1.85-25.72S79.93,102,81.08,96.81a70.89,70.89,0,0,1,1.84-7.1l1.45-2.28,5.84-1.49a2.88,2.88,0,0,0,2.47,3.11c2.67.34,6,.36,7.3-1.31l1.35-1.67S103.6,80.54,103,79.52Z"/></g><g id="underkrop"><path class="cls-6" d="M115.73,129.28s6.48,22.63,4.43,22.83-7.59,0-9.83,3.11c-3.08,4.28-8-2.13-9.43-1.93s-2.42,3.15-5.16,3.61-3,.7-5.51-.91-4.19-.1-6.13.91a3,3,0,0,1-3.48-.8l2.9-24.26c9.3-1.07-1.33-.46,2.39-.62Z"/></g><g id="iphone"><polygon points="101.12 140.08 89.02 142.31 84.63 118.48 96.73 116.25 101.12 140.08"/><path d="M100.82,139l-12.1,2.23,1.38.79-4.39-23.83-.79,1.38L97,117.33l-1.38-.79L100,140.38c.26,1.42,2.43.82,2.17-.6L97.81,116a1.15,1.15,0,0,0-1.38-.79l-12.1,2.23a1.15,1.15,0,0,0-.79,1.38l4.39,23.83a1.15,1.15,0,0,0,1.38.79l12.1-2.23C102.84,140.9,102.24,138.73,100.82,139Z"/><circle class="cls-7" cx="84.94" cy="118.67" r="0.94" transform="translate(-20.11 17.37) rotate(-10.45)"/><path class="cls-7" d="M93,127.42"/></g><g id="ny_arm" data-name="ny arm"><path class="cls-2" d="M76.41,104.7s.69,14.7,2.61,19,3.07,6.59,3.07,6.59c-.3,3.23.93,3.91,2.72,4.39,1.31.35,2.73-.81,3.39-1.45a1.43,1.43,0,0,0,.44-1,5.18,5.18,0,0,0-2-3.93c-2.52-2.25-5.21-8-5.75-10.82s-.42-13.41-.42-13.41Z"/></g><g id="ærme2"><path class="cls-6" d="M83.76,88.38s-7.91,4.49-8.58,8.24a39.34,39.34,0,0,0,0,9.38h7l.13-12.1S84.06,88.38,83.76,88.38Z"/></g><g id="arme"><path class="cls-2" d="M112,102.87s3.32,7.72,2.48,11.59-2.56,7.79-5.21,10.09A69.09,69.09,0,0,1,103.4,129s-1.95,2.6-3.8,3-4.29-1.11-4.29-1.11-2-1.84-1.49-3.11.92-2.47,2.3-3.26a5.77,5.77,0,0,1,3-.65l1.48.33s2.39,0,4.81-2.91,3.66-8.2,3.66-8.2a66.55,66.55,0,0,0-1.28-7.67C107.17,103.4,112,102.87,112,102.87Z"/></g><g id="hoved"><path class="cls-2" d="M107.85,46.22s6.6-4.19,8.21,5.15-7.17,8.86-7.17,8.86-1.41,6.6-2.86,8.7a41.26,41.26,0,0,0-3,5.8V81s-1,7.41-5.85,8.22S90,87.61,90,87.61V86s-7.13,3.38-12,0-8.54-6.76-10.47-12.4-6.44-17.23-6.76-26.73-.08-15.3-.08-15.3,11.39,1.77,17.51,2.25a58.17,58.17,0,0,0,13-.81Z"/></g><g id="ansigt"><ellipse cx="86.82" cy="57.51" rx="2.33" ry="3.35"/><ellipse class="cls-8" cx="86.2" cy="56.77" rx="0.76" ry="0.97"/><ellipse class="cls-8" cx="87.31" cy="58.21" rx="0.56" ry="0.79"/><ellipse cx="70.56" cy="57.81" rx="2.32" ry="3.33"/><ellipse class="cls-8" cx="70.56" cy="57.17" rx="0.8" ry="1.04"/><path class="cls-9" d="M95,50.35s-4.58.54-6.39-.46a16.48,16.48,0,0,1-4.09-3.46l-2.2,3.34A49.1,49.1,0,0,0,88,51.7c1.31.19,7,.45,7,.45Z"/><path class="cls-9" d="M73,46.94l1.53,3.17a27.74,27.74,0,0,1-4.88,2.18,43.9,43.9,0,0,1-6.05.77L63.3,51.2s5.21-.06,6.36-.62C71.14,49.85,73,46.94,73,46.94Z"/><path class="cls-10" d="M86.58,74.26s-7.41-5.78-11,.39"/><path class="cls-3" d="M70.52,52.36l.32,0c1,.14,4.2.65,4.73,1.89.64,1.48,1.54,2.68.84,5.32s-1.35,3.67-.39,4.7a4.91,4.91,0,0,0,3.28,1.93,27.16,27.16,0,0,0,4.24-.77l-3.3.14s-3.38-.81-3.21-2.09.71-4.24.78-5.29-.2-5.52-1.62-6.26-1.64-1.15-1.64-1.15l-2.82,1.35"/><ellipse class="cls-8" cx="70.08" cy="58.66" rx="0.51" ry="0.67" transform="translate(-2.04 2.53) rotate(-2.04)"/><path class="cls-11" d="M90.94,55.54a2.34,2.34,0,0,1-2.48,1.72"/><path class="cls-11" d="M91.15,57a2.34,2.34,0,0,1-2.89.86"/><path class="cls-11" d="M66.46,55.54a2.34,2.34,0,0,0,2.48,1.72"/><path class="cls-11" d="M66.27,56.9a2.34,2.34,0,0,0,2.85,1"/></g><path class="cls-4" d="M106.72,67.23l3.11-2.78s1.4,2.83.83,3.72-5,1.85-5,1.85l-.13-.37Z"/><path class="cls-9" d="M110.76,68s20.55,20,15.49,23.66C120.2,96,115.81,96,115.81,96s.22-5.95-4.63-7.47l-.89-.13L103,80V74l2.43-4.14S110.48,69.24,110.76,68Z"/><path class="cls-9" d="M103.81,14.22c3.08.12,8.24,2,7,4.81-2.69,6-10.16,16.07-13.1,17.63-4.59,2.43-16.8,4.54-23.41,3.89S59.1,41.65,58,40,54.22,29.86,57,26s13.14-9.18,17.91-9.5C78.27,16.24,94.75,13.87,103.81,14.22Z"/><path class="cls-9" d="M105.39,16.47S124.15,38.55,120,49.28s-12.94,17.64-12.94,17.64l1.79-6.7s8.44.38,7.28-8.08c-.63-4.6-4.12-5.74-7.17-5.82-3.37-.09-6.28.76-8.4-1.86l-4.78-7.84Z"/><path class="cls-12" d="M104.43,27.42c.3.29-2.22,13.43.49,13.53s4.45-2.8,4.45-2.8a1.13,1.13,0,0,1,2,.1c1,1.55.87-4.06.87-4.06Z"/><path class="cls-12" d="M93.69,19s-18.61.6-21.37,2-14.26,6.06-11.68,8.56,19.68,3.78,22.9,3.44,14.3-11.91,14.29-13S93.69,19,93.69,19Z"/><g id="kant"><path class="cls-6" d="M90,86s-3.48,1.13-4,1.29,2.1,4.65,4.91,5a22.54,22.54,0,0,0,9.08-.67c1.74-.63,5.67-6.21,5.58-8.69C105.47,80.72,103,80,103,80a13.19,13.19,0,0,1-.52,3.09,19.82,19.82,0,0,1-3,5.06c-.75.64-4.33,1.22-4.94,1.22s-4.16-.84-4.35-1.82A5.19,5.19,0,0,1,90,86Z"/></g><g id="øre"><path class="cls-3" d="M110.61,49.46A4.3,4.3,0,0,1,113,52.63a4.44,4.44,0,0,1-1.11,3.55.81.81,0,0,1-.22.17c-.41.22-1.76.88-2.15.22a1.64,1.64,0,0,1-.12-1.3.78.78,0,0,1,.36-.45l.94-.56a.8.8,0,0,0,.37-.89c-.13-.52-.42-1.18-1-1.13-1,.08-2.11-.23-1.81-1.13S109.54,48.75,110.61,49.46Z"/></g><g id="skygger"><path class="cls-12" d="M108.15,78.12s3.39-2.63,4.63-2.21,11.65,10.07,9.63,11.7a8,8,0,0,1-4.14,1.76Z"/><path class="cls-13" d="M94.76,227s-2.82-2.66-4.73-.92a2.36,2.36,0,0,0-.62,3.07S92.06,228.19,94.76,227Z"/><path class="cls-13" d="M107.76,228.51s-2.82-2.66-4.73-.92a2.36,2.36,0,0,0-.62,3.07S105.06,229.68,107.76,228.51Z"/><path class="cls-3" d="M103,73.72l-.95,1.84s.25,4.52-.2,5.75a39,39,0,0,1-1.26,3.87c-.33.41-2.21,3.54-2.38,3.68A6.94,6.94,0,0,0,100,87.75c1.14-.87,1.68-2.48,2.46-4.24A14.44,14.44,0,0,0,103,79Z"/></g><path class="cls-6" d="M111.2,88.46a5.37,5.37,0,0,1,4.51,4.89c.62,4.48,1,7.88,1,7.88l.69,3.78H104.18l-.28-11.3S103.65,87.18,111.2,88.46Z"/></symbol><symbol id="_2" data-name="2" viewBox="0 0 200 250"><g id="baggrund_copy" data-name="baggrund copy"><rect class="cls-1" width="200" height="250"/></g><g id="ben_copy" data-name="ben copy"><path class="cls-2" d="M110.83,149.44S112,173,113.07,182.6s4.11,41.3,4.11,41.3l-5.08,1.52s-6.2-45.2-6.18-50.78-4.39-25.19-4.39-25.19"/><path class="cls-2" d="M98.21,152.31s0,22.69,1.15,32.24,4.82,41,4.82,41L99.1,227S92,186,92,180.45s-3.36-31-3.36-31"/></g><g id="benskygge_copy" data-name="benskygge copy"><path class="cls-3" d="M91.93,153.57l9.19,75.26-2.21.09S93.45,194.15,93,189.28s-4.34-36.85-4.34-36.85Z"/><path class="cls-3" d="M106.19,154s7.07,76.23,7.42,76.1A15.78,15.78,0,0,1,112,231s-6.61-48.73-6.87-52.68c-.24-3.68-2.72-25.92-2.72-25.92Z"/></g><g id="sko_copy" data-name="sko copy"><path class="cls-4" d="M104.32,224.36s-3.28,2.72-7,1.14a12.71,12.71,0,0,0-7.41-.62s-1.56.28-1.79,3.47c-.28,3.9.49,4.8,2.38,6s10.65-1,10.65-1,4.63,1.2,4.75-1.4S104.32,224.36,104.32,224.36Z"/><path class="cls-4" d="M116.85,222.89s-3,3.38-6.83,2.59a13,13,0,0,0-7.4.93s-1.52.6-1.49,3.82c0,3.92.88,4.65,2.84,5.45s10.48-3.25,10.48-3.25,4.69.23,4.6-2.38S116.85,222.89,116.85,222.89Z"/></g><g id="trøje_copy" data-name="trøje copy"><path class="cls-5" d="M103,79.52s0,0,0,0c.63.65,9.59,10,11.08,18,1.54,8.29,1.61,40.44,1.61,40.44s-13.18,1.74-18.26,2.28a108.05,108.05,0,0,1-13.81,0s-1.79-20.6-1.85-25.72S79.93,102,81.08,96.81a70.89,70.89,0,0,1,1.84-7.1l1.45-2.28,5.84-1.49a2.88,2.88,0,0,0,2.47,3.11c2.67.34,6,.36,7.3-1.31l1.35-1.67S103.6,80.54,103,79.52Z"/></g><g id="underkrop_copy" data-name="underkrop copy"><path class="cls-6" d="M115.73,129.28s6.48,22.63,4.43,22.83-7.59,0-9.83,3.11c-3.08,4.28-8-2.13-9.43-1.93s-2.42,3.15-5.16,3.61-3,.7-5.51-.91-4.19-.1-6.13.91a3,3,0,0,1-3.48-.8l2.9-24.26c9.3-1.07-1.33-.46,2.39-.62Z"/></g><g id="iphone_copy" data-name="iphone copy"><polygon points="100.29 138.22 88.19 140.45 83.79 116.62 95.89 114.39 100.29 138.22"/><path d="M100,137.13l-12.1,2.23,1.38.79-4.39-23.83-.79,1.38,12.1-2.23-1.38-.79,4.39,23.83c.26,1.42,2.43.82,2.17-.6L97,114.09a1.15,1.15,0,0,0-1.38-.79l-12.1,2.23a1.15,1.15,0,0,0-.79,1.38l4.39,23.83a1.15,1.15,0,0,0,1.38.79l12.1-2.23C102,139,101.41,136.87,100,137.13Z"/><circle class="cls-7" cx="84.47" cy="117.19" r="0.94" transform="translate(-19.85 17.26) rotate(-10.45)"/><path class="cls-7" d="M93,127.42"/></g><g id="ny_arm_copy" data-name="ny arm copy"><path class="cls-2" d="M76.92,104.55s-1.42,14.65-.14,19.19,2.1,7,2.1,7c-.76,3.15.36,4,2.06,4.73,1.25.54,2.82-.41,3.57-.95a1.43,1.43,0,0,0,.58-.94,5.18,5.18,0,0,0-1.39-4.17c-2.17-2.58-4-8.7-4.14-11.53s1.51-13.33,1.51-13.33Z"/></g><g id="ærme2_copy" data-name="ærme2 copy"><path class="cls-6" d="M83.76,88.38s-7.91,4.49-8.58,8.24a39.34,39.34,0,0,0,0,9.38h7l.13-12.1S84.06,88.38,83.76,88.38Z"/></g><g id="arme_copy" data-name="arme copy"><path class="cls-2" d="M113.73,101.9s2.37,8.06,1.07,11.81-3.48,7.42-6.39,9.39a69.09,69.09,0,0,1-6.33,3.71s-2.25,2.35-4.13,2.52-4.13-1.62-4.13-1.62-1.78-2.07-1.1-3.27,1.21-2.34,2.68-3a5.77,5.77,0,0,1,3.06-.28l1.43.51s2.37.3,5.12-2.31,4.62-7.7,4.62-7.7a66.55,66.55,0,0,0-.35-7.77C108.9,101.85,113.73,101.9,113.73,101.9Z"/></g><g id="hoved_copy" data-name="hoved copy"><path class="cls-2" d="M107.42,44.87s6.29-4.63,8.54,4.58-6.54,9.33-6.54,9.33-1,6.69-2.26,8.87a41.26,41.26,0,0,0-2.62,6l.43,6.26s-.51,7.47-5.27,8.6-7.24-1.11-7.24-1.11l-.11-1.6s-6.87,3.86-11.93.82-9-6.16-11.3-11.65-7.62-16.75-8.6-26.2S59.4,33.51,59.4,33.51s11.49,1,17.63,1A58.17,58.17,0,0,0,90,32.84Z"/></g><g id="ansigt_copy" data-name="ansigt copy"><ellipse cx="87.22" cy="57.59" rx="2.33" ry="3.35" transform="translate(-3.77 6.16) rotate(-3.96)"/><ellipse class="cls-8" cx="86.55" cy="56.9" rx="0.76" ry="0.97" transform="translate(-3.72 6.11) rotate(-3.96)"/><ellipse class="cls-8" cx="87.76" cy="58.26" rx="0.56" ry="0.79" transform="translate(-3.81 6.2) rotate(-3.96)"/><ellipse cx="71.02" cy="59.02" rx="2.32" ry="3.33" transform="translate(-3.91 5.05) rotate(-3.96)"/><ellipse class="cls-8" cx="70.97" cy="58.38" rx="0.8" ry="1.04" transform="translate(-3.86 5.04) rotate(-3.96)"/><path class="cls-9" d="M94.88,49.88s-4.53.85-6.41,0a16.48,16.48,0,0,1-4.32-3.17l-2,3.49A49.1,49.1,0,0,0,88,51.71c1.32.1,7,0,7,0Z"/><path class="cls-9" d="M72.72,48l1.75,3.06a27.74,27.74,0,0,1-4.72,2.52,43.9,43.9,0,0,1-6,1.19l-.44-1.84s5.2-.42,6.3-1.06C71,51,72.72,48,72.72,48Z"/><path class="cls-10" d="M86.58,74.26s-7.41-5.78-11,.39"/><path class="cls-3" d="M70.6,53.58l.32,0c1,.07,4.23.36,4.85,1.56.74,1.43,1.72,2.56,1.2,5.25s-1.09,3.76-.06,4.72a4.91,4.91,0,0,0,3.4,1.7,27.16,27.16,0,0,0,4.18-1.06l-3.28.37s-3.43-.58-3.35-1.87.42-4.28.41-5.34-.58-5.49-2.05-6.13-1.72-1-1.72-1l-2.72,1.54"/><ellipse class="cls-8" cx="70.6" cy="59.9" rx="0.51" ry="0.67" transform="translate(-5.87 7.7) rotate(-6)"/><path class="cls-11" d="M91.19,55.34s-.46,2-2.36,1.88"/><path class="cls-11" d="M91.5,56.75a2.34,2.34,0,0,1-2.83,1.05"/><path class="cls-11" d="M66.77,57a2.34,2.34,0,0,0,2.59,1.54"/><path class="cls-11" d="M66.68,58.4a2.34,2.34,0,0,0,2.91.8"/></g><g id="hår1_copy" data-name="hår1 copy"><path class="cls-14" d="M33.28,96.46"/><path class="cls-4" d="M107.74,65.92l2.91-3s1.59,2.72,1.09,3.65-4.84,2.19-4.84,2.19l-.15-.36Z"/><path class="cls-9" d="M111.82,66.31S132,87.16,126.95,90.86c-6.05,4.43-11.13,5.08-11.13,5.08s.68-5.88-4.17-7.4H109.7l-6-9.34v-6l3.05-4.83S111.54,67.6,111.82,66.31Z"/><path class="cls-9" d="M101.18,13.23c3.08-.1,8.36,1.42,7.3,4.32-2.26,6.21-9,16.73-11.85,18.5-4.41,2.74-16.45,5.69-23.09,5.5s-15.07,2.14-16.31.6-4.44-9.89-2-14S67.74,18.12,72.48,17.47C75.84,17,92.12,13.51,101.18,13.23Z"/><path class="cls-9" d="M102.91,15.36s20.24,20.73,16.87,31.73-11.69,18.5-11.69,18.5l1.33-6.81s8.45-.21,6.71-8.57c-.95-4.54-4.51-5.44-7.56-5.31-3.37.14-6.21,1.19-8.51-1.28l-5.31-7.49Z"/><path class="cls-12" d="M102.71,26.36c.31.27-1.28,13.56,1.42,13.46s4.24-3.1,4.24-3.1a1.13,1.13,0,0,1,2,0c1.07,1.48.59-4.11.59-4.11Z"/><path class="cls-12" d="M91.42,18.73s-18.52,1.88-21.18,3.51-13.81,7-11.06,9.35S79.07,34,82.26,33.44s13.45-12.87,13.36-14S91.42,18.73,91.42,18.73Z"/></g><g id="kant_copy" data-name="kant copy"><path class="cls-6" d="M92.36,85.79s-1.55.77-2.09.93-1.19,4.22,1.63,4.55a22.54,22.54,0,0,0,9.08-.67c1.74-.63,5.67-6.21,5.58-8.69C106.47,79.72,104,79,104,79a13.19,13.19,0,0,1-.52,3.09,19.82,19.82,0,0,1-3,5.06c-.75.64-4.33,1.22-4.94,1.22s-2.94-1-3.13-1.95C92.16,85.18,92.36,85.79,92.36,85.79Z"/></g><g id="øre_copy" data-name="øre copy"><path class="cls-3" d="M110.4,47.91a4.3,4.3,0,0,1,2.63,3,4.44,4.44,0,0,1-.86,3.62.81.81,0,0,1-.21.19c-.39.25-1.7,1-2.13.37a1.64,1.64,0,0,1-.21-1.29.78.78,0,0,1,.33-.47l.9-.62a.8.8,0,0,0,.31-.91c-.17-.51-.5-1.15-1.1-1.06-1,.14-2.12-.08-1.89-1S109.28,47.28,110.4,47.91Z"/></g><g id="skygger_copy" data-name="skygger copy"><path class="cls-12" d="M108.15,78.12s3.39-2.63,4.63-2.21,11.65,10.07,9.63,11.7a8,8,0,0,1-4.14,1.76Z"/><path class="cls-13" d="M94.76,227s-2.82-2.66-4.73-.92a2.36,2.36,0,0,0-.62,3.07S92.06,228.19,94.76,227Z"/><path class="cls-13" d="M107.76,228.51s-2.82-2.66-4.73-.92a2.36,2.36,0,0,0-.62,3.07S105.06,229.68,107.76,228.51Z"/><path class="cls-3" d="M104,72.72l-.95,1.84s.25,4.52-.2,5.75a39,39,0,0,1-1.26,3.87c-.33.41-2,3.41-2.21,3.54s.45-.12,1.59-1,1.68-2.48,2.46-4.24A14.44,14.44,0,0,0,104,78Z"/></g><path class="cls-6" d="M111.2,88.46a5.37,5.37,0,0,1,4.51,4.89c.62,4.48,1,7.88,1,7.88l.69,3.78H104.18l-.28-11.3S103.65,87.18,111.2,88.46Z"/></symbol><symbol id="_3" data-name="3" viewBox="0 0 200 250"><g id="baggrund_copy_2" data-name="baggrund copy 2"><rect class="cls-1" width="200" height="250"/></g><g id="ben_copy_2" data-name="ben copy 2"><path class="cls-2" d="M110.83,149.44S112,173,113.07,182.6s4.11,41.3,4.11,41.3l-5.08,1.52s-6.2-45.2-6.18-50.78-4.39-25.19-4.39-25.19"/><path class="cls-2" d="M98.21,152.31s0,22.69,1.15,32.24,4.82,41,4.82,41L99.1,227S92,186,92,180.45s-3.36-31-3.36-31"/></g><g id="benskygge_copy_2" data-name="benskygge copy 2"><path class="cls-3" d="M91.93,153.57l9.19,75.26-2.21.09S93.45,194.15,93,189.28s-4.34-36.85-4.34-36.85Z"/><path class="cls-3" d="M106.19,154s7.07,76.23,7.42,76.1A15.78,15.78,0,0,1,112,231s-6.61-48.73-6.87-52.68c-.24-3.68-2.72-25.92-2.72-25.92Z"/></g><g id="sko_copy_2" data-name="sko copy 2"><path class="cls-4" d="M104.32,224.36s-3.28,2.72-7,1.14a12.71,12.71,0,0,0-7.41-.62s-1.56.28-1.79,3.47c-.28,3.9.49,4.8,2.38,6s10.65-1,10.65-1,4.63,1.2,4.75-1.4S104.32,224.36,104.32,224.36Z"/><path class="cls-4" d="M116.85,222.89s-3,3.38-6.83,2.59a13,13,0,0,0-7.4.93s-1.52.6-1.49,3.82c0,3.92.88,4.65,2.84,5.45s10.48-3.25,10.48-3.25,4.69.23,4.6-2.38S116.85,222.89,116.85,222.89Z"/></g><g id="trøje_copy_2" data-name="trøje copy 2"><path class="cls-5" d="M103,79.52s0,0,0,0c.63.65,9.59,10,11.08,18,1.54,8.29,1.61,40.44,1.61,40.44s-13.18,1.74-18.26,2.28a108.05,108.05,0,0,1-13.81,0s-1.79-20.6-1.85-25.72S79.93,102,81.08,96.81a70.89,70.89,0,0,1,1.84-7.1l1.45-2.28,5.84-1.49a2.88,2.88,0,0,0,2.47,3.11c2.67.34,6,.36,7.3-1.31l1.35-1.67S103.6,80.54,103,79.52Z"/></g><g id="underkrop_copy_2" data-name="underkrop copy 2"><path class="cls-6" d="M115.73,129.28s6.48,22.63,4.43,22.83-7.59,0-9.83,3.11c-3.08,4.28-8-2.13-9.43-1.93s-2.42,3.15-5.16,3.61-3,.7-5.51-.91-4.19-.1-6.13.91a3,3,0,0,1-3.48-.8l2.9-24.26c9.3-1.07-1.33-.46,2.39-.62Z"/></g><g id="ny_arm_copy_2" data-name="ny arm copy 2"><path class="cls-2" d="M76.92,104.55s-1.42,14.65-.14,19.19,2.1,7,2.1,7c-.76,3.15.36,4,2.06,4.73,1.25.54,2.82-.41,3.57-.95a1.43,1.43,0,0,0,.58-.94,5.18,5.18,0,0,0-1.39-4.17c-2.17-2.58-4-8.7-4.14-11.53s1.51-13.33,1.51-13.33Z"/></g><g id="iphone_copy_2" data-name="iphone copy 2"><polygon points="95.83 130.85 83.73 133.08 79.34 109.25 91.44 107.02 95.83 130.85"/><path d="M95.54,129.76,83.44,132l1.38.79L80.43,109l-.79,1.38,12.1-2.23-1.38-.79,4.39,23.83c.26,1.42,2.43.82,2.17-.6l-4.39-23.83a1.15,1.15,0,0,0-1.38-.79L79,108.17a1.15,1.15,0,0,0-.79,1.38l4.39,23.83a1.15,1.15,0,0,0,1.38.79l12.1-2.23C97.56,131.67,97,129.5,95.54,129.76Z"/><circle class="cls-7" cx="79.91" cy="109.71" r="0.94" transform="translate(-18.57 16.31) rotate(-10.45)"/><path class="cls-7" d="M93,127.42"/></g><g id="ærme2_copy_2" data-name="ærme2 copy 2"><path class="cls-6" d="M83.76,88.38s-7.91,4.49-8.58,8.24a39.34,39.34,0,0,0,0,9.38h7l.13-12.1S84.06,88.38,83.76,88.38Z"/></g><g id="arme_copy_2" data-name="arme copy 2"><path class="cls-2" d="M114.26,104.39s-.78,8.36-3.38,11.36-6,5.6-9.41,6.35a69.09,69.09,0,0,1-7.25,1.1s-3,1.35-4.77.81-3.23-3-3.23-3-.89-2.58.18-3.44,2-1.73,3.58-1.76a5.77,5.77,0,0,1,3,.87l1.14,1s2.09,1.15,5.61-.24,7.14-5.44,7.14-5.44a66.55,66.55,0,0,0,2.56-7.34C109.79,102.56,114.26,104.39,114.26,104.39Z"/></g><g id="hoved_copy_2" data-name="hoved copy 2"><path class="cls-2" d="M101.16,45.62s5.81-5.22,8.94,3.73-5.61,9.92-5.61,9.92-.3,6.75-1.39,9.05a41.26,41.26,0,0,0-2,6.22l1,6.19s.22,7.48-4.41,9.07-7.32-.41-7.32-.41l-.27-1.59s-6.47,4.51-11.79,2S68.8,84.52,66,79.28,56.76,63.34,54.87,54s-2.61-15.08-2.61-15.08,11.53-.13,17.65-.67a58.17,58.17,0,0,0,12.71-2.94Z"/></g><g id="ansigt_copy_2" data-name="ansigt copy 2"><ellipse cx="82.28" cy="60.23" rx="2.33" ry="3.35" transform="translate(-8.82 14.41) rotate(-9.5)"/><ellipse class="cls-8" cx="81.55" cy="59.61" rx="0.76" ry="0.97" transform="matrix(0.99, -0.17, 0.17, 0.99, -8.72, 14.28)"/><ellipse class="cls-8" cx="82.89" cy="60.84" rx="0.56" ry="0.79" transform="matrix(0.99, -0.17, 0.17, 0.99, -8.91, 14.52)"/><ellipse cx="66.3" cy="63.22" rx="2.32" ry="3.33" transform="translate(-9.53 11.81) rotate(-9.5)"/><ellipse class="cls-8" cx="66.19" cy="62.58" rx="0.8" ry="1.04" transform="matrix(0.99, -0.17, 0.17, 0.99, -9.42, 11.79)"/><path class="cls-9" d="M89.17,51.82s-4.43,1.28-6.38.6a16.48,16.48,0,0,1-4.61-2.74l-1.62,3.66a49.1,49.1,0,0,0,5.92,1c1.32,0,7-.71,7-.71Z"/><path class="cls-9" d="M66.92,52.08,69,55a27.74,27.74,0,0,1-4.45,3,43.9,43.9,0,0,1-5.84,1.76L58,57.89s5.13-.92,6.17-1.66C65.55,55.27,66.92,52.08,66.92,52.08Z"/><path class="cls-10" d="M84.81,76.8S76.55,72.32,74,79"/><path class="cls-3" d="M65.36,57.84h.32c1,0,4.25,0,5,1.08.88,1.35,2,2.38,1.7,5.11s-.72,3.85.4,4.7a4.91,4.91,0,0,0,3.55,1.36,27.16,27.16,0,0,0,4.05-1.46l-3.23.68s-3.47-.24-3.51-1.54,0-4.3-.11-5.35S72.4,57,70.88,56.51a4.28,4.28,0,0,1-1.81-.86l-2.56,1.8"/><ellipse class="cls-8" cx="65.96" cy="64.13" rx="0.51" ry="0.67" transform="translate(-11.5 14.49) rotate(-11.54)"/><path class="cls-11" d="M86,57.61s-.26,2.08-2.16,2.1"/><path class="cls-11" d="M86.47,59a2.34,2.34,0,0,1-2.71,1.32"/><path class="cls-11" d="M61.88,61.65a2.34,2.34,0,0,0,2.73,1.28"/><path class="cls-11" d="M61.92,63a2.34,2.34,0,0,0,3,.51"/></g><g id="hår1_copy_2" data-name="hår1 copy 2"><path class="cls-14" d="M33.28,96.46"/><path class="cls-4" d="M103.51,66.54l2.61-3.26s1.84,2.56,1.44,3.53S103,69.45,103,69.45l-.18-.34Z"/><path class="cls-9" d="M107.63,66.59s23.57,16.29,19.18,20.78A24.71,24.71,0,0,1,115.72,94s.36-3.19-4.11-5.5L110,88.29l-8-8.57-1-5.89,1.71-4.48S107.56,67.9,107.63,66.59Z"/><path class="cls-9" d="M91.9,14.73c3.06-.39,8.45.61,7.68,3.59-1.65,6.39-7.36,17.53-10,19.55-4.12,3.15-15.82,7.25-22.45,7.7s-14.79,3.59-16.18,2.18-5.37-9.41-3.29-13.7S59.09,22.83,63.74,21.72C67,20.94,82.91,15.88,91.9,14.73Z"/><path class="cls-9" d="M93.83,16.69s22.15,18.68,19.86,30-9.85,19.54-9.85,19.54l.66-6.9s8.39-1,5.85-9.18c-1.38-4.43-5-5-8-4.55-3.34.47-6.07,1.78-8.6-.45l-6-6.94Z"/><path class="cls-12" d="M94.69,27.65c.34.24,0,13.62,2.72,13.26s3.92-3.5,3.92-3.5a1.13,1.13,0,0,1,2-.24c1.21,1.37.19-4.15.19-4.15Z"/><path class="cls-12" d="M82.71,21.15S64.45,24.81,62,26.69,48.9,35,51.86,37.06s20,.47,23.15-.39S87.16,22.56,87,21.47,82.71,21.15,82.71,21.15Z"/></g><g id="kant_copy_2" data-name="kant copy 2"><path class="cls-6" d="M90.18,87.56a25.42,25.42,0,0,1-2.84,1.74c-.54.16.74,2.64,3.56,3a22.54,22.54,0,0,0,9.08-.67c1.74-.63,5.67-6.21,5.58-8.69-.08-2.19-3.6-3.2-3.6-3.2s1,2.13.56,3.38a19.82,19.82,0,0,1-3,5.06c-.75.64-4.33,1.22-4.94,1.22s-4.16-.84-4.35-1.82Z"/></g><g id="øre_copy_2" data-name="øre copy 2"><path class="cls-3" d="M104.42,48.36a4.3,4.3,0,0,1,2.91,2.73,4.44,4.44,0,0,1-.5,3.69.81.81,0,0,1-.19.2c-.37.28-1.6,1.16-2.08.58a1.64,1.64,0,0,1-.33-1.26.78.78,0,0,1,.28-.5l.83-.7a.8.8,0,0,0,.22-.94c-.22-.49-.61-1.1-1.19-1-1,.24-2.12.12-2-.82S103.25,47.84,104.42,48.36Z"/></g><g id="skygger_copy_2" data-name="skygger copy 2"><path class="cls-12" d="M106.72,77s2.91-3.15,4.2-2.94,13.15,8,11.43,9.95a8,8,0,0,1-3.79,2.42Z"/><path class="cls-13" d="M94.76,227s-2.82-2.66-4.73-.92a2.36,2.36,0,0,0-.62,3.07S92.06,228.19,94.76,227Z"/><path class="cls-13" d="M107.76,228.51s-2.82-2.66-4.73-.92a2.36,2.36,0,0,0-.62,3.07S105.06,229.68,107.76,228.51Z"/><path class="cls-3" d="M100.92,73.55l-.63,2s1,4.42.75,5.71a39,39,0,0,1-.6,4c-.26.45-1.61,3.13-1.77,3.29s.59.38,1.58-.67a13.25,13.25,0,0,0,2.33-5.1c.39-1.51-.8-4-.8-4Z"/></g><path class="cls-6" d="M111.2,88.46a5.37,5.37,0,0,1,4.51,4.89c.62,4.48,1,7.88,1,7.88l.69,3.78H104.18l-.28-11.3S103.65,87.18,111.2,88.46Z"/></symbol><symbol id="_4" data-name="4" viewBox="0 0 200 250"><g id="baggrund_copy_3" data-name="baggrund copy 3"><rect class="cls-1" width="200" height="250"/></g><g id="ben_copy_3" data-name="ben copy 3"><path class="cls-2" d="M110.83,149.44S112,173,113.07,182.6s4.11,41.3,4.11,41.3l-5.08,1.52s-6.2-45.2-6.18-50.78-4.39-25.19-4.39-25.19"/><path class="cls-2" d="M98.21,152.31s0,22.69,1.15,32.24,4.82,41,4.82,41L99.1,227S92,186,92,180.45s-3.36-31-3.36-31"/></g><g id="benskygge_copy_3" data-name="benskygge copy 3"><path class="cls-3" d="M91.93,153.57l9.19,75.26-2.21.09S93.45,194.15,93,189.28s-4.34-36.85-4.34-36.85Z"/><path class="cls-3" d="M106.19,154s7.07,76.23,7.42,76.1A15.78,15.78,0,0,1,112,231s-6.61-48.73-6.87-52.68c-.24-3.68-2.72-25.92-2.72-25.92Z"/></g><g id="sko_copy_3" data-name="sko copy 3"><path class="cls-4" d="M104.32,224.36s-3.28,2.72-7,1.14a12.71,12.71,0,0,0-7.41-.62s-1.56.28-1.79,3.47c-.28,3.9.49,4.8,2.38,6s10.65-1,10.65-1,4.63,1.2,4.75-1.4S104.32,224.36,104.32,224.36Z"/><path class="cls-4" d="M116.85,222.89s-3,3.38-6.83,2.59a13,13,0,0,0-7.4.93s-1.52.6-1.49,3.82c0,3.92.88,4.65,2.84,5.45s10.48-3.25,10.48-3.25,4.69.23,4.6-2.38S116.85,222.89,116.85,222.89Z"/></g><g id="trøje_copy_3" data-name="trøje copy 3"><path class="cls-5" d="M103,79.52s0,0,0,0c.63.65,9.59,10,11.08,18,1.54,8.29,1.61,40.44,1.61,40.44s-13.18,1.74-18.26,2.28a108.05,108.05,0,0,1-13.81,0s-1.79-20.6-1.85-25.72S79.93,102,81.08,96.81a70.89,70.89,0,0,1,1.84-7.1l1.45-2.28,5.84-1.49a2.88,2.88,0,0,0,2.47,3.11c2.67.34,6,.36,7.3-1.31l1.35-1.67S103.6,80.54,103,79.52Z"/></g><g id="underkrop_copy_3" data-name="underkrop copy 3"><path class="cls-6" d="M115.73,129.28s6.48,22.63,4.43,22.83-7.59,0-9.83,3.11c-3.08,4.28-8-2.13-9.43-1.93s-2.42,3.15-5.16,3.61-3,.7-5.51-.91-4.19-.1-6.13.91a3,3,0,0,1-3.48-.8l2.9-24.26c9.3-1.07-1.33-.46,2.39-.62Z"/></g><g id="ny_arm_copy_3" data-name="ny arm copy 3"><path class="cls-2" d="M76.92,104.55s-1.42,14.65-.14,19.19,2.1,7,2.1,7c-.76,3.15.36,4,2.06,4.73,1.25.54,2.82-.41,3.57-.95a1.43,1.43,0,0,0,.58-.94,5.18,5.18,0,0,0-1.39-4.17c-2.17-2.58-4-8.7-4.14-11.53s1.51-13.33,1.51-13.33Z"/></g><g id="ærme2_copy_3" data-name="ærme2 copy 3"><path class="cls-6" d="M83.76,88.38s-7.91,4.49-8.58,8.24a39.34,39.34,0,0,0,0,9.38h7l.13-12.1S84.06,88.38,83.76,88.38Z"/></g><g id="iphone_copy_3" data-name="iphone copy 3"><polygon points="94.11 129.41 82.01 131.65 77.62 107.82 89.72 105.59 94.11 129.41"/><path d="M93.81,128.33l-12.1,2.23,1.38.79L78.7,107.52l-.79,1.38L90,106.67l-1.38-.79L93,129.71c.26,1.42,2.43.82,2.17-.6L90.8,105.29a1.15,1.15,0,0,0-1.38-.79l-12.1,2.23a1.15,1.15,0,0,0-.79,1.38l4.39,23.83a1.15,1.15,0,0,0,1.38.79l12.1-2.23C95.83,130.24,95.23,128.07,93.81,128.33Z"/><circle class="cls-7" cx="78.02" cy="108.25" r="0.94" transform="translate(-18.34 15.94) rotate(-10.45)"/><path class="cls-7" d="M93,127.42"/></g><g id="arme_copy_3" data-name="arme copy 3"><path class="cls-2" d="M113.07,103.7s-1.54,8.26-4.4,11-6.47,5-9.95,5.47a69.09,69.09,0,0,1-7.32.44s-3.07,1.08-4.83.37-2.95-3.31-2.95-3.31-.65-2.65.5-3.41,2.14-1.54,3.73-1.43A5.77,5.77,0,0,1,90.72,114l1,1.1s2,1.34,5.61.27,7.61-4.77,7.61-4.77a66.55,66.55,0,0,0,3.21-7.08C108.78,101.47,113.07,103.7,113.07,103.7Z"/></g><g id="hoved_copy_3" data-name="hoved copy 3"><path class="cls-2" d="M100.53,44s5.37-5.67,9.22,3S105,57.29,105,57.29s.25,6.75-.65,9.13a41.26,41.26,0,0,0-1.51,6.36l1.54,6.09s.83,7.44-3.66,9.4-7.33.19-7.33.19L93,86.9s-6.08,5-11.59,2.92-9.93-4.47-13.19-9.46S57.71,65.24,55.08,56.1s-3.82-14.81-3.82-14.81,11.48-1.07,17.53-2.1a58.17,58.17,0,0,0,12.43-4Z"/></g><g id="ansigt_copy_3" data-name="ansigt copy 3"><ellipse cx="82.9" cy="60.06" rx="2.33" ry="3.35" transform="translate(-12.18 22.12) rotate(-14.17)"/><ellipse class="cls-8" cx="82.12" cy="59.49" rx="0.76" ry="0.97" transform="translate(-12.07 21.91) rotate(-14.17)"/><ellipse class="cls-8" cx="83.55" cy="60.62" rx="0.56" ry="0.79" transform="translate(-12.3 22.3) rotate(-14.17)"/><ellipse cx="67.21" cy="64.33" rx="2.32" ry="3.33" transform="translate(-13.7 18.41) rotate(-14.17)"/><ellipse class="cls-8" cx="67.05" cy="63.71" rx="0.8" ry="1.04" transform="translate(-13.56 18.35) rotate(-14.17)"/><path class="cls-9" d="M89.08,51.11s-4.31,1.64-6.31,1.12A16.48,16.48,0,0,1,78,49.88l-1.32,3.78a49.1,49.1,0,0,0,6,.48c1.32-.13,6.91-1.28,6.91-1.28Z"/><path class="cls-9" d="M66.93,53.19l2.26,2.7A27.74,27.74,0,0,1,65,59.2a43.9,43.9,0,0,1-5.68,2.23l-.76-1.73s5-1.33,6-2.16C65.82,56.47,66.93,53.19,66.93,53.19Z"/><path class="cls-10" d="M84.81,76.8S76.55,72.32,74,79"/><path class="cls-3" d="M65.83,59.05l.32,0c1-.12,4.23-.39,5.05.67,1,1.28,2.15,2.22,2.11,5s-.41,3.89.78,4.65a4.91,4.91,0,0,0,3.65,1.07,27.16,27.16,0,0,0,3.92-1.79l-3.17.94s-3.48,0-3.63-1.25-.35-4.28-.54-5.32-1.55-5.3-3.1-5.67a4.28,4.28,0,0,1-1.87-.71l-2.4,2"/><ellipse class="cls-8" cx="66.95" cy="65.27" rx="0.51" ry="0.67" transform="translate(-15.56 21.28) rotate(-16.21)"/><path class="cls-11" d="M86.41,57.14s-.09,2.1-2,2.27"/><path class="cls-11" d="M87,58.47A2.34,2.34,0,0,1,84.37,60"/><path class="cls-11" d="M62.68,63.13a2.34,2.34,0,0,0,2.83,1.06"/><path class="cls-11" d="M62.83,64.5a2.34,2.34,0,0,0,3,.27"/></g><path class="cls-4" d="M104.57,64.62l2.34-3.46s2,2.4,1.72,3.4-4.38,3-4.38,3l-.21-.33Z"/><path class="cls-9" d="M108.66,64.23s22.53,18.65,18.15,23.14A24.71,24.71,0,0,1,115.72,94s.36-3.19-4.11-5.5L110,88.29l-8-8.57-1-5.89L104,67.24S108.6,65.54,108.66,64.23Z"/><path class="cls-9" d="M88.78,13.92c3-.64,8.48-.08,7.95,3-1.13,6.51-5.91,18.07-8.39,20.3-3.85,3.48-15.18,8.51-21.75,9.5s-14.45,4.78-15.95,3.49-6.12-8.94-4.4-13.39,10.49-12.12,15-13.6C64.5,22.14,79.91,15.8,88.78,13.92Z"/><path class="cls-9" d="M90.86,15.72S114.45,32.54,113.09,44s-8.23,20.27-8.23,20.27l.1-6.94s8.27-1.7,5.08-9.62c-1.74-4.3-5.4-4.55-8.38-3.89-3.29.74-5.9,2.27-8.6.25L86.5,37.61Z"/><path class="cls-12" d="M92.61,26.57c.36.21,1.14,13.57,3.79,13S100,35.77,100,35.77a1.13,1.13,0,0,1,2-.4c1.32,1.26-.15-4.15-.15-4.15Z"/><path class="cls-12" d="M80.14,21.07s-17.9,5.13-20.22,7.21S47.58,37.65,50.7,39.44s20-1.16,23-2.27S84.69,22.11,84.41,21,80.14,21.07,80.14,21.07Z"/><g id="kant_copy_3" data-name="kant copy 3"><path class="cls-6" d="M93,86.9s-3.2,2.09-3.74,2.26-.45,2,1.68,3.12c2.52,1.3,6.63.22,9.08-.67,1.74-.63,5.67-6.21,5.58-8.69-.08-2.19-3.6-3.2-3.6-3.2s1,2.13.56,3.38a19.82,19.82,0,0,1-3,5.06c-.75.64-3.69.67-4.3.67s-1.58.11-1.94-.82A4.22,4.22,0,0,1,93,86.9Z"/></g><g id="øre_copy_3" data-name="øre copy 3"><path class="cls-3" d="M104,46.43a4.3,4.3,0,0,1,3.12,2.48,4.44,4.44,0,0,1-.2,3.72.81.81,0,0,1-.17.22c-.34.31-1.5,1.29-2,.74a1.64,1.64,0,0,1-.43-1.23.78.78,0,0,1,.24-.52l.77-.77a.8.8,0,0,0,.15-1c-.26-.47-.7-1-1.27-.85-.93.31-2.11.29-2-.66S102.79,46,104,46.43Z"/></g><g id="skygger_copy_3" data-name="skygger copy 3"><path class="cls-12" d="M106.72,77s2.91-3.15,4.2-2.94,13.15,8,11.43,9.95a8,8,0,0,1-3.79,2.42Z"/><path class="cls-13" d="M94.76,227s-2.82-2.66-4.73-.92a2.36,2.36,0,0,0-.62,3.07S92.06,228.19,94.76,227Z"/><path class="cls-13" d="M107.76,228.51s-2.82-2.66-4.73-.92a2.36,2.36,0,0,0-.62,3.07S105.06,229.68,107.76,228.51Z"/><path class="cls-3" d="M100.92,73.55l-.63,2s1,4.42.75,5.71a39,39,0,0,1-.6,4c-.26.45-1.61,3.13-1.77,3.29s.32.24,1.3-.8a12.81,12.81,0,0,0,2.61-5c.39-1.51-.8-4-.8-4Z"/></g><path class="cls-6" d="M111.2,88.46a5.37,5.37,0,0,1,4.51,4.89c.62,4.48,1,7.88,1,7.88l.69,3.78H104.18l-.28-11.3S103.65,87.18,111.2,88.46Z"/></symbol><symbol id="_5" data-name="5" viewBox="0 0 200 250"><g id="baggrund_copy_4" data-name="baggrund copy 4"><rect class="cls-1" width="200" height="250"/></g><g id="ben_copy_4" data-name="ben copy 4"><path class="cls-2" d="M110.83,149.44S112,173,113.07,182.6s4.11,41.3,4.11,41.3l-5.08,1.52s-6.2-45.2-6.18-50.78-4.39-25.19-4.39-25.19"/><path class="cls-2" d="M98.21,152.31s0,22.69,1.15,32.24,4.82,41,4.82,41L99.1,227S92,186,92,180.45s-3.36-31-3.36-31"/></g><g id="benskygge_copy_4" data-name="benskygge copy 4"><path class="cls-3" d="M91.93,153.57l9.19,75.26-2.21.09S93.45,194.15,93,189.28s-4.34-36.85-4.34-36.85Z"/><path class="cls-3" d="M106.19,154s7.07,76.23,7.42,76.1A15.78,15.78,0,0,1,112,231s-6.61-48.73-6.87-52.68c-.24-3.68-2.72-25.92-2.72-25.92Z"/></g><g id="sko_copy_4" data-name="sko copy 4"><path class="cls-4" d="M104.32,224.36s-3.28,2.72-7,1.14a12.71,12.71,0,0,0-7.41-.62s-1.56.28-1.79,3.47c-.28,3.9.49,4.8,2.38,6s10.65-1,10.65-1,4.63,1.2,4.75-1.4S104.32,224.36,104.32,224.36Z"/><path class="cls-4" d="M116.85,222.89s-3,3.38-6.83,2.59a13,13,0,0,0-7.4.93s-1.52.6-1.49,3.82c0,3.92.88,4.65,2.84,5.45s10.48-3.25,10.48-3.25,4.69.23,4.6-2.38S116.85,222.89,116.85,222.89Z"/></g><g id="trøje_copy_4" data-name="trøje copy 4"><path class="cls-5" d="M103,79.52s0,0,0,0c.63.65,9.59,10,11.08,18,1.54,8.29,1.61,40.44,1.61,40.44s-13.18,1.74-18.26,2.28a108.05,108.05,0,0,1-13.81,0s-1.79-20.6-1.85-25.72S79.93,102,81.08,96.81a70.89,70.89,0,0,1,1.84-7.1l1.45-2.28,5.84-1.49a2.88,2.88,0,0,0,2.47,3.11c2.67.34,6,.36,7.3-1.31l1.35-1.67S103.6,80.54,103,79.52Z"/></g><g id="underkrop_copy_4" data-name="underkrop copy 4"><path class="cls-6" d="M115.73,129.28s6.48,22.63,4.43,22.83-7.59,0-9.83,3.11c-3.08,4.28-8-2.13-9.43-1.93s-2.42,3.15-5.16,3.61-3,.7-5.51-.91-4.19-.1-6.13.91a3,3,0,0,1-3.48-.8l2.9-24.26c9.3-1.07-1.33-.46,2.39-.62Z"/></g><g id="ny_arm_copy_4" data-name="ny arm copy 4"><path class="cls-2" d="M76.92,104.55s-1.42,14.65-.14,19.19,2.1,7,2.1,7c-.76,3.15.36,4,2.06,4.73,1.25.54,2.82-.41,3.57-.95a1.43,1.43,0,0,0,.58-.94,5.18,5.18,0,0,0-1.39-4.17c-2.17-2.58-4-8.7-4.14-11.53s1.51-13.33,1.51-13.33Z"/></g><g id="ærme2_copy_4" data-name="ærme2 copy 4"><path class="cls-6" d="M83.76,88.38s-7.91,4.49-8.58,8.24a39.34,39.34,0,0,0,0,9.38h7l.13-12.1S84.06,88.38,83.76,88.38Z"/></g><g id="iphone_copy_4" data-name="iphone copy 4"><polygon points="93.06 126.47 80.96 128.7 76.57 104.88 88.67 102.64 93.06 126.47"/><path d="M92.76,125.39l-12.1,2.23,1.38.79-4.39-23.83L76.87,106,89,103.73l-1.38-.79L92,126.77c.26,1.42,2.43.82,2.17-.6l-4.39-23.83a1.15,1.15,0,0,0-1.38-.79l-12.1,2.23a1.15,1.15,0,0,0-.79,1.38L79.88,129a1.15,1.15,0,0,0,1.38.79l12.1-2.23C94.78,127.29,94.18,125.13,92.76,125.39Z"/><circle class="cls-7" cx="77.08" cy="105.46" r="0.94" transform="translate(-17.85 15.73) rotate(-10.45)"/><path class="cls-7" d="M93,127.42"/></g><g id="arme_copy_4" data-name="arme copy 4"><path class="cls-2" d="M113.07,103.7s-1.54,8.26-4.4,11-6.47,5-9.95,5.47a69.09,69.09,0,0,1-7.32.44s-3.07,1.08-4.83.37-2.95-3.31-2.95-3.31-.65-2.65.5-3.41,2.14-1.54,3.73-1.43A5.77,5.77,0,0,1,90.72,114l1,1.1s2,1.34,5.61.27,7.61-4.77,7.61-4.77a66.55,66.55,0,0,0,3.21-7.08C108.78,101.47,113.07,103.7,113.07,103.7Z"/></g><g id="hoved_copy_4" data-name="hoved copy 4"><path class="cls-2" d="M99,44.32s5.1-5.92,9.35,2.55-4.29,10.56-4.29,10.56.56,6.73-.22,9.15A41.26,41.26,0,0,0,102.67,73l1.82,6s1.17,7.39-3.22,9.56-7.31.53-7.31.53l-.47-1.54S87.67,92.87,82.06,91s-10.13-4-13.62-8.83S57.28,67.58,54.22,58.58,49.7,44,49.7,44,61.12,42.36,67.11,41a58.17,58.17,0,0,0,12.23-4.55Z"/></g><g id="ansigt_copy_4" data-name="ansigt copy 4"><path class="cls-9" d="M87.95,52s-4.23,1.84-6.25,1.42A11.2,11.2,0,0,1,77,50.66l-1.32,3.22s4.69,1.64,6,1.44,6.84-1.6,6.84-1.6Z"/><path class="cls-9" d="M65.37,55.11l2.55,2.26a17.37,17.37,0,0,1-3.66,3.84,43.9,43.9,0,0,1-5.57,2.49L57.86,62s5-1.57,5.91-2.44C65,58.45,65.37,55.11,65.37,55.11Z"/><path class="cls-10" d="M84.81,76.8S76.55,72.32,74,79"/><path class="cls-3" d="M65.1,61l.32-.06c1-.17,4.2-.59,5.08.43,1,1.23,2.25,2.11,2.34,4.85s-.23,3.91,1,4.61a4.91,4.91,0,0,0,3.69.89,27.16,27.16,0,0,0,3.83-2l-3.12,1.09s-3.47.2-3.68-1.07-.55-4.26-.79-5.29S72,59.29,70.41,59a4.28,4.28,0,0,1-1.9-.62L66.2,60.48"/><path class="cls-11" d="M85.57,58.15s0,2.1-1.88,2.36"/><path class="cls-11" d="M86.18,59.45a2.34,2.34,0,0,1-2.52,1.66"/><path class="cls-11" d="M62.14,65.25a2.34,2.34,0,0,0,2.87.92"/><path class="cls-11" d="M62.35,66.6a2.34,2.34,0,0,0,3,.13"/><path class="cls-15" d="M77.34,62.28s1.68-5.59,6.51-1.12"/><path class="cls-15" d="M64.94,68.36s-.34-5.83,5.73-3.28"/></g><path class="cls-4" d="M104.06,64.76l2.17-3.57s2.16,2.3,1.88,3.32-4.23,3.22-4.23,3.22l-.23-.32Z"/><path class="cls-9" d="M108.13,64.29s23.38,18.46,19.21,23.15a36.05,36.05,0,0,1-11.62,8.37s.71-3-3.48-6.08L110,89.31,102.15,81l-1.26-5.84,2.76-7.61S108.13,65.6,108.13,64.29Z"/><path class="cls-9" d="M85.9,14.87c3-.78,8.46-.48,8.08,2.58-.82,6.55-5.06,18.33-7.42,20.68-3.68,3.66-14.76,9.22-21.28,10.51s-14.21,5.45-15.76,4.23-6.53-8.65-5-13.17,9.91-12.6,14.38-14.29C62,24.21,77.13,17.16,85.9,14.87Z"/><path class="cls-9" d="M88.06,16.56s24.36,15.69,23.53,27.16-7.37,20.74-7.37,20.74l-.12-7s8.19-2.09,4.62-9.85c-1.94-4.22-5.61-4.3-8.55-3.49-3.25.89-5.79,2.55-8.58.66l-6.85-6.11Z"/><path class="cls-12" d="M90.32,27.32c.37.19,1.78,13.5,4.39,12.81s3.44-4,3.44-4a1.13,1.13,0,0,1,2-.5c1.37,1.2-.34-4.14-.34-4.14Z"/><path class="cls-12" d="M77.61,22.41s-17.64,6-19.86,8.15-11.89,9.94-8.69,11.58S69,40.05,72,38.79s10.23-15.55,9.9-16.61S77.61,22.41,77.61,22.41Z"/><g id="kant_copy_4" data-name="kant copy 4"><path class="cls-6" d="M93.51,87.57a13.2,13.2,0,0,1-2.22,1.63c-.54.16-1.87,1.63.26,2.73,2.52,1.3,6,.57,8.43-.32,1.74-.63,5.67-6.21,5.58-8.69-.08-2.19-3.6-3.2-3.6-3.2s1,2.13.56,3.38a19.82,19.82,0,0,1-3,5.06c-.75.64-3.69.67-4.3.67s-1.14.24-1.5-.69C93.43,87.51,93.51,87.57,93.51,87.57Z"/></g><g id="øre_copy_4" data-name="øre copy 4"><path class="cls-3" d="M102.63,46.62A4.3,4.3,0,0,1,105.86,49a4.44,4.44,0,0,1,0,3.72.81.81,0,0,1-.16.23c-.33.33-1.43,1.35-2,.84a1.64,1.64,0,0,1-.49-1.21.78.78,0,0,1,.21-.53l.74-.8a.8.8,0,0,0,.1-1c-.28-.46-.74-1-1.31-.79-.92.36-2.09.39-2.06-.56S101.4,46.25,102.63,46.62Z"/></g><g id="skygger_copy_4" data-name="skygger copy 4"><path class="cls-12" d="M106.72,77s2.91-3.15,4.2-2.94,13.15,8,11.43,9.95a8,8,0,0,1-3.79,2.42Z"/><path class="cls-13" d="M94.76,227s-2.82-2.66-4.73-.92a2.36,2.36,0,0,0-.62,3.07S92.06,228.19,94.76,227Z"/><path class="cls-13" d="M107.76,228.51s-2.82-2.66-4.73-.92a2.36,2.36,0,0,0-.62,3.07S105.06,229.68,107.76,228.51Z"/><path class="cls-3" d="M100.92,73.55l-.63,2s1,4.42.75,5.71a39,39,0,0,1-.6,4c-.26.45-1.61,3.13-1.77,3.29s.32.24,1.3-.8a12.81,12.81,0,0,0,2.61-5c.39-1.51-.8-4-.8-4Z"/></g><path class="cls-6" d="M111.2,88.46a5.37,5.37,0,0,1,4.51,4.89c.62,4.48,1,7.88,1,7.88l.69,3.78H104.18l-.28-11.3S103.65,87.18,111.2,88.46Z"/></symbol><symbol id="_6" data-name="6" viewBox="0 0 200 250"><g id="baggrund_copy_5" data-name="baggrund copy 5"><rect class="cls-1" width="200" height="250"/></g><g id="ben_copy_5" data-name="ben copy 5"><path class="cls-2" d="M107.27,149.44s1.12,23.61,2.24,33.16,4.11,41.3,4.11,41.3l-5.08,1.52s-6.2-45.2-6.18-50.78S98,149.44,98,149.44"/><path class="cls-2" d="M94.65,152.31s0,22.69,1.15,32.24,4.82,41,4.82,41L95.53,227s-7.1-41-7.08-46.56-3.36-31-3.36-31"/></g><g id="benskygge_copy_5" data-name="benskygge copy 5"><path class="cls-3" d="M88.37,153.57l9.19,75.26-2.21.09s-5.46-34.77-5.92-39.64-4.34-36.85-4.34-36.85Z"/><path class="cls-3" d="M102.63,154s7.07,76.23,7.42,76.1a15.78,15.78,0,0,1-1.57.93s-6.61-48.73-6.87-52.68c-.24-3.68-2.72-25.92-2.72-25.92Z"/></g><g id="sko_copy_5" data-name="sko copy 5"><path class="cls-4" d="M100.76,224.36s-3.28,2.72-7,1.14a12.71,12.71,0,0,0-7.41-.62s-1.56.28-1.79,3.47c-.28,3.9.49,4.8,2.38,6s10.65-1,10.65-1,4.63,1.2,4.75-1.4S100.76,224.36,100.76,224.36Z"/><path class="cls-4" d="M113.29,222.89s-3,3.38-6.83,2.59a13,13,0,0,0-7.4.93s-1.52.6-1.49,3.82c0,3.92.88,4.65,2.84,5.45s10.48-3.25,10.48-3.25,4.69.23,4.6-2.38S113.29,222.89,113.29,222.89Z"/></g><g id="trøje_copy_5" data-name="trøje copy 5"><path class="cls-5" d="M99.47,79.52s0,0,0,0c.63.65,9.59,10,11.08,18,1.54,8.29,1.61,40.44,1.61,40.44S99,139.7,93.9,140.25a108.05,108.05,0,0,1-13.81,0s-1.79-20.6-1.85-25.72S76.37,102,77.51,96.81a70.89,70.89,0,0,1,1.84-7.1l1.45-2.28,5.84-1.49a2.88,2.88,0,0,0,2.47,3.11c2.67.34,6,.36,7.3-1.31l1.35-1.67S100,80.54,99.47,79.52Z"/></g><g id="underkrop_copy_5" data-name="underkrop copy 5"><path class="cls-6" d="M112.17,129.28s6.48,22.63,4.43,22.83-7.59,0-9.83,3.11c-3.08,4.28-8-2.13-9.43-1.93s-2.42,3.15-5.16,3.61-3,.7-5.51-.91-4.19-.1-6.13.91a3,3,0,0,1-3.48-.8L80,131.83c9.3-1.07-1.33-.46,2.39-.62Z"/></g><g id="ny_arm_copy_5" data-name="ny arm copy 5"><path class="cls-2" d="M73.36,104.55s-1.42,14.65-.14,19.19,2.1,7,2.1,7c-.76,3.15.36,4,2.06,4.73,1.25.54,2.82-.41,3.57-.95a1.43,1.43,0,0,0,.58-.94,5.18,5.18,0,0,0-1.39-4.17c-2.17-2.58-4-8.7-4.14-11.53s1.51-13.33,1.51-13.33Z"/></g><g id="ærme2_copy_5" data-name="ærme2 copy 5"><path class="cls-6" d="M80.19,88.38s-7.91,4.49-8.58,8.24a39.34,39.34,0,0,0,0,9.38h7l.13-12.1S80.5,88.38,80.19,88.38Z"/></g><g id="iphone_copy_5" data-name="iphone copy 5"><polygon points="89.5 126.47 77.4 128.7 73 104.88 85.1 102.64 89.5 126.47"/><path d="M89.2,125.39l-12.1,2.23,1.38.79-4.39-23.83L73.3,106l12.1-2.23L84,102.94l4.39,23.83c.26,1.42,2.43.82,2.17-.6l-4.39-23.83a1.15,1.15,0,0,0-1.38-.79l-12.1,2.23a1.15,1.15,0,0,0-.79,1.38L76.31,129a1.15,1.15,0,0,0,1.38.79l12.1-2.23C91.22,127.29,90.62,125.13,89.2,125.39Z"/><circle class="cls-7" cx="73.51" cy="105.46" r="0.94" transform="translate(-17.91 15.08) rotate(-10.45)"/><path class="cls-7" d="M89.4,127.42"/></g><g id="arme_copy_5" data-name="arme copy 5"><path class="cls-2" d="M109.51,103.7s-1.54,8.26-4.4,11-6.47,5-9.95,5.47a69.09,69.09,0,0,1-7.32.44S84.77,121.7,83,121s-2.95-3.31-2.95-3.31-.65-2.65.5-3.41,2.14-1.54,3.73-1.43A5.77,5.77,0,0,1,87.15,114l1,1.1s2,1.34,5.61.27,7.61-4.77,7.61-4.77a66.55,66.55,0,0,0,3.21-7.08C105.22,101.47,109.51,103.7,109.51,103.7Z"/></g><g id="hoved_copy_5" data-name="hoved copy 5"><path class="cls-2" d="M95.48,44.32s5.1-5.92,9.35,2.55-4.29,10.56-4.29,10.56.56,6.73-.22,9.15A41.26,41.26,0,0,0,99.11,73l1.82,6s1.17,7.39-3.22,9.56-7.31.53-7.31.53l-.47-1.54S84.1,92.87,78.5,91s-10.13-4-13.62-8.83S53.72,67.58,50.65,58.58,46.14,44,46.14,44,57.55,42.36,63.55,41a58.17,58.17,0,0,0,12.23-4.55Z"/></g><g id="ansigt_copy_5" data-name="ansigt copy 5"><path class="cls-9" d="M84.38,52s-4.23,1.84-6.25,1.42a11.2,11.2,0,0,1-4.74-2.76l-1.32,3.22s4.69,1.64,6,1.44,6.84-1.6,6.84-1.6Z"/><path class="cls-9" d="M61.81,55.11l2.55,2.26a17.37,17.37,0,0,1-3.66,3.84,43.9,43.9,0,0,1-5.57,2.49L54.3,62s5-1.57,5.91-2.44C61.4,58.45,61.81,55.11,61.81,55.11Z"/><path class="cls-10" d="M81.25,76.8S73,72.32,70.46,79"/><path class="cls-3" d="M61.54,61l.32-.06c1-.17,4.2-.59,5.08.43,1,1.23,2.25,2.11,2.34,4.85s-.23,3.91,1,4.61a4.91,4.91,0,0,0,3.69.89,27.16,27.16,0,0,0,3.83-2l-3.12,1.09s-3.47.2-3.68-1.07-.55-4.26-.79-5.29S68.42,59.29,66.84,59a4.28,4.28,0,0,1-1.9-.62l-2.31,2.11"/><path class="cls-11" d="M82,58.15s0,2.1-1.88,2.36"/><path class="cls-11" d="M82.62,59.45a2.34,2.34,0,0,1-2.52,1.66"/><path class="cls-11" d="M58.58,65.25a2.34,2.34,0,0,0,2.87.92"/><path class="cls-11" d="M58.79,66.6a2.34,2.34,0,0,0,3,.13"/><path class="cls-15" d="M73.77,62.28s1.68-5.59,6.51-1.12"/><path class="cls-15" d="M61.38,68.36s-.34-5.83,5.73-3.28"/><path class="cls-16" d="M81.07,62s-.49,3.88,1.18,3.79,1.36-1.35,1.36-1.35S81.76,61.79,81.07,62Z"/></g><path class="cls-4" d="M100.49,64.76l2.17-3.57s2.16,2.3,1.88,3.32-4.23,3.22-4.23,3.22l-.23-.32Z"/><path class="cls-9" d="M104.57,64.29s23.38,18.46,19.21,23.15a36.05,36.05,0,0,1-11.62,8.37s.71-3-3.48-6.08l-2.23-.42L98.59,81l-1.26-5.84,2.76-7.61S104.56,65.6,104.57,64.29Z"/><path class="cls-9" d="M82.33,14.87c3-.78,8.46-.48,8.08,2.58C89.59,24,85.36,35.77,83,38.12c-3.68,3.66-14.76,9.22-21.28,10.51S47.5,54.09,45.95,52.87s-6.53-8.65-5-13.17,9.91-12.6,14.38-14.29C58.47,24.21,73.56,17.16,82.33,14.87Z"/><path class="cls-9" d="M84.5,16.56S108.86,32.25,108,43.72s-7.37,20.74-7.37,20.74l-.12-7s8.19-2.09,4.62-9.85c-1.94-4.22-5.61-4.3-8.55-3.49-3.25.89-5.79,2.55-8.58.66l-6.85-6.11Z"/><path class="cls-12" d="M86.76,27.32c.37.19,1.78,13.5,4.39,12.81s3.44-4,3.44-4a1.13,1.13,0,0,1,2-.5c1.37,1.2-.34-4.14-.34-4.14Z"/><path class="cls-12" d="M74,22.41s-17.64,6-19.86,8.15S42.3,40.51,45.49,42.15s19.93-2.1,22.91-3.36,10.23-15.55,9.9-16.61S74,22.41,74,22.41Z"/><g id="kant_copy_5" data-name="kant copy 5"><path class="cls-6" d="M89.94,87.57a13.2,13.2,0,0,1-2.22,1.63c-.54.16-1.87,1.63.26,2.73,2.52,1.3,6,.57,8.43-.32,1.74-.63,5.67-6.21,5.58-8.69-.08-2.19-3.6-3.2-3.6-3.2s1,2.13.56,3.38a19.82,19.82,0,0,1-3,5.06c-.75.64-3.69.67-4.3.67s-1.14.24-1.5-.69C89.87,87.51,89.94,87.57,89.94,87.57Z"/></g><g id="øre_copy_5" data-name="øre copy 5"><path class="cls-3" d="M99.07,46.62A4.3,4.3,0,0,1,102.3,49a4.44,4.44,0,0,1,0,3.72.81.81,0,0,1-.16.23c-.33.33-1.43,1.35-2,.84a1.64,1.64,0,0,1-.49-1.21.78.78,0,0,1,.21-.53l.74-.8a.8.8,0,0,0,.1-1c-.28-.46-.74-1-1.31-.79-.92.36-2.09.39-2.06-.56S97.84,46.25,99.07,46.62Z"/></g><g id="skygger_copy_5" data-name="skygger copy 5"><path class="cls-12" d="M103.16,77s2.91-3.15,4.2-2.94,13.15,8,11.43,9.95A8,8,0,0,1,115,86.48Z"/><path class="cls-13" d="M91.2,227s-2.82-2.66-4.73-.92a2.36,2.36,0,0,0-.62,3.07S88.5,228.19,91.2,227Z"/><path class="cls-13" d="M104.2,228.51s-2.82-2.66-4.73-.92a2.36,2.36,0,0,0-.62,3.07S101.5,229.68,104.2,228.51Z"/><path class="cls-3" d="M97.36,73.55l-.63,2s1,4.42.75,5.71a39,39,0,0,1-.6,4c-.26.45-1.61,3.13-1.77,3.29s.32.24,1.3-.8a12.81,12.81,0,0,0,2.61-5c.39-1.51-.8-4-.8-4Z"/></g><path class="cls-6" d="M107.64,88.46a5.37,5.37,0,0,1,4.51,4.89c.62,4.48,1,7.88,1,7.88l.69,3.78H100.61l-.28-11.3S100.09,87.18,107.64,88.46Z"/></symbol><symbol id="_7" data-name="7" viewBox="0 0 200 250"><g id="baggrund_copy_6" data-name="baggrund copy 6"><rect class="cls-1" width="200" height="250"/></g><g id="ben_copy_6" data-name="ben copy 6"><path class="cls-2" d="M110.83,149.44S112,173,113.07,182.6s4.11,41.3,4.11,41.3l-5.08,1.52s-6.2-45.2-6.18-50.78-4.39-25.19-4.39-25.19"/><path class="cls-2" d="M98.21,152.31s0,22.69,1.15,32.24,4.82,41,4.82,41L99.1,227S92,186,92,180.45s-3.36-31-3.36-31"/></g><g id="benskygge_copy_6" data-name="benskygge copy 6"><path class="cls-3" d="M91.93,153.57l9.19,75.26-2.21.09S93.45,194.15,93,189.28s-4.34-36.85-4.34-36.85Z"/><path class="cls-3" d="M106.19,154s7.07,76.23,7.42,76.1A15.78,15.78,0,0,1,112,231s-6.61-48.73-6.87-52.68c-.24-3.68-2.72-25.92-2.72-25.92Z"/></g><g id="sko_copy_6" data-name="sko copy 6"><path class="cls-4" d="M104.32,224.36s-3.28,2.72-7,1.14a12.71,12.71,0,0,0-7.41-.62s-1.56.28-1.79,3.47c-.28,3.9.49,4.8,2.38,6s10.65-1,10.65-1,4.63,1.2,4.75-1.4S104.32,224.36,104.32,224.36Z"/><path class="cls-4" d="M116.85,222.89s-3,3.38-6.83,2.59a13,13,0,0,0-7.4.93s-1.52.6-1.49,3.82c0,3.92.88,4.65,2.84,5.45s10.48-3.25,10.48-3.25,4.69.23,4.6-2.38S116.85,222.89,116.85,222.89Z"/></g><g id="trøje_copy_6" data-name="trøje copy 6"><path class="cls-5" d="M103,79.52s0,0,0,0c.63.65,9.59,10,11.08,18,1.54,8.29,1.61,40.44,1.61,40.44s-13.18,1.74-18.26,2.28a108.05,108.05,0,0,1-13.81,0s-1.79-20.6-1.85-25.72S79.93,102,81.08,96.81a70.89,70.89,0,0,1,1.84-7.1l1.45-2.28,5.84-1.49a2.88,2.88,0,0,0,2.47,3.11c2.67.34,6,.36,7.3-1.31l1.35-1.67S103.6,80.54,103,79.52Z"/></g><g id="underkrop_copy_6" data-name="underkrop copy 6"><path class="cls-6" d="M115.73,129.28s6.48,22.63,4.43,22.83-7.59,0-9.83,3.11c-3.08,4.28-8-2.13-9.43-1.93s-2.42,3.15-5.16,3.61-3,.7-5.51-.91-4.19-.1-6.13.91a3,3,0,0,1-3.48-.8l2.9-24.26c9.3-1.07-1.33-.46,2.39-.62Z"/></g><g id="ny_arm_copy_6" data-name="ny arm copy 6"><path class="cls-2" d="M76.92,104.55s-1.42,14.65-.14,19.19,2.1,7,2.1,7c-.76,3.15.36,4,2.06,4.73,1.25.54,2.82-.41,3.57-.95a1.43,1.43,0,0,0,.58-.94,5.18,5.18,0,0,0-1.39-4.17c-2.17-2.58-4-8.7-4.14-11.53s1.51-13.33,1.51-13.33Z"/></g><g id="ærme2_copy_6" data-name="ærme2 copy 6"><path class="cls-6" d="M83.76,88.38s-7.91,4.49-8.58,8.24a39.34,39.34,0,0,0,0,9.38h7l.13-12.1S84.06,88.38,83.76,88.38Z"/></g><g id="iphone_copy_6" data-name="iphone copy 6"><polygon points="93.06 126.47 80.96 128.7 76.57 104.88 88.67 102.64 93.06 126.47"/><path d="M92.76,125.39l-12.1,2.23,1.38.79-4.39-23.83L76.87,106,89,103.73l-1.38-.79L92,126.77c.26,1.42,2.43.82,2.17-.6l-4.39-23.83a1.15,1.15,0,0,0-1.38-.79l-12.1,2.23a1.15,1.15,0,0,0-.79,1.38L79.88,129a1.15,1.15,0,0,0,1.38.79l12.1-2.23C94.78,127.29,94.18,125.13,92.76,125.39Z"/><circle class="cls-7" cx="77.08" cy="105.46" r="0.94" transform="translate(-17.85 15.73) rotate(-10.45)"/><path class="cls-7" d="M93,127.42"/></g><g id="arme_copy_6" data-name="arme copy 6"><path class="cls-2" d="M113.07,103.7s-1.54,8.26-4.4,11-6.47,5-9.95,5.47a69.09,69.09,0,0,1-7.32.44s-3.07,1.08-4.83.37-2.95-3.31-2.95-3.31-.65-2.65.5-3.41,2.14-1.54,3.73-1.43A5.77,5.77,0,0,1,90.72,114l1,1.1s2,1.34,5.61.27,7.61-4.77,7.61-4.77a66.55,66.55,0,0,0,3.21-7.08C108.78,101.47,113.07,103.7,113.07,103.7Z"/></g><g id="hoved_copy_6" data-name="hoved copy 6"><path class="cls-2" d="M99,44.32s5.1-5.92,9.35,2.55-4.29,10.56-4.29,10.56.56,6.73-.22,9.15A41.26,41.26,0,0,0,102.67,73l1.82,6s1.17,7.39-3.22,9.56-7.31.53-7.31.53l-.47-1.54S87.67,92.87,82.06,91s-10.13-4-13.62-8.83S57.28,67.58,54.22,58.58,49.7,44,49.7,44,61.12,42.36,67.11,41a58.17,58.17,0,0,0,12.23-4.55Z"/></g><g id="ansigt_copy_6" data-name="ansigt copy 6"><path class="cls-9" d="M87.95,52s-4.23,1.84-6.25,1.42A11.2,11.2,0,0,1,77,50.66l-1.32,3.22s4.69,1.64,6,1.44,6.84-1.6,6.84-1.6Z"/><path class="cls-9" d="M65.37,55.11l2.55,2.26a17.37,17.37,0,0,1-3.66,3.84,43.9,43.9,0,0,1-5.57,2.49L57.86,62s5-1.57,5.91-2.44C65,58.45,65.37,55.11,65.37,55.11Z"/><path class="cls-10" d="M84.81,76.8S76.55,72.32,74,79"/><path class="cls-3" d="M65.1,61l.32-.06c1-.17,4.2-.59,5.08.43,1,1.23,2.25,2.11,2.34,4.85s-.23,3.91,1,4.61a4.91,4.91,0,0,0,3.69.89,27.16,27.16,0,0,0,3.83-2l-3.12,1.09s-3.47.2-3.68-1.07-.55-4.26-.79-5.29S72,59.29,70.41,59a4.28,4.28,0,0,1-1.9-.62L66.2,60.48"/><path class="cls-11" d="M85.57,58.15s0,2.1-1.88,2.36"/><path class="cls-11" d="M86.18,59.45a2.34,2.34,0,0,1-2.52,1.66"/><path class="cls-11" d="M62.14,65.25a2.34,2.34,0,0,0,2.87.92"/><path class="cls-11" d="M62.35,66.6a2.34,2.34,0,0,0,3,.13"/><path class="cls-15" d="M77.34,62.28s1.68-5.59,6.51-1.12"/><path class="cls-15" d="M64.94,68.36s-.34-5.83,5.73-3.28"/><path class="cls-16" d="M84.63,62s-.49,3.88,1.18,3.79,1.36-1.35,1.36-1.35S85.32,61.79,84.63,62Z"/></g><path class="cls-4" d="M104.06,64.76l2.17-3.57s2.16,2.3,1.88,3.32-4.23,3.22-4.23,3.22l-.23-.32Z"/><path class="cls-9" d="M108.13,64.29s23.38,18.46,19.21,23.15a36.05,36.05,0,0,1-11.62,8.37s.71-3-3.48-6.08L110,89.31,102.15,81l-1.26-5.84,2.76-7.61S108.13,65.6,108.13,64.29Z"/><path class="cls-9" d="M85.9,14.87c3-.78,8.46-.48,8.08,2.58-.82,6.55-5.06,18.33-7.42,20.68-3.68,3.66-14.76,9.22-21.28,10.51s-14.21,5.45-15.76,4.23-6.53-8.65-5-13.17,9.91-12.6,14.38-14.29C62,24.21,77.13,17.16,85.9,14.87Z"/><path class="cls-9" d="M88.06,16.56s24.36,15.69,23.53,27.16-7.37,20.74-7.37,20.74l-.12-7s8.19-2.09,4.62-9.85c-1.94-4.22-5.61-4.3-8.55-3.49-3.25.89-5.79,2.55-8.58.66l-6.85-6.11Z"/><path class="cls-12" d="M90.32,27.32c.37.19,1.78,13.5,4.39,12.81s3.44-4,3.44-4a1.13,1.13,0,0,1,2-.5c1.37,1.2-.34-4.14-.34-4.14Z"/><path class="cls-12" d="M77.61,22.41s-17.64,6-19.86,8.15-11.89,9.94-8.69,11.58S69,40.05,72,38.79s10.23-15.55,9.9-16.61S77.61,22.41,77.61,22.41Z"/><path class="cls-16" d="M87.63,68s-.49,3.88,1.18,3.79,1.36-1.35,1.36-1.35S88.32,67.79,87.63,68Z"/><g id="kant_copy_6" data-name="kant copy 6"><path class="cls-6" d="M93.51,87.57a13.2,13.2,0,0,1-2.22,1.63c-.54.16-1.87,1.63.26,2.73,2.52,1.3,6,.57,8.43-.32,1.74-.63,5.67-6.21,5.58-8.69-.08-2.19-3.6-3.2-3.6-3.2s1,2.13.56,3.38a19.82,19.82,0,0,1-3,5.06c-.75.64-3.69.67-4.3.67s-1.14.24-1.5-.69C93.43,87.51,93.51,87.57,93.51,87.57Z"/></g><g id="øre_copy_6" data-name="øre copy 6"><path class="cls-3" d="M102.63,46.62A4.3,4.3,0,0,1,105.86,49a4.44,4.44,0,0,1,0,3.72.81.81,0,0,1-.16.23c-.33.33-1.43,1.35-2,.84a1.64,1.64,0,0,1-.49-1.21.78.78,0,0,1,.21-.53l.74-.8a.8.8,0,0,0,.1-1c-.28-.46-.74-1-1.31-.79-.92.36-2.09.39-2.06-.56S101.4,46.25,102.63,46.62Z"/></g><g id="skygger_copy_6" data-name="skygger copy 6"><path class="cls-12" d="M106.72,77s2.91-3.15,4.2-2.94,13.15,8,11.43,9.95a8,8,0,0,1-3.79,2.42Z"/><path class="cls-13" d="M94.76,227s-2.82-2.66-4.73-.92a2.36,2.36,0,0,0-.62,3.07S92.06,228.19,94.76,227Z"/><path class="cls-13" d="M107.76,228.51s-2.82-2.66-4.73-.92a2.36,2.36,0,0,0-.62,3.07S105.06,229.68,107.76,228.51Z"/><path class="cls-3" d="M100.92,73.55l-.63,2s1,4.42.75,5.71a39,39,0,0,1-.6,4c-.26.45-1.61,3.13-1.77,3.29s.32.24,1.3-.8a12.81,12.81,0,0,0,2.61-5c.39-1.51-.8-4-.8-4Z"/></g><path class="cls-6" d="M111.2,88.46a5.37,5.37,0,0,1,4.51,4.89c.62,4.48,1,7.88,1,7.88l.69,3.78H104.18l-.28-11.3S103.65,87.18,111.2,88.46Z"/></symbol><symbol id="_8" data-name="8" viewBox="0 0 200 250"><g id="baggrund_copy_7" data-name="baggrund copy 7"><rect class="cls-1" width="200" height="250"/></g><g id="ben_copy_7" data-name="ben copy 7"><path class="cls-2" d="M110.83,149.44S112,173,113.07,182.6s4.11,41.3,4.11,41.3l-5.08,1.52s-6.2-45.2-6.18-50.78-4.39-25.19-4.39-25.19"/><path class="cls-2" d="M98.21,152.31s0,22.69,1.15,32.24,4.82,41,4.82,41L99.1,227S92,186,92,180.45s-3.36-31-3.36-31"/></g><g id="benskygge_copy_7" data-name="benskygge copy 7"><path class="cls-3" d="M91.93,153.57l9.19,75.26-2.21.09S93.45,194.15,93,189.28s-4.34-36.85-4.34-36.85Z"/><path class="cls-3" d="M106.19,154s7.07,76.23,7.42,76.1A15.78,15.78,0,0,1,112,231s-6.61-48.73-6.87-52.68c-.24-3.68-2.72-25.92-2.72-25.92Z"/></g><g id="sko_copy_7" data-name="sko copy 7"><path class="cls-4" d="M104.32,224.36s-3.28,2.72-7,1.14a12.71,12.71,0,0,0-7.41-.62s-1.56.28-1.79,3.47c-.28,3.9.49,4.8,2.38,6s10.65-1,10.65-1,4.63,1.2,4.75-1.4S104.32,224.36,104.32,224.36Z"/><path class="cls-4" d="M116.85,222.89s-3,3.38-6.83,2.59a13,13,0,0,0-7.4.93s-1.52.6-1.49,3.82c0,3.92.88,4.65,2.84,5.45s10.48-3.25,10.48-3.25,4.69.23,4.6-2.38S116.85,222.89,116.85,222.89Z"/></g><g id="trøje_copy_7" data-name="trøje copy 7"><path class="cls-5" d="M103,79.52s0,0,0,0c.63.65,9.59,10,11.08,18,1.54,8.29,1.61,40.44,1.61,40.44s-13.18,1.74-18.26,2.28a108.05,108.05,0,0,1-13.81,0s-1.79-20.6-1.85-25.72S79.93,102,81.08,96.81a70.89,70.89,0,0,1,1.84-7.1l1.45-2.28,5.84-1.49a2.88,2.88,0,0,0,2.47,3.11c2.67.34,6,.36,7.3-1.31l1.35-1.67S103.6,80.54,103,79.52Z"/></g><g id="underkrop_copy_7" data-name="underkrop copy 7"><path class="cls-6" d="M115.73,129.28s6.48,22.63,4.43,22.83-7.59,0-9.83,3.11c-3.08,4.28-8-2.13-9.43-1.93s-2.42,3.15-5.16,3.61-3,.7-5.51-.91-4.19-.1-6.13.91a3,3,0,0,1-3.48-.8l2.9-24.26c9.3-1.07-1.33-.46,2.39-.62Z"/></g><g id="ny_arm_copy_7" data-name="ny arm copy 7"><path class="cls-2" d="M76.92,104.55s-1.42,14.65-.14,19.19,2.1,7,2.1,7c-.76,3.15.36,4,2.06,4.73,1.25.54,2.82-.41,3.57-.95a1.43,1.43,0,0,0,.58-.94,5.18,5.18,0,0,0-1.39-4.17c-2.17-2.58-4-8.7-4.14-11.53s1.51-13.33,1.51-13.33Z"/></g><g id="ærme2_copy_7" data-name="ærme2 copy 7"><path class="cls-6" d="M83.76,88.38s-7.91,4.49-8.58,8.24a39.34,39.34,0,0,0,0,9.38h7l.13-12.1S84.06,88.38,83.76,88.38Z"/></g><g id="iphone_copy_7" data-name="iphone copy 7"><polygon points="93.06 126.47 80.96 128.7 76.57 104.88 88.67 102.64 93.06 126.47"/><path d="M92.76,125.39l-12.1,2.23,1.38.79-4.39-23.83L76.87,106,89,103.73l-1.38-.79L92,126.77c.26,1.42,2.43.82,2.17-.6l-4.39-23.83a1.15,1.15,0,0,0-1.38-.79l-12.1,2.23a1.15,1.15,0,0,0-.79,1.38L79.88,129a1.15,1.15,0,0,0,1.38.79l12.1-2.23C94.78,127.29,94.18,125.13,92.76,125.39Z"/><circle class="cls-7" cx="77.08" cy="105.46" r="0.94" transform="translate(-17.85 15.73) rotate(-10.45)"/><path class="cls-7" d="M93,127.42"/></g><g id="arme_copy_7" data-name="arme copy 7"><path class="cls-2" d="M113.07,103.7s-1.54,8.26-4.4,11-6.47,5-9.95,5.47a69.09,69.09,0,0,1-7.32.44s-3.07,1.08-4.83.37-2.95-3.31-2.95-3.31-.65-2.65.5-3.41,2.14-1.54,3.73-1.43A5.77,5.77,0,0,1,90.72,114l1,1.1s2,1.34,5.61.27,7.61-4.77,7.61-4.77a66.55,66.55,0,0,0,3.21-7.08C108.78,101.47,113.07,103.7,113.07,103.7Z"/></g><g id="hoved_copy_7" data-name="hoved copy 7"><path class="cls-2" d="M95.45,43.64s4.78-6.18,9.47,2.05-3.73,10.77-3.73,10.77.92,6.69.27,9.15a41.26,41.26,0,0,0-.87,6.48l2.14,5.9s1.56,7.32-2.7,9.72-7.27.92-7.27.92l-.55-1.51S86.66,92.73,81,91.2,70.64,87.74,66.9,83.1,55,69.09,51.44,60.27s-5.28-14.36-5.28-14.36,11.32-2.21,17.24-3.84a58.17,58.17,0,0,0,12-5.19Z"/></g><g id="ansigt_copy_7" data-name="ansigt copy 7"><path class="cls-9" d="M84.78,51.9S80.65,54,78.61,53.65a11.2,11.2,0,0,1-4.87-2.5l-1.15,3.29s4.77,1.39,6.06,1.12,6.74-2,6.74-2Z"/><path class="cls-9" d="M62.4,56.21l2.67,2.12a17.37,17.37,0,0,1-3.45,4,43.9,43.9,0,0,1-5.43,2.78l-.93-1.65s4.88-1.83,5.77-2.75C62.17,59.56,62.4,56.21,62.4,56.21Z"/><path class="cls-10" d="M84.56,77.67s-9.06-4.94-10.54,2"/><path class="cls-3" d="M62.44,62.13l.32-.07c1-.22,4.17-.81,5.09.16,1.11,1.17,2.36,2,2.6,4.72s0,3.91,1.24,4.55a4.91,4.91,0,0,0,3.74.7A27.16,27.16,0,0,0,79.15,70l-3.06,1.25s-3.45.39-3.73-.88-.77-4.23-1.07-5.24S69.22,60,67.63,59.82a4.28,4.28,0,0,1-1.93-.52l-2.19,2.23"/><path class="cls-11" d="M82.73,58.17A2.34,2.34,0,0,1,81,60.62"/><path class="cls-11" d="M83.41,59.44A2.34,2.34,0,0,1,81,61.23"/><path class="cls-11" d="M59.71,66.5a2.34,2.34,0,0,0,2.92.77"/><path class="cls-11" d="M60,67.84a2.34,2.34,0,0,0,3,0"/><path class="cls-15" d="M74.73,62.73s1.38-5.67,6.44-1.46"/><path class="cls-15" d="M62.67,69.46s-.65-5.8,5.55-3.58"/><path class="cls-16" d="M82,62.06s-.28,3.9,1.38,3.72,1.28-1.42,1.28-1.42S82.67,61.82,82,62.06Z"/><path class="cls-16" d="M85.09,63.9s-.28,3.9,1.38,3.72,1.28-1.42,1.28-1.42S85.78,63.66,85.09,63.9Z"/><path class="cls-16" d="M64.81,68.72s-2.57,2.95-1.13,3.8,1.88-.37,1.88-.37S65.49,68.93,64.81,68.72Z"/></g><path class="cls-4" d="M101.54,63.79l2-3.68s2.28,2.18,2,3.21-4.05,3.44-4.05,3.44l-.24-.3Z"/><path class="cls-9" d="M105.58,63.1S130.64,77,126,85.2c-3.69,6.53-11.16,9-11.16,9s.51-2.88-3.83-5.76l-2.24-.13-8.26-8.21-1.57-5.76,2.35-7.74S105.65,64.42,105.58,63.1Z"/><path class="cls-9" d="M80.76,14.93C83.7,14,89.19,14,89,17.08c-.47,6.59-4.08,18.57-6.32,21C79.16,42,69.45,49.51,63,51.15s-15,4.8-16.57,3.66-7-8.29-5.71-12.88,9.23-13.1,13.6-15C57.43,25.53,72.13,17.69,80.76,14.93Z"/><path class="cls-9" d="M83,16.51S108.17,30.88,108,42.38s-6.26,21.1-6.26,21.1l-.5-7s8.06-2.52,4.09-10.08c-2.16-4.11-5.83-4-8.72-3-3.2,1.06-5.64,2.85-8.53,1.11l-7.17-5.74Z"/><path class="cls-12" d="M85.84,27.13c.38.17,2.49,13.39,5.07,12.56s3.23-4.15,3.23-4.15a1.13,1.13,0,0,1,1.94-.6c1.44,1.12-.56-4.11-.56-4.11Z"/><path class="cls-12" d="M72.89,22.9s-17.3,6.9-19.4,9.2-11.35,10.56-8.07,12S65.21,41,68.12,39.56s9.39-16.07,9-17.11S72.89,22.9,72.89,22.9Z"/><path class="cls-16" d="M87.63,68s-.49,3.88,1.18,3.79,1.36-1.35,1.36-1.35S88.32,67.79,87.63,68Z"/><g id="kant_copy_7" data-name="kant copy 7"><path class="cls-6" d="M92.21,87.13a16.43,16.43,0,0,1-1.63,1.42c-.49.28-1.17,2.29,1,3.38,2.52,1.3,6,.57,8.43-.32,1.74-.63,5.67-6.21,5.58-8.69-.08-2.19-3.81-1.46-3.81-1.46a3.13,3.13,0,0,1,.13,2.32c-.44,1.26-1.55,3.9-2.4,4.39a10,10,0,0,1-4.3.67,2.24,2.24,0,0,1-1.5-.69A15.6,15.6,0,0,0,92.21,87.13Z"/></g><g id="øre_copy_7" data-name="øre copy 7"><path class="cls-3" d="M99.15,45.75a4.3,4.3,0,0,1,3.35,2.16,4.44,4.44,0,0,1,.17,3.72.81.81,0,0,1-.15.24c-.31.34-1.36,1.43-1.94.94a1.64,1.64,0,0,1-.56-1.18.78.78,0,0,1,.18-.54l.69-.84a.8.8,0,0,0,0-1c-.3-.44-.8-1-1.35-.72-.9.41-2.07.5-2.09-.45S97.9,45.44,99.15,45.75Z"/></g><g id="skygger_copy_7" data-name="skygger copy 7"><path class="cls-12" d="M106.72,77s2.91-3.15,4.2-2.94,13.15,8,11.43,9.95a8,8,0,0,1-3.79,2.42Z"/><path class="cls-13" d="M94.76,227s-2.82-2.66-4.73-.92a2.36,2.36,0,0,0-.62,3.07S92.06,228.19,94.76,227Z"/><path class="cls-13" d="M107.76,228.51s-2.82-2.66-4.73-.92a2.36,2.36,0,0,0-.62,3.07S105.06,229.68,107.76,228.51Z"/><path class="cls-3" d="M98.92,73.55l-.63,2s2,5.15,1.71,6.44a18.22,18.22,0,0,1-1.07,3.6c-.26.45-2.1,2.82-2.25,3a4.08,4.08,0,0,0,3.3-.8A10.57,10.57,0,0,0,102,83.19c.39-1.51-1.93-4.55-1.93-4.55Z"/></g><path class="cls-6" d="M111.2,88.46a5.37,5.37,0,0,1,4.51,4.89c.62,4.48,1,7.88,1,7.88l.69,3.78H104.18l-.28-11.3S103.65,87.18,111.2,88.46Z"/></symbol></defs><title>pige</title><g id="Layer_2" data-name="Layer 2"><g id="figur1"><g id="ærme"><use width="200" height="250" xlink:href="#_1"/></g></g><g id="figur2"><g id="ærme_copy" data-name="ærme copy"><use width="200" height="250" transform="translate(199.86)" xlink:href="#_2"/></g></g><g id="figur3"><g id="ærme_copy_2" data-name="ærme copy 2"><use width="200" height="250" transform="translate(399.71)" xlink:href="#_3"/></g></g><g id="figur4"><g id="ærme_copy_3" data-name="ærme copy 3"><use width="200" height="250" transform="translate(599.57)" xlink:href="#_4"/></g></g><g id="figur5"><g id="ærme_copy_4" data-name="ærme copy 4"><use width="200" height="250" transform="translate(799.43)" xlink:href="#_5"/></g></g><g id="figur6"><g id="ærme_copy_5" data-name="ærme copy 5"><use width="200" height="250" transform="translate(999.29)" xlink:href="#_6"/></g></g><g id="figur7"><g id="ærme_copy_6" data-name="ærme copy 6"><use width="200" height="250" transform="translate(1199.14)" xlink:href="#_7"/></g></g><g id="figur8"><g id="ærme_copy_7" data-name="ærme copy 7"><use width="200" height="250" transform="translate(1399)" xlink:href="#_8"/></g></g></g></svg>
