<svg xmlns="http://www.w3.org/2000/svg" width="398" height="899" viewBox="0 0 398 899">
  <metadata><?xpacket begin="﻿" id="W5M0MpCehiHzreSzNTczkc9d"?>
<x:xmpmeta xmlns:x="adobe:ns:meta/" x:xmptk="Adobe XMP Core 5.6-c138 79.159824, 2016/09/14-01:09:01        ">
   <rdf:RDF xmlns:rdf="http://www.w3.org/1999/02/22-rdf-syntax-ns#">
      <rdf:Description rdf:about=""/>
   </rdf:RDF>
</x:xmpmeta>





















<?xpacket end="w"?></metadata>
<defs>
    <style>
      .cls-1 {
        fill: #edb880;
      }

      .cls-1, .cls-10, .cls-11, .cls-12, .cls-13, .cls-14, .cls-2, .cls-3, .cls-4, .cls-5, .cls-6, .cls-7, .cls-8, .cls-9 {
        fill-rule: evenodd;
      }

      .cls-2 {
        fill: #d4a573;
      }

      .cls-3 {
        fill: #2d2d2d;
      }

      .cls-4 {
        fill: #0d3a4c;
      }

      .cls-5 {
        fill: #e8e8e8;
      }

      .cls-6 {
        fill: #1f1f1f;
      }

      .cls-7 {
        fill: #d0d0d0;
      }

      .cls-8 {
        fill: #d4ad38;
      }

      .cls-11, .cls-9 {
        fill: none;
        stroke-width: 2.5px;
      }

      .cls-9 {
        stroke: #d4a573;
      }

      .cls-10 {
        fill: #fff;
      }

      .cls-11 {
        stroke: #e8e8e8;
      }

      .cls-12 {
        fill: #484848;
      }

      .cls-13 {
        fill: #a0a0a0;
      }

      .cls-14 {
        fill: #dcdcdc;
      }
    </style>
  </defs>
  <g id="Artboard_1" data-name="Artboard 1">
    <path id="neck" class="cls-1" d="M270,540l36,22,15-24-2-35-45-11S279.442,533.261,270,540Z" transform="translate(-127 -272)"/>
    <path id="neck_shadow" class="cls-2" d="M275,494l1,22,14,13,22,3,8-6V514Z" transform="translate(-127 -272)"/>
    <g id="body">
      <g id="feet">
        <path id="left_foot" class="cls-3" d="M338,1101s-12.713,28.26,4,31c17.482,2.86,83,2,83,2s13.975-4.48,1-12-35.162-5.93-42.8-22.41C377.969,1088.29,338,1101,338,1101Z" transform="translate(-127 -272)"/>
        <path id="right_foot" class="cls-3" d="M237,1106s-14.713,31.26,2,34c17.482,2.86,85,2,85,2s13.987-4.5,1-12-35.424-5.4-43-22C276.827,1096.67,237,1106,237,1106Z" transform="translate(-127 -272)"/>
      </g>
      <g id="legs">
        <path id="right_leg" class="cls-4" d="M238,746c-3.1-4.806,5.12,82.339,2,161-3.01,75.895-5.029,199.66-3,201,4.026,2.66,45-1,45-1s14.935-332.295,2-337S238,746,238,746Z" transform="translate(-127 -272)"/>
        <path id="left_leg" class="cls-4" d="M348,750c14.824,34.2,25.308,117.484,28,128,2.737,10.691,8,221,8,221s-47.419,8.67-47,0c0.62-12.82-10.89-194.795-9-201,2.151-7.061-25-117-25-117S341.905,735.939,348,750Z" transform="translate(-127 -272)"/>
      </g>
      <g id="torso">
        <path id="lower_torso" class="cls-4" d="M256,686s-25.544,56.092-17,67a93.292,93.292,0,0,0,46,32c11.528,3.748,20-1,20-1s34.214-12.3,45-20c3.843-2.743-11.631-51.185-4-74" transform="translate(-127 -272)"/>
        <path id="upper_torso" class="cls-4" d="M353,543a163.018,163.018,0,0,0-32-8c-2.886-.436-11.267,23.264-19,23-7.656-.262-24.031-23.673-26.273-23.553-17.674.948-36,7.386-52.727,18.553-12.378,8.265,28.6,129.063,33,137s81.088,7.365,86,6C350.243,693.709,389.3,549.6,353,543Z" transform="translate(-127 -272)"/>
      </g>
      <g id="hands">
        <path id="left_hand" class="cls-1" d="M445,652l-2,24s8.173,17.508,36,9c17.915-5.478,13.891-9.092,14-14S450.387,659.46,445,652Z" transform="translate(-127 -272)"/>
        <path id="right_hand" class="cls-1" d="M237,725s5,11.442,15,6,42.74-20.165,43-24-12.261-20.435-43-5a11.954,11.954,0,0,1-7,1Z" transform="translate(-127 -272)"/>
      </g>
      <g id="arms">
        <path id="right_arm" class="cls-4" d="M226,551s-73.529,33.9-55,100,66,75,66,75l9-24s-87.538-42.785-21-117C236.664,571.99,226,551,226,551Z" transform="translate(-127 -272)"/>
        <path id="left_arm" class="cls-4" d="M360,546s-38.922,104.31,82,105c12.039,0.069,1,27,1,27s-154.424,4.036-116-117C334.642,536.926,360,546,360,546Z" transform="translate(-127 -272)"/>
      </g>
      <g id="details">
        <path id="shirt" class="cls-5" d="M276,533s18.579,11.312,20,12c1.248,0.6,7.429,3.733,11,0,5.275-5.514,9.134-5.648,13-11,1.369-1.894,8.344,10.9-8,59-0.578,1.7-42-40-42-40S269.766,537.06,276,533Z" transform="translate(-127 -272)"/>
        <path id="tie" class="cls-6" d="M302,546l-7,8.174,4,8.174L300,583l12,11-6-31.652,4-8.174Z" transform="translate(-127 -272)"/>
        <path id="nametag" class="cls-7" d="M260,589l25-3-1,11-22,3Z" transform="translate(-127 -272)"/>
        <path id="badge" class="cls-8" d="M332.087,583l17.117,2s0.35,10.6,6.041,8c2.794-1.277-3.021,17-3.021,17s-6.617,7.006-14.1,7c-6.118,0-9.6-6.311-12.083-9s-2.014-17-2.014-17S333.182,593.047,332.087,583Z" transform="translate(-127 -272)"/>
        <path id="arm_badge" class="cls-8" d="M205,591l-15-10-12,16,1,11s11.6-1.86,13-3C193.6,603.7,205,591,205,591Z" transform="translate(-127 -272)"/>
      </g>
    </g>
    <g id="head">
      <path id="head-2" data-name="head" class="cls-1" d="M256.067,428.362s0.571,43.85.933,50.638c0.417,7.813,36.121,32.807,35.314,40.132s37.142,2.373,35.978-1.279c-1.914-6,4.25-17.366,5.708-18.853s18.794-24.254,11-55a119.146,119.146,0,0,1-3.52-33.683c0.253-5.416-1.06-50.694-13.768-49.542S272.9,354.156,268.14,373.9,255.824,408.044,256.067,428.362Z" transform="translate(-127 -272)"/>
      <g id="face">
        <path id="nose" class="cls-9" d="M321.812,420.022s-4.224,15.3.782,21.986C323.322,442.98,334.785,461.171,336,468c2.974,16.72-13.678,2.387-20,0-4.293-1.62-9.585-6-16-4" transform="translate(-127 -272)"/>
        <path id="mouth" class="cls-10" d="M326,490s-35.12-11.451-36.24-19.652c-0.3-2.214-5.325,9.841-12.262,7.433-0.76-.264,2.452,12.387,2.452,12.387s33.9,1.2,44.05,5.832C326.265,497.034,329.547,492.108,326,490Z" transform="translate(-127 -272)"/>
        <path id="teeth" class="cls-11" d="M279,482s2.714-3.644,13,1c6.153,2.778,8,2,8,2" transform="translate(-127 -272)"/>
        <g id="eyes">
          <path id="right_eye" class="cls-10" d="M305,423c0.618,1-1.578,13.822-11,11-13.587-4.07-15-19-15-19S299.186,413.634,305,423Z" transform="translate(-127 -272)"/>
          <circle id="pupil" cx="167.5" cy="148.5" r="5.5"/>
          <path id="left_eye" class="cls-10" d="M334,408s4.654,14.588-12,23c-2.776,1.4-2.524-12.085-2-13C322.652,413.369,334.223,409.19,334,408Z" transform="translate(-127 -272)"/>
          <circle id="pupil-2" data-name="pupil" cx="199.5" cy="145.5" r="5.5"/>
        </g>
        <g id="eyebrows">
          <path id="eyebrow_left" class="cls-12" d="M317,423s-0.807-2.584,2-7c4.114-6.472,12.68-17.751,17.985-19.532,5.853-1.965,5.352,9.816,5.352,9.816S326.526,412.783,317,423Z" transform="translate(-127 -272)"/>
          <path id="eyebrow_right" class="cls-12" d="M306,420c-6.29-.878-15.6-19.023-33.761-15.227-9.529,1.991-4.925,2.176-4.925,2.176S264.973,416.663,271,416s13.246-1.51,21,2,7.805,4.184,13,6c0.578,0.2,7.381,1.383,6,1C308.731,424.372,306.178,420.025,306,420Z" transform="translate(-127 -272)"/>
        </g>
      </g>
      <path id="hair" class="cls-13" d="M261.348,436.179L250,429s-13.438-22.218-10.522-45.077c0.167-1.31,15.81-4.3,15.351-18.557-0.221-6.867,42.866-4.525,42.866-4.525l29.017-.031,15.382,10.46S356.79,396.645,341,414c-1.115,1.225-10.579-33.309-10.579-33.309l-44.972,1.6-15.1-2.465S256.556,420.141,261.348,436.179Z" transform="translate(-127 -272)"/>
      <path id="ear" class="cls-1" d="M260,433s-5.555-10.854-13-9c-7.949,1.979-7.811,23.938-7,27,1.527,5.767,10.625,13.078,16,12S260,433,260,433Z" transform="translate(-127 -272)"/>
    </g>
    <g id="hat">
      <path id="hat-2" data-name="hat" class="cls-4" d="M242.084,381.986l-0.715-9.422s-22.12-.22-26.553-21.675c-0.914-4.423,51.14-9.035,55.379-36.179,0.348-2.226,46.532,13.377,68.888-30.1,1.315-2.557,17.083,31.8,28.268,28.651,5.813-1.634-9.854,36.12-19.64,38.207-1.706.364,0.339,20.11,0.339,20.11S377.883,381.6,351,388c-28.272,6.732-61.771,15.18-93.495-6C255.019,380.341,242.084,381.986,242.084,381.986Z" transform="translate(-127 -272)"/>
      <path id="line" class="cls-8" d="M265.493,377.842l-0.268-3.533,82.557-6.26,0.268,3.533Z" transform="translate(-127 -272)"/>
      <path id="badge-2" data-name="badge" class="cls-8" d="M322.73,342.706a11.22,11.22,0,1,1-10.356,12.038A11.228,11.228,0,0,1,322.73,342.706Z" transform="translate(-127 -272)"/>
      <path id="shine_small" class="cls-14" d="M316.206,374l3.538-.268L337.6,390.141l-2.359.179Z" transform="translate(-127 -272)"/>
      <path id="shine_large" class="cls-14" d="M324.462,373.37l5.9-.447L349.3,388.069l-6.987,1.714Z" transform="translate(-127 -272)"/>
    </g>
  </g>
</svg>
