<svg xmlns="http://www.w3.org/2000/svg" width="398" height="899" viewBox="0 0 398 899">
  <metadata><?xpacket begin="﻿" id="W5M0MpCehiHzreSzNTczkc9d"?>
<x:xmpmeta xmlns:x="adobe:ns:meta/" x:xmptk="Adobe XMP Core 5.6-c138 79.159824, 2016/09/14-01:09:01        ">
   <rdf:RDF xmlns:rdf="http://www.w3.org/1999/02/22-rdf-syntax-ns#">
      <rdf:Description rdf:about=""/>
   </rdf:RDF>
</x:xmpmeta>





















<?xpacket end="w"?></metadata>
<defs>
    <style>
      .cls-1 {
        fill: #fff2cb;
        stroke: #fff2cb;
      }

      .cls-1, .cls-13, .cls-14, .cls-15, .cls-16 {
        stroke-width: 2.5px;
      }

      .cls-1, .cls-10, .cls-11, .cls-12, .cls-13, .cls-15, .cls-16, .cls-17, .cls-19, .cls-2, .cls-3, .cls-4, .cls-5, .cls-6, .cls-7, .cls-8, .cls-9 {
        fill-rule: evenodd;
      }

      .cls-10, .cls-2 {
        fill: #feba7e;
      }

      .cls-3 {
        fill: #d4a573;
      }

      .cls-4 {
        fill: #2d2d2d;
      }

      .cls-5 {
        fill: #0d3a4c;
      }

      .cls-6 {
        fill: #e8e8e8;
      }

      .cls-7 {
        fill: #1f1f1f;
      }

      .cls-8 {
        fill: #d0d0d0;
      }

      .cls-18, .cls-9 {
        fill: #d4ad38;
      }

      .cls-10 {
        stroke: #feba7e;
        stroke-width: 8.92px;
      }

      .cls-11, .cls-13 {
        fill: #fff;
      }

      .cls-11 {
        stroke: #e4a772;
      }

      .cls-11, .cls-12 {
        stroke-width: 2px;
      }

      .cls-12 {
        fill: none;
        stroke: #d49c6a;
      }

      .cls-13 {
        stroke: #fff;
      }

      .cls-14, .cls-16 {
        fill: #0a0a0a;
        stroke: #0a0a0a;
      }

      .cls-15 {
        fill: #daa06d;
        stroke: #daa06d;
      }

      .cls-17 {
        fill: #a4997a;
      }

      .cls-19 {
        fill: #dcdcdc;
      }
    </style>
  </defs>
  <g id="Artboard_1" data-name="Artboard 1">
    <path id="hair" class="cls-1" d="M263,414s-37.189-2.421,13-31c42.481-24.19,68.6-13.845,87,64,2.49,10.532,18.682,8.105,12.244,63.669-3.233,27.894,29.412,14.609-1.936,75.528S240,578,240,578s-46.417-10.406-17.929-54.873C235.285,502.5,220.265,528.965,232,458,232.807,453.12,235.064,400.5,263,414Z" transform="translate(-127 -272)"/>
    <path id="neck" class="cls-2" d="M270,540l36,22,15-24-2-35-45-11S279.442,533.261,270,540Z" transform="translate(-127 -272)"/>
    <path id="neck_shadow" class="cls-3" d="M275,494l1,22s6.031,5.9,10.829,10.152c14.422,12.77,23.611,7.6,28.171,4.848-0.862.521,6-6,6-6l-1-11Z" transform="translate(-127 -272)"/>
    <g id="body">
      <g id="feet">
        <path id="left_foot" class="cls-4" d="M338,1101s-12.713,28.26,4,31c17.482,2.86,83,2,83,2s13.975-4.48,1-12-35.162-5.93-42.8-22.41C377.969,1088.29,338,1101,338,1101Z" transform="translate(-127 -272)"/>
        <path id="right_foot" class="cls-4" d="M237,1106s-14.713,31.26,2,34c17.482,2.86,85,2,85,2s13.987-4.5,1-12-35.424-5.4-43-22C276.827,1096.67,237,1106,237,1106Z" transform="translate(-127 -272)"/>
      </g>
      <g id="legs">
        <path id="right_leg" class="cls-5" d="M238,746c-3.1-4.806,5.12,82.339,2,161-3.01,75.895-5.029,199.66-3,201,4.026,2.66,45-1,45-1s14.935-332.295,2-337S238,746,238,746Z" transform="translate(-127 -272)"/>
        <path id="left_leg" class="cls-5" d="M348,750c14.824,34.2,25.308,117.484,28,128,2.737,10.691,8,221,8,221s-47.419,8.67-47,0c0.62-12.82-10.89-194.795-9-201,2.151-7.061-25-117-25-117S341.905,735.939,348,750Z" transform="translate(-127 -272)"/>
      </g>
      <g id="torso">
        <path id="lower_torso" class="cls-5" d="M256,686s-25.544,56.092-17,67c15.831,20.21,33.622,30.248,46,32,7.475,1.058,20-1,20-1s34.214-12.3,45-20c3.843-2.743-11.631-51.185-4-74" transform="translate(-127 -272)"/>
        <path id="upper_torso" class="cls-5" d="M353,543a163.018,163.018,0,0,0-32-8c-2.886-.436-11.267,23.264-19,23-7.656-.262-24.031-23.673-26.273-23.553-17.674.948-36,7.386-52.727,18.553-12.378,8.265,28.6,129.063,33,137s81.088,7.365,86,6C350.243,693.709,389.3,549.6,353,543Z" transform="translate(-127 -272)"/>
      </g>
      <g id="hands">
        <path id="left_hand" class="cls-2" d="M445,652l-2,24s8.173,17.508,36,9c17.915-5.478,13.891-9.092,14-14S450.387,659.46,445,652Z" transform="translate(-127 -272)"/>
        <path id="right_hand" class="cls-2" d="M237,725s5,11.442,15,6,42.74-20.165,43-24-12.261-20.435-43-5a11.954,11.954,0,0,1-7,1Z" transform="translate(-127 -272)"/>
      </g>
      <g id="arms">
        <path id="right_arm" class="cls-5" d="M226,551s-73.529,33.9-55,100,66,75,66,75l9-24s-87.538-42.785-21-117C236.664,571.99,226,551,226,551Z" transform="translate(-127 -272)"/>
        <path id="left_arm" class="cls-5" d="M360,546s-38.922,104.31,82,105c12.039,0.069,1,27,1,27s-154.424,4.036-116-117C334.642,536.926,360,546,360,546Z" transform="translate(-127 -272)"/>
      </g>
      <g id="details">
        <path id="shirt" class="cls-6" d="M276,533s18.579,11.312,20,12c1.248,0.6,7.429,3.733,11,0,5.275-5.514,9.134-5.648,13-11,1.369-1.894,8.344,10.9-8,59-0.578,1.7-42-40-42-40S269.766,537.06,276,533Z" transform="translate(-127 -272)"/>
        <path id="tie" class="cls-7" d="M302,546l-7,8.174,4,8.174L300,583l12,11-6-31.652,4-8.174Z" transform="translate(-127 -272)"/>
        <path id="nametag" class="cls-8" d="M260,589l25-3-1,11-22,3Z" transform="translate(-127 -272)"/>
        <path id="badge" class="cls-9" d="M332.087,583l17.117,2s0.35,10.6,6.041,8c2.794-1.277-3.021,17-3.021,17s-6.617,7.006-14.1,7c-6.118,0-9.6-6.311-12.083-9s-2.014-17-2.014-17S333.182,593.047,332.087,583Z" transform="translate(-127 -272)"/>
        <path id="arm_badge" class="cls-9" d="M205,591l-15-10-12,16,1,11s11.6-1.86,13-3C193.6,603.7,205,591,205,591Z" transform="translate(-127 -272)"/>
      </g>
    </g>
    <g id="head">
      <g id="skin">
        <path id="face" class="cls-10" d="M259,483s9.455,18.859,25,31c22.432,17.52,54.7,23.906,65.594-36.582,14.475-80.342-35.2-94.385-35.477-93.3S219.732,384.453,259,483Z" transform="translate(-127 -272)"/>
        <path id="mouth" class="cls-11" d="M333.008,484.976s-9.383,9.469-31.853-.255c-5.819-2.519,1.785,14.486,4.65,18.945C315.931,519.425,332.852,508.369,333.008,484.976Z" transform="translate(-127 -272)"/>
        <path id="mouth_end" class="cls-12" d="M303,482.332c0.289,1.006-6.3,1.427-4.758,5.972" transform="translate(-127 -272)"/>
        <path id="nose" class="cls-12" d="M321,437s0.491,24.743,7,31c9.215,8.857-9.116,11.242-15,9" transform="translate(-127 -272)"/>
      </g>
      <path id="ear" class="cls-2" d="M258,458s-4.329-10.956-10-9-6,12-6,12-1.818,7.98,6,14c4.813,3.706,8.113,4.5,12,4C263.559,478.546,258,458,258,458Z" transform="translate(-127 -272)"/>
      <g id="hair-2" data-name="hair">
        <g id="bangs">
          <path id="bangs-2" data-name="bangs" class="cls-1" d="M348,405l-5.731-17.794-14.5-8.629L310.914,376.4,282.3,379.3,253,412s-31.208,30.613-7,43c23.227,11.885,24.715-14.663,33-33,8.415-18.625,19-18,19-18s32.329-6.9,41,13c5.326,12.221,9.9,6.509,18,17C363.886,442.913,348,405,348,405Z" transform="translate(-127 -272)"/>
        </g>
      </g>
      <g id="eyes">
        <path id="eye_right" class="cls-13" d="M298.56,442.9A8.661,8.661,0,0,1,306,453c-0.672,5.014-5.966,6.67-11,6a7.475,7.475,0,0,1-6.772-8.236C288.532,445.714,293.526,442.228,298.56,442.9Z" transform="translate(-127 -272)"/>
        <path id="eye_left" class="cls-13" d="M334.2,438.085a8.592,8.592,0,0,1,7.722,9.538,8.91,8.91,0,0,1-10.1,7.289,8.593,8.593,0,0,1-7.722-9.538A8.91,8.91,0,0,1,334.2,438.085Z" transform="translate(-127 -272)"/>
        <circle id="pupil_left" class="cls-14" cx="209.031" cy="175.125" r="6.031"/>
        <path id="eyelit_left" class="cls-15" d="M322.989,448.977s3.98-8.766,18.73-6.347c0.852,0.139-.238-3.241-3-4.741-3.622-1.971-10.921-.416-13.789,2.71C323.023,442.684,323.112,448.942,322.989,448.977Z" transform="translate(-127 -272)"/>
        <path id="pupil_right" class="cls-16" d="M298.961,445.221a6.727,6.727,0,0,0-4.861,7.422,5.353,5.353,0,0,0,6.946,4.11,6.727,6.727,0,0,0,4.861-7.422A5.353,5.353,0,0,0,298.961,445.221Z" transform="translate(-127 -272)"/>
        <path id="eyelit_right" class="cls-15" d="M306.978,449.119s-8.167-7.237-18.971,1.5c-2.628,2.127.675-5.6,1.167-5.977s4.876-4.267,12.919-1.882C305.225,443.693,306.978,449.119,306.978,449.119Z" transform="translate(-127 -272)"/>
      </g>
      <g id="eyebrows">
        <path id="eyebrow_left" class="cls-17" d="M319,433s-1.166,5.676,1,7,3.773-9.7,23-7c9.728,1.367-4-4-4-4S328.146,428.027,319,433Z" transform="translate(-127 -272)"/>
        <path id="eyebrow_right" class="cls-17" d="M310,436s0.939,3.024-1,4-13.84-4.525-26,2c-13.03,6.992,5-7,5-7S301.67,430.779,310,436Z" transform="translate(-127 -272)"/>
      </g>
    </g>
    <g id="hat">
      <path id="hat-2" data-name="hat" class="cls-5" d="M241.027,419.335l-1.97-10.026s-23.739,2.585-31.232-19.888c-1.545-4.633,53.662-16.225,54.737-45.913,0.089-2.435,51.587,8.428,70-41.1,1.083-2.913,22.374,31.965,33.962,27.161,6.022-2.5-5.948,40.043-16.17,43.532-1.782.608,2.932,21.55,2.932,21.55s33.258,6.951,5.261,17.254c-29.444,10.836-64.272,24.179-100.984,5.484C254.682,415.919,241.027,419.335,241.027,419.335Z" transform="translate(-127 -272)"/>
      <path id="line" class="cls-9" d="M266.588,411.852l-0.739-3.759,87.693-17.253,0.738,3.759Z" transform="translate(-127 -272)"/>
      <circle id="badge-2" data-name="badge" class="cls-18" cx="198.781" cy="106.719" r="12.125"/>
      <path id="shine_small" class="cls-19" d="M320.456,401.254l3.758-.739,21.232,15.347-2.506.493Z" transform="translate(-127 -272)"/>
      <path id="shine_large" class="cls-19" d="M329.225,399.529l6.264-1.233,22.238,13.848-7.27,2.732Z" transform="translate(-127 -272)"/>
    </g>
  </g>
</svg>
