<?xml version="1.0" encoding="utf-8"?>
<!-- Generator: Adobe Illustrator 22.0.0, SVG Export Plug-In . SVG Version: 6.00 Build 0)  -->
<svg version="1.1" xmlns="http://www.w3.org/2000/svg" xmlns:xlink="http://www.w3.org/1999/xlink" x="0px" y="0px"
	 viewBox="0 0 200 200" style="enable-background:new 0 0 200 200;" xml:space="preserve">
<style type="text/css">
	.st0{fill:#FFD7BA;}
	.st1{fill:#FFD7B9;}
	.st2{fill:none;}
</style>
<symbol  id="fingerspids2" viewBox="-100 -100 200 200">
	<ellipse class="st0" cx="-55.7" cy="-42.2" rx="5.1" ry="5.7"/>
	<ellipse class="st0" cx="-55.7" cy="-26.6" rx="5.1" ry="5.7"/>
	<ellipse class="st0" cx="-55.7" cy="-10.4" rx="5.1" ry="5.7"/>
	<path class="st1" d="M10.1-0.4c0,0,0.6-4,0-5.7S5.1-28,5.1-28L1.6-44l-0.9-3.7c0,0-8.4-1.6-9.7,6.5c-1.2,7.3,0.6,10.7,1,11.3
		c0,0.1,0.1,0.2,0.1,0.2L-5-18.3L10.1-0.4z"/>
	<polygon id="baggrund_2_" class="st2" points="-100,100 100,100 100,-100 -100,-100 	"/>
</symbol>
<g id="Layer_1">
</g>
<g id="Isolation_Mode">

		<use xlink:href="#fingerspids2"  width="200" height="200" x="-100" y="-100" transform="matrix(1 1.877322e-03 -1.877322e-03 1 100 100)" style="overflow:visible;"/>
</g>
</svg>
