<svg id="Stjärnor" xmlns="http://www.w3.org/2000/svg" viewBox="0 0 1600 900"><defs><style>.cls-1{fill:none;}.cls-2{fill:#daff00;stroke:#daff00;stroke-miterlimit:10;opacity:0.19;}</style></defs><title>stars_earth</title><rect class="cls-1" x="-0.5" y="0.5" width="1600" height="900"/><path class="cls-2" d="M103.88,827l-2.38,2.49-.07.37,1.07,3.63h4l.24,0,.76-5,.46.14Z"/><path class="cls-2" d="M1229.3,45.46c-.33,1.1-.67,2.2-1,3.29l.1.36,2.58,2.78,3.58-1.79.23-.07c-.52-1.62-1-3.24-1.57-4.85l.48-.08Z"/><path class="cls-2" d="M52.72,516.43l-1,3.29.1.36,2.58,2.77L58,521.06h0l.23-.07-1.57-4.85.47-.08Z"/><path class="cls-2" d="M1513.7,422.11l-1,3.29.1.36,2.58,2.77,3.58-1.79h0l.23-.07-1.57-4.85.48-.08Z"/><path class="cls-2" d="M362.64,67.3l-1,3.29.1.36,2.58,2.77,3.58-1.79.23-.07q-.78-2.42-1.57-4.85l.48-.08Z"/><path class="cls-2" d="M105.34,663.88l-1,3.29.1.36L107,670.3l3.58-1.79h0l.23-.07-1.57-4.85.47-.08Z"/><path class="cls-2" d="M232.32,591.56l-1,3.29.1.36L234,598l3.58-1.79h0l.23-.07-1.57-4.85.47-.08Z"/><path class="cls-2" d="M46.26,317.75l-1,3.29.1.36,2.58,2.77,3.58-1.79.23-.07c-.52-1.61-1-3.23-1.57-4.85l.48-.08Z"/><path class="cls-2" d="M83.3,161.46c-.33,1.1-.67,2.2-1,3.29l.1.36L85,167.89l3.58-1.79.23-.07c-.52-1.62-1-3.24-1.57-4.85l.48-.08Z"/><path class="cls-2" d="M1432.34,605.88l-1,3.29.1.36,2.58,2.77,3.58-1.79h0l.23-.07-1.57-4.85.47-.08Z"/><path class="cls-2" d="M114.32,63.56l-1,3.29.1.36L116,70l3.58-1.79h0l.23-.07-1.57-4.85.47-.08Z"/><path class="cls-2" d="M1468.59,221l2.38,2.49.07.37L1470,227.5h-4l-.24,0-.76-5-.46.14Z"/><path class="cls-2" d="M243.16,301.46l1,3.29-.1.36-2.58,2.78-3.58-1.79-.23-.07c.52-1.62,1.05-3.24,1.57-4.85l-.48-.08Z"/><path class="cls-2" d="M395.75,518.43l1,3.29-.1.36-2.58,2.77-3.58-1.79h0l-.23-.07,1.57-4.85-.48-.08Z"/><path class="cls-2" d="M395.77,688.11l1,3.29-.1.36-2.58,2.77-3.58-1.79h0l-.23-.07,1.57-4.85-.48-.08Z"/><path class="cls-2" d="M886.83,827.3l1,3.29-.1.36-2.59,2.77-3.57-1.79-.23-.07q.78-2.42,1.57-4.85l-.48-.08Z"/><path class="cls-2" d="M233.13,782.88l1,3.29-.1.36-2.58,2.77-3.58-1.79h0l-.23-.07,1.57-4.85-.48-.08Z"/><path class="cls-2" d="M1345.15,381.56l1,3.29-.1.36-2.58,2.77-3.58-1.79h0l-.23-.07,1.57-4.85-.48-.08Z"/><path class="cls-2" d="M376.21,219.75l1,3.29-.1.36c-.86.92-1.72,1.85-2.59,2.77L371,224.38l-.23-.07q.78-2.42,1.57-4.85l-.48-.08Z"/><path class="cls-2" d="M1345.16,135.46l1,3.29-.1.36-2.58,2.78-3.58-1.79-.23-.07c.52-1.62,1-3.24,1.57-4.85l-.48-.08Z"/><path class="cls-2" d="M1466.77,824.11l1,3.29-.1.36-2.58,2.77-3.58-1.79h0l-.23-.07,1.57-4.85-.48-.08Z"/><path class="cls-2" d="M1521.13,59.88l1,3.29-.1.36-2.58,2.77-3.58-1.79h0l-.23-.07,1.57-4.85-.48-.08Z"/><path class="cls-2" d="M240.15,145.56l1,3.29-.1.36L238.48,152l-3.58-1.79h0l-.23-.07,1.57-4.85-.48-.08Z"/><path class="cls-2" d="M233.16,446.46l1,3.29-.1.36-2.58,2.78-3.58-1.79-.23-.07c.52-1.62,1.05-3.24,1.57-4.85l-.48-.08Z"/><path class="cls-2" d="M1096.16,789.46l1,3.29-.1.36-2.58,2.78-3.58-1.79-.23-.07c.52-1.62,1-3.24,1.57-4.85l-.48-.08Z"/><path class="cls-2" d="M716.7,450.11l-1,3.29.1.36,2.58,2.77,3.58-1.79h0l.23-.07-1.57-4.85.48-.08Z"/><path class="cls-2" d="M328.34,855.88l-1,3.29.1.36L330,862.3l3.58-1.79h0l.23-.07-1.57-4.85.47-.08Z"/><path class="cls-2" d="M452.15,343.56l1,3.29-.1.36L450.48,350l-3.58-1.79h0l-.23-.07,1.57-4.85-.48-.08Z"/><path class="cls-2" d="M669.77,852.11l1,3.29-.1.36-2.58,2.77-3.58-1.79h0l-.23-.07,1.57-4.85-.48-.08Z"/><path class="cls-2" d="M888.7,38.11l-1,3.29.1.36,2.58,2.77L894,42.74h0l.23-.07-1.57-4.85.48-.08Z"/><path class="cls-2" d="M885.34,273.88l-1,3.29.1.36L887,280.3l3.58-1.79h0l.23-.07-1.57-4.85.47-.08Z"/><path class="cls-2" d="M611.83,45.3l1,3.29-.1.36-2.59,2.77-3.57-1.79-.23-.07q.78-2.41,1.57-4.85l-.48-.08Z"/><path class="cls-2" d="M536.15,623.56l1,3.29-.1.36L534.48,630l-3.58-1.79h0l-.23-.07,1.57-4.85-.48-.08Z"/><path class="cls-2" d="M512.77,786.11l1,3.29-.1.36-2.58,2.77-3.58-1.79h0l-.23-.07,1.57-4.85-.48-.08Z"/><path class="cls-2" d="M1232.7,225.11l-1,3.29.1.36,2.58,2.77,3.58-1.79h0l.23-.07-1.57-4.85.48-.08Z"/><path class="cls-2" d="M1151.34,408.88l-1,3.29.1.36,2.58,2.77,3.58-1.79h0l.23-.07-1.57-4.85.47-.08Z"/><path class="cls-2" d="M1264.83,779.3l1,3.29-.1.36-2.59,2.77-3.57-1.79-.23-.07q.78-2.42,1.57-4.85l-.48-.08Z"/><path class="cls-2" d="M1185.77,627.11l1,3.29-.1.36-2.58,2.77-3.58-1.79h0l-.23-.07,1.57-4.85-.48-.08Z"/></svg>
