<svg xmlns="http://www.w3.org/2000/svg" width="200" height="200" viewBox="0 0 200 200"><defs><style>.cls-1{fill:#daff00;opacity:0.69;isolation:isolate;}.cls-2{fill:#fff;}.cls-3{fill:none;}</style></defs><title>star</title><g id="earth_08" data-name="earth 08"><path class="cls-1" d="M52.38,82.68H94l-11.2-29c2.94,2.57,6.43,5.14,10.28,7.89a110.24,110.24,0,0,0,13.4,7.35L122.67,33.5a49.92,49.92,0,0,1,2.57,17.06c0,12.3-5.69,20.19-4.23,21.47s7.16-3.48,26.8-27.52c-3.49,9.17-7.71,18.35-12.3,28.81q-3.66,7.71-7.15,14.86l33.94,9.91a82.34,82.34,0,0,1-16.14,4.59,73.08,73.08,0,0,1-19.82,0c1.28,2.57,2.93,6.42,4.77,11.2,3.12,8.44,7.52,20,5.69,21.47s-7.16-3.12-26.06-26.8a137.53,137.53,0,0,0-18.35,36.71c-1.1,2.75-2.2,6.6-2.76,6.42a263.34,263.34,0,0,1,5.88-42.39c-24,7.89-36.71,10.82-36.71,9.17S65,113,78.26,106.17l10.82-6.79h0Z"/><path class="cls-2" d="M12.62,44.83,83.81,73.38,82.08,11.74a178.37,178.37,0,0,0,13.1,21.62A183.76,183.76,0,0,0,113.72,55.5L163.17,0a100.1,100.1,0,0,1-5.94,32.82C148.83,55.5,135,67.24,137,70.45s14.34-1.87,63-33.89Q182.2,59,161.44,82.19c-7.17,8-14.34,15.74-21.26,23l52.65,40.56a126.53,126.53,0,0,1-30.65-1.87,117.3,117.3,0,0,1-34.61-12,152.83,152.83,0,0,0,1.48,24c0,17.87,0,42.42-3,44s-10.63-10.4-29.17-67A281.92,281.92,0,0,0,42,188.39c-3.46,4.8-7.66,11.21-8.65,10.67a573,573,0,0,1,35.85-75.51c-46.48,0-69.72-3.2-69.22-6.67s14.09-6.14,41.28-10.14L64,100.87h0Z"/><rect class="cls-3" width="200" height="200"/></g></svg>
