<?xml version="1.0" encoding="utf-8"?>
<!-- Generator: Adobe Illustrator 22.0.0, SVG Export Plug-In . SVG Version: 6.00 Build 0)  -->
<svg version="1.1" xmlns="http://www.w3.org/2000/svg" xmlns:xlink="http://www.w3.org/1999/xlink" x="0px" y="0px"
	 viewBox="0 0 200 200" style="enable-background:new 0 0 200 200;" xml:space="preserve">
<style type="text/css">
	.st0{fill:#FFD7BA;}
	.st1{fill:#FFD7B9;}
	.st2{fill:none;}
</style>
<symbol  id="hand2-2-3" viewBox="-100 -100 200 200">
	<path class="st0" d="M-29.1,27L-29.1,27c0.4-0.1,0.8,0.4,1.1,0.8c0.3,0.4,0.2,0.9-0.2,1.2L-63,58l0,0c-1.8,1.4-2.1,4-0.6,5.8
		l0.7,0.9c1.4,1.8,4,2,5.8,0.6l16.2-13.2l21-17.1c0.7-0.6,13.4-14.2,13.4-14.2L10.2,1.3c0.3-0.3,0.6-0.6,1-0.8l0.8-0.4L12.1,0
		c1.6-0.9,2.1-3,1.1-4.5L0-26.4c-0.1-0.1-0.1-0.2-0.2-0.3c-1.1-1.5-3.2-1.7-4.7-0.7l-7.5,5.7c-0.9,0.7-2,0.8-3.1,0.5
		c-6.4-2-16.4,5.4-16.4,5.4c-1.9,0.9-14.6,13.5-15.9,14.9L-48-0.7l-6.5,5.3C-56.3,6.1-29.2,27-29.1,27z"/>
	<path class="st1" d="M2.8-1.2L-9.5-21.6c-1.4-1.1-0.6-1.8,1.4-3.2l77.8-56.5l0.1-0.1c2.1-1.4,4.9-0.7,6.3,1.4l16.2,25
		c0,0.1,0.1,0.1,0.1,0.2c0,0,0,0,0,0c1.2,2.2,0.4,5-1.8,6.2L9.6,1.6C7.5,2.8,4.1,0.9,2.8-1.2z"/>
	<rect id="baggrund-2-3_3_" x="-100" y="-100" class="st2" width="200" height="200"/>
</symbol>
<g id="Layer_1">
</g>
<g id="Isolation_Mode">

		<use xlink:href="#hand2-2-3"  width="200" height="200" id="XMLID_1_" x="-100" y="-100" transform="matrix(1 0 0 -1 100 100)" style="overflow:visible;"/>
</g>
</svg>
