<?xml version="1.0" encoding="utf-8"?>
<!-- Generator: Adobe Illustrator 22.0.0, SVG Export Plug-In . SVG Version: 6.00 Build 0)  -->
<svg version="1.1" id="Layer_1" xmlns="http://www.w3.org/2000/svg" xmlns:xlink="http://www.w3.org/1999/xlink" x="0px" y="0px"
	 viewBox="0 0 127 127" style="enable-background:new 0 0 127 127;" xml:space="preserve">
<style type="text/css">
	.st0{fill:#FFD7BA;}
	.st1{fill:none;}
	.st2{fill:#FFD7B9;}
</style>
<symbol  id="hand2-2-3" viewBox="-100 -100 200 200">
	<path class="st0" d="M-26.7,34C-26.6,34-26.8,34-26.7,34c0,0,23.3-15.1,24.6-16.7c0,0,11.2-14.3,12.1-15l7.2-6.1
		c1.3-1.2,1.6-3.3,0.4-4.7c-0.1-0.1-0.2-0.1-0.2-0.3L-1.1-26.5c-1.2-1.3-6.9,3.2-7.2,3.4l-21.8,10.3c0,0-16.1,9.4-16.8,9.9
		l-21.3,16.7l-16.4,12.9c-1.8,1.4-2.1,4-0.7,5.8l0.7,0.9c1.4,1.9,4,2.1,5.8,0.7l0,0l36-27.6c0.4-0.3,0.9-0.3,1.2,0.1
		c0.3,0.4,0.7,0.9,0.5,1.2l0,0C-41.2,7.9-28.9,34.4-26.7,34z"/>
	<rect id="baggrund-2-3_2_" x="-100" y="-100" class="st1" width="200" height="200"/>
	<ellipse class="st0" cx="-33.9" cy="19.8" rx="6.3" ry="5.5"/>
	<circle class="st0" cx="-40.2" cy="10.1" r="6"/>
	<circle class="st0" cx="-27.6" cy="28.8" r="5.5"/>
	<g id="Isolation_Mode_2_">
		<path class="st2" d="M-11-20.7c0,0-2.7-1.2-4.1-1.1c-1.4,0.1-16.6,0-16.6,0l-12.1-0.1l-2.8,0c0,0-3,6.7,2.4,9.4
			c4.9,2.4,7.7,1.5,8.2,1.3c0.1,0,0.1,0,0.2,0l8.7-0.3L-11-20.7z"/>
	</g>
</symbol>
<g id="Layer_1_1_">
</g>
<g id="Isolation_Mode">

		<use xlink:href="#hand2-2-3"  width="200" height="200" id="XMLID_1_" x="-100" y="-100" transform="matrix(0.635 0 0 -0.635 63.5 63.5)" style="overflow:visible;"/>
</g>
</svg>
